<svg xmlns="http://www.w3.org/2000/svg" height="1024" preserveAspectRatio="none" style="display: block;" version="1.1" viewBox="0 0 2048 2048" width="1024">
<path d="M 0 0 L 2048 0 L 2048 2048 L 0 2048 L 0 0 z" fill="rgb(255,255,255)" transform="translate(0,0)"></path>
<path d="M 726.636 412.419 C 737.181 411.192 758.381 411.758 769.138 412.295 C 840.538 415.625 909.653 438.494 968.948 478.408 C 1064.34 542.676 1128.53 632.114 1150.62 745.951 C 1170.46 848.195 1155.78 959.095 1096.74 1046.46 C 1120.87 1038.88 1148.54 1032.54 1170.31 1049.51 C 1207.43 1078.45 1186.85 1128.07 1163.98 1157.7 C 1179.09 1170.56 1197.5 1192.78 1213.01 1207.41 C 1278.22 1268.92 1345.64 1336.76 1421.7 1384.53 C 1447.88 1401.16 1475.04 1416.21 1503.02 1429.58 C 1561.23 1458.06 1616.74 1475.47 1653.81 1534.52 C 1673.56 1565.97 1680.82 1609.3 1671.83 1645.48 C 1664.18 1675.63 1644.87 1701.5 1618.13 1717.4 C 1585.65 1737.01 1546.66 1742.78 1509.89 1733.41 C 1460.44 1720.81 1425.1 1680.83 1400.12 1638.51 C 1392.61 1627.82 1376.89 1595.16 1369.87 1581.91 C 1348.9 1541.9 1327.12 1503.66 1299.99 1467.39 C 1255.13 1407.42 1199.88 1355.49 1147.59 1302.1 C 1126.88 1280.94 1104.61 1260.45 1084.98 1238.45 C 1058.99 1254.96 1029.02 1273.82 997.508 1259.91 C 983.135 1253.48 972.029 1241.43 966.783 1226.58 C 957.848 1201.98 966.784 1185.86 976.768 1164.49 C 961.782 1169.76 947.164 1178.53 932.393 1185.08 C 891.584 1203.18 844.487 1216.28 799.928 1220.04 C 695.601 1228.83 578.574 1193.28 498.682 1125.22 C 413.313 1051.97 360.364 947.929 351.378 835.795 C 343.008 733.214 375.707 631.507 442.288 553.024 C 516.675 467.06 614.059 420.419 726.636 412.419 z" fill="rgb(108,86,129)" transform="translate(0,0)"></path>
<path d="M 767.17 430.365 C 774.824 430.617 782.468 431.114 790.09 431.855 C 863.09 439.296 941.65 474.789 996.568 522.6 C 1012.06 536.089 1024.28 545.067 1037.73 561.559 C 1037.21 564.39 1036.58 567.199 1035.85 569.982 C 1029.21 594.497 1008.06 635.383 995.555 658.306 C 904.24 825.647 762.352 958.762 598.42 1053.44 C 564.186 1071.92 541.379 1082.04 505.527 1096.57 C 504.619 1095.87 503.714 1095.17 502.814 1094.46 C 475.155 1072.73 457.889 1048.47 439.3 1019.8 C 399.037 957.71 380.401 902.298 371.749 829.537 C 424.475 812.42 475.856 780.091 519.993 746.476 C 605.818 681.109 687.591 600.334 739.16 504.544 C 751.36 481.88 763.286 455.618 767.17 430.365 z" fill="rgb(255,255,255)" transform="translate(0,0)"></path>
<path d="M 571.896 793.233 C 601.347 790.815 625.929 808.69 643.195 830.82 C 661.286 854.009 666.916 888.275 640.845 908.387 C 631.668 915.467 617.974 914.599 607.381 912.367 C 579.97 902.146 565.706 878.155 553.765 853.143 C 547.114 856.627 533.724 864.828 526.629 861.962 L 526.839 859.996 C 531.612 851.932 541.359 848.099 549.554 843.381 C 547.399 818.676 542.548 800.446 571.896 793.233 z" fill="rgb(108,86,129)" transform="translate(0,0)"></path>
<path d="M 566.783 804.19 C 587.996 803.682 612.212 832.318 608.044 853.323 C 607.241 857.368 602.583 859.814 599.22 861.49 C 565.404 863.365 541.329 813.342 566.783 804.19 z" fill="rgb(255,255,255)" transform="translate(0,0)"></path>
<path d="M 788.652 602.167 C 857.083 595.174 914.045 689.471 853.152 714.388 C 838.879 718.088 831.865 717.245 817.908 711.433 C 787.54 698.785 736.282 616.568 788.652 602.167 z" fill="rgb(108,86,129)" transform="translate(0,0)"></path>
<path d="M 791.256 615.249 C 822.066 617.42 851.362 661.364 816.958 668.429 C 789.661 667.925 753.163 627.073 791.256 615.249 z" fill="rgb(255,255,255)" transform="translate(0,0)"></path>
<path d="M 743.663 735.79 C 765.92 734.779 785.333 772.599 786.912 792.168 C 788.821 815.816 773.312 832.248 749.919 833.244 C 728.653 834.149 713.277 824.93 698.257 811.102 C 694.087 806.588 691.121 802.288 694.813 796.522 C 695.869 796.127 696.925 795.732 697.981 795.338 C 712.495 803.914 721.333 817.024 738.985 820.468 C 754.122 823.422 772.862 818.396 775.18 800.694 C 777.364 784.014 766.509 765.743 754.69 754.668 C 750.953 751.167 746.863 747.082 743.509 743.168 C 741.709 741.016 742.961 738.426 743.663 735.79 z" fill="rgb(108,86,129)" transform="translate(0,0)"></path>
<path d="M 1120.88 707.534 C 1131.73 732.889 1136.4 784.169 1139.35 812.151 C 1120.67 797.487 1095.23 799.061 1092.59 826.082 C 1091.9 833.685 1094.38 841.234 1099.44 846.95 C 1111.36 860.321 1128.11 852.788 1139.13 842.625 C 1139.28 864.958 1135.53 888.614 1131.39 910.129 C 1107.19 1035.87 1014.14 1138.44 893.032 1178.33 C 849.923 1192.53 810.548 1198.52 764.861 1200.21 C 782.595 1177.22 763.175 1152.8 737.752 1155.73 C 715.807 1162.5 710.693 1177.7 720.473 1197.44 C 695.694 1194.04 668.343 1189.47 644.985 1180.43 C 656.664 1175.95 668.173 1171.05 679.488 1165.72 C 723.839 1144.89 787.709 1104.69 826.595 1074.52 C 944.691 982.904 1069.42 850.165 1120.88 707.534 z" fill="rgb(255,255,255)" transform="translate(0,0)"></path>
<path d="M 826.185 1111.59 C 841.054 1106.87 856.966 1114.93 861.95 1129.71 C 866.934 1144.5 859.15 1160.55 844.455 1165.79 C 834.719 1169.26 823.867 1167.21 816.071 1160.42 C 808.274 1153.63 804.746 1143.17 806.843 1133.05 C 808.94 1122.92 816.334 1114.72 826.185 1111.59 z" fill="rgb(108,86,129)" transform="translate(0,0)"></path>
<path d="M 828.873 1123.04 C 837.1 1121.9 844.552 1123.35 849.125 1130.99 C 851.351 1134.71 851.912 1139.2 850.671 1143.36 C 848.826 1149.67 844.61 1152.54 839.15 1155.37 C 817.963 1155.47 808.031 1135.79 828.873 1123.04 z" fill="rgb(255,255,255)" transform="translate(0,0)"></path>
<path d="M 911.482 1052.09 C 948.261 1049.28 964.61 1093.85 927.432 1105.74 C 888.488 1113.8 875.766 1064.06 911.482 1052.09 z" fill="rgb(108,86,129)" transform="translate(0,0)"></path>
<path d="M 917.396 1063.48 C 926.038 1062.35 934.012 1068.29 935.403 1076.9 C 936.793 1085.5 931.097 1093.65 922.54 1095.3 C 916.768 1096.42 910.847 1094.3 907.087 1089.78 C 903.327 1085.26 902.324 1079.06 904.469 1073.58 C 906.614 1068.11 911.567 1064.24 917.396 1063.48 z" fill="rgb(255,255,255)" transform="translate(0,0)"></path>
<path d="M 988.341 971.139 C 1002.64 969.936 1017.23 975.825 1022.56 990.023 C 1024.95 996.265 1024.66 1003.22 1021.74 1009.24 C 1018.25 1016.31 1011.83 1020.6 1004.55 1023.02 C 998.817 1024 993.367 1024.56 987.704 1022.71 C 980.386 1020.34 974.413 1014.98 971.262 1007.96 C 963.486 990.908 972.356 977.637 988.341 971.139 z" fill="rgb(108,86,129)" transform="translate(0,0)"></path>
<path d="M 991.955 983.062 C 1012.6 982.462 1020.07 1004.92 1001.15 1013.05 C 981.362 1013.25 972.2 992.695 991.955 983.062 z" fill="rgb(255,255,255)" transform="translate(0,0)"></path>
<path d="M 1059.92 892.154 C 1072.45 891.312 1084.83 897.035 1090.19 908.817 C 1092.98 914.781 1093.06 921.654 1090.42 927.684 C 1086.53 936.565 1079.76 940.294 1071.22 943.534 C 1063.41 944.304 1057.85 944.746 1050.65 940.602 C 1044.41 937.019 1039.89 931.075 1038.1 924.114 C 1036.29 917.329 1037.34 910.099 1041.02 904.115 C 1045.74 896.575 1051.7 894.007 1059.92 892.154 z" fill="rgb(108,86,129)" transform="translate(0,0)"></path>
<path d="M 1062.82 903.504 C 1070.9 902.315 1078.43 907.847 1079.71 915.912 C 1080.99 923.977 1075.54 931.571 1067.49 932.942 C 1062.2 933.843 1056.84 931.833 1053.45 927.678 C 1050.05 923.522 1049.15 917.864 1051.09 912.862 C 1053.03 907.86 1057.51 904.286 1062.82 903.504 z" fill="rgb(255,255,255)" transform="translate(0,0)"></path>
<path d="M 1048.62 572.788 C 1063.12 587.245 1085.17 625.608 1093.77 643.641 C 1090.88 662.041 1084.81 677.755 1077.62 694.825 C 1064.46 726.492 1048.87 757.094 1031 786.362 C 1000.74 835.256 954.638 891.559 914.61 933.217 C 842.503 1008 759.174 1071.08 667.626 1120.18 C 639.156 1135.24 616.497 1144.68 587 1156.71 L 571.084 1146.14 C 549.066 1133.22 534.005 1121.88 514.29 1105.86 C 521.517 1103.51 528.668 1100.93 535.732 1098.12 C 585.385 1078.01 635.544 1046.59 679.73 1016.46 C 788.587 943.475 882.751 850.671 957.314 742.888 C 961.258 737.158 965.134 731.333 969.106 725.629 C 1001.84 678.628 1026.34 625.252 1048.62 572.788 z" fill="rgb(217,205,224)" transform="translate(0,0)"></path>
<path d="M 716.756 431.408 L 719.027 431.209 L 719.85 432.473 C 717.963 439.536 707.572 460.445 703.798 467.945 C 634.921 604.833 503.802 714.187 369.037 782.401 L 370.828 766.236 C 374.433 723.123 390.078 672.331 409.933 634 C 460.78 535.838 537.503 477.86 641.591 445.057 C 645.928 454.86 650.889 464.623 662.817 466.507 C 668.106 467.288 673.487 465.905 677.744 462.67 C 686.953 455.75 688.261 446.261 689.719 435.9 C 698.667 434.033 707.717 432.771 716.756 431.408 z" fill="rgb(255,255,255)" transform="translate(0,0)"></path>
<path d="M 613.939 477.516 C 629.271 475.278 643.489 485.966 645.599 501.316 C 647.71 516.667 636.905 530.795 621.537 532.778 C 606.349 534.738 592.422 524.086 590.335 508.915 C 588.249 493.744 598.785 479.728 613.939 477.516 z" fill="rgb(108,86,129)" transform="translate(0,0)"></path>
<path d="M 614.757 489.821 C 620.316 488.693 626.051 490.653 629.756 494.948 C 633.461 499.243 634.559 505.204 632.628 510.537 C 630.697 515.87 626.038 519.746 620.442 520.673 C 612.002 522.072 603.998 516.452 602.448 508.039 C 600.898 499.626 606.374 491.522 614.757 489.821 z" fill="rgb(255,255,255)" transform="translate(0,0)"></path>
<path d="M 485.095 615.405 C 494.96 613.246 505.218 616.616 511.882 624.204 C 518.545 631.792 520.561 642.4 517.146 651.903 C 513.731 661.407 505.424 668.305 495.455 669.916 C 480.618 672.315 466.567 662.466 463.76 647.7 C 460.954 632.934 470.412 618.617 485.095 615.405 z" fill="rgb(108,86,129)" transform="translate(0,0)"></path>
<path d="M 487.186 627.032 C 489.776 626.891 492.319 626.714 494.852 627.354 C 499.056 628.421 502.609 631.225 504.622 635.067 C 509.955 645.415 503.168 654.413 493.98 659.041 C 472.438 659.503 468.917 638.834 487.186 627.032 z" fill="rgb(255,255,255)" transform="translate(0,0)"></path>
<path d="M 550.622 549.31 C 560.383 546.868 570.701 549.921 577.562 557.282 C 584.422 564.643 586.742 575.15 583.619 584.716 C 580.496 594.281 572.423 601.395 562.541 603.29 C 547.837 606.109 533.561 596.714 530.333 582.096 C 527.106 567.477 536.099 552.944 550.622 549.31 z" fill="rgb(108,86,129)" transform="translate(0,0)"></path>
<path d="M 553.214 561.413 C 561.615 559.342 570.096 564.507 572.112 572.922 C 574.127 581.337 568.906 589.783 560.478 591.743 C 552.129 593.684 543.778 588.523 541.781 580.186 C 539.784 571.85 544.891 563.465 553.214 561.413 z" fill="rgb(255,255,255)" transform="translate(0,0)"></path>
<path d="M 411.874 670.143 C 423.723 670.396 434.903 676.632 439.446 687.924 C 442.036 694.361 441.896 701.574 439.057 707.905 C 434.872 717.175 428.986 720.89 420.043 724.432 C 384.158 728.767 378.639 677.081 411.874 670.143 z" fill="rgb(108,86,129)" transform="translate(0,0)"></path>
<path d="M 409.381 682.962 C 417.196 680.494 425.538 684.79 428.067 692.586 C 430.597 700.381 426.366 708.757 418.591 711.347 C 410.729 713.966 402.239 709.678 399.681 701.796 C 397.124 693.914 401.479 685.457 409.381 682.962 z" fill="rgb(255,255,255)" transform="translate(0,0)"></path>
<path d="M 1152.17 1172.96 C 1170.34 1189.55 1186.74 1211.88 1204.73 1229.1 C 1274.13 1295.54 1344.41 1362.28 1427.54 1411.51 C 1444.03 1421.27 1459.73 1431.6 1477.02 1440.24 C 1472.03 1483.78 1450.54 1513.7 1411.49 1533.96 C 1398.72 1540.29 1388.39 1543.03 1374.78 1547.06 C 1344.84 1495.29 1315.62 1451.79 1276.86 1406.11 C 1254.17 1379.37 1227.84 1353.31 1203 1328.48 C 1168.46 1294.53 1134.21 1260.28 1100.25 1225.74 C 1121.31 1207.91 1134.28 1193.8 1152.17 1172.96 z" fill="rgb(255,255,255)" transform="translate(0,0)"></path>
<path d="M 1561.78 1480.09 C 1586.32 1491.68 1616.72 1518.08 1631.36 1540.7 C 1693.3 1636.39 1619.62 1730.75 1512.25 1709.64 C 1509.76 1709.08 1507.31 1708.41 1504.88 1707.64 C 1465.99 1695.5 1437.05 1665.83 1418.35 1630.48 C 1497.31 1619.57 1567.89 1566.24 1561.78 1480.09 z" fill="rgb(255,255,255)" transform="translate(0,0)"></path>
<path d="M 1101.65 660.596 C 1106.13 665.029 1112.26 684.185 1114.7 691.095 C 1043.38 893.407 831.793 1087.62 637.018 1169.35 C 629.775 1172.39 625.562 1173.4 618.256 1170.46 C 611.951 1167.98 608.316 1166.7 602.557 1163.11 C 643.14 1147.87 682.113 1128.65 718.904 1105.72 C 753.496 1084.45 786.877 1061.28 818.895 1036.3 C 837.218 1021.86 853.851 1006.78 870.847 991.222 C 940.697 927.293 1004.99 857.024 1052.05 774.316 C 1072.52 738.346 1092.1 701.566 1101.65 660.596 z" fill="rgb(255,255,255)" transform="translate(0,0)"></path>
<path d="M 1139.57 1059.4 C 1156.1 1059.42 1171.62 1073.98 1168.12 1090.44 C 1158.69 1134.76 1114.53 1175.95 1082.47 1206.13 C 1064.99 1222.6 1037.06 1242.4 1011.95 1240.39 C 980.678 1230.2 982.448 1203.52 995.001 1178.88 C 1008.91 1182.89 1017.12 1182.67 1031.14 1178.52 C 1067.6 1167.71 1123.89 1108.66 1110.11 1067.66 C 1121.7 1062.52 1127.12 1060.69 1139.57 1059.4 z" fill="rgb(255,255,255)" transform="translate(0,0)"></path>
<path d="M 733.861 430.422 C 740.985 429.871 749.71 429.839 756.967 429.618 C 754.48 438.319 751.563 446.891 748.225 455.302 C 709.26 554.422 630.626 638.54 550.066 705.893 C 495.699 751.348 452.402 782.47 387.251 810.964 C 381.832 813.403 376.049 815.42 370.463 817.493 C 369.719 809.239 369.389 802.566 369.231 794.276 C 377.61 791.462 391.406 784.676 399.54 780.457 C 525.374 715.195 650.037 604.541 713.57 476.487 C 719.954 463.618 729.472 443.697 733.861 430.422 z" fill="rgb(255,255,255)" transform="translate(0,0)"></path>
<path d="M 1527.32 1465.44 C 1532.13 1467.32 1549.85 1473.07 1550.38 1477.92 C 1552.85 1500.29 1545.13 1527.35 1533.32 1546.21 C 1507.67 1587.18 1468.78 1607.28 1423 1618.29 L 1412.06 1619.86 C 1407.88 1613.24 1403.65 1602.94 1400.35 1595.57 C 1427.55 1590.13 1452.81 1580.65 1474.6 1562.98 C 1504.54 1538.84 1523.53 1503.7 1527.32 1465.44 z" fill="rgb(255,255,255)" transform="translate(0,0)"></path>
<path d="M 1484.14 1443.32 C 1494.88 1447.81 1505.83 1453.8 1515.78 1459.83 C 1501.24 1522.52 1474.54 1562.32 1409.38 1579.71 C 1404.67 1580.8 1397.47 1581.53 1392.5 1582.19 C 1387.85 1572.54 1383.12 1562.92 1378.3 1553.35 C 1426.72 1547.95 1470.5 1520.05 1481.14 1470.55 C 1483.13 1461.26 1483.56 1452.74 1484.14 1443.32 z" fill="rgb(255,255,255)" transform="translate(0,0)"></path>
<path d="M 1088.51 1057.98 C 1092.51 1062.52 1097.32 1072.85 1097.76 1078.64 C 1100.7 1117.38 1038.12 1179.82 1000.21 1165.77 C 995.531 1163.44 989.807 1159.74 985.947 1156.22 C 1023.48 1131.76 1064.47 1095.84 1088.51 1057.98 z" fill="rgb(217,205,224)" transform="translate(0,0)"></path>
<path d="M 737.442 1168.27 C 742.947 1166.18 749.152 1167.23 753.657 1171.02 C 758.163 1174.81 760.263 1180.75 759.145 1186.53 C 758.027 1192.31 753.867 1197.03 748.274 1198.87 C 739.891 1201.62 730.844 1197.18 727.9 1188.86 C 724.956 1180.54 729.194 1171.4 737.442 1168.27 z" fill="rgb(255,255,255)" transform="translate(0,0)"></path>
<path d="M 1114.11 814.138 C 1134.51 812.783 1137.89 831.82 1121.85 841.724 C 1100.95 843.424 1098.23 823.847 1114.11 814.138 z" fill="rgb(255,255,255)" transform="translate(0,0)"></path>
<path d="M 674.639 438.447 C 675.58 438.338 674.915 438.352 676.562 438.985 C 677.344 449.139 672.065 456.102 661.254 452.718 C 657.641 449.414 653.974 446.515 657.203 441.949 C 662.151 439.361 668.892 439.128 674.639 438.447 z" fill="rgb(255,255,255)" transform="translate(0,0)"></path>
<path d="M 1380.05 116.375 C 1450.83 108.171 1505.32 159.958 1520.86 226.305 C 1523.91 239.303 1523.1 253.505 1526.32 266.573 L 1526.65 267.881 C 1550.91 220.019 1567.68 182.402 1621.87 162.207 C 1694.69 135.674 1785.81 176.843 1813.13 249.523 C 1840.84 323.238 1776.48 419.184 1708 444.142 C 1746.3 447.072 1794.23 472.795 1771.73 520.233 C 1757.32 550.59 1719.41 565.289 1688.98 575.167 C 1624.54 592.216 1553.74 567.17 1510.9 517.104 C 1509.68 520.721 1508.39 524.315 1507.03 527.883 C 1494.47 560.904 1477.21 577.957 1444.53 593.3 C 1402.51 613.026 1351.11 606.513 1308.61 591.314 C 1275.02 579.306 1247.12 550.191 1232.27 518.066 C 1223.12 498.268 1220.63 465.959 1229.11 445.224 C 1241.12 415.839 1269.58 406.391 1296.43 395.115 C 1292.03 392.277 1287.74 389.268 1283.57 386.096 C 1255.86 364.97 1237.68 333.696 1233.03 299.162 C 1227.28 254.522 1241.57 214.453 1269.28 180.081 C 1300.2 141.724 1331.35 122.315 1380.05 116.375 z" fill="rgb(154,132,176)" transform="translate(0,0)"></path>
<path d="M 1377.98 127.377 C 1444.49 118.682 1496.32 168.957 1509.65 230.183 C 1518.67 271.609 1516.93 308.888 1548.03 243.759 C 1558.4 222.057 1576.84 199.649 1596.63 185.408 C 1659.96 139.765 1748.48 168.052 1790.07 228.741 C 1840.51 302.339 1782.67 394.407 1713.55 430.317 C 1701.28 436.695 1690.22 440.138 1677.9 445.8 C 1675.88 446.731 1676.14 448.155 1675.92 449.962 C 1677.07 452.165 1678.19 454.084 1680.99 454.364 C 1700.74 456.34 1719.12 453.711 1738.13 461.546 C 1758.16 469.315 1773.73 491.181 1763.08 512.577 C 1750.93 537.003 1726.62 550.987 1702.25 560.386 C 1688.29 565.007 1670.59 570.684 1655.74 571.642 C 1614.43 574.308 1568.39 553.085 1536.61 527.881 C 1528.02 521.07 1515.84 505.625 1507.03 502.918 C 1503.19 504.912 1493.77 535.592 1488.57 543.058 C 1483.77 551.704 1477.69 557.921 1470.47 564.693 C 1417.23 614.624 1308.98 599.646 1263.03 546.84 C 1243.62 524.523 1232.38 497.603 1235 467.072 C 1237.69 435.781 1258.29 423.056 1284.42 411.446 C 1291.8 408.172 1307.95 400.957 1308.6 391.883 C 1306.72 388.384 1289.44 378.096 1285.63 374.731 C 1224.18 320.563 1232.15 229.472 1288.45 174.648 C 1318.5 145.391 1336.12 132.563 1377.98 127.377 z" fill="rgb(255,255,255)" transform="translate(0,0)"></path>
<path d="M 449.777 1303.39 C 451.289 1303.31 452.802 1303.27 454.316 1303.28 C 487.63 1303.31 521.161 1321.9 544.565 1344.43 C 589.584 1387.78 613.887 1448.63 578.988 1506.06 C 570.91 1519.35 562.153 1528.22 551.184 1539.23 C 569.557 1549.62 583.31 1550.15 593.52 1571.42 C 631.368 1650.26 532.689 1711.11 463.663 1687.3 C 430.363 1675.81 421.381 1660.5 406.754 1631.69 C 379.465 1661.26 368.769 1683.04 321.742 1691.67 C 292.079 1697.11 267.461 1690.06 243.281 1672.77 C 211.717 1644.6 214.825 1613.06 241.197 1583.27 C 222.425 1582.7 198.17 1581.03 180.349 1575.98 C 147.478 1566.66 114.514 1544.65 97.7801 1514.25 C 81.6911 1485.48 77.9478 1451.42 87.4047 1419.85 C 114.44 1328.78 232.094 1292.65 303.025 1357.59 C 323.434 1376.28 334.726 1401.6 347.187 1425.53 C 357.877 1394.86 356.343 1368.61 380.194 1339.77 C 398.712 1317.37 420.88 1306.42 449.777 1303.39 z" fill="rgb(154,132,176)" transform="translate(0,0)"></path>
<path d="M 449.653 1312.39 C 512.692 1307.72 582.28 1380.82 585.88 1441.97 C 587.753 1470.27 577.94 1498.09 558.73 1518.96 C 545.395 1533.61 527.205 1538.91 556.971 1551.38 C 561.279 1553.18 568.035 1556.74 571.778 1559.52 C 583.591 1568.39 591.153 1581.8 592.628 1596.5 C 601.739 1681.23 461.223 1715.23 422.136 1642.44 C 418.272 1635.25 415.654 1619.36 409.731 1614.57 C 405.676 1615.71 387.097 1640.07 382.727 1645.37 C 348.847 1686.51 287.165 1699.07 244.95 1661.58 C 191.768 1605.04 299.356 1573.77 233.558 1573.48 C 195.543 1573.31 147.391 1561.31 121.146 1531.33 C 49.3897 1449.35 118.766 1328.55 223.902 1334.21 C 264.931 1336.1 301.936 1359.44 321.31 1395.66 C 327.745 1407.64 334.64 1423.54 343.346 1434.01 C 345.268 1436.32 347.505 1436.05 350.053 1436.17 C 360.35 1430.59 363.597 1391.7 369.713 1378.09 C 375.803 1364.53 376.735 1358.48 387.192 1345.73 C 402.814 1326.83 425.257 1314.85 449.653 1312.39 z" fill="rgb(255,255,255)" transform="translate(0,0)"></path>
<path d="M 903.046 1443.21 C 904.856 1443.04 906.678 1443.01 908.492 1443.13 C 941.491 1445.23 951.743 1492.04 948.691 1518.59 C 943.165 1566.64 920.239 1604.78 883.758 1635.36 C 849.315 1630.9 812.149 1619.4 784.439 1597.86 C 754.198 1573.86 725.164 1529.81 755.958 1493.01 C 761.992 1485.8 775.781 1481.62 784.999 1482.15 C 813.847 1483.81 838.732 1508.05 857.181 1528.09 C 855.072 1494.38 864.259 1450.7 903.046 1443.21 z" fill="rgb(154,132,176)" transform="translate(0,0)"></path>
<path d="M 901.798 1453.09 C 912.02 1452.38 921.782 1456.11 927.521 1464.86 C 960.425 1515.01 922.135 1593.44 880.109 1624.41 C 846.133 1622.43 803.858 1602.73 778.038 1580.45 C 764.846 1567.24 755.253 1552.69 752.969 1533.67 C 751.318 1524.88 753.966 1507.72 760.562 1501.44 C 794.351 1469.28 839.352 1521.45 858.998 1546.54 C 860.664 1548.67 862.967 1547.76 865.057 1547.27 C 872.249 1538.33 853.815 1468.21 901.798 1453.09 z" fill="rgb(217,205,224)" transform="translate(0,0)"></path>
<path d="M 1491.54 768.375 C 1536.2 767.221 1542.7 809.188 1531.89 843.037 C 1516.97 889.784 1478.07 926.207 1435.99 948.695 C 1409.16 935.041 1392.9 923.32 1371.64 902.357 C 1363.38 893.965 1356.18 884.589 1350.21 874.441 C 1338.13 853.581 1327.2 822.511 1333.85 798.388 C 1339.73 777.043 1359.12 768.261 1379.59 775.254 C 1404.38 783.72 1415.89 805.179 1427.09 826.815 C 1442.03 798.197 1455.8 771.425 1491.54 768.375 z" fill="rgb(154,132,176)" transform="translate(0,0)"></path>
<path d="M 1489.98 777.28 C 1523.11 776.549 1530.64 806.3 1524.04 833.148 C 1511.83 882.856 1476.77 911.774 1435.76 937.655 C 1406.96 923.28 1386.25 906.868 1366.54 881.552 C 1365.48 879.97 1364.44 878.378 1363.4 876.777 C 1348.23 853.228 1326.67 802.73 1357.37 783.035 C 1391.13 781.586 1405.83 803.085 1416.55 831.836 C 1418.47 836.982 1421.36 847.205 1424.88 851.022 C 1428.47 852.367 1426.79 852.38 1430.05 851.68 C 1436.88 840.377 1438.95 821.371 1449.4 807.092 C 1460.22 792.303 1469.6 781.463 1488.57 777.558 L 1489.98 777.28 z" fill="rgb(217,205,224)" transform="translate(0,0)"></path>
<path d="M 1053.19 1606.74 C 1061.96 1610.92 1073.91 1642.76 1079.74 1653.75 C 1090.65 1674.97 1101.48 1695.69 1120.17 1711.06 C 1138.19 1725.87 1180.94 1701.36 1194.04 1705.82 C 1195.1 1707.75 1195.82 1708.97 1195.39 1711.3 C 1193.05 1723.87 1147.34 1755.64 1145.16 1767.19 C 1144.04 1773.16 1145.84 1779.91 1148.35 1785.29 C 1157.8 1805.61 1186.12 1836.29 1200.59 1855.81 C 1204.74 1861.4 1207.86 1865.81 1206.78 1873 L 1205.57 1873.83 C 1199.29 1873.06 1195.87 1870.82 1190.03 1868.76 C 1162.16 1858.95 1138.25 1840.52 1115.31 1822.19 C 1107.07 1815.73 1102.27 1810.56 1094.29 1820.53 C 1078.98 1839.67 1063.63 1858.87 1047.46 1877.3 C 1042.61 1882.83 1033.1 1896.37 1026.17 1896.53 L 1024.95 1894.51 C 1024.58 1885.51 1036.32 1854.06 1039.04 1843.86 C 1056.78 1777.39 1007 1765.38 955.056 1757.8 C 952.087 1757.36 949.691 1755.78 948.112 1753.07 L 949.107 1750.74 C 955.828 1746.18 976.667 1746.59 986.915 1745.05 C 1002.42 1743.11 1028.08 1740.66 1040.64 1730.99 C 1063.17 1713.63 1048.73 1660.23 1050.47 1635.01 C 1051.12 1625.57 1047.18 1614.2 1053.19 1606.74 z" fill="rgb(154,132,176)" transform="translate(0,0)"></path>
<path d="M 1060.23 1634.8 C 1064.29 1641 1068.84 1655.75 1072.68 1662.73 C 1082.49 1680.53 1099.19 1708.28 1116.6 1718.81 C 1136.94 1731.1 1161.5 1721.55 1182.63 1715.82 C 1172.93 1725.63 1137.1 1757.13 1135.63 1767.34 C 1131.29 1797.49 1177.64 1835.84 1192.22 1860.27 C 1168.96 1850.89 1146.46 1835.49 1126.98 1819.72 C 1118.33 1812.37 1102.65 1799.06 1092.46 1809.44 C 1073.69 1828.6 1057.55 1852.76 1040.18 1873.29 C 1049.81 1842.08 1061.19 1816.73 1042.52 1786.21 C 1026.53 1760.06 1007.56 1760.95 981.567 1754.34 C 1078.97 1745.72 1063.99 1718.93 1060.23 1634.8 z" fill="rgb(217,205,224)" transform="translate(0,0)"></path>
<path d="M 1019.58 63.732 C 1021.66 63.6654 1023.16 63.478 1025.12 64.3094 C 1027.36 65.2587 1027.99 67.9075 1027.85 70.1448 C 1026.38 94.6213 995.139 141.024 998.089 165.811 C 1001.91 197.907 1080.63 220.867 1085.84 236.923 C 1086.32 238.402 1085.7 238.832 1085.06 240.107 C 1073.83 246.431 1002.75 231.398 981.07 230.038 C 972.532 247.846 968.303 280.591 966.307 300.851 C 965.605 307.974 965.411 337.39 963.279 341.92 C 960.058 344.121 961.722 343.811 958.218 343.332 C 947.427 335.832 932.579 264.503 924.006 244.287 C 922.687 241.465 917.576 230.726 914.801 229.22 C 898.349 220.287 846.88 237.715 834.656 226.008 C 832.344 214.353 893.157 185.219 897.785 171.618 C 903.391 155.147 873.079 127.748 867.736 111.98 C 864.4 102.138 849.894 79.3789 855.349 69.7448 C 870.468 66.5463 927.534 141.886 945.457 139.972 C 966.674 137.707 1001.83 79.3306 1019.58 63.732 z" fill="rgb(154,132,176)" transform="translate(0,0)"></path>
<path d="M 1014.66 81.8536 C 1014.71 86.0353 1010.68 93.8942 1008.99 98.0132 C 1000.42 118.956 983.503 151.659 991.148 174.203 C 999.729 199.51 1043.61 221.191 1066.31 232.695 C 1052.6 231.102 980.73 215.929 974.002 225.65 C 959.784 246.196 956.795 300.827 957.642 325.971 C 948.494 299.03 940.349 251.784 927.084 228.734 C 909.764 208.859 875.472 219.561 850.255 220.144 C 866.116 209.662 899.559 189.408 906.672 171.895 C 913.139 155.975 888.328 130.865 880.999 115.666 C 876.398 106.126 871.694 96.6032 867.117 86.3488 C 959.511 165.933 932.657 180.961 1014.66 81.8536 z" fill="rgb(217,205,224)" transform="translate(0,0)"></path>
<path d="M 291.961 948.7 C 293.963 948.695 294.437 948.941 296.423 949.36 C 297.835 950.857 299.239 952.1 298.541 954.335 C 291 979.033 264.417 1020.77 267.593 1046.39 C 270.051 1066.21 321.876 1097.83 340.737 1103.47 C 348.48 1105.79 365.137 1109.16 365.925 1116.52 L 364.426 1118.34 C 351.3 1123.41 299.189 1117.43 283.138 1115.55 C 273.7 1114.44 258.915 1111.21 249.319 1112.01 C 240.443 1121.57 243.804 1214.45 236.433 1224.52 C 233.043 1225.03 229.905 1222.21 229.239 1219.34 C 222.239 1189.18 208.497 1161.29 199.086 1132.21 C 197.022 1126.07 194.789 1119.98 192.391 1113.95 C 167.511 1108.25 129.217 1112.94 112.028 1107.83 C 107.46 1100.08 118.506 1094.57 124.327 1091.42 C 144.336 1080.6 158.805 1068.54 175.637 1053.43 C 167.788 1039.07 124.241 968.769 124.889 957.104 C 124.994 955.212 124.82 955.951 126.451 954.475 C 140.158 957.988 161.316 982.916 173.707 992.184 C 188.311 1003.11 204.008 1017.34 220.827 1024.77 C 229.048 1018.53 236.774 1008.89 243.793 1001.28 C 259.832 983.886 274.68 964.846 291.961 948.7 z" fill="rgb(154,132,176)" transform="translate(0,0)"></path>
<path d="M 284.462 967.041 C 284.445 970.597 280.152 978.226 278.584 982.051 C 271.478 999.376 252.697 1035.28 260.365 1053.13 C 272.131 1080.51 314.359 1101.52 339.702 1112.23 C 314.566 1109.86 289.808 1108 264.979 1103.47 C 253.847 1101.44 240.681 1100.1 238.087 1113.62 C 235.62 1126.49 235.247 1141.29 234.598 1154.38 C 233.928 1170.09 232.899 1185.79 231.512 1201.45 C 226.104 1178.58 218.244 1157.37 210.144 1135.4 C 206.891 1126.58 204.266 1116.66 200.389 1108.24 C 187.918 1099.47 141.699 1101.16 123.984 1100.97 C 146.783 1089.86 167.577 1074.21 185.728 1056.55 C 180.364 1040.36 149.102 989.173 138.55 970.117 C 141.551 973.497 144.604 976.829 147.709 980.113 C 159.618 992.542 206.127 1033.05 220.428 1032.38 C 232.367 1031.82 272.942 979.087 283.556 967.978 L 284.462 967.041 z" fill="rgb(217,205,224)" transform="translate(0,0)"></path>
<path d="M 646.24 248.925 C 650.588 249.471 648.961 248.538 651.769 250.902 L 651.573 253.302 C 645.309 260.824 622.807 267.306 613.111 271.241 C 591.107 280.21 569.324 289.714 547.783 299.745 C 378.659 378.697 267.102 507.823 197.452 678.982 C 188.168 702.041 179.915 725.501 172.717 749.294 C 169.171 761.237 166.816 774.694 162.419 786.173 C 158.164 786.164 157.378 786.336 155.897 782.676 C 164.191 730.776 194.305 659.674 217.546 611.936 C 307.665 426.836 455.29 316.015 646.24 248.925 z" fill="rgb(154,132,176)" transform="translate(0,0)"></path>
<path d="M 1797.49 622.402 C 1807.72 623.903 1812.67 636.984 1814.53 646.03 C 1827.55 709.389 1799.48 781.893 1767.26 835.876 C 1744.72 873.642 1719.47 909.191 1691.8 943.092 C 1625.35 1019.96 1513.71 1122.12 1413.39 1147.92 C 1410.34 1147.27 1410.51 1147.41 1408.05 1145.51 L 1407.9 1143.57 C 1411.87 1138.87 1439.47 1130.49 1448.9 1126.04 C 1513.67 1095.52 1570.75 1052.11 1621.66 1002.07 C 1642.42 981.656 1660.82 964.307 1680.03 941.585 C 1701.95 915.449 1722.17 887.925 1740.55 859.183 C 1777.55 802.503 1814.08 733.194 1808.23 663.416 C 1807.25 651.725 1802.35 641.088 1797.09 630.754 C 1795.23 627.098 1796.26 625.864 1797.49 622.402 z" fill="rgb(154,132,176)" transform="translate(0,0)"></path>
<path d="M 531.173 231.313 C 536.816 230.612 539.429 229.611 543.778 232.785 C 543.255 240.295 517.111 243.406 509 245.567 C 488.784 250.955 468.961 257.72 449.67 265.815 C 363.692 302.073 293.798 345.239 228.049 412.425 C 181.658 459.829 124.285 533.94 125.041 603.182 C 124.566 605.497 123.834 606.483 121.966 607.482 C 115.619 604.886 114.427 592.167 115.291 586.178 C 121.028 546.405 144.285 501.739 167.671 469.471 C 230.43 382.878 319.991 313.301 417.149 269.308 C 454.142 252.681 491.009 238.257 531.173 231.313 z" fill="rgb(154,132,176)" transform="translate(0,0)"></path>
<path d="M 1805.22 1450.64 C 1808.01 1450.75 1807.94 1450.73 1810.59 1451.62 C 1812.16 1453.35 1813.29 1454.82 1813.97 1457.09 C 1829.04 1507.22 1810.64 1564.34 1790.26 1608.87 C 1747.24 1702.91 1674.33 1780.15 1588.88 1836.74 C 1559.37 1856.29 1530.4 1874.73 1497.26 1887.04 C 1494.18 1887.04 1492.25 1886.72 1490 1884.75 L 1489.93 1883.67 C 1491.86 1878.04 1511.53 1870.3 1518.4 1866.83 C 1556.55 1847.55 1596.84 1821.24 1630.11 1794.56 C 1642.87 1784.34 1663.53 1767.05 1674.62 1755.66 C 1735.89 1692.76 1792.22 1610.83 1808.44 1523.18 C 1810.58 1509.47 1810.48 1496.2 1809.12 1482.51 C 1808.24 1473.62 1803.88 1458.74 1805.22 1450.64 z" fill="rgb(154,132,176)" transform="translate(0,0)"></path>
<path d="M 1864.62 755.358 C 1870.05 756.195 1873.31 759.913 1873.88 765.211 C 1881.47 836.213 1851.02 923.624 1813.44 981.919 C 1774.01 1043.11 1701.62 1112.48 1631.32 1128 C 1626.68 1127.88 1627.02 1128.66 1624.07 1126.39 L 1623.69 1123.44 C 1627.08 1116.64 1632.56 1119.26 1638.71 1117.02 C 1726.08 1085.09 1793.44 1008.19 1832.24 925.615 C 1853.74 879.872 1866.84 836.507 1865.18 785.572 C 1864.93 777.807 1861.88 761.412 1864.62 755.358 z" fill="rgb(154,132,176)" transform="translate(0,0)"></path>
<path d="M 1875.31 1512.52 L 1879.45 1513.21 C 1883.23 1516.22 1884.22 1522 1884.93 1526.66 C 1898.81 1617.26 1871 1705.65 1817.06 1778.61 C 1781.62 1826.53 1719.65 1889.84 1659.17 1899.17 C 1655.21 1898.38 1651.78 1898.54 1651.56 1894.08 C 1655.92 1888.89 1671.65 1888.28 1678.15 1885.28 C 1784.43 1836.08 1872.02 1708.3 1878.35 1594.38 C 1879.3 1579.75 1879.19 1565.07 1878.03 1550.46 C 1877.35 1542.21 1872.74 1518.43 1875.31 1512.52 z" fill="rgb(154,132,176)" transform="translate(0,0)"></path>
<path d="M 358.656 179.381 C 363.257 179.078 364.599 178.765 367.989 182.099 L 367.908 184.039 C 363.996 188.012 347.888 190.623 341.718 192.082 C 331.084 194.616 320.6 197.741 310.314 201.441 C 240.428 226.356 156.715 292.892 147.578 370.744 C 144.607 372.689 144.83 372.569 141.282 372.928 C 139.799 372.05 138.57 371.442 138.554 369.094 C 138.399 345.035 161.222 303.659 175.345 286.683 C 214.294 239.868 259.534 206.499 318.085 188.852 C 332.282 184.573 343.782 180.897 358.656 179.381 z" fill="rgb(154,132,176)" transform="translate(0,0)"></path>
<path d="M 1307.73 1927.19 C 1321.74 1926.68 1335.18 1931.98 1340.16 1946.11 C 1342.54 1952.82 1342.07 1960.2 1338.84 1966.55 C 1334.06 1976.15 1326.56 1980.16 1316.94 1983.15 C 1301.23 1984.11 1286.3 1979.53 1281.83 1962.58 C 1280.02 1955.75 1281.02 1948.47 1284.63 1942.39 C 1289.82 1933.52 1298.14 1929.52 1307.73 1927.19 z" fill="rgb(154,132,176)" transform="translate(0,0)"></path>
<path d="M 1305.07 1937.15 C 1315.21 1936.52 1324.97 1936.78 1330.37 1947.28 C 1332.53 1951.43 1332.84 1956.3 1331.21 1960.7 C 1328.46 1968.11 1323.47 1970.48 1316.78 1973.4 C 1307.56 1974.72 1296.55 1972.26 1291.72 1963.51 C 1289.44 1959.43 1289 1954.58 1290.52 1950.17 C 1293.09 1942.65 1298.49 1940.26 1305.07 1937.15 z" fill="rgb(255,255,255)" transform="translate(0,0)"></path>
<path d="M 1673.62 691.316 C 1680.84 691.054 1686.96 691.844 1693.15 695.782 C 1699.11 699.52 1703.26 705.551 1704.63 712.451 C 1706.16 720.105 1704.53 728.049 1700.13 734.49 C 1694 743.318 1687.26 745.014 1677.65 746.953 C 1670.94 747.019 1664.14 745.332 1658.59 741.487 C 1651.98 736.922 1647.52 729.858 1646.23 721.927 C 1643.21 703.131 1656.88 693.609 1673.62 691.316 z" fill="rgb(154,132,176)" transform="translate(0,0)"></path>
<path d="M 1670.24 701.102 C 1679.28 700.747 1688.63 701.528 1693.68 710.361 C 1695.92 714.233 1696.37 718.881 1694.93 723.111 C 1692.48 730.233 1687.17 733.41 1680.8 736.302 C 1677.48 736.744 1671.33 737.57 1668.49 735.994 C 1649.78 725.596 1650.92 708.429 1670.24 701.102 z" fill="rgb(255,255,255)" transform="translate(0,0)"></path>
<path d="M 700.095 1757.23 C 706.539 1757.27 712.665 1758.9 718.135 1762.37 C 724.87 1766.58 729.619 1773.34 731.306 1781.1 C 735.239 1799.91 721.219 1809.98 704.629 1812.92 C 666.802 1812.73 659.245 1763.96 700.095 1757.23 z" fill="rgb(154,132,176)" transform="translate(0,0)"></path>
<path d="M 695.01 1767.12 C 722.374 1764.72 731.923 1790.87 709.455 1802.17 C 700.662 1803.72 692.283 1803.59 686.437 1795.69 C 683.666 1791.92 682.554 1787.19 683.359 1782.59 C 684.599 1775.24 689.207 1771.14 695.01 1767.12 z" fill="rgb(255,255,255)" transform="translate(0,0)"></path>
<path d="M 740.776 1288.23 C 754.849 1287.6 769.12 1292.94 773.175 1307.71 C 775.047 1314.5 774.04 1321.77 770.39 1327.8 C 765.314 1336.17 758.065 1339.55 749.058 1342 C 740.714 1342.4 734.545 1342.1 727.379 1337.38 C 721.288 1333.43 717.042 1327.19 715.592 1320.07 C 714.179 1313.2 715.607 1306.06 719.552 1300.26 C 724.922 1292.47 731.949 1289.91 740.776 1288.23 z" fill="rgb(154,132,176)" transform="translate(0,0)"></path>
<path d="M 739.194 1296.06 C 766.189 1295.11 775.122 1320.63 749.126 1332.36 C 722.96 1334.97 713.325 1307.87 739.194 1296.06 z" fill="rgb(255,255,255)" transform="translate(0,0)"></path>
<path d="M 1674.04 1265.23 C 1712.84 1262.62 1716.67 1307.04 1680.58 1318.98 C 1672.81 1319.22 1668.42 1319.43 1661.33 1315.17 C 1655.2 1311.52 1650.83 1305.54 1649.23 1298.59 C 1647.59 1291.64 1648.79 1284.33 1652.57 1278.27 C 1657.92 1269.85 1664.77 1267.06 1674.04 1265.23 z" fill="rgb(154,132,176)" transform="translate(0,0)"></path>
<path d="M 1670.9 1276.24 C 1697.87 1273.43 1705 1296.37 1682.1 1308.55 C 1656.05 1313.1 1648.62 1286.84 1670.9 1276.24 z" fill="rgb(255,255,255)" transform="translate(0,0)"></path>
<path d="M 1952.32 1693.39 C 1955.82 1694.74 1960.12 1698.17 1961.6 1701.54 C 1986.33 1757.83 1912.29 1830.01 1872.13 1853.11 C 1868.09 1853.25 1867.98 1853.16 1865.6 1851.21 C 1865.45 1848.99 1865.5 1847.24 1867.58 1845.72 C 1908.4 1815.9 1957.6 1773.14 1956.9 1718.15 C 1956.78 1709.01 1947.36 1705.07 1952.32 1693.39 z" fill="rgb(154,132,176)" transform="translate(0,0)"></path>
<path d="M 1905.26 981.585 C 1906.19 981.624 1907.67 981.647 1908.53 981.868 C 1910.79 982.421 1912.68 983.976 1913.65 986.09 C 1916.97 993.239 1913.88 1015.64 1911.9 1023.61 C 1900.67 1068.61 1862.96 1103.11 1824.58 1126.16 C 1821.08 1126.15 1820.84 1125.77 1818.79 1123.55 C 1818.63 1121.67 1818.31 1119.78 1820.2 1118.35 C 1827.1 1113.13 1835.77 1107.35 1842.61 1102.31 C 1853.32 1094.42 1863.15 1085.39 1871.93 1075.39 C 1888.24 1057.06 1903.9 1031.8 1904.92 1006.52 C 1905.2 999.582 1902.94 987.657 1905.26 981.585 z" fill="rgb(154,132,176)" transform="translate(0,0)"></path>
<metadata><recraft-signature>{"signed_by": "recraft", "signature_b64": "HWiDH7YXSAe+VtASP9D4d22PSJHZ9zVCYg+QiVH4vh2JXWRnNG1c9nOV8uS8ujxPJcwnCYtVFPK7zn0ocdPJDQ==", "signing_algo": "Ed25519", "generation_timestamp": 1773763978, "identifier": "d4952133-b21e-400a-b19c-0aa456b64a5a"}</recraft-signature></metadata></svg>