<svg xmlns="http://www.w3.org/2000/svg" height="1024" preserveAspectRatio="none" style="display: block;" version="1.1" viewBox="0 0 2048 2048" width="1024">
<defs>
	<linearGradient gradientUnits="userSpaceOnUse" id="Gradient1" x1="1810.79" x2="1792.04" y1="1257.08" y2="1264.85">
		<stop class="stop0" offset="0" stop-color="rgb(86,49,49)" stop-opacity="1"></stop>
		<stop class="stop1" offset="1" stop-color="rgb(122,67,78)" stop-opacity="1"></stop>
	</linearGradient>
</defs>
<path d="M 0 0 L 2048 0 L 2048 2048 L 0 2048 L 0 0 z" fill="rgb(255,255,255)" transform="translate(0,0)"></path>
<path d="M 818.113 385.416 C 841.405 382.961 878.385 384.458 901.468 387.888 C 1156.6 425.796 1301.31 634.015 1412.39 846.059 C 1499.53 1012.38 1584.05 1180.42 1620.16 1366.1 C 1674.58 1645.89 1511.23 1904.64 1227.56 1954.21 C 1214.57 1956.18 1201.51 1957.63 1188.41 1958.54 C 1058.47 1966.98 930.392 1924.16 831.646 1839.28 C 782.722 1795.55 739.83 1745.51 704.1 1690.47 C 667.585 1634.89 636.054 1569.91 608.483 1509.51 C 552.089 1387.25 511.289 1255.44 474.428 1126.68 C 427.88 964.086 383.523 794.277 460.08 633.439 C 479.063 593.56 495.053 563.589 525.088 529.538 C 599.479 444.139 705.061 392.209 818.113 385.416 z" fill="rgb(84,51,55)" transform="translate(0,0)"></path>
<path d="M 809.884 400.282 C 830.044 405.794 841.899 408.893 852.552 428.902 C 879.384 479.296 827.063 508.285 788.904 527.944 C 840.403 519.682 885.149 478.831 883.12 424.096 C 924.035 501.516 844.675 530.335 785.848 550.692 C 812.852 552.292 848.352 540.832 869.933 524.637 C 889.706 509.8 899.668 495.957 903.398 471.71 C 907.61 471.951 911.81 472.368 915.987 472.961 C 936.423 475.916 962.53 483.932 982.133 490.269 C 1061.26 515.848 1132.78 557.92 1191.46 617.074 C 1208.45 634.208 1223.75 648.857 1238.48 668.845 C 1275.8 719.49 1287.79 781.417 1279.32 843.03 C 1267.76 927.175 1217.13 985.456 1151.29 1034.07 C 1097.76 1071.38 1038.43 1096.39 976.382 1115.36 C 926.055 1130.98 874.266 1141.43 821.819 1146.55 C 791.999 1149.64 782.825 1150.67 756.08 1135.39 C 741.816 1127.24 724.867 1118.99 710.171 1111.18 C 684.957 1097.83 660.864 1082.47 638.13 1065.23 C 587.308 1027.18 553.778 987.711 535.104 925.862 C 504.052 823.016 533.518 705.022 598.701 621.327 C 620.725 593.047 649.025 567.106 677.877 545.96 C 696.672 532.185 766.185 496.381 773.113 481.887 C 775.292 477.33 775.194 471.746 773.495 467.066 C 768.296 452.751 752.72 443.076 739.662 436.968 C 751.893 436.799 767.506 439.284 779.247 442.846 C 797.699 448.442 804.003 460.243 812.276 475.886 C 825.055 449.829 825.967 425.561 809.884 400.282 z" fill="rgb(255,255,255)" transform="translate(0,0)"></path>
<path d="M 707.792 693.198 C 731.244 691.692 737.2 694.079 757.584 704.583 C 811.183 732.204 857.332 854.589 772.22 872.909 C 651.994 885.597 629.475 711.668 707.792 693.198 z" fill="rgb(84,51,55)" transform="translate(0,0)"></path>
<path d="M 739.415 720.145 C 776.634 717.737 799.049 770.294 763.68 780.972 C 753.786 781.245 743.714 777.535 736.444 770.905 C 724.286 759.816 722.786 750.615 721.875 735.63 C 726.837 725.82 728.951 723.652 739.415 720.145 z" fill="rgb(255,255,255)" transform="translate(0,0)"></path>
<path d="M 730.72 776.378 C 737.797 777.497 746.424 782.92 747.774 790.492 C 746.56 794.547 747.121 793.173 743.795 796.397 C 727.658 800.285 724.784 788.63 730.72 776.378 z" fill="rgb(255,255,255)" transform="translate(0,0)"></path>
<path d="M 705.797 735.82 C 718.37 736.678 721.475 745.727 710.157 752.14 C 696.576 750.305 696.396 744.079 705.797 735.82 z" fill="rgb(255,255,255)" transform="translate(0,0)"></path>
<path d="M 1022.91 570.343 C 1065.83 568.997 1115.93 621.635 1125.76 661.216 C 1134.22 695.317 1125.52 730.141 1087.02 738.798 C 1018.06 747.341 952.35 646.214 992.925 586.255 C 999.836 576.043 1011.07 571.873 1022.91 570.343 z" fill="rgb(84,51,55)" transform="translate(0,0)"></path>
<path d="M 1038.83 591.196 C 1051.89 590.632 1062.29 596.371 1070.29 606.432 C 1082.94 622.342 1085.9 636.917 1069.07 649.817 C 1039.18 660.383 1012.05 603.815 1038.83 591.196 z" fill="rgb(255,255,255)" transform="translate(0,0)"></path>
<path d="M 1045.09 652.726 C 1051.53 653.592 1058.03 655.391 1059.7 662.441 C 1059.02 666.41 1058.87 666.212 1055.97 669.231 C 1043.71 670.481 1036.4 663.993 1045.09 652.726 z" fill="rgb(255,255,255)" transform="translate(0,0)"></path>
<path d="M 1017.26 616.06 C 1029.74 617.693 1029.55 627.951 1017.84 632.491 C 1006.75 629.467 1004.75 620.113 1017.26 616.06 z" fill="rgb(255,255,255)" transform="translate(0,0)"></path>
<path d="M 1022.11 808.754 L 1023.75 809.329 C 1036.21 823.57 1046.49 880.657 1045.23 901.026 C 1045.04 917.972 1043.11 938.785 1029.06 950.9 C 1005.93 970.846 980.993 960.698 963.235 941.158 C 957.686 934.931 951.638 926.971 947.338 919.959 C 941.148 909.865 918.344 864.857 917.392 855.12 C 919.978 850.46 940.613 847.63 948.092 845.198 C 976.568 835.938 997.119 824.976 1022.11 808.754 z" fill="rgb(84,51,55)" transform="translate(0,0)"></path>
<path d="M 1021.92 815.849 C 1027.91 817.977 1037.46 865.901 1038.09 873.693 C 1039.11 886.076 1039.17 899.387 1038.91 911.868 C 1008.69 891.488 987.985 891.053 953.003 899.812 C 950.375 901.182 948.333 903.317 946.118 905.328 C 938.395 890.868 930.369 872.545 923.435 857.603 C 958.532 849.794 991.909 835.644 1021.92 815.849 z" fill="rgb(171,119,122)" transform="translate(0,0)"></path>
<path d="M 974.246 900.374 C 988.242 898.671 999.979 899.485 1013.45 903.409 C 1049.43 913.893 1039.84 942.592 1010.85 954.734 C 979.972 958.939 959.203 932.32 947.664 907.023 C 957.475 903.061 963.859 901.709 974.246 900.374 z" fill="rgb(250,191,187)" transform="translate(0,0)"></path>
<path d="M 703.073 920.506 C 724.512 914.075 738.244 911.61 760.396 913.227 C 805.826 917.662 814.117 954.297 777.318 980.523 C 750.129 999.9 712.99 1011.39 679.114 1007.07 C 629.214 997.65 638.771 957.33 672.637 934.868 C 682.014 928.598 692.271 923.758 703.073 920.506 z" fill="rgb(250,191,187)" transform="translate(0,0)"></path>
<path d="M 760.396 913.227 C 805.826 917.662 814.117 954.297 777.318 980.523 C 750.129 999.9 712.99 1011.39 679.114 1007.07 C 629.214 997.65 638.771 957.33 672.637 934.868 C 682.014 928.598 692.271 923.758 703.073 920.506 L 706.531 922.648 C 698.189 925.218 690.166 928.729 682.617 933.112 C 652.586 950.405 626.882 989.849 677.706 1002.29 C 705.805 1009.16 748.442 994.446 771.882 979.557 C 786.006 970.585 805.046 947.827 791.568 930.538 C 783.65 920.312 767.138 917.823 754.943 916.031 L 753.701 914.789 C 756.077 914.138 757.999 913.728 760.396 913.227 z" fill="rgb(78,32,36)" transform="translate(0,0)"></path>
<path d="M 703.073 920.506 C 724.512 914.075 738.244 911.61 760.396 913.227 C 757.999 913.728 756.077 914.138 753.701 914.789 L 754.943 916.031 C 738.534 915.859 722.217 917.586 706.531 922.648 L 703.073 920.506 z" fill="rgb(8,1,1)" transform="translate(0,0)"></path>
<path d="M 1208.85 693.35 C 1271.45 688.384 1257.12 775.408 1180.77 787.125 C 1133.23 787.88 1127.4 756.083 1153.15 723.993 C 1166.82 706.677 1186.91 695.625 1208.85 693.35 z" fill="rgb(78,32,36)" transform="translate(0,0)"></path>
<path d="M 1209.21 697.383 C 1270.34 693.941 1245.11 773.888 1180.66 783.145 C 1108.49 784.292 1150.95 703.958 1209.21 697.383 z" fill="rgb(250,191,187)" transform="translate(0,0)"></path>
<path d="M 702.49 584.107 C 734.269 580.909 725.2 604.452 710.59 619.38 C 702.308 627.843 694.492 632.829 683.668 637.386 C 639.056 647.916 668.095 595.283 702.49 584.107 z" fill="rgb(84,51,55)" transform="translate(0,0)"></path>
<path d="M 930.506 503.303 C 937.094 503.268 945.914 504.67 951.6 508.103 C 958.598 512.329 959.331 520.466 954.104 526.623 C 946.636 535.42 935.971 536.463 925.249 537.911 C 877.926 541.122 889.817 508.538 930.506 503.303 z" fill="rgb(84,51,55)" transform="translate(0,0)"></path>
<path d="M 459.349 991.91 C 579.051 1146.79 779.81 1231.63 959.632 1295.38 C 1060.38 1331.09 1163.35 1359.06 1263.51 1396.71 C 1209.61 1553.55 1132.56 1694.88 1006.37 1806.12 C 978.419 1830.75 949.132 1854.31 915.54 1870.75 L 913.483 1871.75 C 802.152 1807.57 733.289 1707.52 672.719 1596.9 C 657.008 1568.2 636.789 1527.39 625.439 1496.51 C 674.918 1559.47 753.986 1626.1 833.188 1645.19 L 833.158 1643.89 C 818.024 1639.82 793.045 1627.64 778.931 1619.92 C 727.624 1591.8 683.054 1553.04 644.238 1509.53 C 628.166 1491.51 618.146 1480.61 609.193 1458.08 C 595.912 1424.66 579.905 1392.25 569.681 1357.59 C 582.796 1373.56 591.58 1385.63 606.173 1401.08 C 666.221 1464.69 739.675 1514.77 823.727 1540.29 L 824.44 1539.03 C 733.572 1505.06 653.133 1447.98 591.061 1373.42 C 583.457 1364.28 564.921 1343.29 561.197 1333.69 C 552.222 1310.55 544.267 1285.05 536.316 1261.43 C 507.368 1172.56 481.695 1082.66 459.349 991.91 z" fill="rgb(205,225,215)" transform="translate(0,0)"></path>
<path d="M 833.158 1643.89 C 837.654 1644.99 846.124 1646.89 850.198 1648.63 L 849.185 1649.82 L 849.379 1648.25 L 848.079 1649.67 L 848.532 1647.9 L 847.021 1649.49 C 842.359 1648.37 837.275 1647.52 833.188 1645.19 L 833.158 1643.89 z" fill="rgb(175,179,175)" transform="translate(0,0)"></path>
<path d="M 824.44 1539.03 C 827.808 1540.02 832.484 1540.95 834.944 1543.2 C 831.159 1543.46 827.379 1541.63 823.727 1540.29 L 824.44 1539.03 z" fill="rgb(135,125,122)" transform="translate(0,0)"></path>
<path d="M 1378.11 830.842 C 1380.14 833.133 1386.78 845.368 1388.87 849.056 C 1398.18 865.548 1407.33 882.127 1416.33 898.791 C 1442.52 947.044 1467.21 999.672 1489.99 1049.6 C 1541.46 1163.73 1589.03 1279.75 1604.62 1404.99 C 1638 1673.34 1471.21 1902.68 1201.22 1935.94 C 1126.04 1943.04 1050.24 1932.48 979.864 1905.12 C 988.343 1897.71 999.412 1891.31 1008.58 1884.55 C 1225.95 1724.42 1337.58 1461.03 1372.56 1200.24 C 1381.28 1133.04 1385.54 1065.33 1385.33 997.569 C 1385.46 943.042 1384.01 885.106 1378.11 830.842 z" fill="rgb(205,225,215)" transform="translate(0,0)"></path>
<path d="M 800.958 406.497 C 812.49 408.448 811.454 445.185 810.74 453.539 C 793.445 435.182 774.745 429.426 750.096 426.894 C 743.093 426.175 714.663 428.695 714.946 437.412 C 720.482 443.725 732.341 444.727 739.943 447.721 C 749.105 451.328 759.257 459.266 762.909 468.783 C 764.429 472.744 764.204 476.415 761.644 479.912 C 753.676 490.795 698.822 519.252 682.256 530.432 C 618.546 572.6 568.838 632.788 539.471 703.319 C 506.851 782.746 500.803 875.286 533.786 955.875 C 541.131 973.82 554.019 998.385 566.237 1012.95 C 628.343 1086.96 718.981 1131.22 804.64 1170.64 C 870.133 1200.33 936.956 1226.99 1004.9 1250.54 C 1093.27 1280.49 1194.6 1307.44 1279.61 1342.31 C 1276.91 1350.72 1274.4 1359.46 1271.84 1367.94 C 1269.95 1375.01 1267.62 1382.2 1265.45 1389.22 C 1240.47 1380 1214.39 1370.16 1188.98 1361.82 C 1142.2 1346.47 1095.02 1333.13 1048.12 1317.83 C 878.744 1262.57 706.984 1200.31 565.565 1088.6 C 533.958 1063.63 473.828 1008.72 455.414 971.498 C 450.295 961.151 441.676 892.178 439.982 877.889 C 427.055 768.821 460.943 638.034 531.048 552.13 C 598.258 469.85 695.288 417.496 800.958 406.497 z" fill="rgb(205,225,215)" transform="translate(0,0)"></path>
<path d="M 1314.9 716.715 C 1319.74 720.255 1365.4 800.643 1366.14 806.819 C 1411.43 1185.67 1328.91 1627.2 1011.64 1873.34 C 998.907 1883.22 984.547 1891.53 971.506 1901.2 C 956.618 1895.49 936.471 1884.8 921.849 1877.41 C 935.214 1871.84 951.809 1860.07 963.704 1851.35 C 1016.75 1812.07 1064.21 1765.77 1104.78 1713.71 C 1273.54 1496.4 1328.62 1250.19 1330.08 979.685 C 1330.38 891.801 1325.31 803.98 1314.9 716.715 z" fill="rgb(205,225,215)" transform="translate(0,0)"></path>
<path d="M 1321.53 956.619 C 1323.56 962.573 1322.68 993.726 1322.47 1002.09 C 1319.76 1111.17 1307.76 1226.14 1282.07 1332.11 C 1229.31 1311.07 1191.71 1298.69 1137.5 1281.96 C 1119.69 1276.41 1102 1270.5 1084.43 1264.23 C 1158.56 1195.86 1229.32 1105.68 1284.49 1021.18 C 1296.11 1003.37 1311.27 975.409 1321.53 956.619 z" fill="rgb(205,225,215)" transform="translate(0,0)"></path>
<path d="M 1315.77 806.092 C 1317.16 816.11 1316.96 832.77 1317.84 843.856 C 1320.49 877.105 1321.94 909.354 1322 942.715 C 1315.87 951.357 1307.12 968.15 1301.44 978.031 C 1290.68 996.734 1279.32 1015.09 1267.37 1033.06 C 1212.45 1116.09 1148.73 1192.95 1077.31 1262.3 C 1066.73 1259.47 1052.36 1254.16 1041.73 1250.52 C 1036.02 1248.36 1027.14 1245.99 1021.07 1244.19 C 1117.45 1169.04 1241.04 1009.13 1289.95 895.17 C 1297.67 877.199 1304.22 852.523 1309.22 833.3 C 1311.39 824.917 1312.82 815.143 1315.5 806.891 L 1315.77 806.092 z" fill="rgb(205,225,215)" transform="translate(0,0)"></path>
<path d="M 842.916 404.92 C 853.826 404.739 864.738 404.758 875.647 404.975 C 1066.08 425.197 1210.71 540.943 1304.6 704.015 C 1311.43 715.886 1310.85 771.679 1309.39 785.41 C 1306.15 814.665 1299.25 843.398 1288.85 870.933 C 1291.93 853.191 1295.26 836.012 1296.89 817.992 C 1302.21 759.037 1282.23 712.246 1249.18 664.709 C 1182.59 568.959 1057.47 488.438 942.232 468.826 C 929.732 466.652 917.101 465.315 904.423 464.823 C 903.545 445.663 897.081 413.178 876.335 406.687 C 867.383 412.077 878.898 437.747 870.158 454.157 C 865.043 431.065 860.691 420.689 842.916 404.92 z" fill="rgb(205,225,215)" transform="translate(0,0)"></path>
<path d="M 1045.39 1106 C 1054.32 1106.78 1112.55 1126.78 1123.77 1130.81 C 1116.09 1141.13 1103.29 1153.87 1094.5 1163.65 C 1067.97 1193.17 1042.13 1216.28 1011.67 1241.19 L 920.757 1207.49 C 898.108 1199.14 873.583 1188.16 850.951 1179.24 C 840.66 1175.18 813.584 1164.17 805.471 1158.98 C 885.211 1158.42 970.754 1132.02 1045.39 1106 z" fill="rgb(255,255,255)" transform="translate(0,0)"></path>
<path d="M 1246.66 958.868 C 1246.92 966.034 1208.7 1022.11 1202.34 1030.61 C 1179.48 1061.23 1155.51 1092.83 1130.79 1121.93 C 1113.04 1115.21 1097.82 1109.8 1079.69 1104.28 C 1073.43 1102.08 1066.69 1100.51 1060.25 1098.85 C 1078.28 1088.65 1099.53 1079.7 1118.72 1068.76 C 1171.2 1038.83 1208.54 1005.16 1246.66 958.868 z" fill="rgb(255,255,255)" transform="translate(0,0)"></path>
<path d="M 1216.24 88.9812 C 1241.96 88.6715 1269.7 153.173 1282.95 174.331 C 1311.93 170.857 1340.58 166.738 1369.8 165.337 C 1398.13 163.978 1404.27 185.307 1387.9 205.533 C 1371.18 226.178 1350.99 246.96 1331.34 264.943 C 1342.48 284.897 1356.72 311.308 1365.17 332.273 C 1396.61 410.197 1295.02 352.749 1270.25 341.404 C 1267.03 339.89 1262.84 338.271 1259.48 336.855 C 1167.93 445.354 1151.12 408.988 1170.27 289.503 C 1155.97 282.872 1141.77 276.02 1127.69 268.952 C 1079.64 245.119 1054.43 224.047 1125.67 206.604 C 1144.94 201.886 1164.24 197.273 1183.8 193.549 C 1189.92 166.422 1190.6 134.373 1199.67 107.559 C 1202.81 98.2724 1207.44 92.9 1216.24 88.9812 z" fill="rgb(84,51,55)" transform="translate(0,0)"></path>
<path d="M 1217.14 97.8321 C 1236.86 99.4263 1265.62 162.89 1277.93 180.757 L 1278.97 182.249 C 1294.96 179.962 1375.09 168.347 1386.14 177.934 C 1388.07 179.601 1388.71 182.126 1388.6 184.569 C 1387.84 201.828 1335.57 249.835 1320.64 262.691 C 1332.55 283.944 1356.53 328.543 1362.88 350.216 C 1374.01 388.136 1283.46 338.572 1271.38 332.793 L 1256.69 326.168 C 1256.31 326.724 1255.93 327.285 1255.54 327.836 C 1244.16 343.772 1200.82 391.095 1183.83 393.125 C 1180.97 393.467 1178.08 392.72 1176.13 390.507 C 1165.12 378 1177.06 301.517 1179.38 283.974 C 1162.19 276.518 1098.33 250.913 1092.48 235.966 C 1091.61 233.738 1091.69 231.422 1092.93 229.349 C 1100.96 215.934 1174.58 203.981 1192.69 200.493 C 1193.31 181.259 1197.73 158.665 1200.4 139.458 C 1202.19 126.56 1205.33 104.827 1217.14 97.8321 z" fill="rgb(250,191,187)" transform="translate(0,0)"></path>
<path d="M 292.252 389.683 C 296.434 390.508 299.027 392.711 298.474 397.356 C 295.281 424.17 290.952 449.862 297.858 476.654 C 307.687 514.786 347.028 530.504 378.751 546.825 C 382.019 548.503 385.072 550.412 386.016 554.012 C 381.766 558.516 365.45 554.984 359.794 553.596 C 272.595 532.211 251.438 574.221 215.396 646.508 C 211.611 647.816 213.485 647.689 209.561 646.909 C 206.797 642.362 211.388 623.754 212.35 617.671 C 221.719 558.41 210.822 515.844 155.576 485.739 C 148.686 481.985 129.752 473.545 125.473 467.71 L 125.922 466.221 C 132.651 463.853 153.778 469.114 163.803 469.902 C 174.392 470.832 185.037 470.957 195.645 470.275 C 236.582 467.321 255.63 451.596 274.993 416.701 C 278.633 410.141 287.721 394.875 292.252 389.683 z" fill="rgb(84,51,55)" transform="translate(0,0)"></path>
<path d="M 288.558 408.943 L 290.174 404.549 L 292.927 403.487 L 291.507 403.189 L 293.713 403.166 C 297.098 408.716 291.138 418.449 287.803 423.059 C 285.853 452.647 285.575 482.585 305.44 506.851 C 321.192 526.093 338.639 533.569 359.397 545.659 C 277.292 530.445 255.793 553.833 218.697 623.419 C 221.144 596.273 226.593 575.547 217.742 547.75 C 205.754 510.103 185.163 493.597 151.747 475.818 C 168.534 478.002 199.618 477.922 216.035 474.7 C 258.058 466.453 267.876 439.494 288.558 408.943 z" fill="rgb(255,255,255)" transform="translate(0,0)"></path>
<path d="M 288.558 408.943 L 290.174 404.549 L 292.927 403.487 L 291.507 403.189 L 293.713 403.166 C 297.098 408.716 291.138 418.449 287.803 423.059 C 288.108 418.357 288.359 413.651 288.558 408.943 z" fill="rgb(78,32,36)" transform="translate(0,0)"></path>
<path d="M 192.861 958.912 C 213.759 961.818 225.614 983.119 237.532 998.776 C 249.675 993.982 282.733 982.12 294.038 989.165 C 296.407 990.621 298.072 992.988 298.641 995.709 C 301.75 1010.19 282.665 1032.45 274.587 1044.21 C 282.474 1055.78 313.181 1088.96 295.755 1100.25 C 286.063 1106.52 251.1 1092.36 241.221 1088.7 C 235.381 1091.1 213.433 1136.46 202.975 1138.53 C 186.25 1141.83 185.437 1086.95 184.417 1075.69 C 172.49 1071.61 140.226 1064.4 135.471 1053.77 C 127.941 1036.94 176.949 1020.64 186.421 1017.52 C 184.432 1001.3 178.457 969.414 192.861 958.912 z" fill="rgb(84,51,55)" transform="translate(0,0)"></path>
<path d="M 194.885 967.79 C 211.203 967.512 225.603 994.796 232.986 1007.41 C 247.532 1002.74 262.826 997.504 277.897 994.738 C 283.194 993.766 286.824 994.261 290.289 998.399 C 293.351 1012.24 272.683 1031.37 265.612 1043.71 C 271.884 1052.86 300.229 1085.2 290.191 1094.1 C 280.326 1096.67 249.424 1084.37 238.732 1080.13 C 236.185 1081 235.324 1080.85 233.67 1083.42 C 223.468 1099.29 214.65 1118.63 200.687 1131.75 C 194.508 1116.2 193.204 1087.87 190.62 1069.81 C 170.879 1062.45 160.264 1063.6 141.339 1050.07 C 155.151 1035.11 175.373 1029.79 194.239 1023.15 C 192.743 1008.65 188.022 979.46 194.885 967.79 z" fill="rgb(250,191,187)" transform="translate(0,0)"></path>
<path d="M 1835.54 360.983 C 1851.59 365.035 1851.81 397.243 1855.51 411.869 L 1855.84 413.143 C 1873.99 417.381 1933.4 417.372 1896.86 447.338 C 1886.69 455.684 1875.54 460.906 1863.7 466.318 C 1864.55 470.779 1865.26 475.266 1865.83 479.771 C 1867.31 491.247 1871.81 515.269 1865.06 524.013 C 1850.16 531.713 1827.85 497.981 1818.17 488.734 L 1815.89 489.788 C 1805.09 498.074 1778.26 519.508 1765.8 511.918 C 1752.86 504.035 1777.67 462.793 1782.42 455.835 C 1764.55 442.297 1718.87 399.663 1773.99 402.594 C 1783.39 403.093 1794.12 404.286 1803.19 406.837 C 1807.64 391.17 1818.74 366.139 1835.54 360.983 z" fill="rgb(84,51,55)" transform="translate(0,0)"></path>
<path d="M 1832.75 368.774 C 1834.25 368.909 1836.54 368.824 1837.45 369.633 C 1845.22 376.58 1847.74 407.888 1849.07 417.574 C 1860.7 420.848 1893.13 424.462 1900.16 429.629 C 1905.3 441.935 1865.76 458.259 1856.21 462.261 C 1857.81 472.965 1865.46 510.098 1859.47 516.755 C 1847.73 518.595 1828.4 486.371 1818.71 480.936 C 1817.29 480.138 1816.54 481.156 1814.48 482.26 C 1807.06 488.578 1780.08 509.781 1771.17 506.436 C 1765.86 497.037 1782.87 464.257 1790.38 456.998 C 1790.49 456.182 1790.61 455.366 1790.72 454.55 C 1782.09 444.2 1757.06 427.493 1754.41 413.871 C 1758.07 401.988 1798.42 412.507 1807.61 415.073 C 1811.54 400.251 1821.16 379.152 1832.75 368.774 z" fill="rgb(250,191,187)" transform="translate(0,0)"></path>
<path d="M 1802.94 750.55 C 1805.43 750.571 1805.34 750.752 1807.56 751.986 C 1808.22 753.747 1808.94 754.911 1808.07 756.839 C 1795.97 783.409 1788.8 803.453 1790.12 832.497 C 1791.3 858.565 1832.46 887.498 1834.35 894.777 C 1830.99 899.676 1814.52 892.642 1809.39 891.139 C 1797.96 887.797 1786.74 883.865 1774.99 881.625 C 1768.41 880.411 1761.69 880.215 1755.05 881.045 C 1717.72 885.655 1694.13 935.11 1683.79 937.7 C 1682.96 935.799 1681.54 933.571 1682.33 931.527 C 1700.91 883.117 1720.67 846.288 1676.82 804.873 C 1671.7 800.035 1658.12 790.1 1659.58 782.55 C 1661.65 781.733 1663.28 781.217 1665.49 782.249 C 1682.37 790.187 1698.64 800.414 1717.44 803.149 C 1756.41 808.817 1777.06 770.415 1802.94 750.55 z" fill="rgb(84,51,55)" transform="translate(0,0)"></path>
<path d="M 1796.05 764.972 C 1796.57 766.716 1788.36 786.138 1786.9 791.098 C 1784.24 800.046 1782.73 809.291 1782.39 818.617 C 1781.49 848.242 1795.49 865.426 1815.23 886.138 C 1773.5 869.693 1737.01 867.007 1707.17 902.947 C 1705.04 905.509 1699.78 911.735 1696.9 912.204 C 1715.3 860.961 1718.62 835.586 1676.31 795.256 C 1735.33 822.834 1752.5 808.819 1796.05 764.972 z" fill="rgb(255,255,255)" transform="translate(0,0)"></path>
<path d="M 255.86 1367.43 C 257.938 1367.85 258.971 1367.93 260.466 1369.88 C 275.398 1389.32 297.349 1419.25 321.968 1426.2 C 346.882 1433.24 376.696 1418.57 400.28 1412.42 C 402.392 1411.87 403.08 1412.95 404.622 1414.1 C 406.799 1420.5 392.845 1427.9 388.105 1431.02 C 343.884 1460.09 344.28 1496.03 362.894 1541.24 C 365.501 1547.57 368.138 1553.34 365.788 1559.87 C 357.482 1558.49 349.259 1544.44 343.742 1537.63 C 338.177 1530.79 332.134 1524.36 325.66 1518.38 C 294.819 1490.02 276.878 1501.91 240.091 1511.45 C 232.742 1513.36 225.602 1516.07 217.905 1516.41 L 217.024 1514.92 C 218.015 1508.71 234.628 1499.63 240.478 1494.73 C 246.119 1490 251.334 1484.77 256.061 1479.12 C 286.473 1442.14 259.639 1412.54 252.754 1373.44 C 252.235 1370.5 253.985 1369.35 255.86 1367.43 z" fill="rgb(84,51,55)" transform="translate(0,0)"></path>
<path d="M 262.104 1384.58 C 264.901 1386.42 271.062 1394.6 273.324 1397.43 C 308.148 1441.1 338.761 1438.78 386.935 1423.24 C 341.198 1457.14 334.181 1485.6 354.748 1539.18 C 352.778 1539.43 350.644 1535.51 348.806 1533.19 C 338.667 1520.35 328.524 1510.02 314.095 1502.13 C 287.454 1487.55 262.958 1497.34 235.948 1505.53 C 289.095 1466.94 280.816 1440.22 262.104 1384.58 z" fill="rgb(255,255,255)" transform="translate(0,0)"></path>
<path d="M 1776.57 1232.88 C 1770.07 1229.92 1766.88 1229.06 1762.43 1223.43 L 1762.77 1221.94 C 1767.04 1220.79 1774.43 1222.21 1778.77 1222.9 C 1804.11 1226.9 1824.38 1227.9 1838.89 1202.69 C 1842.26 1196.84 1850.02 1176.72 1852.58 1174.39 L 1854.47 1173.97 C 1861.05 1180.17 1848.57 1225.99 1865.75 1242.06 C 1874.91 1250.63 1906.1 1263.49 1907.78 1267.27 L 1906.39 1269.59 C 1899.2 1270.67 1890.51 1268.95 1882.92 1268.73 C 1860.24 1268.1 1846.02 1271.13 1830.98 1289.4 C 1823.96 1297.92 1816.75 1320.63 1812 1322.57 C 1808.55 1318.51 1811.46 1302.14 1811.95 1296.44 C 1813.32 1258.6 1807.37 1252.33 1776.57 1232.88 z" fill="rgb(255,255,255)" transform="translate(0,0)"></path>
<path d="M 1776.57 1232.88 C 1770.07 1229.92 1766.88 1229.06 1762.43 1223.43 L 1762.77 1221.94 C 1767.04 1220.79 1774.43 1222.21 1778.77 1222.9 C 1804.11 1226.9 1824.38 1227.9 1838.89 1202.69 C 1842.26 1196.84 1850.02 1176.72 1852.58 1174.39 L 1854.47 1173.97 C 1861.05 1180.17 1848.57 1225.99 1865.75 1242.06 C 1874.91 1250.63 1906.1 1263.49 1907.78 1267.27 L 1906.39 1269.59 C 1899.2 1270.67 1890.51 1268.95 1882.92 1268.73 C 1860.24 1268.1 1846.02 1271.13 1830.98 1289.4 C 1823.96 1297.92 1816.75 1320.63 1812 1322.57 C 1808.55 1318.51 1811.46 1302.14 1811.95 1296.44 C 1814.99 1297.15 1817.47 1296.5 1819.42 1297.14 C 1832.5 1266.69 1856.66 1263.09 1885.72 1261.7 C 1850.74 1245.9 1850.98 1233.09 1849.25 1198.1 C 1830.76 1227.1 1819.35 1234.08 1784.33 1229.83 C 1780.71 1228.58 1782.41 1228.5 1779.06 1229.71 L 1776.57 1232.88 z" fill="rgb(84,51,55)" transform="translate(0,0)"></path>
<path d="M 1776.57 1232.88 L 1779.06 1229.71 C 1782.41 1228.5 1780.71 1228.58 1784.33 1229.83 C 1801.91 1242.71 1814.5 1250.46 1818.01 1273.81 C 1819.35 1282.76 1818.59 1289.73 1819.42 1297.14 C 1817.47 1296.5 1814.99 1297.15 1811.95 1296.44 C 1813.32 1258.6 1807.37 1252.33 1776.57 1232.88 z" fill="url(#Gradient1)" transform="translate(0,0)"></path>
<path d="M 665.779 124.427 C 669.335 126.423 681.656 153.892 685.158 160.721 C 696.167 182.193 748.626 172.81 753.816 180.424 C 752.319 183.165 727.586 193.167 723.849 194.802 C 687.853 210.551 702.656 240.97 699.194 271.131 C 699.001 272.814 697.264 272.957 695.5 273.749 C 684.705 254.305 683.952 237 664.447 221.266 C 650.702 210.178 611.566 217.923 608.055 210.857 C 611.429 207.001 621.182 204.871 625.989 203.594 C 662.106 193.992 664.298 176.707 663.364 142.616 C 663.149 134.781 662.051 131.075 665.779 124.427 z" fill="rgb(84,51,55)" transform="translate(0,0)"></path>
<path d="M 669.281 143.822 C 672.282 147.345 673.833 157.083 682.808 166.406 C 699.084 183.314 713.1 181.915 734.759 183.123 C 698.207 200.845 691.249 208.104 693.502 249.76 C 693.588 250.137 693.596 252.391 693.605 252.86 C 690.468 250.094 683.684 231.378 675.638 223.267 C 661.416 208.929 652.825 208.657 633.568 207.675 C 666.966 195.727 671.02 176.235 669.281 143.822 z" fill="rgb(255,255,255)" transform="translate(0,0)"></path>
<path d="M 499.328 1730.27 C 500.713 1730.48 503.223 1730.57 503.912 1731.39 C 514.013 1743.42 515.166 1761.33 529.286 1771.27 C 540.799 1779.38 569.566 1775.04 578.525 1779.36 C 575.835 1785.01 547.598 1794.02 539.541 1802.6 C 525.459 1817.6 537.823 1853.33 528.569 1862.7 C 526.356 1860.17 515.258 1834.42 512.666 1829.69 C 497.191 1801.42 480.988 1813.78 455.914 1809.77 C 453.529 1809.38 453.515 1808.65 452.772 1807.18 C 455.189 1803.18 480.204 1793.34 488.071 1786.15 C 508.632 1767.36 497.194 1752.62 499.328 1730.27 z" fill="rgb(84,51,55)" transform="translate(0,0)"></path>
<path d="M 504.932 1747.72 C 510.003 1755.51 511.069 1761.92 518.941 1769.67 C 531.753 1782.28 544.288 1782.93 560.702 1783.47 C 526.496 1799.31 527.536 1805.85 525.907 1840.08 L 524.657 1840.32 C 512.58 1810.87 501.367 1799.52 467.788 1805.19 C 498.075 1790.19 507.485 1783.74 504.932 1747.72 z" fill="rgb(255,255,255)" transform="translate(0,0)"></path>
<path d="M 1407.62 500.259 C 1415.5 502.655 1420.29 518.409 1423.85 526.119 C 1434.01 548.142 1462.4 530.365 1474.96 533.874 C 1475.39 542.564 1445.12 552.389 1439.97 562.659 C 1435.94 570.684 1442.65 589.93 1444.94 599.79 L 1444.91 602.977 C 1442.8 606.582 1444.24 605.716 1441.12 606.632 C 1432.55 601.449 1427.65 580.912 1418.42 572.816 C 1407.62 563.346 1386.8 575.565 1379.12 568.32 C 1381.33 561.065 1399.19 553.878 1403.92 545.728 C 1411.42 532.798 1400.56 509.886 1407.62 500.259 z" fill="rgb(84,51,55)" transform="translate(0,0)"></path>
<path d="M 1413.2 519.76 C 1427.91 541.804 1424.76 546.19 1454.6 542.427 C 1434.75 554.121 1429.42 557.565 1434.16 581.501 L 1433.94 581.782 L 1432.92 581.787 C 1422.99 562.728 1414.45 561.637 1394.08 563.853 C 1415.27 548.409 1413.15 544.275 1413.2 519.76 z" fill="rgb(255,255,255)" transform="translate(0,0)"></path>
<metadata><recraft-signature>{"signed_by": "recraft", "signature_b64": "OAOFfqhyUmfH2aaCCpAOZv76NsW6xsyYulWv7ydhrb64XRjzA+8BUSind1hBQLAEnWR7a5xRYIE6P/jK6//lBA==", "signing_algo": "Ed25519", "generation_timestamp": 1773763937, "identifier": "af2cdee7-4f28-42f8-8fc4-7bbdaf3b844c"}</recraft-signature></metadata></svg>