<svg xmlns="http://www.w3.org/2000/svg" height="1024" preserveAspectRatio="none" style="display: block;" version="1.1" viewBox="0 0 2048 2048" width="1024">
<defs>
	<linearGradient gradientUnits="userSpaceOnUse" id="Gradient1" x1="659.215" x2="605.285" y1="1820.27" y2="1740.91">
		<stop class="stop0" offset="0" stop-color="rgb(172,86,57)" stop-opacity="1"></stop>
		<stop class="stop1" offset="1" stop-color="rgb(195,109,79)" stop-opacity="1"></stop>
	</linearGradient>
</defs>
<path d="M 0 0 L 2048 0 L 2048 2048 L 0 2048 L 0 0 z" fill="rgb(255,255,255)" transform="translate(0,0)"></path>
<path d="M 556.131 373.212 C 556.683 350.623 557.826 328.015 562.74 305.911 C 580.651 227.594 624.46 163.732 691.104 119.228 C 814.968 36.5139 978.79 60.1663 1069.6 179.356 C 1079.69 192.59 1088.05 206.022 1097.22 219.95 C 1109.66 201.556 1131.09 179.514 1147.99 164.942 C 1203.55 117.018 1287.05 91.9345 1359.59 97.6604 C 1419.11 102.358 1472.27 123.022 1517.85 161.954 C 1530.71 172.937 1541.38 181.465 1552.63 195.085 C 1586.28 235.827 1608.49 291.645 1612.63 344.284 C 1614.07 362.541 1612.36 382.472 1610.74 400.497 C 1649.66 394.058 1677.91 392.079 1717.27 396.396 C 1899.96 416.43 2022.75 600.128 1998.78 777.09 C 1987.69 858.922 1943.45 943.47 1877.05 994.181 C 1813.01 1043.67 1731.88 1065.56 1651.64 1055.01 C 1589.74 1046.58 1530.92 1020.24 1485.92 976.513 C 1470.7 961.719 1449.71 935.46 1436.71 918.369 C 1407.51 1001.3 1347.33 1062.95 1259.51 1082.22 C 1186.91 1098.02 1111.02 1084.61 1048.24 1044.88 C 1004.5 1016.6 971.52 977.066 954.586 927.433 C 949.77 913.316 946.394 896.68 943.244 882.034 C 849.168 983.757 668.493 972.262 612.82 838.294 C 610.132 831.826 607.922 825.583 605.73 818.942 C 589.137 833.89 577.105 840.497 558.65 852.691 C 554.513 853.166 541.059 850.624 537.174 849.932 C 513.444 845.709 506.322 857.477 488.284 868.798 C 482.177 872.632 475.258 873.658 468.091 871.532 C 466.78 868.72 466.512 858.307 466.494 855.045 L 477.932 853.88 L 477.665 853.436 L 472.804 852.786 C 471.543 852.901 465.816 853.576 465.317 851.842 C 459.612 831.958 457.41 804.012 437.266 792.602 C 407.976 776.011 377.8 811.675 364.927 833.522 C 362.021 838.706 356.456 849.513 353.433 854.083 C 343.201 851.894 331.377 847.299 321.83 843.112 C 265.927 818.735 222.188 772.885 200.471 715.897 C 177.212 655.142 179.199 587.611 205.989 528.328 C 239.707 453.619 297.911 399.825 374.45 371.067 C 432.012 349.44 499.512 347.634 556.131 373.212 z" fill="rgb(255,255,255)" transform="translate(0,0)"></path>
<path d="M 556.131 373.212 C 556.683 350.623 557.826 328.015 562.74 305.911 C 580.651 227.594 624.46 163.732 691.104 119.228 C 814.968 36.5139 978.79 60.1663 1069.6 179.356 C 1079.69 192.59 1088.05 206.022 1097.22 219.95 C 1109.66 201.556 1131.09 179.514 1147.99 164.942 C 1203.55 117.018 1287.05 91.9345 1359.59 97.6604 C 1419.11 102.358 1472.27 123.022 1517.85 161.954 C 1530.71 172.937 1541.38 181.465 1552.63 195.085 C 1586.28 235.827 1608.49 291.645 1612.63 344.284 C 1614.07 362.541 1612.36 382.472 1610.74 400.497 C 1649.66 394.058 1677.91 392.079 1717.27 396.396 C 1899.96 416.43 2022.75 600.128 1998.78 777.09 C 1987.69 858.922 1943.45 943.47 1877.05 994.181 C 1813.01 1043.67 1731.88 1065.56 1651.64 1055.01 C 1589.74 1046.58 1530.92 1020.24 1485.92 976.513 C 1470.7 961.719 1449.71 935.46 1436.71 918.369 C 1407.51 1001.3 1347.33 1062.95 1259.51 1082.22 C 1186.91 1098.02 1111.02 1084.61 1048.24 1044.88 C 1004.5 1016.6 971.52 977.066 954.586 927.433 C 949.77 913.316 946.394 896.68 943.244 882.034 C 849.168 983.757 668.493 972.262 612.82 838.294 C 610.132 831.826 607.922 825.583 605.73 818.942 C 589.137 833.89 577.105 840.497 558.65 852.691 C 554.513 853.166 541.059 850.624 537.174 849.932 C 513.444 845.709 506.322 857.477 488.284 868.798 C 482.177 872.632 475.258 873.658 468.091 871.532 C 466.78 868.72 466.512 858.307 466.494 855.045 L 477.932 853.88 L 477.665 853.436 L 472.804 852.786 C 521.238 844.849 550.949 836.995 589.63 802.786 C 599.968 793.643 608.621 782.437 618.339 773.613 L 619.234 772.814 C 620.862 782.589 621.597 792.237 623.667 802.13 C 629.851 831.779 644.43 859.026 665.666 880.621 C 697.476 912.568 742.957 927.613 787.498 927.78 C 847.106 928.002 903.245 897.62 941.496 852.977 C 947.534 845.93 953.438 839.069 959.952 832.435 C 960.331 877.271 966.676 919.992 991.584 958.722 C 1026.02 1012.18 1080.62 1049.44 1142.96 1062 C 1248.42 1084.09 1358.84 1042.03 1405.59 941.348 C 1418.09 914.437 1424.04 888.417 1430.12 859.692 C 1465.8 939.456 1522.88 999.768 1608.27 1024.87 C 1741.92 1064.16 1873.27 1006.56 1940.22 886.441 C 1981.39 813.363 1991.63 726.86 1968.67 646.189 C 1945.67 566.492 1894.73 493.967 1821.3 453.443 C 1763.94 421.127 1697.42 408.919 1632.33 418.761 C 1614.09 421.581 1598.17 426.078 1580.51 431.118 C 1586.06 413.189 1589.37 394.642 1590.36 375.901 C 1594.17 312.719 1572.44 250.655 1530.06 203.645 C 1484.49 152.978 1420.54 122.649 1352.48 119.42 C 1272.54 115.344 1187.91 148.187 1134.58 208.417 C 1126.37 217.738 1118.85 227.65 1112.1 238.073 C 1108.6 243.423 1100.08 259.244 1096.56 262.422 C 1089.19 261.118 1082.05 242.826 1078.91 236.156 C 1033.88 140.425 929.303 79.7762 823.614 92.7803 C 747.486 102.147 686.457 137.598 638.337 196.341 C 600.306 242.839 578.751 300.626 577.039 360.671 C 576.758 373.164 578.182 386.47 579.519 398.885 C 579.842 401.881 579.446 402.771 577.89 404.581 C 568.731 402.763 556.441 394.494 547.006 390.954 C 334.549 311.226 104.277 570.285 251.774 762.964 C 273.976 791.967 327.623 829.936 364.927 833.522 C 362.021 838.706 356.456 849.513 353.433 854.083 C 343.201 851.894 331.377 847.299 321.83 843.112 C 265.927 818.735 222.188 772.885 200.471 715.897 C 177.212 655.142 179.199 587.611 205.989 528.328 C 239.707 453.619 297.911 399.825 374.45 371.067 C 432.012 349.44 499.512 347.634 556.131 373.212 z" fill="rgb(220,122,90)" transform="translate(0,0)"></path>
<path d="M 1077.68 351.425 C 1134.48 344.431 1207.26 366.005 1258.01 391.956 C 1321.96 424.653 1372.55 478.584 1401.09 544.499 C 1406.63 557.3 1409.2 569.816 1413.89 582.385 C 1417.2 591.287 1420.77 595.155 1424.27 606.006 L 1428.02 606.769 C 1438.99 608.977 1449.79 615.201 1457.17 623.408 C 1495.59 666.171 1464.8 734.959 1406.35 731.678 C 1389.01 730.705 1373.94 725.291 1362.2 712.531 C 1320.59 753.478 1252.1 730.753 1241.39 674.675 C 1233.93 635.609 1253.6 611.718 1289.86 601.971 L 1293.58 591.958 C 1250.74 546.872 1203.16 522.888 1140.92 519.148 C 1129.4 519.113 1117.89 520.125 1106.56 522.171 C 1061.3 530.465 1022.79 558.596 996.793 596.026 C 1005.24 607.36 1010.48 622.103 1012.36 636.042 C 1015.85 660.801 1009.13 685.916 993.734 705.617 C 966.559 740.697 918.559 751.926 879.61 728.569 C 873.62 724.977 866.647 718.921 861.066 714.503 C 845.634 722.195 836.449 730.93 818.167 732.894 C 766.966 738.395 719.814 704.634 713.43 652.916 C 710.337 629.103 717.126 605.063 732.218 586.385 C 747.317 567.345 767.225 559.36 790.682 556.752 L 794.765 550.828 C 801.458 541.32 806.994 527.947 812.764 517.285 C 823.232 497.797 835.861 479.551 850.413 462.891 C 910.256 394.161 987.536 357.985 1077.68 351.425 z" fill="rgb(220,122,90)" transform="translate(0,0)"></path>
<path d="M 859.491 520.302 C 880.193 516.914 904.67 524.81 920.934 537.585 C 933.328 547.32 939.268 558.319 945.907 572.224 C 1035.51 592.791 1017.02 725.866 928.705 731.428 C 904.281 732.966 886.171 725.013 868.195 708.814 C 865.985 706.381 863.504 703.072 861.42 700.455 C 831.105 734.575 777.1 730.199 745.596 699.708 C 730.013 684.555 721.215 663.748 721.201 642.012 C 720.879 600.251 753.236 565.305 795.389 565.42 C 811.689 539.842 828.684 525.077 859.491 520.302 z" fill="rgb(255,255,255)" transform="translate(0,0)"></path>
<path d="M 859.659 532.272 C 898.782 529.912 924.774 545.47 940.535 581.248 C 952.316 583.842 965.631 588.976 973.873 598.176 C 1035.75 667.242 939.054 767.926 869.654 697.254 C 866.742 694.092 864.164 692.393 860.753 689.883 C 843.929 702.908 828.462 712.052 806.281 712.411 C 786.806 712.614 768.048 705.074 754.132 691.449 C 740.237 677.81 734.302 659.915 734.154 640.729 C 733.843 600.745 762.475 574.337 801.952 574.997 C 816.862 550.774 830.383 537.058 859.659 532.272 z" fill="rgb(239,147,110)" transform="translate(0,0)"></path>
<path d="M 1086.61 360.436 C 1149.11 355.474 1226.5 381.052 1278.64 414.539 C 1330.01 447.527 1387.58 511.709 1401.18 572.04 C 1386.19 562.619 1378.89 561.332 1361.93 557.259 C 1311.98 474.123 1261.67 436.253 1169.48 409.16 C 1078.06 387.163 973.098 409.566 907.896 479.866 C 898.373 490.133 889.483 499.663 883.116 512.3 C 881.957 512.102 880.793 511.934 879.626 511.795 C 855.692 508.988 834.389 515.671 815.715 530.402 C 830.063 504.302 837.967 489.891 858.309 467.429 C 921.16 398.029 993.526 364.746 1086.61 360.436 z" fill="rgb(255,255,255)" transform="translate(0,0)"></path>
<path d="M 1293.45 610.531 C 1304.2 585.804 1319.34 572.083 1346.35 566.947 C 1363.21 563.808 1380.62 567.56 1394.7 577.364 C 1408.15 586.552 1413.03 596.579 1415.94 611.809 C 1431.37 615.104 1443.65 619.123 1453.3 632.038 C 1484.31 673.539 1450.99 732.282 1398.04 722.086 C 1384.71 719.52 1373.91 715.469 1365.9 704.317 C 1363.5 701.404 1364.07 701.091 1361.05 700.203 C 1358.25 702.266 1358.18 702.599 1356.12 705.275 C 1347.84 716.557 1335.44 721.83 1321.98 724.271 C 1287.83 730.565 1253.87 703.608 1249.19 669.88 C 1244.88 638.828 1261.49 614.064 1293.45 610.531 z" fill="rgb(226,226,222)" transform="translate(0,0)"></path>
<path d="M 1293.45 610.531 C 1304.2 585.804 1319.34 572.083 1346.35 566.947 C 1363.21 563.808 1380.62 567.56 1394.7 577.364 C 1408.15 586.552 1413.03 596.579 1415.94 611.809 C 1431.37 615.104 1443.65 619.123 1453.3 632.038 C 1484.31 673.539 1450.99 732.282 1398.04 722.086 C 1384.71 719.52 1373.91 715.469 1365.9 704.317 C 1366.82 704.116 1367.73 703.914 1368.64 703.713 C 1381.23 711.837 1394.01 717.325 1409 715.527 C 1439.65 711.85 1461.87 683.876 1454.7 653.154 C 1449.47 633.811 1432.24 623.238 1414.6 616.853 C 1412.31 616.026 1407.88 600.46 1405.43 597.275 C 1379.65 563.873 1325.97 563.546 1303.9 601.382 C 1301.65 605.237 1299.84 610.16 1297.94 614.206 C 1281.52 619.853 1267.83 625.298 1260.44 641.933 C 1240.87 686.005 1288.08 733.097 1332.21 715.07 C 1337.24 713.015 1352.11 704.885 1356.12 705.275 C 1347.84 716.557 1335.44 721.83 1321.98 724.271 C 1287.83 730.565 1253.87 703.608 1249.19 669.88 C 1244.88 638.828 1261.49 614.064 1293.45 610.531 z" fill="rgb(255,255,255)" transform="translate(0,0)"></path>
<path d="M 1090.85 410.432 C 1118 408.733 1161.97 415.295 1188.14 424.105 C 1258.78 447.886 1316.37 491.87 1351.03 558.508 C 1344.02 559.817 1338.02 560.761 1331.26 563.072 C 1286.89 510.719 1238.75 479.958 1173.63 459.64 C 1078.8 436.667 997.722 466.605 931.215 535.492 C 920.387 524.42 905.668 518.66 891.258 513.862 C 896.252 506.402 901.745 499.287 907.7 492.568 C 956.906 437.259 1018.67 414.396 1090.85 410.432 z" fill="rgb(226,226,222)" transform="translate(0,0)"></path>
<path d="M 1102.64 461.427 C 1121.5 460.595 1140.4 461.941 1158.96 465.439 C 1206.73 474.668 1261.1 505.613 1296.3 538.966 C 1306.06 548.219 1314.78 555.435 1322.47 566.718 C 1313.1 572.112 1307.81 577.112 1300.04 584.534 C 1251.7 540.873 1219.59 518.988 1153.24 511.302 C 1082.88 505.647 1031.39 534.949 991.155 590.841 C 979.893 576.84 967.828 569.229 951.315 562.433 C 946.691 554.387 943.488 548.641 936.82 542.152 C 938.3 540.318 939.819 538.516 941.378 536.748 C 983.307 488.807 1040.09 465.666 1102.64 461.427 z" fill="rgb(239,147,110)" transform="translate(0,0)"></path>
<path d="M 1811.73 734.09 C 1819.55 733.595 1826.67 734.404 1831.33 741.346 C 1849.5 770.107 1831.76 807.308 1817.73 833.027 C 1788.32 886.961 1755.13 883.343 1717.36 838.337 C 1699.63 817.171 1688.66 789.287 1696.87 761.557 C 1701.24 746.804 1716.59 738.677 1730.99 745.386 C 1747.91 753.271 1758.78 767.993 1765.93 784.8 C 1776.8 763.577 1786.94 741.122 1811.73 734.09 z" fill="rgb(239,147,110)" transform="translate(0,0)"></path>
<path d="M 442.372 528.859 C 465.277 530.419 481.797 565.562 488.93 583.858 C 498.392 568.473 511.838 545.067 530.645 540.011 C 546.104 535.855 560.322 548.42 562.522 563.585 C 565.722 585.639 553.959 606.236 541.71 623.629 C 525.487 645.275 502.561 662.429 476.499 670.104 C 463.5 659.62 446.77 637.119 438.874 622.426 C 425.338 597.24 408.306 545.659 442.372 528.859 z" fill="rgb(239,147,110)" transform="translate(0,0)"></path>
<path d="M 1143.82 807.319 C 1150.76 810.801 1156.26 814.765 1164.62 818.753 C 1172.12 817.706 1181.01 815.891 1188.64 814.6 C 1182.01 841.963 1179.39 835.943 1196.3 859.976 C 1184.92 859.036 1181.09 858.52 1170.02 861.494 C 1164 866.769 1159.64 873.035 1154.8 879.392 C 1152.86 868.947 1151.78 865.125 1146.85 855.798 C 1142.52 853.514 1130.88 849.998 1125.32 847.941 C 1131.62 842.128 1136.21 838.065 1141.59 831.451 C 1142.23 823.411 1142.79 815.313 1143.82 807.319 z" fill="rgb(220,122,90)" transform="translate(0,0)"></path>
<path d="M 1372.94 267.845 C 1378.63 275.251 1372.1 285.191 1376.49 292.389 C 1379.65 297.581 1393.31 299.266 1396.67 303.237 L 1396.1 305.159 C 1389.25 310.704 1382.58 311.827 1374.16 313.876 C 1373.88 319.303 1374.06 334.2 1368.67 335.94 C 1364.09 333.662 1358.96 325.234 1354.78 321.744 C 1352.55 319.886 1352.15 320.638 1348.77 321.172 C 1340.11 323.399 1334.04 324.741 1325.24 326.148 C 1329.83 318.176 1334.55 309.493 1339.95 302.108 C 1336.8 296.429 1328.61 284.787 1330.94 278.833 C 1336.39 276.509 1350.15 282.324 1356.4 284.447 C 1362.15 275.889 1363.61 273.183 1372.94 267.845 z" fill="rgb(220,122,90)" transform="translate(0,0)"></path>
<path d="M 1601.86 529.312 C 1608.41 531.672 1615.68 539.204 1620.78 544.069 C 1626.08 541.043 1639.38 532.014 1645.11 534.466 C 1646.43 540.055 1638.23 551.399 1634.97 556.695 C 1639.08 562.068 1653.03 572.119 1650.45 578.017 C 1646.77 579.7 1643.94 578.974 1639.76 578.605 C 1635.33 578.136 1630.18 577.996 1625.67 577.757 C 1623.35 583.517 1621.85 590.023 1616.43 592.352 L 1614.31 591.314 C 1611 586.799 1610.01 580.969 1608.52 575.416 C 1599.32 574.437 1588.06 571.987 1579.19 569.335 C 1585.03 563.573 1593.97 558.877 1601.15 554.85 C 1600.99 547.356 1600.47 536.33 1601.86 529.312 z" fill="rgb(220,122,90)" transform="translate(0,0)"></path>
<path d="M 749.256 294.241 C 754.873 296.058 762.919 305.134 767.466 309.737 C 773.049 307.437 785.077 300.881 790.073 303.581 C 791.151 309.277 784.078 319.267 780.847 324.67 C 785.634 328.839 799.339 338.047 793.836 344.254 C 787.818 346.187 782.511 344.49 776.266 343.269 L 771.374 342.536 C 766.378 344.396 762.436 355.731 758.317 361.846 L 757.526 363.001 C 754.338 355.191 752.687 347.687 750.671 339.543 C 744.294 339.194 733.621 340.064 731.132 333.276 C 733.403 326.77 742.756 322.453 748.998 318.693 C 748.679 309.428 748.594 303.433 749.256 294.241 z" fill="rgb(220,122,90)" transform="translate(0,0)"></path>
<path d="M 364.927 833.522 C 377.8 811.675 407.976 776.011 437.266 792.602 C 457.41 804.012 459.612 831.958 465.317 851.842 C 465.816 853.576 471.543 852.901 472.804 852.786 L 477.665 853.436 L 477.932 853.88 L 466.494 855.045 C 466.512 858.307 466.78 868.72 468.091 871.532 C 475.258 873.658 482.177 872.632 488.284 868.798 C 506.322 857.477 513.444 845.709 537.174 849.932 C 541.059 850.624 554.513 853.166 558.65 852.691 C 574.888 870.161 576.349 895.671 576.135 918.273 C 592.252 917.325 609.851 916.161 625.997 918.056 C 707.432 927.614 789.779 968.828 851.198 1022.26 C 879.441 1046.84 923.04 1096.04 938.51 1130.22 C 954.636 1112.93 980.665 1098.64 1000.13 1120.51 C 1036.74 1161.64 1012.53 1231.23 984.918 1270.53 C 985.124 1291.81 984.866 1315.11 981.186 1336.16 C 963.249 1438.75 880.604 1528.39 792.395 1579.47 C 821.898 1597.42 909.084 1645.37 916.744 1678.12 C 918.428 1685.32 916.714 1692.34 912.625 1698.44 C 905.778 1708.64 893.396 1713.48 882.633 1718.39 C 898.398 1729.75 923.602 1730.73 942.482 1734.95 C 951.368 1736.93 958.806 1738.96 967.506 1741.63 C 969.893 1740.53 968.79 1741.16 970.352 1737.79 C 975.903 1720.74 994.396 1696.43 1013.87 1703.85 C 1037.2 1712.74 1034.56 1766.42 1033.66 1785.64 C 1032.8 1803.78 1027.61 1823.33 1008.58 1828.28 C 972.942 1839.29 933.913 1834.76 897.5 1829.62 C 892.614 1838.8 887.065 1849.89 881.634 1858.59 L 882.21 1860.95 C 896.09 1848.97 920.878 1828.93 937.122 1852.01 C 945.819 1866.5 944.195 1890 940.185 1905.28 C 929.474 1946.08 918.368 1956.61 876.012 1950.1 C 853.103 1946.58 836.267 1942.26 814.219 1936.02 C 743.409 1980.05 630.819 1972.31 589.046 1894.5 C 558.159 1836.96 538.177 1748.79 522.619 1684.97 C 457.666 1700.11 390.625 1692.87 327.921 1670.92 C 312.819 1665.63 298.745 1657.74 284.517 1650.47 C 242.681 1672.04 186.623 1668.23 146.656 1644.48 C 118.42 1627.7 96.8255 1593.94 115.462 1561.73 C 124.626 1545.89 143.069 1539.15 159.737 1535.53 C 148.945 1521.39 139.506 1506.27 131.545 1490.36 C 48.7265 1326.05 122.268 1134.16 257.367 1023.67 C 278.087 1006.72 299.314 988.314 323.363 976.268 C 326.22 936.572 335.232 889.997 353.433 854.083 C 356.456 849.513 362.021 838.706 364.927 833.522 z" fill="rgb(220,122,90)" transform="translate(0,0)"></path>
<path d="M 431.262 819.742 C 437.084 822.568 441.875 840.799 443.357 846.975 C 452.682 885.842 445.578 925.864 435.796 963.875 C 433.317 973.506 426.999 986.49 427.576 996.062 C 429.55 999.322 428.223 998.183 431.617 999.693 C 435.572 998.072 443.4 976.718 444.997 971.916 C 466.046 908.617 572.554 795.081 557.142 944.995 C 556.316 953.027 551.164 974.914 554.07 982.138 C 558.213 984.891 572.377 978.553 579.32 977.512 C 801.892 944.143 1043.11 1155.1 944.805 1386.48 C 910.606 1466.97 848.825 1517.86 778.536 1565.58 C 664.725 1634.77 530.728 1686.48 395.316 1665.77 C 310.103 1652.74 256.168 1608.57 220.538 1530.78 C 186.745 1456.99 173.002 1378.03 186.321 1297.47 C 200.44 1215.21 241.484 1139.96 303.007 1083.55 C 321.794 1066.47 344.566 1050.79 365.338 1035.93 C 364.874 1024.57 363.634 1013.12 363.576 1001.74 C 363.248 936.673 376.805 861.08 431.262 819.742 z" fill="rgb(255,255,255)" transform="translate(0,0)"></path>
<path d="M 407.519 1468.38 C 429.058 1465.45 451.924 1471.82 468.488 1485.42 C 534.742 1539.81 501.252 1624.33 419.323 1631.47 C 400.717 1632.52 381.95 1628.88 366.078 1618.94 C 289.269 1570.84 322.008 1477.65 407.519 1468.38 z" fill="rgb(239,147,110)" transform="translate(0,0)"></path>
<path d="M 891.092 1231.21 C 976.055 1221.15 975.956 1369.94 894.35 1394.23 C 882.974 1396.1 871.303 1393.86 861.436 1387.89 C 816.258 1360.99 818.193 1272.15 860.502 1243.57 C 870.973 1236.5 878.951 1233.91 891.092 1231.21 z" fill="rgb(239,147,110)" transform="translate(0,0)"></path>
<path d="M 797.164 1160.13 C 803.62 1159.49 807.467 1159.98 811.326 1166.06 C 823.056 1184.54 826.645 1209.39 824.211 1230.91 C 821.621 1253.83 798.753 1269.68 776.4 1266.23 C 754.302 1262.44 738.158 1243.09 725.736 1225.66 C 720.254 1217.09 710.08 1200.54 728.908 1199.71 C 735.651 1201.67 743.221 1217.58 747.924 1223.49 C 782.492 1266.9 818.376 1243.74 800.344 1193.72 C 797.92 1187 790.962 1172.98 791.349 1166.52 C 792.626 1163.17 794.318 1162.33 797.164 1160.13 z" fill="rgb(170,99,71)" transform="translate(0,0)"></path>
<path d="M 476.195 1318.78 C 481.536 1319.06 484.204 1319.54 487.583 1324.89 C 510.544 1361.29 508.734 1439.73 447.588 1428.9 C 427.606 1425.36 409.632 1404.05 399.095 1386.02 C 395.146 1378.59 383.723 1360.3 401.355 1358.86 C 406.688 1358.42 414.48 1374.68 417.072 1379 C 449.087 1432.55 495.35 1415.77 478.871 1352.97 C 475.352 1339.56 462.928 1329.36 476.195 1318.78 z" fill="rgb(170,99,71)" transform="translate(0,0)"></path>
<path d="M 343.419 1183.16 C 383.001 1180.47 369.173 1229.43 335.928 1243.91 C 302.422 1253.12 304.862 1199.85 343.419 1183.16 z" fill="rgb(170,99,71)" transform="translate(0,0)"></path>
<path d="M 682.12 1029.25 C 726.605 1027.17 738.922 1065.33 694.835 1072.86 C 679.26 1072.92 645.601 1065.87 656.613 1040.68 C 659.782 1033.43 674.475 1030.65 682.12 1029.25 z" fill="rgb(170,99,71)" transform="translate(0,0)"></path>
<path d="M 534.581 878.856 C 539.303 878.976 543.645 881.101 544.436 885.999 C 549.325 916.261 540.681 973.836 527.046 1000.37 C 524.412 1002.21 525.821 1001.89 522.695 1001.44 C 521.174 999.883 519.931 999.202 520.793 996.812 C 526.231 981.746 549.084 892.742 531.702 888.972 C 527.96 890.035 526.915 891.557 524.029 894.29 L 522.919 895.354 C 503.511 914.57 487.688 938.42 476.033 962.832 C 473.404 968.337 470.48 981.027 463.782 979.651 C 461.78 974.739 465.612 966.734 467.772 961.798 C 479.012 936.113 508.211 889.885 534.581 878.856 z" fill="rgb(170,99,71)" transform="translate(0,0)"></path>
<path d="M 694.958 1366.8 L 698.285 1368.5 C 713.155 1387.61 680.851 1460.52 619.735 1416.4 C 617.108 1413.06 614.883 1410.32 617.716 1406.64 C 625.472 1405.06 637.88 1421.71 654.545 1421.03 C 684.254 1419.81 691.819 1400.18 691.556 1373.89 C 691.516 1369.83 692.144 1369.38 694.958 1366.8 z" fill="rgb(170,99,71)" transform="translate(0,0)"></path>
<path d="M 615.609 1268.27 C 626.963 1269.72 621.83 1281.19 630.342 1288.98 C 635.047 1293.29 646.803 1295.69 651.022 1299.46 C 652.104 1309.19 643.708 1317.13 636.218 1322.04 C 632.394 1322.97 630.554 1323.29 627.288 1321.14 L 627.33 1318.71 C 630.933 1312.87 635.936 1309.23 641.156 1304.74 C 622.467 1301.5 613.361 1286.61 615.609 1268.27 z" fill="rgb(170,99,71)" transform="translate(0,0)"></path>
<path d="M 420.774 810.017 C 424.177 810.248 426.044 810.613 428.775 812.618 L 429.038 814.666 C 424.732 819.682 417.776 820.77 413.997 824.347 C 362.905 872.708 350.6 966.269 357.801 1031.35 C 329.962 1047.62 295.478 1076.88 273.572 1100.34 C 205.182 1173.23 168.626 1270.34 171.98 1370.24 C 174.732 1447.81 201.558 1533.79 249.656 1595.74 C 257.647 1606.03 269.769 1616.84 279.428 1625.84 C 269.584 1620.58 261.232 1613.94 252.706 1606.82 C 46.3307 1438.17 93.1295 1177.74 287.189 1026.21 C 306.19 1011.37 322.647 1002.62 342.447 989.915 C 343.772 979.238 344.747 967.495 345.399 956.669 C 347.904 915.079 375.202 823.475 420.774 810.017 z" fill="rgb(255,255,255)" transform="translate(0,0)"></path>
<path d="M 654.706 1639.17 C 668.276 1653.56 699.515 1681.73 714.719 1694.67 L 716.181 1693.95 C 735.873 1707.18 772.401 1745.94 780.308 1768.93 C 785.517 1784.08 761.141 1786.44 750.996 1783.35 C 712.929 1771.76 672.722 1751.02 644.995 1722.18 C 640.554 1717.55 634.715 1713.22 629.453 1710.6 L 628.485 1711.17 C 630.613 1728.08 708.435 1777 727.112 1781.55 C 730.206 1782.3 736.922 1785.06 739.59 1786.69 C 739.415 1788.17 739.771 1789.29 738.398 1789.89 C 696.141 1808.09 636.607 1834.71 591.138 1840.7 L 586.443 1841.32 C 583.521 1845.3 587.339 1846.62 585.27 1850.84 L 584.837 1849.29 C 579.59 1830.9 570.292 1813.6 566.199 1794.6 C 564.796 1788.09 563.689 1780.59 562.033 1774.38 L 562.654 1773.76 L 561.712 1772.26 C 563.328 1773.87 562.68 1773.07 563.743 1774.61 L 564.733 1774.75 C 564.216 1770.72 562.264 1765.11 561.121 1761 C 552.973 1731.72 545.598 1702.23 538.152 1672.76 C 583.797 1663.34 611.628 1653.05 654.706 1639.17 z" fill="rgb(255,255,255)" transform="translate(0,0)"></path>
<path d="M 714.719 1694.67 L 716.181 1693.95 C 735.873 1707.18 772.401 1745.94 780.308 1768.93 C 785.517 1784.08 761.141 1786.44 750.996 1783.35 C 712.929 1771.76 672.722 1751.02 644.995 1722.18 C 640.554 1717.55 634.715 1713.22 629.453 1710.6 L 628.485 1711.17 C 630.613 1728.08 708.435 1777 727.112 1781.55 C 730.206 1782.3 736.922 1785.06 739.59 1786.69 C 739.415 1788.17 739.771 1789.29 738.398 1789.89 C 696.141 1808.09 636.607 1834.71 591.138 1840.7 L 586.443 1841.32 C 583.521 1845.3 587.339 1846.62 585.27 1850.84 L 584.837 1849.29 C 579.59 1830.9 570.292 1813.6 566.199 1794.6 C 564.796 1788.09 563.689 1780.59 562.033 1774.38 L 562.654 1773.76 L 561.712 1772.26 C 563.328 1773.87 562.68 1773.07 563.743 1774.61 L 564.733 1774.75 C 569.942 1789.57 575.005 1807.15 579.836 1822.31 C 611.786 1813.8 643.941 1804.72 674.425 1791.81 C 686.848 1786.56 698.741 1780.99 711.741 1777.24 C 700.706 1771.62 617.055 1723.34 628.051 1708.47 C 635.286 1709.19 663.774 1737.75 674.008 1744.17 C 691.968 1755.43 734.416 1781.11 755.537 1782.61 C 820.76 1787.22 727.32 1706.07 714.719 1694.67 z" fill="url(#Gradient1)" transform="translate(0,0)"></path>
<path d="M 721.23 1782.05 L 737.971 1787.85 C 689.13 1810.31 652.906 1824.56 599.739 1837.25 C 595.122 1838.35 588.236 1841.09 584.55 1838.31 C 583.562 1835.85 582.743 1834.77 583.297 1832.27 C 587.156 1829.15 592.37 1828.28 597.126 1827.24 C 639.674 1817.92 681.163 1798.72 721.23 1782.05 z" fill="rgb(255,255,255)" transform="translate(0,0)"></path>
<path d="M 781.466 1816.59 C 804.686 1812.74 849.354 1842.98 866.149 1858.22 C 869.732 1861.47 881.279 1872.9 884.721 1874.34 C 885.429 1869.31 885.577 1866.35 887.559 1861.62 L 888.905 1861.07 L 891.799 1862.49 C 898.872 1859.9 912.805 1847.93 921.864 1855.09 C 922.475 1857.28 922.692 1856.48 922.15 1858.2 C 921.434 1857.42 924.694 1860.85 924.114 1860.34 C 933.1 1869.03 914.639 1927.78 906.316 1930.72 C 884.481 1938.42 822.647 1920.48 802.321 1914.51 C 771.159 1945.72 729.639 1945.14 688.444 1941.65 C 671.004 1912.27 664.588 1889.25 687.762 1859.58 C 703.525 1839.4 726.055 1826.19 750.78 1820.09 C 760.69 1817.65 770.068 1818.01 779.8 1816.81 L 781.466 1816.59 z" fill="rgb(255,255,255)" transform="translate(0,0)"></path>
<path d="M 781.466 1816.59 C 804.686 1812.74 849.354 1842.98 866.149 1858.22 C 869.732 1861.47 881.279 1872.9 884.721 1874.34 C 885.429 1869.31 885.577 1866.35 887.559 1861.62 L 888.905 1861.07 L 891.799 1862.49 C 898.872 1859.9 912.805 1847.93 921.864 1855.09 C 922.475 1857.28 922.692 1856.48 922.15 1858.2 C 894.653 1855.29 894.237 1886.63 879.315 1872.82 C 850.716 1846.34 820.959 1823.09 781.466 1816.59 z" fill="rgb(170,99,71)" transform="translate(0,0)"></path>
<path d="M 862.965 1713.16 C 882.57 1736.83 890.677 1782.17 882.943 1811.46 C 879.59 1824.15 873.237 1837.07 869.987 1850.21 L 869.663 1851.56 C 853.372 1836.83 834.748 1824.9 814.551 1816.27 C 758.051 1792.04 667.261 1829.77 663.634 1896.93 C 663.024 1908.22 669.578 1926.52 673.759 1936.9 C 671.648 1938.05 670.921 1937.19 667.762 1936.39 C 662.795 1934.71 657.914 1932.79 653.139 1930.62 C 621.215 1915.83 600.578 1879.81 588.987 1847.94 C 652.689 1835.89 692.034 1817.54 750.404 1791.06 C 760.453 1792.5 769.261 1793.08 778.797 1788.01 C 787.838 1783.21 785.421 1771.65 790.543 1767.85 C 803.724 1758.21 818.154 1750.43 831.331 1740.66 C 842.395 1732.45 851.805 1721.01 862.965 1713.16 z" fill="rgb(239,147,110)" transform="translate(0,0)"></path>
<path d="M 759.819 1587.82 C 768.696 1594.54 781.693 1610.05 789.457 1618.68 C 808.809 1640.17 826.402 1662.24 844.272 1684.95 C 826.643 1705.32 797.546 1725.43 775.448 1741.79 C 772.027 1737.56 767.969 1733.5 764.204 1729.54 C 740.628 1706.42 715.94 1685.03 692.119 1662.27 C 683.851 1654.37 672.618 1644.21 665.2 1635.82 C 692.585 1623.85 735.173 1603.07 759.819 1587.82 z" fill="rgb(255,255,255)" transform="translate(0,0)"></path>
<path d="M 977.113 1761.05 C 982.02 1751.66 984.972 1741.74 989.863 1732.14 C 996.039 1720.01 1009.41 1713.14 1013.6 1730.76 C 1015.29 1749.17 1016.52 1792.69 1005.49 1805.83 C 992.15 1821.71 910.751 1814.1 895.03 1808.15 L 893.687 1806.33 C 898.759 1784.86 893.16 1760.6 888.061 1739.87 C 910.143 1742.26 959.165 1750.49 977.113 1761.05 z" fill="rgb(255,255,255)" transform="translate(0,0)"></path>
<path d="M 182.188 1554.58 C 184.524 1555.86 202.363 1577.56 207.111 1581.93 C 219.387 1593.21 231.768 1605.67 244.819 1616.38 C 252.352 1622.56 260.598 1627.91 267.887 1634.17 L 268.836 1634.99 C 248.757 1640.81 237.582 1643.24 216.637 1642.98 C 192.474 1640.44 169.902 1637.44 150.217 1621.93 C 135.38 1610.24 121.923 1587.46 136.539 1570.41 C 147.857 1557.2 166.125 1556.18 182.188 1554.58 z" fill="rgb(255,255,255)" transform="translate(0,0)"></path>
<path d="M 574.347 939.248 C 674.697 935.004 753.1 973.038 833.693 1029.2 L 832.991 1030.82 C 751.734 977.947 665.002 954.349 568.164 969.467 C 571.198 958.814 572.665 950.1 574.347 939.248 z" fill="rgb(255,255,255)" transform="translate(0,0)"></path>
<path d="M 974.815 1131.02 C 984.743 1130.91 993.92 1139.38 996.577 1148.69 C 1006.55 1183.61 992.232 1215.2 976.662 1245.78 C 971.921 1216.65 962.459 1184.68 949.373 1158.37 C 951.021 1154.88 952.762 1151.43 954.593 1148.04 C 960.227 1137.62 963.993 1134.28 974.815 1131.02 z" fill="rgb(255,255,255)" transform="translate(0,0)"></path>
<path d="M 778.949 1594.9 C 795.323 1600.66 854.697 1644.09 871.808 1656.13 C 876.555 1659.47 896.205 1675.44 895.934 1682.54 C 895.772 1686.77 892.199 1690.82 889.591 1694.09 C 882.317 1699.45 871.927 1705.59 864.967 1696.93 C 842.944 1669.53 822.352 1641.29 798.108 1615.67 C 791.731 1608.93 785.027 1601.87 778.949 1594.9 z" fill="rgb(255,255,255)" transform="translate(0,0)"></path>
<path d="M 849.302 1692.79 C 852.037 1694.14 856.645 1702.12 858.643 1705.16 C 837.271 1725.61 812.104 1743.55 787.622 1760.05 L 786.711 1760.58 C 783.868 1758.56 781.41 1752.38 779.598 1748.81 C 804.472 1733.35 829.484 1714.28 849.302 1692.79 z" fill="rgb(255,255,255)" transform="translate(0,0)"></path>
<path d="M 485.809 872.631 L 486.448 873.339 C 482 877.301 472.997 881.487 467.365 884.395 C 466.56 881.758 466.558 876.492 466.434 873.554 L 485.809 872.631 z" fill="rgb(255,255,255)" transform="translate(0,0)"></path>
<path d="M 833.693 1029.2 C 839.016 1032.87 846.254 1037.56 850.973 1041.7 L 850.268 1043.85 L 850.679 1044.06 L 851.832 1042.5 L 853.372 1044.8 L 851.992 1044.57 L 852.819 1043.45 L 852.495 1043.06 L 850.781 1043.97 L 851.656 1042.15 L 851.366 1041.85 L 849.567 1043.26 C 845.054 1040 837.027 1034.33 832.991 1030.82 L 833.693 1029.2 z" fill="rgb(229,198,190)" transform="translate(0,0)"></path>
<path d="M 1221.5 1319.48 C 1243.88 1326.55 1294.91 1423.13 1229.09 1438.33 C 1207.35 1438.35 1187.38 1427.49 1187.45 1404.24 C 1187.54 1374.56 1204.95 1342.45 1221.5 1319.48 z" fill="rgb(239,147,110)" transform="translate(0,0)"></path>
<path d="M 1500.68 1362.44 C 1501.52 1362.85 1503.83 1363.96 1504.57 1364.72 C 1521.41 1382.07 1536.71 1411.54 1540.51 1435.36 C 1542.3 1446.57 1541.02 1460.19 1534.17 1468.55 C 1526.43 1478 1519.09 1478.7 1508.27 1480.15 C 1435 1481.26 1475.62 1393.33 1500.68 1362.44 z" fill="rgb(239,147,110)" transform="translate(0,0)"></path>
<path d="M 1608.3 1552.81 C 1618.11 1562.13 1634.02 1590.06 1639.93 1602.47 C 1653.27 1630.43 1652.5 1665.23 1614.54 1670.79 C 1547.03 1668.19 1581.87 1581.25 1608.3 1552.81 z" fill="rgb(239,147,110)" transform="translate(0,0)"></path>
<path d="M 1687.79 1278.36 C 1702.29 1285.49 1724.69 1328.64 1726.78 1345.93 C 1729.89 1371.65 1721.92 1390.04 1695.05 1393.69 C 1686.72 1394.09 1674.74 1391.21 1668.45 1385.86 C 1637.44 1359.46 1669.25 1301.31 1687.79 1278.36 z" fill="rgb(239,147,110)" transform="translate(0,0)"></path>
<path d="M 1384.64 1143.56 C 1390.7 1145.32 1394.62 1150.85 1398.45 1155.57 C 1420.47 1182.74 1447.6 1241.4 1395.98 1255.11 C 1322.89 1257.8 1357.26 1174.13 1384.64 1143.56 z" fill="rgb(239,147,110)" transform="translate(0,0)"></path>
<path d="M 1822.46 1099.53 C 1838.06 1108.93 1857.64 1148.7 1861.04 1166.52 C 1865.94 1192.29 1856.65 1210.16 1830.23 1214.83 C 1808.67 1215.94 1792.23 1205.28 1790.69 1182.92 C 1788.86 1156.53 1806.22 1119.12 1822.46 1099.53 z" fill="rgb(239,147,110)" transform="translate(0,0)"></path>
<path d="M 1874.8 1439.02 C 1898.08 1437.02 1904.73 1460.71 1887 1472.77 C 1864.94 1474.77 1856.98 1453.87 1874.8 1439.02 z" fill="rgb(239,147,110)" transform="translate(0,0)"></path>
<path d="M 1046.22 1539.12 C 1069.52 1536.34 1072.43 1561.87 1056.47 1571.41 C 1034.47 1572.84 1027.77 1551.93 1046.22 1539.12 z" fill="rgb(239,147,110)" transform="translate(0,0)"></path>
<path d="M 1332.01 1610.97 C 1351.56 1609.24 1359.63 1632.19 1340.89 1643.57 C 1321.17 1645.32 1312.67 1623.84 1332.01 1610.97 z" fill="rgb(239,147,110)" transform="translate(0,0)"></path>
<path d="M 1455.18 1815.01 C 1461.68 1815 1467.57 1818.11 1470.47 1824.09 C 1472.45 1828.29 1472.66 1833.12 1471.02 1837.47 C 1468.86 1843.39 1465.57 1845.13 1460.19 1847.54 C 1440.94 1847.83 1435.59 1825.8 1455.18 1815.01 z" fill="rgb(239,147,110)" transform="translate(0,0)"></path>
<path d="M 1098.27 1169.84 C 1106.54 1169.16 1113.84 1175.22 1114.7 1183.48 C 1115.56 1191.73 1109.66 1199.16 1101.43 1200.2 C 1095.94 1200.89 1090.5 1198.56 1087.22 1194.11 C 1083.94 1189.65 1083.33 1183.77 1085.62 1178.73 C 1087.92 1173.7 1092.75 1170.3 1098.27 1169.84 z" fill="rgb(239,147,110)" transform="translate(0,0)"></path>
<path d="M 1820.99 1702 C 1828.34 1701.17 1833.88 1703.05 1837.9 1709.66 C 1840.28 1713.54 1840.97 1718.22 1839.81 1722.62 C 1838.49 1727.64 1835.55 1730.31 1831.39 1732.97 C 1829.67 1733.05 1827.95 1733.09 1826.23 1733.08 C 1817.15 1732.97 1810.65 1724.32 1811.99 1715.53 C 1813.06 1708.5 1815.67 1706.35 1820.99 1702 z" fill="rgb(239,147,110)" transform="translate(0,0)"></path>
<path d="M 1577.16 1117.71 C 1581.03 1116.04 1585.5 1116.61 1588.82 1119.21 C 1592.14 1121.81 1593.77 1126.01 1593.08 1130.17 C 1592.38 1134.32 1589.47 1137.77 1585.49 1139.14 C 1579.64 1141.16 1573.25 1138.2 1571.01 1132.43 C 1568.77 1126.67 1571.49 1120.17 1577.16 1117.71 z" fill="rgb(220,122,90)" transform="translate(0,0)"></path>
<metadata><recraft-signature>{"signed_by": "recraft", "signature_b64": "dk2efPfqE2rTR0l2Qs+l9txgbMm5/KUPB2M++ddvJ9mFtUBO4/3UpHP09SmYkQSl4LpEB8jQMpVeDkSoMicYDQ==", "signing_algo": "Ed25519", "generation_timestamp": 1773763933, "identifier": "bb2f3684-25e0-4810-8ac8-94e47d89c50c"}</recraft-signature></metadata></svg>