<svg xmlns="http://www.w3.org/2000/svg" height="1024" preserveAspectRatio="none" style="display: block;" version="1.1" viewBox="0 0 2048 2048" width="1024">
<path d="M 0 0 L 2048 0 L 2048 2048 L 0 2048 L 0 0 z" fill="rgb(255,255,255)" transform="translate(0,0)"></path>
<path d="M 1559.49 434.446 C 1571.56 433.869 1584.16 434.555 1596.16 435.485 C 1840.26 454.392 2098.67 716.541 1931.32 960.163 C 1923.46 971.596 1913.14 981.683 1904.74 992.997 C 1911.87 1012.25 1912.43 1033.31 1906.34 1052.91 C 1899.17 1077.09 1882.65 1097.39 1860.44 1109.33 C 1830.53 1125.34 1802.03 1121.53 1771.04 1112.15 C 1716.54 1140.41 1673.03 1143.57 1613.03 1144.15 C 1654.27 1223.92 1658.86 1324.8 1648.74 1412.81 C 1646.41 1433.05 1641.14 1453.48 1635.9 1473.13 C 1673.35 1472.43 1703.95 1491.89 1690.11 1534.73 C 1681.83 1560.36 1648.78 1581.31 1623.18 1569.14 C 1614.6 1565.07 1605.87 1558.51 1602.51 1549.07 C 1599.93 1543.11 1602.11 1531.97 1608.72 1530.3 C 1612.9 1533.8 1608.46 1545.28 1616.28 1553.15 C 1627.38 1566.11 1654.09 1563.32 1665.57 1551.18 C 1698.87 1516 1679.36 1479.15 1633.16 1482.95 C 1628.1 1491.74 1622.9 1500.52 1618.31 1509.56 C 1624.79 1511.7 1646.45 1519.19 1643.88 1528.34 C 1635.87 1535.78 1623.64 1521.89 1613.45 1517.91 C 1600.21 1533.56 1580.6 1556.95 1562.18 1567.74 C 1491.28 1608.39 1411.55 1629.63 1333.17 1650.36 C 1242.03 1674.47 1198.23 1633.4 1212.21 1540.71 C 1216.43 1512.77 1225.6 1495.26 1241.61 1472.21 C 1235.59 1472.58 1229.57 1472.89 1223.54 1473.02 C 1197.12 1473.58 1171.06 1477.27 1144.88 1480.62 C 1108.94 1485.69 1075.98 1482.84 1055.1 1449.02 C 1038.33 1421.85 1036.22 1385.5 1043.51 1354.86 C 1049.12 1333.16 1060.29 1299.52 1081.29 1287.69 C 1115.74 1268.29 1141.35 1308.29 1154.25 1332.42 L 1157.87 1333.47 C 1189.62 1342.45 1226.52 1331.25 1254.43 1315.68 C 1245.61 1303.91 1225.8 1276.02 1222.79 1262.65 L 1222.4 1260.92 C 1207.88 1261.47 1199.95 1263.05 1186.8 1254.9 C 1159.56 1238.02 1153.69 1200.75 1169.8 1174.21 C 1161.69 1164.84 1148.35 1143.34 1140.37 1131.65 L 1079.99 1043.07 C 1061.66 1016.09 1042.01 990.248 1024.54 962.654 C 1011.42 943.242 999.083 926.933 991.894 904.345 C 982.841 875.897 975.386 846.905 965.712 818.632 C 964.353 814.66 964.752 810.688 966.872 807.061 C 971.763 803.603 978.727 807.242 982.886 810.724 C 1007.3 831.165 1035.99 850.088 1058.99 871.703 C 1066.04 878.334 1079.75 900.346 1085.71 909.138 C 1098.55 928.112 1111.52 946.992 1124.62 965.777 C 1163.83 1022.08 1210.88 1084.82 1246.18 1143.06 C 1279.87 1130.58 1331.65 1090.34 1349 1059 C 1328.76 1046.33 1308.13 1032.68 1288.6 1018.18 C 1202.14 953.959 1119.27 844.762 1166.37 732.565 C 1181.43 696.7 1206.85 680.541 1242.33 666.584 C 1252.64 648.167 1260.79 627.624 1271.33 609.162 C 1334.48 498.575 1432.61 438.912 1559.49 434.446 z" fill="rgb(93,95,96)" transform="translate(0,0)"></path>
<path d="M 1253.99 681.107 C 1258.45 675.157 1272.04 645.493 1276.49 636.702 C 1298.57 593.054 1326.5 554.623 1364.22 523.084 C 1371.77 516.77 1386.01 513.041 1395.55 510.619 C 1444.6 498.172 1489.34 499.066 1538.72 506.014 C 1520.05 530.466 1514.71 562.098 1533.33 588.222 C 1544.12 603.342 1560.51 613.51 1578.85 616.454 C 1611.76 621.43 1640.54 606.308 1644.94 570.826 C 1650.46 574.6 1650.55 571.769 1655.01 573.543 L 1655.7 572.754 C 1660.84 566.969 1663.34 561.5 1666.82 554.644 C 1697.78 571.73 1733.94 611.807 1754.58 641.251 C 1806.91 715.913 1819.36 810.055 1803.61 898.493 C 1789.26 979.553 1746.83 1052.98 1683.77 1105.89 C 1675.29 1112.96 1664.39 1120.26 1655.23 1126.63 C 1623.18 1128.9 1586.72 1125.49 1555.18 1119.37 C 1456.67 1100.28 1363.59 1056.63 1284.86 994.475 C 1210.69 935.927 1139.35 833.822 1182.89 736.911 C 1196.68 706.212 1223.55 691.451 1253.99 681.107 z" fill="rgb(255,255,255)" transform="translate(0,0)"></path>
<path d="M 1617.7 959.413 C 1652.08 957.064 1695.97 982.332 1699.07 1019.12 C 1700.06 1029.83 1696.67 1040.49 1689.66 1048.66 C 1678.94 1061.3 1662.15 1066.19 1646.25 1067.58 C 1613.91 1070.66 1568.02 1045.15 1564.91 1009.79 C 1563.77 998.143 1567.49 986.539 1575.18 977.718 C 1586.91 964.153 1600.86 960.655 1617.7 959.413 z" fill="rgb(93,95,96)" transform="translate(0,0)"></path>
<path d="M 1617.96 970.394 C 1632.9 969.474 1647.98 973.15 1661.26 980.808 C 1680.07 991.532 1697.33 1018.77 1683.31 1039.27 C 1675.16 1051.17 1661.44 1054.8 1648.15 1056.94 C 1571.04 1056.18 1544.01 977.942 1617.96 970.394 z" fill="rgb(246,188,150)" transform="translate(0,0)"></path>
<path d="M 1221.31 720.241 C 1296.36 716.522 1321.12 815.582 1256.47 830.001 C 1181.77 831.772 1156.32 732.481 1221.31 720.241 z" fill="rgb(93,95,96)" transform="translate(0,0)"></path>
<path d="M 1222.93 730.295 C 1280.24 725.299 1310.24 805.692 1256.47 820.164 C 1195.94 821.991 1166.05 739.446 1222.93 730.295 z" fill="rgb(246,188,150)" transform="translate(0,0)"></path>
<path d="M 1636.32 845.061 C 1639.52 844.878 1643.8 844.706 1646.74 845.989 C 1651.02 847.881 1654.38 851.392 1656.07 855.753 C 1667.25 884.418 1633.8 944.87 1603.73 955.765 C 1575.01 956.508 1579.94 922.057 1587.73 904.439 C 1598.46 880.164 1610.69 855.918 1636.32 845.061 z" fill="rgb(93,95,96)" transform="translate(0,0)"></path>
<path d="M 1624.34 864.704 C 1627.27 864.986 1627.07 864.969 1629.66 866.399 C 1633.81 873.763 1626.45 879.658 1620.46 882.911 C 1618.29 882.445 1618.11 882.252 1616.04 881.38 C 1610.38 873.982 1618.33 868.295 1624.34 864.704 z" fill="rgb(255,255,255)" transform="translate(0,0)"></path>
<path d="M 1340.74 652.195 C 1370.57 651.615 1361.06 690.617 1353.25 707.378 C 1343.58 728.111 1332.1 746.531 1310.13 755.486 C 1269.18 754.583 1299.08 693.167 1311.04 676.506 C 1319.02 665.381 1326.71 654.992 1340.74 652.195 z" fill="rgb(93,95,96)" transform="translate(0,0)"></path>
<path d="M 1331.47 662.781 C 1335.77 663.2 1337.72 662.819 1338.8 667.293 C 1336.58 675.014 1323.22 687.512 1317.12 694.28 C 1313.82 695.873 1313.16 696.303 1310.03 694.951 C 1307.8 684.309 1323 668.297 1331.47 662.781 z" fill="rgb(255,255,255)" transform="translate(0,0)"></path>
<path d="M 1401.31 803.427 C 1405.23 803.369 1406.58 803.601 1408.66 806.695 C 1408.6 819.821 1397.46 827.886 1407.26 843.347 C 1416.37 857.709 1432.94 863.286 1447.06 852.075 C 1453.72 846.791 1455.57 838.657 1462.66 834.292 C 1466.28 834.419 1464.68 833.81 1467.49 836.475 C 1468.5 840.761 1468.45 838.608 1467.2 843.176 C 1460.25 854.024 1451.02 865.766 1437.66 867.988 C 1417.29 871.374 1397.06 856.3 1393.84 836.309 C 1391.87 824.791 1394.56 812.964 1401.31 803.427 z" fill="rgb(93,95,96)" transform="translate(0,0)"></path>
<path d="M 1669.95 784.228 C 1680.3 783.366 1689.29 785.316 1697.46 792.069 C 1705.84 799.001 1713.51 820.248 1704.83 829.007 C 1699.4 829.717 1699.1 823.367 1698.61 819.296 L 1698.47 818 C 1698.23 816.686 1697.95 815.379 1697.63 814.081 C 1689.33 780.932 1660.33 801.841 1652.09 797.065 C 1651.1 788.051 1662.95 785.816 1669.95 784.228 z" fill="rgb(93,95,96)" transform="translate(0,0)"></path>
<path d="M 1365.42 595.126 C 1397.98 594.188 1405.83 623.323 1394.57 626.857 C 1386.59 622.914 1392.18 616.969 1385.63 610.383 C 1359.85 595.009 1365.74 616.486 1351.7 618.509 C 1339.73 610.111 1357.27 598.066 1365.42 595.126 z" fill="rgb(93,95,96)" transform="translate(0,0)"></path>
<path d="M 1549.34 451.417 C 1555.23 450.766 1571.25 450.751 1577.34 450.939 C 1682.65 454.202 1797.31 509.084 1869.83 584.301 C 1924.62 641.124 1970.71 721.785 1967.31 801.843 C 1964.24 874.067 1929.43 944.604 1878.22 994.916 C 1863.2 1009.67 1849.52 1019.74 1835.02 1033.47 C 1858.17 1028.46 1871.72 1017.61 1890.9 1004.19 C 1894.52 1020.45 1893.53 1037.41 1888.05 1053.15 C 1881.98 1071.27 1868.74 1086.12 1851.44 1094.22 C 1823.41 1107.53 1799.4 1103.78 1771.53 1093.99 C 1751.08 1104.16 1744.69 1107.42 1723.07 1113.66 C 1707.27 1118.58 1687.69 1122.77 1671.38 1125.12 C 1682.61 1117.79 1694.1 1109.69 1704 1100.65 C 1804.26 1009.02 1839.51 867.88 1808.34 737.454 C 1789.29 656.808 1739.1 586.974 1668.74 543.194 C 1668.76 541.316 1668.73 539.438 1668.68 537.561 C 1668.23 521.098 1661.13 505.517 1649.02 494.365 C 1620.85 468.296 1574.35 467.448 1547.69 496.559 C 1532.43 495.265 1517.5 492.496 1502.35 491.255 C 1466.26 488.43 1429.95 491.48 1394.84 500.286 C 1438.68 468.874 1496.38 455.514 1549.34 451.417 z" fill="rgb(214,232,204)" transform="translate(0,0)"></path>
<path d="M 1516.87 1129.11 C 1530.83 1131.58 1544.72 1135.35 1558.61 1138 C 1571.11 1140.38 1584.72 1141.77 1597.41 1143.24 C 1599.24 1149.13 1601.68 1155.91 1603.94 1161.53 C 1630.78 1228.25 1638.33 1299.6 1633.69 1371 C 1632.69 1386.23 1631.8 1402.36 1628.63 1417.62 C 1586.9 1424.31 1559.65 1424.99 1517.68 1422.9 C 1551.67 1371.6 1589.61 1317.79 1598.89 1255.82 C 1599.94 1248.76 1603.16 1227.96 1598.92 1222.1 L 1597.23 1222.72 C 1593.44 1227.11 1592.69 1230.39 1590.83 1235.78 C 1567.99 1324.59 1531.67 1378.96 1473.87 1448.82 C 1444.33 1426.55 1430.29 1418.02 1396.96 1401.79 C 1413.95 1372.06 1428.04 1351.17 1443.06 1319.53 C 1472.99 1256.47 1494.18 1194.66 1516.87 1129.11 z" fill="rgb(214,232,204)" transform="translate(0,0)"></path>
<path d="M 1364.58 1091.59 C 1366.12 1092.72 1373.67 1101.2 1375.2 1102.93 C 1383.6 1112.43 1392.97 1119.84 1404.25 1125.79 C 1437.57 1143.41 1466.64 1145.78 1502.22 1135.59 C 1495.54 1158.35 1485.17 1180.79 1476.92 1202.98 C 1451.62 1271.06 1422.86 1330.8 1385.92 1393.3 L 1382.28 1399.45 C 1374.54 1396.45 1358.27 1388.38 1350.49 1384.51 C 1327.15 1372.89 1289.83 1358.49 1271.76 1340.11 C 1274.43 1335.12 1277.35 1330.06 1280.13 1325.11 C 1286.02 1323.85 1290.52 1322.33 1295.85 1319.41 C 1352.07 1288.58 1340.51 1286.12 1311.81 1238.92 C 1332.47 1201.11 1356.14 1133.43 1364.58 1091.59 z" fill="rgb(214,232,204)" transform="translate(0,0)"></path>
<path d="M 1612 1482.47 C 1611.92 1485.67 1610.62 1487.33 1608.94 1490.25 C 1572.73 1553.09 1513.49 1578.15 1448.76 1599.99 C 1421.22 1609.42 1393.38 1617.96 1365.28 1625.59 C 1367.99 1616.68 1369.76 1607.52 1370.55 1598.25 C 1373.81 1566.99 1362.52 1536.43 1345.81 1510.62 C 1354.85 1509.09 1372.8 1505.14 1380.57 1504.29 C 1412.93 1500.78 1423.64 1498.76 1452.6 1484.8 C 1500.42 1496.26 1564.32 1489.53 1612 1482.47 z" fill="rgb(214,232,204)" transform="translate(0,0)"></path>
<path d="M 1268.4 1469.15 C 1300.22 1466.36 1328.87 1524.61 1332.11 1551.6 C 1335.3 1578.22 1335.51 1609.31 1321.74 1633.56 C 1318.29 1639.63 1299.57 1640.31 1292.73 1641.03 C 1268.32 1641.02 1245.86 1638.25 1234.12 1613 C 1219.81 1582.24 1224.77 1543.87 1235.94 1512.94 C 1242.72 1494.16 1249.54 1478.05 1268.4 1469.15 z" fill="rgb(214,232,204)" transform="translate(0,0)"></path>
<path d="M 1094.32 1298.13 C 1129.66 1295.98 1155.24 1364.87 1157.56 1393.33 C 1159.06 1411.89 1156.33 1444.81 1144.39 1460.56 C 1139.79 1466.63 1127.76 1466.29 1120.51 1466.77 C 1113.07 1466.52 1101.69 1465.5 1094.91 1462.72 C 1049.47 1444.06 1050.12 1374.66 1065.33 1336.37 C 1071.87 1319.9 1078.01 1305.47 1094.32 1298.13 z" fill="rgb(214,232,204)" transform="translate(0,0)"></path>
<path d="M 1017.77 892.742 C 1024.87 895.437 1049.91 935.47 1055.84 943.937 C 1093.04 997.436 1129.79 1051.24 1166.1 1105.35 C 1191.31 1142.69 1225.32 1187.23 1247.94 1224.17 C 1239.78 1227.82 1236.56 1230.15 1230.04 1235.82 L 1225.38 1240.71 C 1210.67 1222.04 1192.31 1192.6 1178.91 1172.38 C 1158.24 1141.38 1137.28 1110.56 1116.04 1079.95 L 1047.91 980.878 C 1034.09 960.994 1019.1 941.089 1007.01 920.103 C 999.264 906.662 1004.38 898.43 1017.77 892.742 z" fill="rgb(249,218,169)" transform="translate(0,0)"></path>
<path d="M 1252.82 1214.37 C 1199.96 1133.45 1141.18 1051.59 1086.72 970.923 C 1075.4 954.09 1063.89 937.386 1052.2 920.815 C 1046.75 913.055 1035.07 898.641 1031.59 890.74 C 1022.72 870.614 1044.36 875.007 1054.12 878.041 C 1060.14 885.429 1073.25 906.347 1079.45 915.28 C 1099.38 943.566 1119.13 971.968 1138.72 1000.48 C 1173.15 1050.19 1207.14 1100.2 1240.69 1150.5 C 1252.11 1167.75 1268.78 1190.73 1278.73 1207.77 L 1275.34 1207.54 C 1273.85 1205.52 1274.6 1206.43 1271.51 1205.39 C 1263.62 1206.4 1259.4 1209.98 1252.82 1214.37 z" fill="rgb(249,218,169)" transform="translate(0,0)"></path>
<path d="M 1644.94 570.826 C 1638.62 531.056 1598.12 517.313 1572.07 549.734 C 1559.24 565.706 1568.1 597.834 1592.34 593.052 C 1602.19 591.61 1617.66 574.576 1606.37 564.182 C 1602.6 563.577 1604.27 563.199 1601.15 565.187 C 1597.81 572.572 1596.53 580.727 1590.04 584.406 C 1582.3 584.497 1576.35 577.506 1576.36 569.911 C 1576.34 562.846 1579.21 556.079 1584.3 551.182 C 1604.34 532.177 1638.88 547.644 1634.48 576.482 C 1630.65 601.562 1600.22 610.232 1578.45 606.365 C 1563.63 603.855 1550.49 595.367 1542.11 582.889 C 1522.07 552.936 1536.84 513.357 1564.91 494.756 C 1592.57 476.424 1635.73 486.14 1652.53 514.96 C 1661.66 530.621 1662.09 550.403 1657.33 567.581 C 1656.84 569.323 1656.3 571.049 1655.7 572.754 L 1655.01 573.543 C 1650.55 571.769 1650.46 574.6 1644.94 570.826 z" fill="rgb(214,232,204)" transform="translate(0,0)"></path>
<path d="M 1259.09 1334.09 C 1259.06 1336.28 1252.97 1365.7 1251.94 1369.81 C 1243.18 1404.78 1252.16 1423.21 1267.79 1454.84 C 1242.63 1456.68 1217.44 1458.21 1192.25 1459.45 L 1189.49 1459.62 L 1188.45 1458.17 C 1198.16 1426.47 1196.23 1381.16 1179.75 1351.91 C 1215.29 1346.76 1223.98 1348.8 1259.09 1334.09 z" fill="rgb(214,232,204)" transform="translate(0,0)"></path>
<path d="M 1621.03 1430.42 C 1623.7 1429.84 1623.66 1429.92 1626.42 1430.17 C 1627.85 1435.89 1618.98 1462.27 1616.53 1469.7 C 1571.45 1476.27 1528.12 1478.63 1482.77 1473.74 C 1479.5 1473.41 1477.24 1473.58 1474.68 1471.63 C 1476.1 1468.44 1505.7 1437.8 1510 1433.36 C 1550.79 1435.84 1580.23 1435.09 1621.03 1430.42 z" fill="rgb(249,218,169)" transform="translate(0,0)"></path>
<path d="M 1356.63 1077.8 C 1359.27 1082.82 1355.2 1094.82 1353.13 1099.49 C 1345.16 1117.51 1313.51 1214.64 1300.97 1220.75 C 1296.22 1218.55 1285.6 1200.79 1282.16 1195.52 L 1255.43 1155.42 C 1297.44 1137.82 1327.06 1111.1 1356.63 1077.8 z" fill="rgb(214,232,204)" transform="translate(0,0)"></path>
<path d="M 1267.91 1349.72 C 1295.87 1377.18 1340.38 1395.55 1376.05 1411.36 C 1370.96 1419.13 1367.87 1423.75 1364 1432.09 L 1359.06 1443.86 C 1329.48 1434.63 1292.67 1416.71 1274.65 1390.31 C 1264.76 1375.83 1264.67 1365.83 1267.91 1349.72 z" fill="rgb(249,218,169)" transform="translate(0,0)"></path>
<path d="M 1259.33 1390.78 C 1260.62 1391.91 1260.17 1391.32 1260.99 1392.85 C 1280.88 1430.01 1313.56 1445.78 1351.68 1458.4 C 1352.05 1464.24 1352.27 1472.86 1354.7 1478.11 C 1356.41 1481.82 1363.38 1483.94 1364.41 1488.1 L 1360.52 1489.39 C 1351.47 1491.97 1341.27 1494.29 1332.07 1496.6 C 1316.78 1481.49 1307.16 1469.52 1289.33 1456.45 C 1271.7 1443.53 1261.45 1412.3 1259.33 1390.78 z" fill="rgb(214,232,204)" transform="translate(0,0)"></path>
<path d="M 1285.31 1256.75 C 1285.37 1256.21 1286.02 1250.26 1286.01 1250.22 C 1285.52 1246.63 1277.96 1241.29 1280.42 1237.63 C 1289.75 1241.83 1288.92 1258.58 1305.5 1246.01 C 1310.19 1252.7 1313.73 1258.14 1317.92 1265.16 C 1300.61 1279.07 1279.68 1290.6 1262.39 1304.84 C 1254.57 1301.3 1249.04 1286.64 1243.75 1280.61 C 1241.12 1277.6 1244.39 1282.47 1241.65 1278.12 C 1239.43 1273.81 1237.41 1272.04 1238.25 1268.28 L 1235.97 1268.05 L 1234.91 1266.44 L 1236.05 1263.93 C 1239.79 1261.59 1237.88 1261.95 1241.9 1262.34 C 1245.71 1259.95 1247.69 1258.46 1251.19 1255.61 C 1254.03 1252.99 1256.85 1250.67 1260.51 1249.38 C 1263.45 1245.72 1265.57 1243.83 1270.33 1242.98 C 1272.76 1240.71 1272.53 1240.76 1275.71 1239.87 C 1281 1241.5 1284.93 1251.58 1285.31 1256.75 z" fill="rgb(246,188,150)" transform="translate(0,0)"></path>
<path d="M 1270.33 1242.98 C 1272.76 1240.71 1272.53 1240.76 1275.71 1239.87 C 1281 1241.5 1284.93 1251.58 1285.31 1256.75 C 1264.66 1273.46 1268.99 1255.88 1258.34 1259.92 C 1260.98 1264.93 1261.65 1265.24 1261.57 1270.75 C 1259.08 1276.8 1253.34 1278.73 1247.26 1281.36 C 1252.04 1291.53 1256.75 1295.72 1262.39 1304.84 C 1254.57 1301.3 1249.04 1286.64 1243.75 1280.61 C 1241.12 1277.6 1244.39 1282.47 1241.65 1278.12 C 1239.43 1273.81 1237.41 1272.04 1238.25 1268.28 L 1235.97 1268.05 L 1234.91 1266.44 L 1236.05 1263.93 C 1239.79 1261.59 1237.88 1261.95 1241.9 1262.34 C 1245.71 1259.95 1247.69 1258.46 1251.19 1255.61 C 1254.03 1252.99 1256.85 1250.67 1260.51 1249.38 C 1263.45 1245.72 1265.57 1243.83 1270.33 1242.98 z" fill="rgb(93,95,96)" transform="translate(0,0)"></path>
<path d="M 1260.51 1249.38 C 1263.45 1245.72 1265.57 1243.83 1270.33 1242.98 C 1273.8 1245.98 1275.37 1246.75 1276.76 1250.89 C 1276.5 1254.43 1277.12 1252.93 1274.92 1255.6 C 1268.05 1258.13 1264.56 1254.28 1260.51 1249.38 z" fill="rgb(255,255,255)" transform="translate(0,0)"></path>
<path d="M 1251.19 1255.61 C 1252.85 1259.15 1255.05 1262.62 1254.69 1266.38 C 1253.11 1269.87 1252.95 1269.76 1250.2 1272.21 C 1246.27 1270.56 1246.52 1266.62 1241.9 1262.34 C 1245.71 1259.95 1247.69 1258.46 1251.19 1255.61 z" fill="rgb(255,255,255)" transform="translate(0,0)"></path>
<path d="M 1241.65 1278.12 C 1239.43 1273.81 1237.41 1272.04 1238.25 1268.28 C 1240.32 1271 1243.71 1274.67 1244.18 1277.84 C 1242.01 1278.22 1242.85 1278.28 1241.65 1278.12 z" fill="rgb(119,119,120)" transform="translate(0,0)"></path>
<path d="M 1378.29 1432.43 C 1399.48 1439.3 1428.35 1456.38 1446.48 1469.39 C 1439.51 1474.41 1434.13 1476.55 1426.27 1479.67 C 1384.2 1497.4 1347.05 1480.54 1378.29 1432.43 z" fill="rgb(214,232,204)" transform="translate(0,0)"></path>
<path d="M 1365.18 1067.42 C 1371.6 1069.83 1390.17 1080.33 1397.5 1083.97 C 1420.32 1095.57 1443.97 1105.45 1468.26 1113.54 C 1472.96 1115.07 1495.58 1121.29 1497.08 1123.24 L 1494.79 1124.29 C 1470.55 1128.85 1453.95 1129.96 1430.16 1122.06 C 1398.49 1111.54 1380.24 1096.68 1365.18 1067.42 z" fill="rgb(214,232,204)" transform="translate(0,0)"></path>
<path d="M 1156.05 1348.36 C 1158.05 1348.56 1163.52 1349.12 1164.93 1350.23 C 1188.98 1369.13 1186.32 1438.95 1174 1460.75 C 1168.47 1461.38 1162.89 1461.7 1157.34 1462.08 C 1171.59 1420.7 1169.7 1388.69 1156.05 1348.36 z" fill="rgb(249,218,169)" transform="translate(0,0)"></path>
<path d="M 1327.89 1509.59 C 1331.44 1510.46 1335.14 1516.39 1337.07 1519.47 C 1348.61 1537.85 1357.83 1559.39 1359.01 1581.31 C 1359.76 1595.2 1358.84 1619.73 1349.22 1630.62 C 1344.25 1631.86 1338.42 1632.72 1333.32 1633.61 C 1347.02 1586 1346.43 1555.36 1327.89 1509.59 z" fill="rgb(249,218,169)" transform="translate(0,0)"></path>
<path d="M 1391.88 1410.53 C 1411.66 1418.02 1449.15 1442.84 1467.95 1454.73 L 1458.88 1463.27 L 1457.13 1463.87 C 1453.13 1462.81 1430.71 1448.23 1425.28 1445.05 C 1411.74 1437.16 1398.04 1429.53 1384.19 1422.19 L 1391.88 1410.53 z" fill="rgb(249,245,211)" transform="translate(0,0)"></path>
<path d="M 1320.88 1272.71 C 1325.3 1275.35 1330.98 1287.13 1328.12 1289.77 C 1317.97 1299.16 1290.69 1314.18 1279.14 1319.52 L 1268.04 1308.91 C 1284.15 1296.8 1303.93 1284.08 1320.88 1272.71 z" fill="rgb(246,188,150)" transform="translate(0,0)"></path>
<path d="M 1015.59 853.612 C 1025.92 854.138 1033.33 861.059 1041.57 867.185 C 1028 870.371 1026.87 869.833 1021.94 882.853 C 1016.08 884.702 1012.7 885.718 1007.13 888.367 C 1002.93 891.411 1002.32 892.345 999.174 896.538 C 996.418 887.201 992.702 876.928 989.767 867.339 C 1009.9 866.882 1007.05 871.903 1015.59 853.612 z" fill="rgb(214,232,204)" transform="translate(0,0)"></path>
<path d="M 1179.35 1192.44 C 1184.49 1195.3 1210.38 1237.31 1214.74 1245.74 L 1213.93 1247.36 L 1213.13 1247.32 L 1211.81 1247.24 C 1185.19 1245.74 1168.65 1216.16 1179.35 1192.44 z" fill="rgb(214,232,204)" transform="translate(0,0)"></path>
<path d="M 1266.56 1215.89 C 1269.67 1216.95 1273.75 1224.11 1275.84 1227.2 C 1271.72 1230.06 1267.56 1232.87 1263.37 1235.63 C 1259.25 1230.2 1260.45 1226.16 1256.77 1222.75 L 1256.83 1221.95 L 1257.54 1222.67 C 1258.48 1219.83 1263.31 1217.85 1266.56 1215.89 z" fill="rgb(249,245,211)" transform="translate(0,0)"></path>
<path d="M 1294.8 1228.32 C 1298.61 1231.47 1301.44 1235.83 1300.85 1240.88 C 1298.79 1243.8 1298.88 1243.59 1295.84 1245.53 L 1285.48 1232.11 L 1294.8 1228.32 z" fill="rgb(255,255,255)" transform="translate(0,0)"></path>
<path d="M 1246.77 1232.63 C 1251.02 1233.53 1253.88 1234.84 1255.08 1239.08 C 1254.43 1243.19 1252.45 1244.25 1249.18 1247.29 C 1246.32 1245.18 1241.73 1241.45 1240.97 1238 C 1242.39 1234.38 1242.6 1235.22 1246.77 1232.63 z" fill="rgb(249,245,211)" transform="translate(0,0)"></path>
<path d="M 1231.63 1242.33 C 1235.77 1244.41 1238.17 1245.49 1239.63 1249.92 C 1238.24 1253.44 1238.32 1252.53 1234.73 1255.2 L 1233.42 1255.85 L 1231.74 1255.16 C 1229.42 1249.72 1228.43 1247.29 1231.63 1242.33 z" fill="rgb(249,245,211)" transform="translate(0,0)"></path>
<path d="M 1278.73 1207.77 C 1282.16 1210.17 1286.22 1213.69 1287.03 1217.89 L 1286.22 1219.93 C 1279.44 1222.17 1276.59 1212.59 1275.34 1207.54 L 1278.73 1207.77 z" fill="rgb(249,245,211)" transform="translate(0,0)"></path>
<path d="M 539.08 1048.83 C 539.399 1048.81 539.718 1048.75 540.037 1048.77 C 546.711 1049.15 598.693 1108.45 607.091 1117.52 C 617.726 1112.76 626.396 1108.75 637.965 1106.44 C 657.225 1102.6 680.747 1111.2 683.778 1132.85 C 686.224 1150.33 672.23 1166.37 662.138 1179.48 C 671.47 1189.94 681.578 1200.81 689.934 1211.96 C 702.123 1205.14 712.84 1200.47 727.028 1199.61 C 745.368 1198.5 762.127 1209.7 762.531 1229.09 C 762.887 1246.21 751.825 1258.39 741.067 1270.18 C 749.976 1282.68 761.263 1293.09 771.012 1306.97 C 784.909 1301.02 794.366 1298.31 809.43 1297.55 C 839.747 1296.02 860.094 1319.62 842.545 1347.42 C 836.982 1356.23 832.38 1360.61 824.633 1367.7 C 834.28 1381.5 846.381 1391.12 855.667 1407.32 C 878.303 1394.13 919.161 1382.68 927.24 1421.7 C 930.404 1436.97 916.596 1453.15 907.079 1464.69 C 914.143 1472.7 939.441 1503.81 944.029 1512.19 C 968.998 1502.91 1009.39 1495.9 1014.89 1535.8 C 1016.81 1549.7 1002.94 1565.55 993.555 1575.34 C 1002.84 1586.92 1016.37 1602.33 1022.68 1615.46 C 1026.85 1624.13 1025.04 1628.62 1021.93 1636.64 C 1027.2 1651.99 1026.01 1655.49 1011.79 1663.67 C 992.473 1674.66 971.976 1683.5 952.192 1693.55 C 838.16 1751.52 729.897 1821.5 625.368 1894.9 C 605.943 1908.65 527.932 1967.37 513.061 1970.48 C 502.813 1963.74 440.938 1879.37 428.996 1863.78 L 326.03 1731.33 L 136.94 1487.5 C 113.098 1456.54 88.53 1426.14 65.3811 1394.62 C 59.6506 1386.81 53.6526 1379.4 48.6437 1371.09 C 50.2968 1365.04 53.191 1357.5 55.3315 1351.44 C 55.162 1351.12 54.9872 1350.8 54.823 1350.47 C 54.5748 1349.98 54.3396 1349.48 54.0944 1348.98 C 52.7595 1346.28 51.6883 1344.24 52.5226 1341.09 C 54.4232 1333.91 92.0038 1311.14 99.9877 1305.81 C 198.121 1240.4 298.901 1179.04 402.072 1121.9 C 447.078 1096.32 492.764 1071.95 539.08 1048.83 z" fill="rgb(93,95,96)" transform="translate(0,0)"></path>
<path d="M 537.807 1064.9 C 542.006 1065.61 586.41 1115.58 591.516 1122.9 C 553.738 1138.22 513.307 1161.76 477.548 1181.77 C 406.884 1221.35 337.297 1262.83 268.862 1306.15 C 253.899 1315.55 228.22 1330.51 215.042 1342.6 C 214.062 1343.5 214.604 1344.73 214.803 1346.43 L 216.362 1347.35 C 223.251 1346.79 247.109 1329.64 254.616 1324.93 L 327.934 1279.5 C 396.893 1237.54 466.769 1197.11 537.511 1158.23 C 553.079 1149.76 569.092 1142.01 584.78 1133.55 C 579.402 1140.73 576.005 1146.99 572 1154.96 C 525.267 1154.66 529.896 1210.89 565.015 1212.03 C 590.293 1212.85 608.69 1180.95 583.486 1157.65 C 588.149 1150.82 595.677 1142.19 601.292 1136.11 C 617.922 1147.93 658.546 1196.61 672.678 1214.31 C 666.263 1216.69 659.9 1219.21 653.593 1221.87 C 641.803 1226.96 626.104 1235.82 614.519 1242.13 C 591.188 1254.76 568.102 1267.83 545.274 1281.35 C 492.51 1311.92 440.23 1343.32 388.455 1375.54 C 370.879 1386.63 353.219 1397.58 335.475 1408.39 C 324.901 1414.82 295.289 1430.78 287.699 1442.14 C 287.013 1443.17 288.204 1444.11 289.013 1445.23 C 295.126 1446.96 320.463 1428.17 326.673 1424.12 C 344.373 1412.64 362.2 1401.37 380.152 1390.3 C 444.76 1350.1 510.176 1311.2 576.36 1273.65 C 608.426 1255.31 637.013 1237.67 670.97 1222.01 C 668.932 1223.8 644.101 1248.42 645.704 1248.19 C 631.129 1249.46 617.416 1257.54 617.067 1274.15 C 615.841 1332.48 707.527 1295.68 659.012 1251.6 C 666.256 1241.8 674.178 1235.15 683.769 1227.85 C 703.478 1247.36 721.177 1269.85 739.492 1290.66 C 745.34 1297.3 751.103 1304.21 756.265 1311.4 C 725.153 1323.58 693.923 1339.56 664.444 1355.47 C 594.404 1393.26 527.265 1434.98 459.774 1476.98 C 438.472 1489.96 417.343 1503.22 396.394 1516.76 C 387.632 1522.32 366.476 1532.68 363.425 1542.39 L 364.593 1543.5 C 374.383 1542.48 444.78 1496.55 457.444 1488.43 C 543.411 1433.35 631.656 1381.91 721.944 1334.24 C 723.63 1337.06 725.684 1339.77 726.066 1342.93 C 722.061 1345.15 719.044 1345.12 714.714 1348.11 C 701.356 1357.35 698.504 1376.5 708.133 1389.54 C 716.094 1401.31 740.007 1403.74 750.056 1393.52 C 765.923 1377.39 759.862 1359.69 746.43 1345.92 C 753.014 1338.68 760.287 1331.37 767.1 1324.29 C 783.612 1340.57 818.087 1381.76 830.657 1400.69 C 821.679 1407.37 806.477 1415.23 796.283 1420.78 C 781.017 1429.07 765.826 1437.49 750.713 1446.05 C 716.192 1465.63 682.099 1485.64 648.013 1505.96 C 622.05 1521.43 595.441 1536.35 570.09 1552.79 C 530.9 1575.98 492.617 1602.88 454.032 1627.14 C 450.264 1629.51 442.104 1634.54 441.444 1638.98 C 444.356 1642.08 454.003 1637.25 456.985 1635.32 C 481.579 1619.37 506.082 1603.31 530.891 1587.69 C 589.267 1551.18 648.064 1515.34 707.27 1480.19 C 733.922 1464.67 761.919 1450.74 788.39 1434.54 C 804.758 1424.52 821.29 1416.74 837.249 1405.5 C 839.454 1407.92 842.026 1411.75 843.989 1414.48 C 835.707 1421.79 830.014 1427.2 822.293 1435.1 C 793.661 1437.56 774.508 1454.46 792.191 1485.53 C 799.448 1498.28 823.806 1497.76 833.75 1486.51 C 848.074 1470.31 850.865 1455.47 834.02 1439.45 C 840.048 1433.63 846.916 1428.79 853.893 1424.2 L 916.228 1501.09 C 896.709 1510.1 872.912 1521.94 854.192 1532.33 C 812.677 1555.44 771.465 1579.09 730.566 1603.27 C 713.323 1613.45 696.658 1624.69 679.613 1635.2 C 659.674 1647.5 524.064 1727.95 518.557 1739.41 C 517.751 1741.09 518.111 1741.06 518.643 1742.67 L 521.009 1743.74 C 534.726 1736.55 553.888 1723.18 567.306 1714.45 C 587.615 1701.38 608.031 1688.48 628.55 1675.74 C 691.393 1636.06 755.221 1597.97 819.975 1561.5 C 851.118 1543.93 888.737 1522.04 920.777 1507.21 L 931.637 1519.4 C 920.475 1528.52 912.252 1534.98 901.494 1544.7 C 900.327 1544.46 899.151 1544.26 897.971 1544.09 C 890.178 1542.99 882.28 1545.2 876.193 1550.19 C 854.71 1567.72 860.652 1605.55 892.749 1604.37 C 909.138 1603.77 925.343 1589.8 924.975 1572.72 C 924.783 1563.8 918.981 1556.65 912.888 1551.06 C 921.257 1541.76 927.675 1537.37 938.297 1530.81 C 949.365 1542.93 962.695 1562.4 973.767 1575.76 C 982.145 1585.87 1003.32 1609.37 1009.39 1619.57 C 893.601 1672.31 782.4 1734.58 676.934 1805.75 C 644.235 1827.36 613.33 1849.43 581.226 1871.57 C 565.591 1852.56 548.75 1828.76 533.475 1808.9 L 411.245 1649.8 L 206.499 1384.84 C 184.151 1356.06 160.592 1328.01 138.279 1298.67 C 147.373 1291.02 170.453 1276.95 180.895 1270.46 C 205.641 1255.06 230.504 1239.85 255.481 1224.84 C 343.279 1171.96 445.565 1108.62 537.807 1064.9 z" fill="rgb(255,255,255)" transform="translate(0,0)"></path>
<path d="M 128.677 1303.82 C 135.62 1307.53 286.377 1505.94 304.027 1528.68 C 375.676 1619.34 446.404 1710.72 516.2 1802.81 C 533.48 1825.84 557.077 1855 573.058 1877.79 L 517.557 1916.28 C 512.113 1912.49 454.08 1832.83 445.353 1821.49 L 193.301 1496.42 L 120.762 1401.2 C 106.16 1381.81 89.824 1358.09 73.8081 1340.42 C 88.9276 1327.84 111.592 1315.24 128.677 1303.82 z" fill="rgb(214,232,204)" transform="translate(0,0)"></path>
<path d="M 64.8443 1349.41 C 73.8877 1356.9 91.8122 1384.74 100.374 1395.72 C 123.971 1425.97 146.812 1457.78 170.223 1488.09 L 402.015 1786.4 L 466.571 1870.77 C 479.896 1887.85 502.673 1914.96 512.922 1932.51 C 511.628 1936.69 510.869 1944.27 508.978 1947.08 C 466.219 1897.25 421.765 1836.49 381.204 1784.44 C 299.753 1681.81 219.323 1578.38 139.925 1474.15 C 113.896 1440.54 85.0376 1398.29 58.5002 1366.43 C 60.5428 1360.38 62.2206 1355.24 64.8443 1349.41 z" fill="rgb(214,232,204)" transform="translate(0,0)"></path>
<path d="M 1011.66 1631.04 C 1012.62 1632.43 1012.69 1642.85 1012.99 1646.06 C 966.223 1671.14 916.36 1691.77 870.327 1719.17 C 846.361 1733.43 822.857 1747.51 799.122 1762.1 C 741.238 1797.19 684.569 1834.24 629.214 1873.2 C 595.955 1896.37 555.139 1923.98 523.617 1948.83 L 523.05 1948.81 L 522.147 1947.56 C 522.361 1941.52 523.268 1936.68 524.25 1930.73 C 537.74 1914.68 580.341 1889.04 599.188 1875.6 C 731.108 1781.55 866.184 1702.83 1011.66 1631.04 z" fill="rgb(214,232,204)" transform="translate(0,0)"></path>
<path d="M 642.31 1119.31 C 661.057 1117.71 674.415 1126.37 668.563 1147.24 C 667.125 1152.37 659.38 1167.3 654.602 1169.9 L 651.383 1166.92 C 640.624 1154.2 627.999 1139.08 616.182 1127.44 C 626.476 1122.75 631.168 1121 642.31 1119.31 z" fill="rgb(255,255,255)" transform="translate(0,0)"></path>
<path d="M 803.588 1311.18 C 806.542 1310.88 809.512 1310.76 812.48 1310.82 C 845.315 1311.52 837.702 1343.88 817.811 1360.35 C 805.154 1345.47 794.521 1332.49 781.136 1318.06 C 789.199 1314.55 795.109 1313.05 803.588 1311.18 z" fill="rgb(255,255,255)" transform="translate(0,0)"></path>
<path d="M 971.087 1518.33 C 1005.79 1513.71 1008.68 1547.34 987.604 1566.58 L 985.941 1566.35 C 974.973 1552.33 961.361 1537.22 951.27 1523.07 C 959.241 1520.6 962.879 1519.66 971.087 1518.33 z" fill="rgb(255,255,255)" transform="translate(0,0)"></path>
<path d="M 723.231 1214.34 C 763.259 1209.3 747.235 1252.73 732.412 1260.26 L 730.092 1258.3 C 719.245 1245.65 708.175 1233.2 696.889 1220.94 C 706.044 1217.78 713.713 1215.81 723.231 1214.34 z" fill="rgb(255,255,255)" transform="translate(0,0)"></path>
<path d="M 888.536 1408.37 C 932.555 1409.85 908.022 1453.18 899.382 1455.5 L 897.076 1453.8 C 887.518 1441.3 875.394 1429.24 866.199 1416.51 C 875.054 1411.49 878.242 1409.7 888.536 1408.37 z" fill="rgb(255,255,255)" transform="translate(0,0)"></path>
<path d="M 878.301 1588.37 L 875.095 1582.92 L 875.545 1581.63 L 879.539 1584.72 C 867.637 1550.36 903.79 1544.11 913.416 1566.8 C 918.053 1577.73 909.16 1588.62 896.828 1592.54 C 886.933 1597.94 885.871 1595.44 878.301 1588.37 z" fill="rgb(137,144,119)" transform="translate(0,0)"></path>
<path d="M 878.301 1588.37 C 879.91 1587.88 881.218 1587.37 882.669 1586.51 C 889.067 1587.93 890.704 1590.22 896.828 1592.54 C 886.933 1597.94 885.871 1595.44 878.301 1588.37 z" fill="rgb(93,95,96)" transform="translate(0,0)"></path>
<path d="M 816.896 1444.23 C 850.174 1444.52 835.676 1495.93 803.999 1474.93 C 802.236 1473.2 801.432 1472.56 799.541 1470.99 L 798.171 1471.53 C 799.182 1474.82 802.991 1477.07 805.796 1480.63 C 794.277 1484.04 787.18 1450.83 816.896 1444.23 z" fill="rgb(137,144,119)" transform="translate(0,0)"></path>
<path d="M 564.879 1163.11 C 573.643 1163.26 581.103 1165.86 584.648 1174.49 C 586.489 1178.89 586.421 1183.86 584.462 1188.21 C 582.179 1193.34 579.398 1195.67 574.406 1197.64 C 562.522 1195.54 546.966 1188.31 552.073 1171.6 C 553.53 1166.84 560.3 1164.41 564.879 1163.11 z" fill="rgb(137,144,119)" transform="translate(0,0)"></path>
<path d="M 640.174 1258.11 C 659.816 1257.87 673.827 1280.02 650.184 1290.85 C 629.395 1287.31 616.072 1269.31 640.174 1258.11 z" fill="rgb(137,144,119)" transform="translate(0,0)"></path>
<path d="M 750.894 1322.03 L 751.612 1323.29 C 746.762 1329.02 737.725 1342.15 732.776 1344.88 C 732.285 1342.27 732.301 1335.65 731.415 1330.52 L 750.894 1322.03 z" fill="rgb(255,255,255)" transform="translate(0,0)"></path>
<path d="M 626.064 1277.93 C 632.587 1288.24 632.676 1288.75 643.738 1294.15 C 633.42 1294.75 627.279 1287.58 626.064 1277.93 z" fill="rgb(170,169,169)" transform="translate(0,0)"></path>
<path d="M 547.736 1186.76 C 555.727 1197.9 554.696 1194.34 565.202 1200.77 L 566.833 1201.78 C 556.615 1200.8 549.798 1197.33 547.736 1186.76 z" fill="rgb(170,169,169)" transform="translate(0,0)"></path>
<path d="M 713.611 1373.11 C 715.463 1374.96 714.981 1374.26 716.089 1376.48 L 714.724 1375.69 C 715.48 1385.2 720.695 1386.51 728.274 1389.65 L 728.089 1390.71 C 719.291 1389.65 710.155 1383.02 713.611 1373.11 z" fill="rgb(170,169,169)" transform="translate(0,0)"></path>
<path d="M 792.331 204.271 C 820.659 204.962 819.51 237.67 833.587 247.606 C 847.912 250.269 873.204 243.117 885.893 252.445 C 911.862 271.536 877.737 298.652 866.094 317.108 C 867.97 323.241 870.79 330.448 873.097 336.5 C 879.626 352.961 877.521 377.342 857.269 382.51 C 838.191 387.378 822.523 378.051 806.831 368.937 C 788.103 383.059 771.727 404.337 745.13 386.823 C 725.552 373.739 738.52 349.577 736.58 333.37 C 728.804 316.094 704.82 322.187 701.274 298.567 C 695.302 258.788 740.684 269.728 752.869 255.352 C 766.993 238.687 755.439 208.906 792.331 204.271 z" fill="rgb(93,95,96)" transform="translate(0,0)"></path>
<path d="M 788.379 216.921 C 810.368 217.45 810.246 241.995 820.498 255.685 C 830.156 268.583 853.933 257.587 867.616 260.451 C 872.332 261.438 876.272 262.034 879.263 266.417 C 889.972 282.202 858.284 298.95 853.949 310.829 C 848.937 324.56 866.008 344.881 862.815 359.247 C 862.276 362.807 858.535 368.022 855.151 369.454 C 839.031 376.276 821.465 359.585 805.906 355.711 C 789.811 359.499 779.307 381.658 760.613 381.043 C 739.76 380.357 749.723 339.571 750.644 326.684 C 741.09 314.171 723.548 309.025 716.628 297.994 C 705.811 276.167 748.216 276.676 756.731 270.415 C 778.208 254.622 761.538 231.357 788.379 216.921 z" fill="rgb(249,245,211)" transform="translate(0,0)"></path>
<path d="M 462.979 391.217 C 491.61 389.566 483.146 412.584 492.78 429.802 C 497.427 435.171 506.395 437.213 512.8 440.341 C 549.175 458.104 521.528 476.169 499.138 487.877 C 499.011 499.234 499.805 515.267 492.116 524.069 C 478.81 539.3 459.295 523.785 449.07 513.651 C 442.12 506.454 418.85 523.79 404.416 514.312 C 385.178 501.679 402.302 482.935 408.768 469.399 L 409.294 468.276 C 401.722 459.409 384.999 441.288 389.882 428.135 C 395.314 413.505 427.405 421.2 434.553 417.777 C 447.206 411.717 444.999 399.462 462.979 391.217 z" fill="rgb(93,95,96)" transform="translate(0,0)"></path>
<path d="M 464.431 400.634 C 480.679 399.999 480.432 423.191 481.795 435.182 C 491.51 441.279 514.299 447.856 518.041 456.806 C 523.243 469.246 497.366 473.804 492.234 480.884 C 485.836 489.726 491.535 506.826 486.044 516.096 C 477.057 531.267 456.617 507.353 449.084 501.729 L 448.125 501.025 C 441.439 499.574 436.042 504.544 429.667 506 C 385.818 516.019 414.638 482.026 419.942 468.276 C 414.347 457.974 400.731 446.166 398.974 435.787 C 396.918 423.639 433.388 428.849 439.813 429.088 C 448.948 420.855 452.108 411.098 464.431 400.634 z" fill="rgb(249,245,211)" transform="translate(0,0)"></path>
<path d="M 213.023 585.149 C 238.63 581.661 231.995 604.547 248.725 614.059 C 250.872 615.279 263.528 614.757 267.194 615.181 C 305.636 619.631 285.943 645.079 270.133 662.392 C 273.919 673.562 281.1 690.29 275.839 701.462 C 268.134 717.822 244.801 706.053 233.703 701.139 C 220.032 699.904 177.307 754.765 184.291 672.315 C 174.977 666.185 161.137 660.149 158.494 647.43 C 154.577 628.588 178.429 625.745 191.563 623.387 C 198.757 607.392 196.385 594.308 213.023 585.149 z" fill="rgb(93,95,96)" transform="translate(0,0)"></path>
<path d="M 215.131 593.688 C 232.184 594.555 229.211 614.67 241.019 622.017 C 248.772 626.841 270.872 621.12 276.528 628.023 C 286.193 640.667 261.575 650.56 259.549 659.107 C 257.047 669.663 276.692 689.918 263.442 699.072 C 255.671 700.651 241.375 694.392 233.265 691.599 C 222.326 689.403 207.086 712.041 194.209 705.441 C 190.542 699.786 193.161 679.651 193.508 670.804 C 185.887 662.309 171.196 654.85 168.157 644.989 C 169.909 632.563 194.149 634.761 198.654 629.76 C 208.626 618.687 201.081 606.718 215.131 593.688 z" fill="rgb(249,245,211)" transform="translate(0,0)"></path>
<path d="M 714.842 827.163 C 733.849 825.691 736.986 840.815 750.658 849.733 C 761.055 848.585 776.721 845.836 785.475 851.832 C 801.889 863.074 785.288 884.337 777.824 895.16 C 783.109 905.448 793.545 916.677 792.013 928.596 C 789.717 946.462 761.952 940.931 749.828 939.315 C 747.269 938.974 747.99 939.199 746.157 940.798 C 730.492 963.788 702.474 974.255 697.865 937.124 C 697.166 931.494 696.31 926.076 695.156 920.53 C 654.4 899.063 660.447 884.405 698.966 866.4 C 699.934 851.537 700.552 835.554 714.842 827.163 z" fill="rgb(93,95,96)" transform="translate(0,0)"></path>
<path d="M 716.239 837.697 C 731.031 837.447 732.684 851.102 747.58 859.39 C 757.335 858.534 778.681 852.945 783.425 863.839 C 783.323 869.492 773.44 883.085 769.854 888.569 C 759.72 904.069 789.042 916.464 779.981 930.123 C 771.459 936.488 755.458 929.388 744.919 928.665 C 738.371 935.278 728.301 948.667 719.161 950.456 C 704.93 953.241 706.963 925.012 706.945 916.925 C 699.143 911.495 679.449 902.625 677.969 893.364 C 680.671 884.353 700.68 877.13 708.767 870.457 C 709.572 859.082 708.988 846.231 716.239 837.697 z" fill="rgb(249,245,211)" transform="translate(0,0)"></path>
<path d="M 1107.59 398.051 C 1127.85 397.485 1131.22 409.016 1145.88 421.065 L 1146.88 421.868 C 1157.78 419.641 1172.53 413.845 1182.79 420.154 C 1198 429.505 1181.52 453.608 1175.68 463.213 C 1180.42 473.568 1190.86 486.275 1189.99 497.746 C 1188.72 514.256 1155.23 508.498 1145.16 506.555 C 1138.45 515.414 1131.7 524.425 1120.8 528.225 C 1100.63 535.254 1097.25 502.819 1093.6 490.439 C 1086.73 484.822 1079.11 483.247 1073.09 478.537 C 1044.73 456.341 1078.93 445.215 1092.24 437.744 C 1096.98 421.732 1092.42 407.531 1107.59 398.051 z" fill="rgb(93,95,96)" transform="translate(0,0)"></path>
<path d="M 1108.78 407.556 C 1123.35 406.973 1131.92 421.736 1141.79 431.248 C 1145.72 430.886 1153.02 429.451 1156.35 428.759 C 1192.42 421.224 1180.2 439.264 1167.81 458.23 C 1161.16 468.396 1183.97 486.53 1178.45 497.129 C 1169.1 504.864 1155.38 494.728 1143.95 496.346 C 1134.24 502.329 1123.86 522.683 1112.3 518.701 C 1104.76 516.106 1106.2 490.869 1101.48 484.854 C 1094.81 476.367 1077.54 476.071 1073.35 465.284 C 1069.55 454.066 1094.45 450.959 1099.14 444.446 C 1106.81 433.82 1101.19 422.303 1108.78 407.556 z" fill="rgb(249,245,211)" transform="translate(0,0)"></path>
<path d="M 1422.08 167.138 C 1439.8 168.153 1445.31 180.455 1455.9 193.165 C 1465.94 192.354 1480.85 190.323 1489.91 194.585 C 1511.93 204.958 1487.23 226.59 1481.99 236.918 C 1518.84 312.418 1462.18 275.321 1447.02 279.644 C 1440.42 287.464 1428.48 302.006 1416.94 300.519 C 1398.19 298.103 1401.13 269.708 1401.88 256.278 C 1392.3 251.57 1374.5 243.159 1370.2 232.982 C 1363.42 216.955 1399.1 209.988 1404.16 201.471 C 1412.7 187.116 1402.85 175.036 1422.08 167.138 z" fill="rgb(93,95,96)" transform="translate(0,0)"></path>
<path d="M 1422.17 175.701 C 1435.08 177.132 1438.64 189.661 1446.74 198.103 C 1456.8 208.589 1477.31 194.154 1487.35 204.004 C 1492.28 216.346 1473.18 226.608 1472.43 237.52 C 1471.82 246.533 1487.6 261.056 1485.67 272.091 C 1479.15 281.519 1455.4 270.921 1446.53 267.954 C 1438.24 268.568 1429.1 294.96 1415.09 289.498 C 1407.61 281.968 1412.91 265.029 1410.95 255.684 C 1408.24 242.823 1383.73 240.266 1380.67 229.807 C 1382.37 218.739 1404.88 216.985 1410.62 208.868 C 1418.2 198.139 1414.37 188.922 1422.17 175.701 z" fill="rgb(249,245,211)" transform="translate(0,0)"></path>
<path d="M 619.274 628.256 C 638.961 625.344 657.267 638.982 660.11 658.679 C 662.952 678.376 649.249 696.634 629.542 699.407 C 609.933 702.166 591.787 688.546 588.958 668.947 C 586.13 649.348 599.685 631.154 619.274 628.256 z" fill="rgb(93,95,96)" transform="translate(0,0)"></path>
<path d="M 619.109 637.393 C 633.631 634.622 647.707 643.961 650.798 658.418 C 653.889 672.876 644.863 687.154 630.477 690.564 C 620.884 692.837 610.813 689.741 604.154 682.472 C 597.495 675.202 595.292 664.898 598.396 655.541 C 601.5 646.184 609.425 639.24 619.109 637.393 z" fill="rgb(249,245,211)" transform="translate(0,0)"></path>
<path d="M 1734.23 285.258 C 1753.82 282.504 1771.95 296.114 1774.77 315.694 C 1777.59 335.274 1764.04 353.446 1744.47 356.331 C 1724.8 359.23 1706.53 345.602 1703.69 325.929 C 1700.86 306.256 1714.55 288.025 1734.23 285.258 z" fill="rgb(93,95,96)" transform="translate(0,0)"></path>
<path d="M 1739.36 294.329 C 1754.07 294.452 1765.95 306.394 1765.99 321.107 C 1766.02 335.82 1754.21 347.823 1739.5 348.022 C 1729.84 348.153 1720.85 343.083 1715.97 334.745 C 1711.09 326.408 1711.06 316.09 1715.9 307.727 C 1720.74 299.364 1729.7 294.248 1739.36 294.329 z" fill="rgb(249,245,211)" transform="translate(0,0)"></path>
<path d="M 1149.58 160.989 C 1162.12 158.083 1175.25 162.163 1183.93 171.661 C 1192.61 181.16 1195.5 194.602 1191.48 206.829 C 1187.47 219.055 1177.17 228.168 1164.55 230.668 C 1145.46 234.449 1126.87 222.219 1122.78 203.194 C 1118.69 184.169 1130.62 165.382 1149.58 160.989 z" fill="rgb(93,95,96)" transform="translate(0,0)"></path>
<path d="M 1152.56 168.758 C 1167.29 165.829 1181.58 175.474 1184.38 190.229 C 1187.17 204.985 1177.4 219.189 1162.62 221.851 C 1148.03 224.48 1134.04 214.857 1131.28 200.289 C 1128.52 185.72 1138.02 171.649 1152.56 168.758 z" fill="rgb(249,245,211)" transform="translate(0,0)"></path>
<path d="M 450.365 754.589 C 469.564 751.932 487.357 765.134 490.38 784.279 C 493.403 803.424 480.544 821.466 461.46 824.854 C 448.787 827.104 435.886 822.333 427.727 812.378 C 419.568 802.423 417.423 788.837 422.118 776.852 C 426.812 764.867 437.615 756.353 450.365 754.589 z" fill="rgb(93,95,96)" transform="translate(0,0)"></path>
<path d="M 452.79 762.872 C 467.49 761.603 480.504 772.33 482.064 787.002 C 483.624 801.675 473.157 814.898 458.518 816.748 C 448.787 817.978 439.152 813.853 433.325 805.963 C 427.499 798.074 426.391 787.651 430.428 778.713 C 434.466 769.775 443.018 763.716 452.79 762.872 z" fill="rgb(249,245,211)" transform="translate(0,0)"></path>
<path d="M 131.085 984.547 C 150.409 984.145 166.47 999.344 167.133 1018.66 C 167.796 1037.98 152.815 1054.24 133.509 1055.16 C 120.787 1055.77 108.722 1049.49 101.931 1038.71 C 95.1394 1027.94 94.6728 1014.34 100.709 1003.13 C 106.746 991.911 118.351 984.812 131.085 984.547 z" fill="rgb(93,95,96)" transform="translate(0,0)"></path>
<path d="M 129.331 993.552 C 136.828 992.689 144.332 995.097 149.928 1000.16 C 155.523 1005.22 158.667 1012.45 158.556 1019.99 C 158.369 1032.73 149.065 1043.48 136.493 1045.51 C 127.103 1047.02 117.631 1043.32 111.739 1035.86 C 105.848 1028.39 104.459 1018.32 108.111 1009.54 C 111.763 1000.76 119.883 994.639 129.331 993.552 z" fill="rgb(249,245,211)" transform="translate(0,0)"></path>
<path d="M 393.605 159.265 C 412.852 158.374 429.153 173.304 429.953 192.554 C 430.754 211.805 415.748 228.036 396.493 228.746 C 377.366 229.452 361.266 214.566 360.471 195.443 C 359.676 176.319 374.485 160.149 393.605 159.265 z" fill="rgb(93,95,96)" transform="translate(0,0)"></path>
<path d="M 389.684 167.544 C 399.2 165.63 409.009 168.983 415.361 176.322 C 421.713 183.662 423.624 193.851 420.365 202.993 C 417.105 212.135 409.178 218.817 399.616 220.482 C 385.097 223.01 371.242 213.399 368.524 198.914 C 365.807 184.429 375.236 170.45 389.684 167.544 z" fill="rgb(249,245,211)" transform="translate(0,0)"></path>
<path d="M 868.558 503.586 C 869.901 503.781 871.188 504.205 872.516 504.568 C 878.554 510.497 880.685 519.429 883.396 527.494 C 913.732 526.551 914.548 535.385 892.551 553.914 C 894.558 560.894 898.805 570.11 892.013 575.076 C 884.718 575.974 880.334 571.887 873.984 567.839 C 866.58 569.153 854.34 579.987 847.721 575.41 C 845.241 568.79 848.462 559.517 850.174 552.318 C 844.03 547.79 833.397 541.764 837.113 533.2 C 843.491 528.212 849.943 529.224 858.433 528.908 C 861.336 519.309 862.978 511.957 868.558 503.586 z" fill="rgb(93,95,96)" transform="translate(0,0)"></path>
<path d="M 870.111 521.579 C 873.045 525.184 876.045 531.059 878.393 535.244 C 882.973 535.569 892.851 535.036 894.673 539.441 C 892.485 543.358 886.843 546.995 883.056 549.896 C 884.381 554.372 885.67 558.859 886.925 563.356 L 886.002 562.929 L 884.455 562.237 C 877.368 559.027 876.075 558.265 868.399 559.47 C 865.372 561.304 864.985 561.642 861.539 562.843 L 859.901 559.515 C 854.914 561.966 862.245 560.503 857.459 565.487 C 856.338 562.391 858.939 553.664 859.823 549.891 C 855.069 545.866 850.053 542.026 845.143 538.182 C 852.553 537.974 855.702 537.631 863.014 536.356 C 865.432 530.341 866.584 527.025 870.111 521.579 z" fill="rgb(249,245,211)" transform="translate(0,0)"></path>
<path d="M 251.021 902.693 C 253.121 895.901 255.975 879.466 264.881 881.062 C 270.834 886.088 271.645 894 273.716 901.878 C 275.936 903.155 275.796 903.15 278.304 903.581 C 285.129 903.982 298.35 902.962 299.216 911.364 C 295.744 918.378 288.981 920.29 281.675 923.798 C 283.587 930.795 291.836 947.657 282.981 951.305 C 274.765 950.268 268.848 944.668 262.099 939.652 C 256.03 944.8 251.51 949.561 243.796 951.483 C 234.934 949.172 240.177 933.261 241.495 926.384 C 235.499 922.694 222.602 917.01 226.656 908.71 C 233.178 904.071 242.811 903.778 251.021 902.693 z" fill="rgb(93,95,96)" transform="translate(0,0)"></path>
<path d="M 255.361 911.087 C 258.612 906.363 258.61 903.38 262.469 898.842 L 264.132 898.717 L 266.268 902.27 C 266.96 905.837 266.971 908.455 269.509 910.897 L 271.994 911.76 C 278.677 911.301 282.444 911.585 289.11 912.026 C 269.766 920.362 271.996 920.128 277.941 938.995 L 263.755 929.846 C 258.722 932.515 253.646 935.995 248.834 939.112 C 249.883 933.452 250.587 927.849 251.358 922.15 C 247.964 919.517 241.87 916.073 238.027 913.744 L 255.361 911.087 z" fill="rgb(249,245,211)" transform="translate(0,0)"></path>
<path d="M 273.716 901.878 C 275.936 903.155 275.796 903.15 278.304 903.581 C 272.319 904.466 273.215 905.709 271.994 911.76 L 269.509 910.897 C 266.971 908.455 266.96 905.837 266.268 902.27 L 273.716 901.878 z" fill="rgb(93,95,96)" transform="translate(0,0)"></path>
<path d="M 1051.44 70.7647 C 1058.79 74.1557 1060.98 83.3591 1064.92 91.6988 C 1072.31 92.547 1087.8 92.2597 1087.89 101.846 C 1084.43 108.93 1078.92 110.85 1071.85 114.914 C 1072.32 122.471 1079.42 137.477 1069.93 140.253 C 1062.71 138.946 1057.15 134.296 1051.14 130.062 C 1044.93 133.836 1036.57 142.219 1029.36 138.519 C 1026.22 132.306 1030 124.543 1032.18 117.654 C 1026.45 112.282 1014.96 105.457 1017.83 97.1908 C 1023.75 92.4144 1031.6 93.33 1039.51 93.0183 C 1043.27 85.6759 1045.85 76.3935 1051.44 70.7647 z" fill="rgb(93,95,96)" transform="translate(0,0)"></path>
<path d="M 1051.96 85.6288 C 1054.74 89.0592 1058.2 96.0583 1060.34 100.185 C 1065.25 101.253 1070.17 102.258 1075.1 103.199 C 1069.56 107.107 1068.31 108.112 1063.5 113.061 C 1063.5 117.143 1064.14 124.328 1064.4 128.609 C 1060.13 126.487 1055.28 123.488 1051.1 121.053 L 1037.1 128.997 C 1042.56 112.365 1040.99 112.762 1027.61 102.311 C 1044.93 101.869 1045.45 102.003 1051.96 85.6288 z" fill="rgb(249,245,211)" transform="translate(0,0)"></path>
<metadata><recraft-signature>{"signed_by": "recraft", "signature_b64": "nu+1+OB790H5PikYxcBHLpYiHTvbHZJFP9WXvqgTv05mKIdz86c7Sd5jWSd5s40fI203QlNW1Yjx4IPlOnUbBQ==", "signing_algo": "Ed25519", "generation_timestamp": 1773763952, "identifier": "e8c30097-70d4-4665-81de-9120b08fd2dc"}</recraft-signature></metadata></svg>