<svg xmlns="http://www.w3.org/2000/svg" height="1024" preserveAspectRatio="none" style="display: block;" version="1.1" viewBox="0 0 2048 2048" width="1024">
<defs>
	<linearGradient gradientUnits="userSpaceOnUse" id="Gradient1" x1="438.957" x2="496.074" y1="826.082" y2="753.181">
		<stop class="stop0" offset="0" stop-color="rgb(231,240,227)" stop-opacity="1"></stop>
		<stop class="stop1" offset="1" stop-color="rgb(255,255,255)" stop-opacity="1"></stop>
	</linearGradient>
</defs>
<path d="M 0 0 L 2048 0 L 2048 2048 L 0 2048 L 0 0 z" fill="rgb(255,255,255)" transform="translate(0,0)"></path>
<path d="M 609.844 929.508 C 605.19 912.518 596.4 892.737 591.928 875.559 C 580.067 830.005 575.541 775.397 586.574 729.707 C 604.357 657.348 649.944 594.914 713.453 555.942 C 723.718 549.656 734.351 543.99 745.295 538.976 C 767.174 529.055 808.538 513.531 832.875 513.62 C 839.77 513.646 846.227 550.611 847.389 557.598 C 857.98 623.772 848.89 691.599 821.25 752.65 C 790.287 820.072 739.093 866.837 676.94 904.641 C 662.13 913.648 641.045 927.803 625.033 933.674 C 608.385 1002.26 594.703 1071.54 584.024 1141.31 C 607.15 1118.42 637.229 1104.32 667.228 1093.18 C 684.482 1064.15 724.328 1029.61 753.585 1011.54 C 816.781 972.507 904.428 952.177 977.485 970.128 C 992.563 973.881 1007.25 979.051 1021.36 985.568 C 1044.7 996.288 1078.43 1017.43 1094.74 1037.85 C 1101.25 1046.01 1086.36 1060.46 1081.12 1066.13 C 1058.83 1090.23 1032.72 1109.22 1003.33 1123.64 C 916.776 1166.09 818.392 1161.71 728.819 1131.58 C 709.2 1125.1 690.198 1117.48 670.574 1110.62 C 648.433 1125.24 595.214 1158.23 579.629 1175.17 C 567.505 1277.87 583.396 1467.19 614.773 1565.28 C 683.835 1560.44 742.275 1568.87 795.604 1617.78 C 775.374 1570.62 783.325 1539.46 805.353 1495.74 C 851.807 1403.52 954.382 1315.41 1063.18 1327 C 1078.28 1328.61 1094.9 1333.33 1109.6 1337.09 C 1125.32 1323.82 1138.4 1307.71 1148.15 1289.6 C 1127.12 1292.61 1104.91 1288.59 1091.45 1271.52 C 1064.39 1237.22 1104.5 1184.96 1143.62 1192.34 C 1184.68 1200.09 1197.91 1245.75 1190.83 1281.56 C 1184.68 1312.67 1173.66 1335.54 1148.04 1353.98 C 1188.34 1379.08 1214.17 1407.45 1231.46 1452.44 C 1262.58 1533.37 1237.03 1640.38 1203.09 1716.76 C 1252.78 1727.16 1298.47 1745.1 1342.97 1769.62 C 1359.93 1779.64 1387.85 1796.03 1399.49 1811.73 C 1424.25 1845.14 1344.64 1848.44 1328.55 1850.78 C 1293.41 1856.16 1258.18 1860.92 1222.87 1865.07 C 966.306 1894.99 717.871 1909.16 460.151 1880.4 C 344.667 1868.4 231.22 1845.17 117.344 1823.4 C 77.5939 1815.81 103.105 1793.31 118.858 1776.27 C 165.192 1726.16 213.549 1706.29 280.442 1725.03 C 322.078 1668.67 367.098 1643.61 436.648 1662.68 C 473.916 1614.6 511.362 1587.64 570.806 1573.81 C 540.251 1480.77 531.745 1346.67 537.602 1249.01 C 490.468 1259.15 441.4 1255.35 396.389 1238.08 C 303.175 1202.31 237.711 1120.94 219.007 1023.65 C 214.509 1000.25 226.21 1002.8 246.347 999.39 C 365.284 979.226 471.032 1061.64 518.705 1165.12 C 528.812 1187.05 534.543 1208.31 541.535 1229.91 C 542.514 1210.54 545.495 1189.52 548.263 1170.35 C 554.754 1123.5 564.535 1077.18 577.535 1031.71 C 582.779 1013.21 589.372 994.13 595.184 975.647 C 587.443 967.211 583.082 959.483 574.045 951.784 C 569.025 950.969 564.022 950.051 559.039 949.031 C 491.393 934.965 424.707 897.284 386.56 838.368 C 361.626 800.258 348.181 755.781 347.828 710.24 C 347.739 703.695 347.521 671.468 355.046 669.398 C 370.288 665.208 398.686 675.758 412.798 681.236 C 487.792 710.343 534.311 782.646 554.282 857.709 C 561.02 882.474 565.052 913.149 574.657 936.116 C 581.911 942.555 593.529 949.724 601.75 955.849 C 604.911 946.629 607.578 939.036 609.844 929.508 z" fill="rgb(104,75,68)" transform="translate(0,0)"></path>
<path d="M 574.657 936.116 C 581.911 942.555 593.529 949.724 601.75 955.849 C 599.947 958.589 600.108 961.577 599.163 965.096 C 597.679 962.71 583.363 952.034 579.945 949.314 C 574.676 948.145 573.389 944.197 572.839 939.32 L 574.158 938.493 L 574.657 936.116 z" fill="rgb(113,80,67)" transform="translate(0,0)"></path>
<path d="M 579.945 949.314 C 583.363 952.034 597.679 962.71 599.163 965.096 C 592.686 964.125 583.279 954.753 579.945 949.314 z" fill="rgb(167,159,147)" transform="translate(0,0)"></path>
<path d="M 635.746 1586.44 C 636.536 1586.37 637.327 1586.32 638.118 1586.28 C 691.795 1584 746.484 1601.42 785.577 1638.88 C 792.922 1645.91 800.428 1653.65 806.041 1662.18 C 810.362 1668.75 820.593 1693.35 825.982 1696.33 C 832.129 1699.73 844.689 1699.26 851.899 1700.65 C 858.158 1701.85 864.274 1703.84 870.255 1706.01 C 891.012 1713.56 908.62 1727.28 922.972 1743.95 C 927.726 1749.47 932.863 1757.18 938.613 1761.49 C 941.577 1763.71 943.473 1762.88 946.637 1761.49 C 952.88 1758.73 958.304 1754.27 963.923 1750.46 C 977.221 1741.45 991.999 1734.57 1008.04 1732.39 C 1060.64 1725.25 1093.72 1768.5 1102.69 1767.57 C 1105.35 1767.3 1132.76 1747.49 1142.82 1743.61 C 1150.65 1740.59 1160.12 1739.38 1168.46 1738.93 C 1227.11 1735.73 1328.25 1780.75 1371.77 1819.72 C 1358 1823 1337.06 1825.91 1322.71 1828.3 C 1279.5 1835.73 1236.05 1841.68 1192.43 1846.14 C 1095.73 1857.27 998.685 1865.18 901.455 1869.85 C 879.449 1870.31 856.744 1871.88 834.488 1872.49 C 787.208 1873.64 739.908 1873.71 692.626 1872.68 C 567.374 1869.24 442.481 1857.6 318.751 1837.84 C 279.535 1831.58 241.607 1824.1 202.656 1816.61 C 176.995 1811.67 151.42 1807.53 125.735 1802.3 C 131.143 1795.97 136.834 1789.89 142.791 1784.08 C 173.279 1754.57 208.088 1735.51 251.571 1741.49 C 263.96 1742.17 281.825 1753.96 292.993 1745.66 C 295.494 1743.8 300.31 1737.57 301.813 1735.31 C 325.928 1699.09 369.353 1671 414.231 1680.89 C 438.986 1686.35 441.694 1695.68 459.58 1670.98 C 501.734 1612.79 566.424 1590.02 635.746 1586.44 z" fill="rgb(226,237,213)" transform="translate(0,0)"></path>
<path d="M 619.157 1780.6 C 623.453 1778.9 628.321 1780.89 630.205 1785.11 C 632.089 1789.32 630.321 1794.27 626.193 1796.34 C 623.355 1797.77 619.964 1797.52 617.366 1795.69 C 614.767 1793.87 613.38 1790.76 613.754 1787.61 C 614.128 1784.46 616.204 1781.76 619.157 1780.6 z" fill="rgb(104,75,68)" transform="translate(0,0)"></path>
<path d="M 398.312 1794.8 C 402.019 1794.24 405.485 1796.77 406.077 1800.47 C 406.669 1804.17 404.166 1807.66 400.469 1808.29 C 396.728 1808.92 393.19 1806.38 392.59 1802.63 C 391.991 1798.88 394.56 1795.37 398.312 1794.8 z" fill="rgb(104,75,68)" transform="translate(0,0)"></path>
<path d="M 515.727 1675.36 C 525.809 1678.27 524.771 1686.09 518.258 1692.21 C 517.828 1691.98 517.401 1691.75 516.976 1691.52 C 508.754 1686.89 510.059 1681.32 515.727 1675.36 z" fill="rgb(104,75,68)" transform="translate(0,0)"></path>
<path d="M 866.517 1818.68 C 869.384 1818.01 872.297 1819.59 873.308 1822.35 C 874.32 1825.12 873.112 1828.2 870.493 1829.54 C 868.487 1830.57 866.068 1830.35 864.282 1828.98 C 862.495 1827.6 861.661 1825.32 862.139 1823.12 C 862.617 1820.92 864.322 1819.19 866.517 1818.68 z" fill="rgb(104,75,68)" transform="translate(0,0)"></path>
<path d="M 696.744 1631.48 C 699.63 1630.46 702.796 1631.98 703.809 1634.86 C 704.821 1637.75 703.295 1640.92 700.403 1641.92 C 697.523 1642.92 694.377 1641.4 693.368 1638.52 C 692.36 1635.65 693.869 1632.5 696.744 1631.48 z" fill="rgb(104,75,68)" transform="translate(0,0)"></path>
<path d="M 757.135 1755.34 C 759.861 1754.79 762.555 1756.41 763.339 1759.08 C 764.123 1761.75 762.737 1764.58 760.146 1765.59 C 758.259 1766.33 756.116 1765.94 754.609 1764.58 C 753.102 1763.23 752.489 1761.14 753.023 1759.18 C 753.557 1757.23 755.148 1755.74 757.135 1755.34 z" fill="rgb(104,75,68)" transform="translate(0,0)"></path>
<path d="M 1168.21 1796.74 C 1170.56 1795.43 1173.52 1796.17 1174.99 1798.42 C 1176.46 1800.67 1175.94 1803.67 1173.8 1805.3 C 1172.27 1806.46 1170.23 1806.67 1168.5 1805.84 C 1166.77 1805.02 1165.64 1803.29 1165.58 1801.38 C 1165.52 1799.46 1166.54 1797.67 1168.21 1796.74 z" fill="rgb(104,75,68)" transform="translate(0,0)"></path>
<path d="M 1034.85 1797.57 C 1036.33 1796.72 1038.16 1796.73 1039.62 1797.61 C 1041.09 1798.48 1041.97 1800.08 1041.93 1801.78 C 1041.88 1803.49 1040.92 1805.04 1039.41 1805.83 C 1037.14 1807.03 1034.32 1806.19 1033.08 1803.94 C 1031.84 1801.69 1032.63 1798.86 1034.85 1797.57 z" fill="rgb(104,75,68)" transform="translate(0,0)"></path>
<path d="M 889.085 1410.61 C 904.33 1411.05 936.107 1413.51 951.492 1416.24 C 1034.93 1431.06 1120.58 1474.36 1184.87 1529.48 C 1198.58 1541.23 1212.33 1552.43 1222.95 1566.75 C 1221.4 1618.41 1203.23 1669.4 1182.37 1716.04 C 1156.66 1716.91 1129.2 1720.53 1107.77 1735.92 L 1101.06 1741.76 C 1068.65 1708.36 1018.5 1700.54 976.348 1718.2 C 964.401 1723.2 955.739 1728.56 945.059 1735.66 C 912.855 1699.02 887.479 1683.41 839.17 1676.57 C 828.273 1656.49 832.948 1655.33 826.536 1639.41 C 814.878 1610.46 801.652 1591.93 803.28 1558.03 C 804.863 1525.06 837.145 1470.83 857.264 1444.85 C 866.817 1432.5 877.467 1421.04 889.085 1410.61 z" fill="rgb(255,255,255)" transform="translate(0,0)"></path>
<path d="M 861.557 1509.29 C 873.278 1508.15 883.386 1510.09 893.444 1516.6 C 904.51 1523.77 912.242 1535.08 914.913 1547.99 C 919.772 1571.58 904.557 1585.8 882.603 1589.51 C 871.233 1590.41 859.892 1587.42 850.452 1581.02 C 832.062 1568.71 818.421 1543.62 833.026 1522.45 C 839.443 1513.15 850.96 1510.9 861.557 1509.29 z" fill="rgb(234,212,209)" transform="translate(0,0)"></path>
<path d="M 1105.85 1635.31 C 1118.76 1634.49 1129.57 1634.8 1141.49 1641.66 C 1157.87 1651.08 1168.91 1673.56 1157.01 1690.68 C 1150.27 1700.37 1138.55 1704.07 1127.24 1705.72 C 1105.52 1707.19 1077.05 1700.78 1071.54 1676.21 C 1069.74 1667.78 1071.55 1658.99 1076.54 1651.96 C 1083.61 1641.92 1094.24 1637.46 1105.85 1635.31 z" fill="rgb(234,212,209)" transform="translate(0,0)"></path>
<path d="M 1121.66 1560.95 C 1149.72 1560.94 1136.48 1609.32 1107.36 1616.67 C 1079.41 1615.11 1093.85 1580.72 1106.46 1569.94 C 1112.42 1564.84 1114.25 1563.77 1121.66 1560.95 z" fill="rgb(104,75,68)" transform="translate(0,0)"></path>
<path d="M 940.215 1471.03 C 972.31 1469.37 957.847 1513.74 932.56 1525.54 C 901.942 1528.52 913.151 1482.33 940.215 1471.03 z" fill="rgb(104,75,68)" transform="translate(0,0)"></path>
<path d="M 983.438 1563.6 L 987.409 1564.2 C 988.474 1565.07 991.256 1567.49 990.494 1569.11 C 983.512 1583.96 966.063 1626.99 996.082 1627.42 C 1014.17 1627.68 1018.94 1597.04 1030.38 1593.53 C 1036.09 1595.45 1034.4 1601.08 1032.82 1605.36 C 1025.44 1619.32 1014.82 1637.67 997.2 1639.33 C 979.878 1640.96 967.698 1623.02 967.484 1607.26 C 967.287 1592.71 973.328 1574.29 983.438 1563.6 z" fill="rgb(104,75,68)" transform="translate(0,0)"></path>
<path d="M 1141.09 1530.9 C 1153.7 1530.22 1167.3 1542.92 1168.75 1555.55 C 1169.05 1558.21 1166.41 1560.07 1164.65 1561.82 C 1155.88 1562.24 1138.44 1547.8 1137.22 1538.06 C 1136.91 1535.56 1139.38 1532.85 1141.09 1530.9 z" fill="rgb(104,75,68)" transform="translate(0,0)"></path>
<path d="M 938.977 1436.39 C 944.465 1436.32 948.95 1437.75 952.339 1442.3 C 954.308 1453.11 940.206 1453.1 933.22 1454 C 927.397 1454.76 922.959 1454.13 919.858 1448.95 C 919.757 1438.12 931 1437.05 938.977 1436.39 z" fill="rgb(104,75,68)" transform="translate(0,0)"></path>
<path d="M 600.295 848.172 C 594.623 826.502 592.898 789.985 594.305 768.646 C 601.88 653.702 691.215 560.872 799.584 531.39 C 807.472 529.244 818.24 525.351 826.35 525.966 C 828.546 527.589 828.849 530.057 829.696 532.81 C 842.653 590.005 841.334 656.448 823.807 712.847 C 815.934 738.184 804.199 758.852 790.643 781.068 C 748.586 849.992 692.591 877.511 628.487 920.54 C 640.68 839.828 654.32 776.12 691.807 702.324 C 701.361 683.515 716.192 661.196 724.183 644.452 C 663.393 713.34 620.229 832.228 620.635 923.916 C 616.643 910.574 600.032 859.24 600.295 848.172 z" fill="rgb(226,237,213)" transform="translate(0,0)"></path>
<path d="M 600.295 848.172 C 594.623 826.502 592.898 789.985 594.305 768.646 C 601.88 653.702 691.215 560.872 799.584 531.39 C 807.472 529.244 818.24 525.351 826.35 525.966 C 828.546 527.589 828.849 530.057 829.696 532.81 C 813.396 543.093 781.965 550.235 762.405 559.536 C 686.199 595.93 629.789 663.914 608.079 745.526 C 600.376 775.364 599.889 806.54 603.343 837.017 C 603.69 840.077 604.625 855.38 603.427 857.329 L 601.825 848.748 L 600.295 848.172 z" fill="rgb(255,255,255)" transform="translate(0,0)"></path>
<path d="M 704.036 1065.61 C 725.482 1042.32 768.738 1014.93 798.382 1002.54 C 862.391 975.768 939.409 966.533 1005.01 992.767 C 1023.9 1000.32 1073.58 1027.2 1081.14 1044.91 C 1080.72 1048.75 1080.15 1048.32 1077.46 1051.96 C 996.615 1140.37 875.104 1156.45 763.908 1129.06 C 737.129 1122.47 710.203 1113.38 683.881 1105.06 C 735.667 1082.91 780.74 1064.82 836.735 1053.62 C 863.189 1048.34 884.761 1046.27 911.188 1042.71 C 908.213 1040.78 904.458 1040.67 900.821 1040.18 C 827.55 1038.65 736.754 1070.24 671.506 1100.76 C 677.921 1091.79 695.1 1071.82 704.036 1065.61 z" fill="rgb(226,237,213)" transform="translate(0,0)"></path>
<path d="M 704.036 1065.61 C 725.482 1042.32 768.738 1014.93 798.382 1002.54 C 862.391 975.768 939.409 966.533 1005.01 992.767 C 1023.9 1000.32 1073.58 1027.2 1081.14 1044.91 C 1080.72 1048.75 1080.15 1048.32 1077.46 1051.96 C 1064.14 1044.41 1049.14 1031.66 1034.84 1022.82 C 938.843 963.459 816.397 996.049 727.729 1053.12 C 723.09 1056.1 708.035 1067.27 704.036 1065.61 z" fill="rgb(255,255,255)" transform="translate(0,0)"></path>
<path d="M 900.821 1040.18 C 912.634 1039.83 924.457 1039.9 936.266 1040.38 C 931.186 1041.48 916.532 1042.98 911.188 1042.71 C 908.213 1040.78 904.458 1040.67 900.821 1040.18 z" fill="rgb(104,75,68)" transform="translate(0,0)"></path>
<path d="M 228.575 1013.93 C 292.734 1000.97 349.547 1010.53 404.466 1047.12 C 449.782 1077.31 490.185 1126.33 511.863 1176.07 C 519.893 1194.49 526.094 1213.55 532.622 1232.59 C 530.592 1229.85 526.35 1224.48 524.737 1221.79 C 512.793 1208.75 502.905 1195.61 489.703 1181.51 C 448.064 1137.01 378.38 1082.42 319.692 1063.9 C 341.186 1077.13 362.455 1088.23 383.753 1102.37 C 429.695 1132.86 470.425 1170.02 506.3 1211.86 C 514.61 1221.56 522.31 1231.48 531.273 1240.6 C 466.716 1246.95 415.92 1239.73 359.639 1205.15 C 291.856 1163.5 248.746 1104.05 230.436 1026.24 C 229.791 1022.31 228.941 1017.84 228.575 1013.93 z" fill="rgb(226,237,213)" transform="translate(0,0)"></path>
<path d="M 228.575 1013.93 C 292.734 1000.97 349.547 1010.53 404.466 1047.12 C 449.782 1077.31 490.185 1126.33 511.863 1176.07 C 519.893 1194.49 526.094 1213.55 532.622 1232.59 C 530.592 1229.85 526.35 1224.48 524.737 1221.79 C 524.381 1220.13 524.322 1219.94 523.485 1218.45 C 518.387 1209.56 518.336 1199.51 513.018 1190.45 C 451.013 1084.87 363.12 1004.67 230.436 1026.24 C 229.791 1022.31 228.941 1017.84 228.575 1013.93 z" fill="rgb(255,255,255)" transform="translate(0,0)"></path>
<path d="M 1097.15 1257.49 C 1085.86 1224.84 1123.57 1192.11 1153.85 1208.46 C 1177.93 1221.47 1181.03 1242.34 1181.24 1266.59 C 1180.69 1291.16 1171.57 1314.76 1155.47 1333.31 C 1149.76 1339.91 1129.28 1354.64 1137.08 1361.2 C 1148.94 1371.16 1163.65 1377.71 1174.74 1389 C 1207.85 1425.36 1225.71 1485.11 1225.24 1533.33 C 1225.18 1539.31 1225.09 1545.28 1224.97 1551.26 C 1223.91 1550.22 1219.38 1545.88 1218.76 1544.97 C 1203.13 1530.61 1186.75 1515.42 1169.85 1502.41 C 1108.72 1455.35 1039.6 1421.86 963.66 1406.95 C 943.206 1402.94 923.83 1401.83 903.312 1399.77 C 928.521 1376.21 978.964 1349.03 1013.32 1343.04 C 1041.7 1338.1 1081.8 1335.83 1106.68 1352.92 L 1115.73 1347.48 C 1126.22 1334.84 1140.92 1323.72 1148.81 1308.48 C 1153.55 1299.32 1162.68 1283.54 1162.12 1273.21 C 1160.32 1270.06 1161.61 1271.08 1158.09 1270.07 C 1151.76 1271.31 1149.17 1275.76 1144.05 1277.81 C 1127.01 1284.61 1103.92 1273.45 1097.15 1257.49 z" fill="rgb(234,212,209)" transform="translate(0,0)"></path>
<path d="M 903.312 1399.77 C 928.521 1376.21 978.964 1349.03 1013.32 1343.04 C 1041.7 1338.1 1081.8 1335.83 1106.68 1352.92 L 1115.73 1347.48 L 1116.18 1349.17 C 1113.52 1351.16 1112.88 1351.54 1110.07 1353.04 L 1109.8 1354.5 L 1111.88 1356.56 L 1110.62 1356.84 C 1094.15 1346.28 1011.12 1356.51 992.007 1364.94 C 971.295 1374.07 938.466 1383.64 919.045 1394.6 C 948.55 1398.71 982.993 1399.58 1011.66 1407.99 C 1075.37 1426.68 1137.39 1458.75 1187.39 1502.68 C 1193.14 1507.74 1220.14 1537.59 1219.82 1543.29 L 1218.76 1544.97 C 1203.13 1530.61 1186.75 1515.42 1169.85 1502.41 C 1108.72 1455.35 1039.6 1421.86 963.66 1406.95 C 943.206 1402.94 923.83 1401.83 903.312 1399.77 z" fill="rgb(255,255,255)" transform="translate(0,0)"></path>
<path d="M 1097.15 1257.49 C 1085.86 1224.84 1123.57 1192.11 1153.85 1208.46 C 1177.93 1221.47 1181.03 1242.34 1181.24 1266.59 C 1180.6 1268.62 1180.35 1269.18 1179.5 1271.11 C 1178.97 1270.84 1177.17 1259.01 1177.03 1257.38 C 1174.8 1230.78 1150.57 1212.68 1124.53 1223.83 C 1104.91 1232.22 1106.52 1243.34 1097.15 1257.49 z" fill="rgb(255,255,255)" transform="translate(0,0)"></path>
<path d="M 359.857 684.163 L 360.818 681.475 C 376.267 677.58 421.03 697.173 434.961 705.17 C 494.448 739.314 528.489 802.44 545.188 866.976 C 550.065 885.825 554.775 904.906 560.11 923.667 C 556.839 919.957 555.217 918.08 552.536 913.956 C 541.571 901.61 528.984 880.666 518.589 867.165 C 492.412 833.164 442.912 770.076 407.428 748.125 C 408.377 751.788 420.263 762.954 423.665 766.272 C 477.496 818.775 517.289 881.396 564.039 939.98 C 493.241 917.059 434.497 895.94 394.052 828.56 C 372.424 793.222 360.225 752.926 358.62 711.526 C 358.329 704.621 358.232 690.6 359.857 684.163 z" fill="rgb(226,237,213)" transform="translate(0,0)"></path>
<path d="M 359.857 684.163 L 360.818 681.475 C 376.267 677.58 421.03 697.173 434.961 705.17 C 494.448 739.314 528.489 802.44 545.188 866.976 C 550.065 885.825 554.775 904.906 560.11 923.667 C 556.839 919.957 555.217 918.08 552.536 913.956 C 552.23 912.128 551.874 910.307 551.578 908.478 C 549.285 894.343 541.417 879.654 536.079 866.329 C 510.481 802.433 479.383 744.011 416.495 709.277 C 406.88 703.967 363.906 689.112 359.857 684.163 z" fill="url(#Gradient1)" transform="translate(0,0)"></path>
<path d="M 608.631 962.094 L 611.657 960.206 C 592.181 1028.84 571.888 1122.19 567.222 1193.74 C 559.735 1308.56 568.448 1457.81 603.779 1567.52 C 596.053 1569.02 588.925 1570.35 581.14 1571.47 C 527.603 1351.61 537.741 1176.08 608.631 962.094 z" fill="rgb(226,237,213)" transform="translate(0,0)"></path>
<path d="M 658.888 1106.12 C 661.655 1106.24 660.537 1105.67 662.483 1107.46 C 659.797 1112.37 648.048 1114.96 642.241 1118.59 C 620.158 1132.4 601.306 1143.06 582.336 1161.3 L 581.406 1162.47 L 580.249 1162.48 C 580.098 1159.05 581.558 1155.38 582.608 1152.01 C 601.403 1134.76 634.189 1112.79 658.888 1106.12 z" fill="rgb(226,237,213)" transform="translate(0,0)"></path>
<path d="M 608.631 962.094 C 610.628 956.426 611.979 952.245 614.88 946.9 L 614.748 947.148 C 615.071 950.244 612.66 956.883 611.657 960.206 L 608.631 962.094 z" fill="rgb(167,159,147)" transform="translate(0,0)"></path>
<path d="M 1668.77 883.403 C 1693.45 880.755 1716.46 885.648 1740.53 889.11 C 1747.54 890.119 1763.42 889.777 1771.13 889.918 C 1792.79 890.284 1814.14 895.197 1833.79 904.34 C 1857.88 915.38 1880.44 935.863 1889.56 961.14 C 1898.27 985.261 1897.08 1019.14 1888.7 1043.22 C 1885.61 1052.12 1879.99 1063.67 1875.93 1072.39 C 1901.53 1088.35 1926.14 1099.65 1937.02 1131.91 C 1947.35 1162.55 1929.93 1183.69 1917.13 1208.8 C 1925.6 1221.08 1955.31 1253.11 1956.91 1268.22 C 1954.98 1291.81 1936.27 1316.94 1926.23 1338.07 C 1918.02 1355.35 1907.19 1376.83 1888.44 1360.19 C 1866.52 1415.69 1838.12 1474.7 1813.98 1529.75 C 1784.28 1597.47 1753.16 1665.06 1718.52 1730.42 C 1702.73 1760.2 1685.26 1793.54 1664.23 1820.28 C 1660.14 1825.48 1652.76 1829.58 1646.82 1832.57 L 1657.17 1838.08 C 1668.58 1829.53 1685.66 1817.72 1699.93 1812.74 C 1742.41 1797.82 1788.89 1796.75 1830.91 1813.87 C 1835.05 1815.56 1845.43 1821.83 1842.17 1827.28 C 1836.23 1829.69 1824 1825.02 1817.48 1823.52 C 1805.97 1820.88 1794.26 1819.14 1782.47 1818.32 C 1746.97 1816.04 1709.78 1825.85 1678.68 1842.82 C 1671.44 1846.77 1665.89 1853.78 1658.05 1855.68 C 1655.43 1856.31 1650.34 1851.14 1648.1 1849.88 C 1604.74 1826.94 1545.33 1829.94 1505.82 1859.67 C 1499.55 1864.39 1495.56 1872.97 1486.97 1872.08 C 1483.9 1869.62 1485.17 1871.16 1483.83 1866.71 C 1495.25 1842.06 1528.29 1828.11 1553.24 1822.77 C 1502.74 1808.39 1455.65 1787.53 1411.22 1758.71 C 1388.44 1743.93 1345.31 1710.28 1338.71 1681.92 C 1335.95 1670.04 1343.3 1645.02 1346.86 1632.81 C 1362.63 1578.77 1386.21 1522.92 1409.56 1471.73 C 1436.43 1411.39 1465.87 1352.23 1497.81 1294.41 C 1514.65 1263.37 1530.6 1233.13 1549.85 1203.54 C 1554.71 1196.06 1558.33 1188.26 1563.44 1180.7 C 1541.77 1167.37 1550.81 1152.29 1561.71 1133.29 C 1571.68 1115.88 1588.32 1085.97 1604.08 1074.54 C 1618.45 1064.11 1667.44 1075.9 1684.63 1079.24 C 1699.18 1055.45 1713.8 1034.84 1742.49 1026.51 C 1764.2 1020.21 1815.33 1039.1 1833.84 1050.56 C 1861.27 996.018 1853.07 939.674 1786.23 929.23 C 1721.28 919.081 1703.52 984.75 1639.8 992.732 C 1591.82 998.743 1543.83 977.837 1580.37 924.635 C 1598.12 899.221 1637.6 886.314 1668.77 883.403 z" fill="rgb(104,75,68)" transform="translate(0,0)"></path>
<path d="M 1590.37 1183.77 C 1597.65 1184.23 1607.7 1185.75 1615.14 1186.65 C 1582.46 1240.44 1552.06 1300.26 1524.05 1356.67 C 1511.53 1381.88 1498.3 1406.53 1486.35 1432.09 C 1468.91 1470.25 1458.87 1491.2 1442.53 1532 C 1430.7 1561.53 1400.55 1624.97 1399.89 1657.67 C 1399.72 1665.94 1448.32 1688.58 1455.97 1692.04 C 1459.25 1693.53 1464.44 1694.69 1468.75 1692.69 C 1470.58 1689.65 1470.05 1691.32 1469.81 1687.35 C 1467.02 1683 1420.62 1657.96 1412.33 1654.46 L 1411.02 1653.92 C 1413.71 1640 1425.06 1609.51 1430.09 1594.96 C 1452.92 1604.21 1478.58 1618.75 1501.99 1626.45 C 1505.47 1627.59 1508.29 1626.83 1511.19 1624.88 C 1512 1620.89 1512 1622.89 1510.67 1618.66 C 1506.87 1614.45 1444.83 1587.41 1435 1583.35 C 1442.83 1561.51 1452.74 1537.12 1461.75 1515.82 C 1476.03 1522.14 1528.88 1545.61 1541.09 1545.9 C 1542.62 1545.93 1543.82 1544.8 1544.66 1543.56 C 1545.46 1542.38 1545.64 1541.09 1545.09 1539.82 C 1540.72 1529.73 1480.73 1509.64 1467.86 1504.87 C 1474.88 1484.32 1489.55 1454.18 1498.96 1433.72 C 1509.82 1437.82 1570.05 1465.87 1574.83 1466.2 C 1578 1464.12 1578.81 1461.35 1580.5 1457.86 C 1565.49 1447.22 1523.28 1429.88 1505.13 1421.84 C 1514.85 1400.69 1525.94 1379.11 1536.33 1358.21 C 1546.05 1362.92 1606.27 1392.18 1613.69 1391.88 C 1615.24 1390.81 1616.44 1390.13 1617.36 1388.42 C 1618 1387.23 1617.89 1386.15 1617.36 1384.88 C 1613.44 1375.5 1554.42 1351.8 1542.05 1347.13 C 1547.73 1332.7 1564.6 1302.64 1572.4 1287.8 C 1597.36 1297.05 1620.42 1307.18 1644.61 1318.29 C 1646.68 1319.24 1648.52 1318.25 1650.23 1317.18 C 1654.01 1309.59 1647.67 1305.9 1641.06 1302.6 C 1621.61 1292.9 1600.53 1284.54 1580.41 1276.4 C 1579.54 1271.47 1603 1230.8 1606.47 1224.71 C 1620.93 1229.58 1636.79 1236.94 1651.09 1242.65 C 1659.6 1246.06 1666.32 1250.02 1675.51 1252.21 C 1678.7 1251.42 1677.2 1252.16 1679.72 1249.21 C 1681.69 1236.18 1624.84 1217.69 1613.2 1213.54 C 1617.1 1205.23 1622.31 1196.39 1626.84 1188.32 C 1697.14 1205.63 1765.21 1244.99 1820.04 1291.39 C 1838.33 1306.87 1856.78 1322.44 1870.27 1342.43 C 1845.99 1392.69 1822.52 1449.26 1799.63 1500.42 C 1762.9 1583.14 1723.26 1664.55 1680.78 1744.48 C 1673.71 1757.61 1650.22 1803.07 1640.27 1806.98 C 1617.66 1815.86 1551.57 1794.58 1529.1 1787.13 C 1483.69 1772.07 1383.94 1719.07 1363.29 1676.32 C 1365.87 1648.6 1383.36 1600.55 1393.73 1573.66 C 1446.29 1437.38 1516.77 1309.5 1590.37 1183.77 z" fill="rgb(255,255,255)" transform="translate(0,0)"></path>
<path d="M 1679.52 894.421 C 1700.39 893.086 1716.17 897.452 1736.19 899.668 C 1763.79 901.84 1787.47 900.829 1814.07 910.044 C 1854.47 924.038 1881.02 954.776 1880.02 998.865 C 1879.48 1022.92 1869.61 1056.21 1853.57 1075.19 C 1846.68 1072.25 1844.69 1070.51 1839.4 1065.64 C 1856.44 1029.43 1869.38 996.432 1850.99 957.704 C 1846.03 948.469 1839.22 940.352 1831 933.858 C 1817.55 923.413 1806.12 920.924 1790.25 917.802 C 1719.25 903.829 1701.77 974.38 1635.12 981.029 C 1619.52 982.753 1601.47 982.639 1588.29 973.065 C 1572.86 961.852 1579.69 941.164 1590.55 929.18 C 1612.79 904.621 1647.55 896.435 1679.52 894.421 z" fill="rgb(234,212,209)" transform="translate(0,0)"></path>
<path d="M 1748.96 1052.23 C 1789.07 1049.49 1848.72 1085.8 1882.21 1106.87 C 1918.15 1129.5 1923.17 1154.8 1899.22 1189.1 L 1886.21 1178.78 C 1853.88 1153.55 1813.81 1131.01 1776.45 1113.71 C 1755.99 1104.23 1733.05 1096.51 1711.97 1088.04 C 1718.35 1070.73 1729.93 1055.75 1748.96 1052.23 z" fill="rgb(234,212,209)" transform="translate(0,0)"></path>
<path d="M 1803.1 1158.5 C 1816.59 1161.86 1840.32 1178.85 1852.06 1187.13 C 1841.47 1208.62 1827.26 1232.04 1814.67 1252.68 C 1798.6 1242.88 1781.88 1230.75 1765.67 1220.45 C 1777.65 1199.11 1791.49 1179.46 1803.1 1158.5 z" fill="rgb(234,212,209)" transform="translate(0,0)"></path>
<path d="M 1736.86 1126.55 C 1754.46 1132.82 1776.13 1143.74 1792.73 1152.45 C 1781.94 1167.52 1766.21 1194.94 1757.32 1211.62 L 1755.81 1213.36 C 1754.47 1213.2 1711 1190.72 1703.88 1187.62 C 1712.05 1167.83 1725.96 1145.36 1736.86 1126.55 z" fill="rgb(234,212,209)" transform="translate(0,0)"></path>
<path d="M 1670.33 1104.42 C 1686.41 1107.85 1710.38 1116.12 1726.04 1121.54 C 1715.2 1141.81 1703.17 1160.72 1692.85 1181.46 C 1690.51 1181.08 1676.6 1176.05 1673.8 1175.04 C 1661.79 1170.7 1650.72 1167.14 1638.47 1163.63 C 1648.99 1143.43 1660.3 1125.37 1670.33 1104.42 z" fill="rgb(234,212,209)" transform="translate(0,0)"></path>
<path d="M 1862.7 1194.64 C 1876.98 1205.98 1887.02 1215.38 1899.48 1228.62 C 1885.64 1247.28 1872.11 1271.57 1860.91 1291.74 C 1860.31 1291.72 1859.7 1291.7 1859.1 1291.69 C 1849.88 1282.92 1833.59 1267.33 1824.48 1260.08 C 1837.11 1238.2 1849.85 1216.39 1862.7 1194.64 z" fill="rgb(234,212,209)" transform="translate(0,0)"></path>
<path d="M 1615.49 1096.96 C 1630.18 1096.28 1645.88 1099.35 1660.49 1101.58 C 1654.83 1110.35 1649.46 1119.32 1644.4 1128.46 C 1641.32 1134.11 1629.86 1157.48 1626.89 1160.5 C 1612.85 1157.41 1592.96 1155.03 1578.93 1154.89 C 1587.09 1137.47 1603.17 1111.35 1615.49 1096.96 z" fill="rgb(234,212,209)" transform="translate(0,0)"></path>
<path d="M 1907.18 1240.48 C 1914.6 1243.66 1926.37 1265.45 1930.88 1273.02 C 1925.79 1282.35 1903.74 1329.37 1898.01 1332.99 L 1896.22 1332.06 C 1886.51 1320.29 1878.44 1311.01 1867.83 1300.11 C 1877.13 1290.56 1894.53 1256.31 1907.18 1240.48 z" fill="rgb(234,212,209)" transform="translate(0,0)"></path>
<path d="M 445.312 314.157 C 447.5 314.296 449.671 314.629 451.8 315.15 C 464.951 318.393 473.866 336.755 480.53 347.814 C 490.195 346.138 500.851 343.393 510.383 344.172 C 531.748 345.916 537.499 360.612 525.336 377.603 C 519.806 385.328 514.959 388.374 507.647 393.985 C 524.313 407.704 542.095 437.277 514.544 449.775 C 492.46 448.617 492.586 442.573 474.655 436.383 C 468.518 445.828 462.309 455.891 453.564 463.095 C 444.956 470.185 430.951 471.912 424.493 461.137 C 416.748 448.213 420.505 431.49 423.23 417.696 C 411.185 414.487 379.702 405.957 387.87 387.025 C 393.317 374.401 413.432 368.426 425.979 363.955 C 424.818 344.804 422.483 320.125 445.312 314.157 z" fill="rgb(234,212,209)" transform="translate(0,0)"></path>
<path d="M 1423.27 206.937 C 1447.22 206.05 1450.45 236.287 1453.94 253.985 C 1470.27 255.346 1502.8 260.31 1493.56 286.793 C 1489.47 298.54 1473.4 304.718 1462.42 309.066 C 1473.11 362.703 1435.08 372.571 1412.07 330.454 L 1411.11 328.763 C 1407.13 329.204 1402.36 333.018 1398.68 335.08 C 1356.69 358.634 1343.39 325.132 1370.31 292.927 C 1360.63 284.383 1335.48 260.269 1354.36 245.006 C 1364.47 236.825 1383.03 243.543 1395.07 246.744 C 1400.72 229.849 1407.17 215.595 1423.27 206.937 z" fill="rgb(234,212,209)" transform="translate(0,0)"></path>
<path d="M 1092.97 482.161 C 1119.8 480.527 1122.12 507.64 1123.17 527.61 C 1168.36 533.39 1177.36 564.372 1131.59 582.905 C 1146.41 626.797 1114.58 644.867 1083.79 605.958 C 1081.79 603.053 1082.83 603.765 1080 602.248 C 1065.78 608.987 1035.79 626.507 1029.02 600.943 C 1025.91 589.227 1033.46 575.464 1039.19 565.461 C 1000.43 534.63 1022.93 506.029 1064.86 523.546 C 1070.63 504.412 1073.52 491.234 1092.97 482.161 z" fill="rgb(234,212,209)" transform="translate(0,0)"></path>
<path d="M 1622.25 663.751 C 1633.83 665.023 1636.61 674.465 1637.93 684.517 C 1657.42 693.936 1673.02 697.678 1645.63 714.546 C 1648.9 737.503 1646.54 752.525 1621.18 736.047 L 1611.64 729.486 C 1586.43 743.106 1584.97 731.731 1594.37 709.851 C 1573.72 690.375 1585.68 682.526 1608.22 681.903 C 1612.71 674.001 1614.97 669.65 1622.25 663.751 z" fill="rgb(234,212,209)" transform="translate(0,0)"></path>
<path d="M 1873.23 446.704 C 1884.02 447.516 1885.83 458.008 1887.3 467.11 C 1911.01 475.403 1919.33 485.631 1892.96 499.279 C 1897.8 518.052 1895.27 535.655 1871.58 523.242 L 1863.42 514.657 C 1858.94 517.445 1850.21 520.462 1845.19 518.36 C 1833.29 513.38 1842.27 496.435 1845.99 489.484 C 1840.84 484.307 1833.98 479.317 1837.32 471.189 C 1840.82 467.518 1843.23 466.285 1848.39 465.767 L 1858.43 464.762 C 1863.48 456.236 1865.68 453.004 1873.23 446.704 z" fill="rgb(234,212,209)" transform="translate(0,0)"></path>
<path d="M 900.094 163.111 C 902.509 163.081 905.443 162.613 907.276 163.64 C 912.463 166.546 915.103 178.995 916.998 185.086 C 924.686 185.135 937.892 185.295 939.259 194.929 C 936.941 201.788 929.361 206.675 923.686 211.185 C 929.145 235.26 921.901 243.186 900.948 227.866 C 893.59 222.243 884.087 231.602 872.547 229.226 C 864.848 223.598 872.926 210.115 876.187 203.455 C 874.53 201.758 872.912 200.024 871.333 198.254 C 866.796 193.074 861.524 184.151 869.594 179.285 C 875.361 175.808 882.98 178.274 889.12 179.567 C 892.313 173.63 895.056 167.473 900.094 163.111 z" fill="rgb(234,212,209)" transform="translate(0,0)"></path>
<path d="M 161.122 547.058 C 169.374 546.589 176.289 548.612 181.041 555.895 C 183.898 560.294 184.784 565.688 183.482 570.769 C 181.691 577.908 178.082 580.448 172.097 583.864 C 147.026 585.467 139.838 560.774 161.122 547.058 z" fill="rgb(234,212,209)" transform="translate(0,0)"></path>
<path d="M 642.812 177.485 C 648.874 176.104 655.207 178.126 659.349 182.762 C 663.49 187.399 664.786 193.919 662.733 199.787 C 660.68 205.655 655.601 209.945 649.472 210.988 C 640.351 212.539 631.652 206.549 629.848 197.475 C 628.045 188.401 633.791 179.539 642.812 177.485 z" fill="rgb(234,212,209)" transform="translate(0,0)"></path>
<path d="M 1691.01 164.236 C 1699.79 161.776 1708.9 166.895 1711.36 175.671 C 1713.83 184.448 1708.71 193.562 1699.94 196.032 C 1691.16 198.505 1682.03 193.387 1679.57 184.602 C 1677.1 175.818 1682.22 166.698 1691.01 164.236 z" fill="rgb(234,212,209)" transform="translate(0,0)"></path>
<path d="M 1225.4 897.915 C 1247.26 900.054 1247.26 930.049 1226.82 931.677 C 1203.38 928.467 1203.61 907.711 1225.4 897.915 z" fill="rgb(234,212,209)" transform="translate(0,0)"></path>
<metadata><recraft-signature>{"signed_by": "recraft", "signature_b64": "+8lxtcgZ/GxzcJ63zk+lc2IfN4OZNhAGifdzyVKWZ6AkNzw54kSfSkHpTp701U/J3+lzzRO+opWhHP6a7D+vBw==", "signing_algo": "Ed25519", "generation_timestamp": 1773763965, "identifier": "0a8c599e-2342-4ee1-8be0-24155534b310"}</recraft-signature></metadata></svg>