<svg xmlns="http://www.w3.org/2000/svg" height="1024" preserveAspectRatio="none" style="display: block;" version="1.1" viewBox="0 0 2048 2048" width="1024">
<path d="M 0 0 L 2048 0 L 2048 2048 L 0 2048 L 0 0 z" fill="rgb(254,254,253)" transform="translate(0,0)"></path>
<path d="M 1356.1 338.403 C 1396.7 339.049 1413.07 367.469 1412.34 404.475 C 1411.38 453.545 1387.75 500.331 1352.14 533.508 C 1338.45 546.271 1322.47 552.146 1308.66 564.117 C 1302.79 569.205 1300.74 581.474 1299.58 588.849 C 1289.77 637.873 1340.64 701.995 1322.9 745.146 C 1349.94 778.552 1400.58 817.25 1388.27 865.903 C 1383.05 886.569 1368.19 915.157 1355.43 932.725 C 1366.32 949.919 1387.91 981.807 1385.26 1002.88 C 1382.23 1026.86 1353.03 1063.55 1340.39 1084.46 C 1331.35 1098.63 1322.25 1112.68 1312.61 1126.41 C 1291.51 1156.47 1258.6 1156.74 1225.72 1153.7 C 1216.25 1178.14 1211.6 1199.37 1200.38 1225.84 C 1175.42 1284.42 1147.21 1341.56 1115.87 1396.99 C 1103.88 1417.89 1088.94 1440.71 1075.96 1461.26 C 1031.03 1531.69 984.072 1600.82 935.153 1668.54 C 889.103 1733.57 840.981 1797.11 790.86 1859.05 C 776.336 1877 751.194 1909.87 734.594 1923.39 C 722.621 1932.97 708.363 1939.26 693.22 1941.66 C 615.976 1954 495.671 1881.15 432.747 1841.57 C 414.697 1830.21 391.633 1815.97 374.477 1803.59 C 300.53 1751.71 225.775 1694.33 165.221 1626.82 C 137.304 1595.69 107.845 1549.98 111.03 1506.98 C 113.763 1470.08 141.723 1437 160.707 1406.72 C 211.875 1324.55 266.823 1244.21 322.593 1165.11 C 347.089 1130.38 372.011 1095.17 397.804 1061.43 C 433.935 1014.2 471.727 968.271 511.108 923.718 C 564.233 864.182 621.124 813.715 681.368 761.76 C 648.959 685.718 668.973 673.245 716.718 615.879 C 766.724 555.797 770.448 547.531 847.194 566.112 C 864.452 548.095 887.406 516.264 909.02 508.264 C 948.832 493.528 1001.07 522.284 1037.24 537.948 C 1070.78 516.933 1107 523.522 1144.51 520.499 C 1167.57 519.444 1199.55 510.489 1206.19 484.633 C 1215.11 449.889 1224.81 426.842 1249.66 399.342 C 1276.62 369.496 1314.24 341.421 1356.1 338.403 z" fill="rgb(151,93,92)" transform="translate(0,0)"></path>
<path d="M 592.721 870.895 C 594.948 874.05 597.198 884.47 598.349 888.773 C 638.67 1039.43 772.732 1159.03 912.145 1218.79 C 979.941 1247.86 1084.64 1276.77 1158.34 1264.69 C 1131.21 1324.55 1100.08 1382.51 1065.14 1438.17 C 1040.84 1477.74 1013.06 1517.15 986.898 1555.54 C 929.363 1640.58 869.083 1723.73 806.154 1804.86 C 780.47 1837.74 755.082 1873.21 725.321 1902.71 C 717.831 1910.14 707.57 1914.85 697.803 1918.51 C 688.813 1920.14 680.189 1921.12 671.037 1920.74 C 543.435 1915.5 279.181 1719.32 194.27 1626.09 C 166.245 1595.31 130.006 1553.5 132.409 1509.12 C 132.922 1499.63 134.676 1490.6 138.784 1481.97 C 144.629 1469.71 153.133 1458.21 160.515 1446.79 C 172.561 1428.2 184.499 1409.55 196.327 1390.82 C 222.329 1349.87 248.239 1311.81 275.198 1271.66 C 331.89 1185.97 392.122 1102.69 455.737 1022.01 C 480.774 991.272 506.623 961.202 533.255 931.834 C 552.991 910.173 570.951 890.466 592.721 870.895 z" fill="rgb(254,254,253)" transform="translate(0,0)"></path>
<path d="M 564.849 1340.36 C 595.311 1339.8 614.018 1362.34 618.673 1390.43 C 620.83 1403.46 620.02 1413.8 619.361 1426.89 C 640.438 1415.38 660.39 1406.98 684.423 1415.81 C 711.255 1425.55 725.395 1454.8 714.39 1481.59 C 702.27 1511.11 671.308 1530.48 643.257 1542.57 C 620.292 1552.86 549.247 1570.61 524.535 1563.18 C 514.085 1560.04 502.604 1497.04 500.593 1484.4 C 492.603 1434.15 500.189 1348.09 564.849 1340.36 z" fill="rgb(151,93,92)" transform="translate(0,0)"></path>
<path d="M 558.969 1351.17 C 572.195 1350.16 582.753 1351.74 593.353 1360.93 C 606.69 1372.49 611.831 1395.32 610.578 1412.39 C 609.993 1420.37 607.65 1429.28 607.979 1437.26 C 612.748 1443.82 619.796 1438.08 625.254 1434.46 C 649.175 1418.6 687.802 1415.48 704.479 1444.51 C 709.344 1452.9 710.561 1462.93 707.845 1472.24 C 700.93 1496.7 673.537 1515.57 652.424 1526.79 C 617.126 1546.52 568.871 1554.8 528.656 1555.04 C 509.195 1503.29 496.438 1427.18 525.098 1377.56 C 532.832 1364.17 543.903 1355.01 558.969 1351.17 z" fill="rgb(249,168,137)" transform="translate(0,0)"></path>
<path d="M 663.182 1446.25 C 687.737 1443.05 694.028 1470.28 668.481 1477.95 C 641.446 1479.27 640.239 1457.2 663.182 1446.25 z" fill="rgb(254,254,253)" transform="translate(0,0)"></path>
<path d="M 638.975 1124.29 C 677.905 1124.07 669.679 1169.53 655.414 1191.78 C 639.236 1217.01 615.651 1253.34 582.263 1255.21 C 507.631 1242.54 589.808 1133.24 638.975 1124.29 z" fill="rgb(151,93,92)" transform="translate(0,0)"></path>
<path d="M 614.283 1155.9 C 634.835 1157.86 631.238 1180.02 613.653 1186.23 C 593.59 1184.46 597.385 1163.27 614.283 1155.9 z" fill="rgb(254,254,253)" transform="translate(0,0)"></path>
<path d="M 865.376 1293.22 C 905.589 1288.83 908.135 1327.41 892.482 1354.33 C 877.6 1379.94 859.474 1407.38 830.08 1417.27 C 803.519 1422.86 788.471 1404.33 795.241 1379.45 C 804.444 1345.63 832.26 1306.57 865.376 1293.22 z" fill="rgb(151,93,92)" transform="translate(0,0)"></path>
<path d="M 848.357 1319.95 C 869.595 1320.56 864.887 1340.93 848.375 1348.6 C 826.924 1347.07 831.149 1328.21 848.357 1319.95 z" fill="rgb(254,254,253)" transform="translate(0,0)"></path>
<path d="M 172.675 1497.31 C 174.614 1497.22 176.554 1497.15 178.494 1497.11 C 211.87 1496.42 253.422 1512.14 284.35 1526 C 412.122 1583.28 532.355 1673.3 634.268 1768.73 C 649.92 1783.39 710.632 1847.04 710.977 1864.59 C 709.148 1868.43 709.922 1867.15 705.82 1869.72 C 700.792 1866.28 699.757 1863.04 696.473 1857.84 C 683.143 1836.56 666.719 1816.64 649.231 1798.68 C 606.194 1754.94 559.452 1714.66 510.863 1677.1 C 431.707 1615.92 345.409 1560.24 251.934 1523.69 C 231.319 1515.63 207.024 1509.46 185.097 1508.12 C 178.887 1507.74 171.441 1508.63 169.303 1502.41 C 170.21 1499.25 170.163 1499.48 172.675 1497.31 z" fill="rgb(151,93,92)" transform="translate(0,0)"></path>
<path d="M 858.817 1435.13 C 894.264 1431.04 940.651 1472.48 953.856 1503.56 C 959.165 1516.05 954.839 1525.71 942.112 1530 C 936.401 1530.56 930.636 1530.2 925.042 1528.91 C 897.161 1522.58 841.362 1487.28 845.982 1449.1 C 846.738 1442.84 853.331 1438 858.817 1435.13 z" fill="rgb(151,93,92)" transform="translate(0,0)"></path>
<path d="M 860.541 1444.1 C 888.95 1442.57 924.795 1474.93 939.956 1496.83 C 945.375 1504.66 950.893 1514.5 940.784 1520.71 C 939.797 1520.73 938.809 1520.75 937.821 1520.76 C 908.609 1520.78 832.547 1469.47 860.541 1444.1 z" fill="rgb(249,168,137)" transform="translate(0,0)"></path>
<path d="M 438.663 1133.2 C 467.883 1129.63 511.578 1159.96 527.952 1183.44 C 538.751 1198.93 537.947 1211.56 521.365 1221.25 C 479.801 1233.56 394.11 1155.22 438.663 1133.2 z" fill="rgb(151,93,92)" transform="translate(0,0)"></path>
<path d="M 439.904 1143.02 C 467.372 1139.51 544.857 1187.93 519.493 1213 C 506.498 1217.12 493.864 1210.65 482.788 1203.89 C 466.872 1194.17 425.074 1165.75 439.904 1143.02 z" fill="rgb(249,168,137)" transform="translate(0,0)"></path>
<path d="M 694.877 1259.56 L 699.563 1261.83 C 704.054 1269.14 682.254 1298.93 687.339 1312.26 C 690.062 1319.39 688.746 1321.62 696.435 1326.65 C 724.646 1345.11 739.115 1311.24 760.167 1301.05 C 761.169 1300.59 761.834 1301.61 762.829 1302.51 C 763.319 1306.44 762.771 1307.12 761.307 1310.72 C 707.206 1382 645.233 1319.54 694.877 1259.56 z" fill="rgb(151,93,92)" transform="translate(0,0)"></path>
<path d="M 701.856 771.704 C 855.5 806.958 1119.17 1005.48 1207.51 1135.09 C 1198.59 1169.98 1179.1 1221.51 1163.06 1253.64 C 1143.97 1256.41 1130.33 1256.34 1111.35 1256.12 C 1009.19 1252.91 890.202 1205.24 806.51 1147.99 C 713.535 1084.39 621.085 975.394 603.595 860.574 C 611.196 851.545 621.013 844.636 629.38 836.529 C 651.872 814.735 679.868 793.494 701.856 771.704 z" fill="rgb(254,254,253)" transform="translate(0,0)"></path>
<path d="M 692.024 681.724 C 698.969 683.444 705.852 685.404 712.66 687.601 C 778.718 709.027 842.347 737.319 902.504 772.015 C 991.163 823.375 1073.94 884.28 1149.35 953.643 C 1191.77 991.948 1235.41 1035.2 1268.11 1082.3 C 1278.71 1097.57 1281.62 1105.9 1289.7 1121.54 C 1286.16 1124.31 1283.22 1126.13 1279.45 1128.52 C 1261.18 1136.74 1239.31 1134.21 1220.08 1131.45 C 1209.76 1118.58 1200.56 1104.05 1189.6 1090.85 C 1170.16 1067.45 1148.41 1045.38 1126.93 1023.86 C 1111.37 1008.26 1091.49 993.047 1074.79 978.802 C 983.459 900.919 821.32 786.374 703.85 760.987 C 693.449 732.289 683.232 711.747 692.024 681.724 z" fill="rgb(249,168,137)" transform="translate(0,0)"></path>
<path d="M 925.892 525.284 C 983.921 523.269 1111.18 601.111 1157.76 633.868 C 1177.97 648.132 1197.74 663.009 1217.04 678.478 C 1253.39 708.039 1357.48 798.08 1368.75 841.731 C 1374.1 862.416 1353.07 896.726 1342.79 914.483 C 1338.84 910.511 1333.73 904.065 1330.02 899.631 C 1289.34 850.13 1239.99 803.926 1189.96 764.101 C 1169.6 747.901 1148.17 729.442 1127.12 714.417 C 1050.56 659.762 959.83 606.044 871.179 574.376 C 882.953 556.002 903.147 529.167 925.892 525.284 z" fill="rgb(249,168,137)" transform="translate(0,0)"></path>
<path d="M 1350.07 360.279 C 1351.42 360.188 1352.77 360.109 1354.12 360.041 C 1381.19 358.702 1392.48 375.942 1392.22 401.364 C 1391.74 449.245 1366.94 496.6 1329.45 526.001 C 1318.96 534.082 1302.83 539.642 1293.77 549.16 C 1280.86 562.72 1278.08 585.344 1277.69 603.069 C 1276.72 647.836 1306.58 686.46 1307.04 730.309 C 1276.84 701.643 1245.17 674.568 1212.15 649.196 C 1196.75 637.579 1179.66 624.159 1163.89 613.301 C 1129.5 590.094 1093.9 568.739 1057.23 549.327 C 1091.46 539.624 1126 545.132 1162.56 538.652 C 1239.6 524.996 1216.43 478.201 1252.99 426.806 C 1273.52 397.948 1315.13 366.515 1350.07 360.279 z" fill="rgb(249,168,137)" transform="translate(0,0)"></path>
<path d="M 1348.25 388.947 C 1374.91 387.927 1373.58 436.08 1347.8 444.205 C 1317.79 443.565 1323.25 402.011 1348.25 388.947 z" fill="rgb(254,254,253)" transform="translate(0,0)"></path>
<path d="M 1338.41 468.899 C 1357.16 467.653 1352.77 489.941 1341.44 499.77 C 1322.81 502.215 1326.22 478.237 1338.41 468.899 z" fill="rgb(254,254,253)" transform="translate(0,0)"></path>
<path d="M 1084.95 711.531 C 1089.07 713.565 1108.48 727.921 1113.7 731.685 C 1148.42 756.735 1182.27 782.971 1215.19 810.346 C 1195.12 844.018 1161.54 894.784 1137.86 925.248 C 1136.97 925.865 1137.64 925.474 1135.63 925.878 C 1128.75 921.181 1115.9 909.022 1108.94 903.045 C 1094.37 890.674 1079.61 878.536 1064.66 866.636 C 1051.1 855.783 1017.63 833.058 1008.15 823.709 C 1014.5 811.32 1024.94 798.161 1032.7 786.504 C 1049.37 761.457 1068.65 736.631 1084.95 711.531 z" fill="rgb(249,168,137)" transform="translate(0,0)"></path>
<path d="M 932.331 622.55 C 953.495 633.971 975.616 643.715 996.79 655.738 C 1024.06 671.22 1049.47 687.925 1075.69 705.033 L 998.953 816.32 C 995.831 817.323 994.018 815.207 990.367 812.768 C 946.741 783.627 904.408 758.609 857.408 734.926 C 880.797 697.076 907.188 659.354 932.331 622.55 z" fill="rgb(249,168,137)" transform="translate(0,0)"></path>
<path d="M 1223.1 818.847 C 1241.85 832.972 1308.12 901.52 1321.32 921.289 C 1315.79 935.316 1259.36 1034.64 1250.54 1039.68 L 1248.31 1037.99 C 1221.15 1007.34 1177.02 960.075 1145.32 934.896 C 1149.14 929.86 1152.6 924.617 1156.23 919.449 C 1179.47 886.352 1201.76 853.178 1223.1 818.847 z" fill="rgb(249,168,137)" transform="translate(0,0)"></path>
<path d="M 787.75 578.185 C 825.637 575.169 887.593 603.063 923.119 618.21 C 905.426 641.776 889.462 663.448 873.074 688.14 C 864.731 700.71 854.553 716.657 845.886 728.425 C 842.46 728.514 841.81 727.569 838.452 725.833 C 787.261 699.981 753.557 688.993 699.381 672.294 C 717.797 645.737 742.33 620.852 762.445 595.388 C 769.463 586.504 776.949 581.266 787.75 578.185 z" fill="rgb(249,168,137)" transform="translate(0,0)"></path>
<path d="M 1327.73 932.439 C 1335.36 936.91 1356.3 974.687 1359.83 984.054 C 1361.64 988.859 1363.34 996.82 1362.77 1002.15 C 1362.34 1006.22 1360.78 1010.41 1358.83 1014.05 C 1349.77 1029.67 1307.2 1101 1297.74 1109.43 L 1296.04 1108.67 C 1287.64 1086.62 1272.95 1066.4 1257 1049.16 C 1280.37 1020.48 1311.99 966.023 1327.73 932.439 z" fill="rgb(249,168,137)" transform="translate(0,0)"></path>
<path d="M 1804.66 495.428 C 1850.9 492.211 1901.64 507.517 1924.75 550.554 C 1952.46 602.168 1923.15 650.332 1870.13 666.486 C 1828.54 679.16 1796.13 664.375 1754.49 667.133 C 1685.01 671.548 1606.72 734.489 1588.12 801.486 L 1591.27 799.073 C 1619.3 777.751 1651.79 763.239 1687.88 767.861 C 1702.11 769.685 1721.54 777.738 1729.68 789.946 C 1747.58 815.148 1705.04 827.571 1687.82 832.848 C 1620.42 853.51 1575.39 898.399 1553.71 965.637 C 1550.21 976.489 1547.49 988.904 1544.72 1000.61 C 1557.55 984.053 1572.4 969.175 1588.93 956.32 C 1675.86 887.895 1828.18 873.845 1905.73 966.613 C 1941.79 1009.75 1941.1 1079.68 1878.36 1096.71 C 1830.23 1109.77 1798.4 1077.13 1754.16 1069.75 C 1714.48 1063.65 1668.86 1076.61 1637.41 1102.3 C 1573.44 1154.56 1544.01 1234.76 1532.96 1314.24 C 1563.11 1295.88 1586.56 1284.8 1622.4 1282.5 C 1684.63 1278.5 1746.62 1324.48 1688.7 1384.6 C 1633.68 1430.17 1553.46 1426.21 1493.69 1465.42 C 1456.04 1490.12 1434.53 1514.92 1405.35 1548.11 C 1300.89 1666.92 1128.93 1723.56 974.053 1695.52 C 971.383 1695.04 968.917 1692.62 967.8 1690.24 C 968.659 1683.01 986.215 1683 993.1 1681.44 C 1038.33 1671.3 1082.33 1656.26 1124.31 1636.59 C 1247.53 1579.68 1318.01 1507.35 1384.97 1390.61 C 1462.56 1255.37 1464.83 1124.48 1469.46 973.878 C 1473.28 849.779 1508.86 711.264 1593.56 616.999 C 1649.77 554.451 1716.85 501.548 1804.66 495.428 z" fill="rgb(151,93,92)" transform="translate(0,0)"></path>
<path d="M 1795.75 506.401 C 1830.68 502.512 1867.19 509.196 1895.07 531.424 C 1942.19 569.003 1932.17 631.773 1875.72 653.71 C 1832.65 670.449 1798.04 651.722 1754.56 655.647 C 1698.54 661.259 1650.38 690.352 1614.79 733.466 C 1608.64 740.8 1602.97 748.53 1597.84 756.605 C 1588.58 771.325 1580.39 789.064 1575.39 805.781 C 1573.66 811.556 1572.33 816.083 1578.02 819.783 C 1583.17 819.76 1622.77 788.053 1638.77 783.491 C 1666.33 775.635 1705.46 770.963 1723.02 799.993 C 1727.06 806.676 1711.34 813.295 1707.11 814.966 C 1648.06 834.425 1597.79 856.583 1565.62 913.799 C 1547.45 946.437 1532.3 987.069 1532.3 1024.71 C 1532.3 1027.96 1538.02 1028.41 1538.96 1027.33 C 1548.2 1016.15 1553.72 1005.96 1563.2 994.247 C 1641.71 897.251 1848.51 872.032 1912.3 997.296 C 1928.28 1028.69 1920.62 1069.32 1884.23 1083.48 C 1847.65 1097.7 1821.86 1082.07 1789.05 1068.76 C 1751.16 1053.63 1708.82 1054.13 1671.29 1070.14 C 1583.58 1107.97 1534.99 1217.68 1523.61 1307.63 C 1522.72 1314.6 1519.93 1325.5 1522.7 1331.92 C 1527.19 1331.6 1534.02 1327.3 1537.57 1324.56 C 1576.67 1294.43 1647.89 1276.18 1689.63 1313.05 L 1690.72 1314.02 C 1718.2 1343.94 1687.47 1376.63 1660.38 1391.42 C 1608.71 1419.62 1547.62 1422.54 1496.32 1451.69 C 1453.63 1475.96 1421.12 1514.58 1388.74 1550.58 C 1362.87 1578.77 1329.99 1605.35 1297.21 1624.76 C 1224.84 1667.61 1142.62 1691.02 1058.54 1692.7 C 1044.88 1692.99 1015.29 1692.4 1002.57 1689.14 C 1081.61 1675.36 1191.16 1620.52 1253.42 1569.4 C 1302.24 1531.44 1339.3 1480.4 1373.44 1430.07 C 1466.48 1292.89 1477.63 1134.34 1479.48 974.017 C 1482.47 909.952 1493.07 842.576 1512.39 781.544 C 1549.93 662.994 1666.11 520.576 1795.75 506.401 z" fill="rgb(254,254,253)" transform="translate(0,0)"></path>
<path d="M 508.821 338.435 C 554.646 339.72 585.614 369.634 605.95 408.891 C 642.329 479.115 633.052 559.143 609.424 631.52 C 597.142 669.14 593.848 677.09 553.988 684.842 C 491.509 699.349 419.694 700.021 358.76 679.435 C 312.761 663.481 267.444 636.306 254.546 586.256 C 241.609 536.059 270.355 487.411 321.216 476.048 C 362.05 466.925 395.605 476.803 430.254 498.206 C 418.183 452.969 415.803 402.601 449.43 366.018 C 466.652 347.283 483.587 339.778 508.821 338.435 z" fill="rgb(151,93,92)" transform="translate(0,0)"></path>
<path d="M 498.678 348.266 C 547.293 344.438 580.102 376.343 600.154 417.814 C 627.837 475.068 617.214 545.077 597.614 603.219 C 591.46 617.478 582.897 652.928 567.278 658.487 C 497.05 683.479 414.458 689.459 345.268 664.239 C 336.753 660.573 330.161 657.057 321.87 652.811 C 277.852 630.268 242.164 572.214 270.317 524.424 C 300.215 473.673 372.513 472.4 418.174 502.054 C 425.918 507.084 433.315 513.166 441.211 517.992 C 444.613 517.352 443.002 518.047 445.809 515.08 C 445.129 510.523 443.49 505.081 441.845 500.701 C 421.322 446.059 428.635 361.264 498.678 348.266 z" fill="rgb(249,168,137)" transform="translate(0,0)"></path>
<path d="M 517.118 375.08 C 533.281 373.445 547.735 385.16 549.482 401.311 C 551.23 417.462 539.616 431.997 523.478 433.857 C 507.179 435.736 492.468 423.982 490.703 407.671 C 488.938 391.359 500.795 376.73 517.118 375.08 z" fill="rgb(254,254,253)" transform="translate(0,0)"></path>
<path d="M 562.05 443.075 C 587.725 441.772 590.813 465.966 571.842 477.846 C 549.345 479.222 541.785 454.436 562.05 443.075 z" fill="rgb(254,254,253)" transform="translate(0,0)"></path>
<path d="M 1507.23 219.033 C 1540.97 217.582 1562.69 272.704 1568.69 299.179 C 1574.08 322.924 1575.16 346.326 1572.51 370.43 C 1568.47 407.2 1557.25 437.132 1537.81 468.367 C 1534.15 473.675 1533.51 475.349 1527.34 476.643 C 1520.05 474.069 1526.46 461.33 1528.1 455.371 C 1538.96 416.005 1536.8 371.965 1526.62 332.671 C 1521.77 313.943 1511.91 295.35 1503.84 277.82 C 1497.83 264.658 1488.96 246.872 1492.54 232.138 C 1494.12 225.633 1501.67 221.454 1507.23 219.033 z" fill="rgb(151,93,92)" transform="translate(0,0)"></path>
<path d="M 1507.72 228.92 C 1509.57 228.984 1513.67 229.152 1515.22 229.702 C 1527.42 234.056 1542.28 256.555 1547.31 267.821 C 1571.63 322.294 1566.32 373.515 1547.65 427.559 C 1546.69 430.683 1544.88 434.734 1543.62 437.835 C 1546.15 394.363 1546.66 351.657 1530.17 310.361 C 1520.77 286.829 1503.85 262.783 1501.37 237.388 C 1501.04 234.077 1505.35 230.62 1507.72 228.92 z" fill="rgb(254,254,253)" transform="translate(0,0)"></path>
<path d="M 1694.57 104.542 C 1721.29 100.908 1745.88 119.665 1749.45 146.397 C 1753.01 173.129 1734.19 197.673 1707.45 201.165 C 1680.8 204.644 1656.37 185.907 1652.82 159.276 C 1649.27 132.644 1667.94 108.163 1694.57 104.542 z" fill="rgb(151,93,92)" transform="translate(0,0)"></path>
<path d="M 1697.28 114.614 C 1711.11 113.319 1724.56 119.561 1732.5 130.954 C 1740.44 142.347 1741.63 157.13 1735.63 169.651 C 1729.63 182.172 1717.35 190.495 1703.5 191.439 C 1682.45 192.873 1664.16 177.12 1662.46 156.094 C 1660.76 135.068 1676.28 116.581 1697.28 114.614 z" fill="rgb(254,254,253)" transform="translate(0,0)"></path>
<path d="M 1853.99 1297.89 C 1869.19 1294.93 1884.81 1300.38 1894.87 1312.15 C 1904.93 1323.92 1907.89 1340.19 1902.61 1354.75 C 1897.33 1369.3 1884.62 1379.89 1869.35 1382.47 C 1846.15 1386.39 1824.11 1370.92 1819.91 1347.77 C 1815.7 1324.61 1830.89 1302.38 1853.99 1297.89 z" fill="rgb(151,93,92)" transform="translate(0,0)"></path>
<path d="M 1854.47 1308.91 C 1871.77 1304.66 1889.22 1315.32 1893.35 1332.65 C 1897.47 1349.98 1886.7 1367.35 1869.34 1371.36 C 1852.15 1375.32 1834.99 1364.68 1830.9 1347.52 C 1826.82 1330.36 1837.34 1313.12 1854.47 1308.91 z" fill="rgb(254,254,253)" transform="translate(0,0)"></path>
<path d="M 1191.68 1397.04 L 1193.67 1396.98 C 1214.71 1396.5 1221.52 1419.57 1221.55 1436.76 C 1221.61 1473.13 1205.59 1500.79 1180.56 1526.01 C 1178.63 1527.7 1176.68 1529.37 1174.72 1531.02 C 1170.95 1534.15 1170.5 1534.36 1166.07 1533.95 C 1157.92 1528.09 1166.27 1503.73 1168.57 1492.46 C 1175.55 1458.09 1149.74 1411.78 1191.68 1397.04 z" fill="rgb(151,93,92)" transform="translate(0,0)"></path>
<path d="M 1189.93 1408.05 C 1203.62 1407.29 1209.12 1415.17 1210.67 1428.09 C 1214.15 1457 1202.87 1483.56 1185.32 1506.03 C 1181.77 1510.17 1177.88 1514.32 1174.2 1518.37 C 1176.6 1505.74 1179.62 1491.12 1179.89 1478.17 C 1180.25 1460.39 1176.22 1439.42 1179.65 1421.94 C 1181.05 1414.78 1183.99 1411.54 1189.93 1408.05 z" fill="rgb(254,254,253)" transform="translate(0,0)"></path>
<path d="M 1350.68 1223.16 C 1371 1218.96 1390.85 1232.09 1394.93 1252.43 C 1399.01 1272.77 1385.76 1292.55 1365.4 1296.51 C 1345.21 1300.45 1325.62 1287.33 1321.57 1267.16 C 1317.52 1246.98 1330.53 1227.32 1350.68 1223.16 z" fill="rgb(151,93,92)" transform="translate(0,0)"></path>
<path d="M 1355.38 1232.69 C 1369.91 1231.03 1383.09 1241.31 1385.02 1255.81 C 1386.96 1270.3 1376.93 1283.68 1362.48 1285.89 C 1352.88 1287.36 1343.23 1283.52 1337.26 1275.87 C 1331.28 1268.21 1329.91 1257.92 1333.67 1248.97 C 1337.43 1240.02 1345.73 1233.79 1355.38 1232.69 z" fill="rgb(254,254,253)" transform="translate(0,0)"></path>
<path d="M 1682.57 392.525 C 1693.02 390.43 1703.78 394.119 1710.75 402.181 C 1717.72 410.243 1719.81 421.43 1716.23 431.466 C 1712.65 441.502 1703.94 448.834 1693.44 450.658 C 1677.5 453.428 1662.29 442.867 1659.31 426.959 C 1656.33 411.051 1666.7 395.705 1682.57 392.525 z" fill="rgb(151,93,92)" transform="translate(0,0)"></path>
<path d="M 1682.24 402.554 C 1689.01 400.144 1696.56 401.6 1701.95 406.356 C 1707.33 411.113 1709.71 418.42 1708.16 425.438 C 1706.61 432.455 1701.37 438.076 1694.47 440.115 C 1684.21 443.152 1673.4 437.465 1670.08 427.287 C 1666.77 417.11 1672.16 406.144 1682.24 402.554 z" fill="rgb(254,254,253)" transform="translate(0,0)"></path>
<path d="M 1392.15 1617.53 C 1407.98 1614.15 1423.55 1624.24 1426.95 1640.06 C 1430.35 1655.89 1420.3 1671.48 1404.48 1674.91 C 1388.62 1678.35 1372.98 1668.26 1369.57 1652.4 C 1366.16 1636.53 1376.28 1620.9 1392.15 1617.53 z" fill="rgb(151,93,92)" transform="translate(0,0)"></path>
<path d="M 1393.6 1627.55 C 1403.89 1624.92 1414.38 1631.06 1417.1 1641.33 C 1419.83 1651.59 1413.77 1662.13 1403.53 1664.95 C 1393.17 1667.8 1382.47 1661.65 1379.71 1651.26 C 1376.95 1640.87 1383.19 1630.22 1393.6 1627.55 z" fill="rgb(254,254,253)" transform="translate(0,0)"></path>
<path d="M 1475.05 597.58 C 1490.96 596.345 1504.85 608.242 1506.07 624.146 C 1507.29 640.05 1495.39 653.932 1479.48 655.144 C 1463.59 656.354 1449.73 644.461 1448.51 628.574 C 1447.29 612.686 1459.17 598.813 1475.05 597.58 z" fill="rgb(151,93,92)" transform="translate(0,0)"></path>
<path d="M 1473.47 607.935 C 1483.43 605.807 1493.25 612.117 1495.45 622.065 C 1497.65 632.014 1491.41 641.875 1481.48 644.15 C 1471.44 646.448 1461.46 640.131 1459.23 630.079 C 1457.01 620.026 1463.4 610.085 1473.47 607.935 z" fill="rgb(254,254,253)" transform="translate(0,0)"></path>
<path d="M 1608.57 1485.23 C 1642.52 1484.85 1656.46 1531.46 1619.22 1542.21 C 1577.26 1540.99 1573.57 1494.62 1608.57 1485.23 z" fill="rgb(151,93,92)" transform="translate(0,0)"></path>
<path d="M 1608.46 1495.64 C 1618.58 1493.14 1628.83 1499.26 1631.43 1509.35 C 1634.04 1519.44 1628.04 1529.75 1617.97 1532.47 C 1611.36 1534.25 1604.31 1532.34 1599.5 1527.48 C 1594.69 1522.61 1592.86 1515.54 1594.71 1508.95 C 1596.57 1502.36 1601.82 1497.28 1608.46 1495.64 z" fill="rgb(254,254,253)" transform="translate(0,0)"></path>
<metadata><recraft-signature>{"signed_by": "recraft", "signature_b64": "VIdrhhrS59SjbAXh5kQJbLYhTeDBUosNfrMDeaMDiPpbmjJPAq1uhm3rjMBMFQ2vXLvsMAITBn9PUoCTJeBDAA==", "signing_algo": "Ed25519", "generation_timestamp": 1773763908, "identifier": "d89bfaa8-c3a4-4ff1-9b2b-aafb60c3888f"}</recraft-signature></metadata></svg>