<svg xmlns="http://www.w3.org/2000/svg" height="1024" preserveAspectRatio="none" style="display: block;" version="1.1" viewBox="0 0 2048 2048" width="1024">
<path d="M 0 0 L 2048 0 L 2048 2048 L 0 2048 L 0 0 z" fill="rgb(255,255,255)" transform="translate(0,0)"></path>
<path d="M 883.352 718.275 C 885.372 718.071 887.397 717.929 889.425 717.847 C 956.5 715.502 973.858 806.232 1010.05 842.6 C 1028.01 860.632 1049.25 855.648 1069.91 846.32 C 1149.34 810.466 1240.79 810.463 1307.36 873.706 C 1329.33 855.043 1353.02 836.044 1382.09 856.015 C 1394.58 864.592 1404.22 876.104 1413.78 887.692 C 1428.01 904.952 1440.22 924.179 1444.63 946.398 C 1448.52 965.62 1441.47 974.047 1431.33 988.747 C 1449.49 998.484 1474.57 1017.2 1491.6 1030.23 C 1605.73 1117.5 1695.87 1218.39 1780.08 1333.91 C 1815.9 1382.35 1846.87 1434.19 1872.52 1488.7 C 1882.4 1509.97 1890.53 1527.04 1895.28 1550.42 C 1897.83 1562.93 1898.1 1575.8 1896.08 1588.41 C 1881.56 1677.68 1748.42 1794.7 1677.78 1845.28 C 1609.56 1893.86 1474.08 1983.85 1386.22 1936.27 C 1352.72 1918.13 1306.62 1873.02 1278.8 1845.17 C 1174.55 1740.8 1077.79 1626.51 1006.02 1497.03 C 981.732 1453.23 954.446 1401.96 939.736 1353.96 C 925.111 1360.39 906.418 1368.35 889.842 1362.71 C 863.281 1351.65 841.042 1316.31 827.861 1291.57 C 806.662 1251.77 822.881 1228.75 858.473 1211.31 C 850.02 1191.45 841.021 1172.99 837.027 1151.48 C 828.261 1104.29 843.516 1052.13 867.168 1011.43 C 876.003 996.222 886.539 982.498 896.367 967.98 C 902.015 959.637 907.108 950.127 906.644 939.745 C 904.875 900.16 825.467 866.544 814.588 808.723 C 810.879 789.014 815.864 768.355 827.268 751.95 C 840.683 732.652 860.704 722.353 883.352 718.275 z" fill="rgb(103,73,78)" transform="translate(0,0)"></path>
<path d="M 1394.45 1025.81 C 1394.57 1025.83 1394.69 1025.84 1394.81 1025.87 C 1405.34 1028.21 1431.45 1048.49 1441.78 1055.89 C 1560.16 1140.66 1666.16 1258.51 1748.84 1378.21 C 1756.61 1389.46 1763.37 1401.37 1770.63 1412.94 C 1792.98 1448.61 1814.68 1483.96 1831.63 1522.61 C 1836.26 1533.17 1841.25 1544.17 1843.89 1555.41 C 1846.17 1565.14 1846.06 1575.3 1844.19 1585.08 C 1832.18 1647.72 1729.62 1738.99 1680.35 1777.96 C 1659.15 1794.74 1637 1809.97 1614.61 1825.08 L 1602.66 1812.05 C 1571.22 1779.67 1540.59 1742.17 1510.77 1708.35 C 1405.37 1590.73 1306.22 1467.66 1213.72 1339.65 C 1193.99 1312.8 1173.86 1286.63 1155.71 1258.63 C 1150.37 1250.4 1142.69 1240.85 1138.66 1232.12 C 1156.18 1218.2 1175.46 1205.96 1193.34 1192.54 C 1225.53 1168.38 1258.93 1144.13 1290.42 1119.16 C 1313.21 1101.11 1335.26 1082.15 1356.52 1062.32 C 1369.35 1050.32 1381.49 1037.75 1394.45 1025.81 z" fill="rgb(255,255,255)" transform="translate(0,0)"></path>
<path d="M 1471.85 1172.24 C 1518.55 1172.61 1568.93 1253.45 1515.4 1272.89 C 1461.83 1275.3 1420.05 1181.93 1471.85 1172.24 z" fill="rgb(103,73,78)" transform="translate(0,0)"></path>
<path d="M 1483.96 1185.99 C 1502.84 1186.12 1509.72 1207.88 1493.22 1215.18 C 1475.92 1214.48 1466.67 1194.95 1483.96 1185.99 z" fill="rgb(255,255,255)" transform="translate(0,0)"></path>
<path d="M 1314.16 1306.08 C 1342.93 1304.77 1363.95 1327.37 1375.43 1351.51 C 1385.37 1372.42 1381.39 1393.25 1358.99 1402.49 C 1305.58 1409.13 1268.29 1324.71 1314.16 1306.08 z" fill="rgb(103,73,78)" transform="translate(0,0)"></path>
<path d="M 1326.76 1319.83 C 1333.34 1319.12 1338.01 1320.57 1342.2 1325.91 C 1344.62 1328.98 1345.67 1332.92 1345.09 1336.79 C 1344.37 1341.6 1342.41 1343.19 1338.74 1346.02 C 1323.64 1345.69 1313.72 1330.73 1326.76 1319.83 z" fill="rgb(255,255,255)" transform="translate(0,0)"></path>
<path d="M 1373.78 1413.7 C 1388.67 1411.59 1403.55 1417.67 1412.71 1429.6 C 1421.88 1441.52 1423.92 1457.46 1418.06 1471.31 C 1412.2 1485.17 1399.34 1494.8 1384.39 1496.52 C 1361.69 1499.14 1341.1 1483.02 1338.19 1460.35 C 1335.29 1437.68 1351.15 1416.89 1373.78 1413.7 z" fill="rgb(247,206,204)" transform="translate(0,0)"></path>
<path d="M 1583.04 1248.38 C 1605.48 1247.51 1624.41 1264.95 1625.37 1287.39 C 1626.33 1309.83 1608.97 1328.82 1586.53 1329.87 C 1563.98 1330.92 1544.86 1313.44 1543.89 1290.88 C 1542.92 1268.32 1560.48 1249.27 1583.04 1248.38 z" fill="rgb(247,206,204)" transform="translate(0,0)"></path>
<path d="M 1485 1314.46 C 1519.99 1324.28 1536.04 1397.13 1482.89 1396.59 C 1468.54 1396.44 1457.18 1389.06 1447.49 1378.92 C 1442.83 1372.39 1439.57 1369.05 1443.96 1361.26 C 1452.87 1357.64 1477.14 1400.07 1499.47 1376.69 C 1520.26 1354.94 1480.23 1332.64 1479.85 1320.39 C 1480.95 1316.99 1482.11 1316.57 1485 1314.46 z" fill="rgb(103,73,78)" transform="translate(0,0)"></path>
<path d="M 1004.85 1316.99 C 1025.15 1303.43 1046.45 1291.2 1067.18 1278.26 C 1087.03 1265.71 1106.67 1252.83 1126.1 1239.64 C 1131.91 1245.96 1135.51 1250.93 1139.82 1258.44 C 1126.54 1269.93 1068.78 1313.41 1065.22 1322.26 C 1064.9 1331.34 1073.32 1335.49 1080.07 1330.37 C 1103.53 1312.59 1127.75 1294.41 1150.89 1276.34 C 1164.9 1294.89 1189.65 1325.81 1201.89 1344.9 C 1180.01 1363.57 1157.56 1379.52 1134.84 1397.02 C 1129.35 1401.24 1126.83 1407 1131.86 1413.04 C 1144.45 1419.3 1200.19 1371.15 1212.36 1361.42 C 1230.62 1384.17 1248.24 1409.11 1266.35 1432.41 C 1257.56 1438.65 1195.51 1486.89 1193.77 1493.74 C 1193.12 1496.29 1193.48 1498.81 1195.14 1500.9 C 1196.86 1503.06 1199.25 1504.13 1201.99 1504.13 C 1213.28 1504.12 1263.68 1456.84 1276.73 1446.74 C 1295.47 1469.93 1313.12 1494.3 1331.88 1517.47 C 1318.75 1525.27 1307.38 1536.53 1295.57 1546.2 C 1286.03 1554.02 1275.42 1561.29 1266.56 1569.81 C 1264.5 1571.8 1262.45 1573.81 1261.63 1576.64 C 1261.02 1578.75 1260.93 1581.45 1261.93 1583.46 C 1263.08 1585.77 1264.72 1586.57 1267.15 1586.96 C 1279.16 1588.86 1330.67 1541.18 1341.56 1531.09 C 1362.79 1553.84 1381.83 1578.14 1402.18 1601.25 C 1386.29 1616.69 1336.69 1651.86 1328.23 1664.62 C 1327.13 1666.28 1326.61 1668.01 1326.64 1670.03 C 1326.69 1672.52 1327.78 1674.75 1329.82 1676.21 C 1331.91 1677.71 1334.24 1678.12 1336.73 1677.68 C 1346.58 1675.94 1401.68 1626.05 1414.05 1615.84 C 1433.59 1638.76 1453.33 1663.15 1473.29 1685.38 C 1462.43 1695.39 1400.27 1741.74 1398.85 1751.5 C 1398.47 1754.07 1399.03 1755.63 1400.79 1757.46 C 1402.75 1759.5 1405.56 1760.16 1408.23 1760.49 C 1419.96 1756.96 1472.49 1710.01 1484.35 1699.27 C 1501.82 1718.54 1530.42 1749.03 1545.56 1768.91 C 1529.97 1780.64 1514.74 1793.62 1499.69 1806.1 C 1492.39 1812.15 1473.55 1825.37 1472.18 1833.98 C 1472.83 1836.73 1473.57 1838.5 1476.02 1840.14 C 1478.29 1841.66 1481.09 1842.04 1483.7 1841.35 C 1491.58 1839.27 1547.66 1790.3 1557.38 1781.68 C 1564.45 1791.91 1593.27 1821.32 1603.35 1832.03 C 1587.35 1843.57 1570.39 1853.7 1552.65 1862.33 C 1525.44 1876.65 1496.35 1889.33 1466.65 1897.27 C 1442.87 1903.63 1424.39 1900.17 1403.7 1886.79 C 1369.77 1864.85 1338.48 1832.02 1309.91 1803.77 C 1233.2 1727.9 1163.19 1646.44 1102.98 1556.84 C 1071.48 1509.97 1041.26 1463.27 1017.97 1411.48 C 1005.91 1384.66 994.352 1358.7 987.36 1329.94 C 993.256 1324.71 998.299 1321.36 1004.85 1316.99 z" fill="rgb(255,255,255)" transform="translate(0,0)"></path>
<path d="M 1004.85 1316.99 C 1048.55 1424.69 1124.18 1525.44 1198.94 1613.69 C 1210.49 1627.67 1224.51 1640.01 1236.18 1653.77 C 1271.96 1695.97 1309.79 1732.88 1350.83 1769.95 C 1403.09 1817.17 1458.66 1870.98 1535.56 1860.78 C 1542.31 1859.89 1546.28 1859.75 1552.65 1862.33 C 1525.44 1876.65 1496.35 1889.33 1466.65 1897.27 C 1442.87 1903.63 1424.39 1900.17 1403.7 1886.79 C 1369.77 1864.85 1338.48 1832.02 1309.91 1803.77 C 1233.2 1727.9 1163.19 1646.44 1102.98 1556.84 C 1071.48 1509.97 1041.26 1463.27 1017.97 1411.48 C 1005.91 1384.66 994.352 1358.7 987.36 1329.94 C 993.256 1324.71 998.299 1321.36 1004.85 1316.99 z" fill="rgb(221,240,223)" transform="translate(0,0)"></path>
<path d="M 878.951 1199.16 C 841.007 1139.93 855.61 1072.73 889.911 1015.34 C 908.004 985.063 941.282 955.66 922.792 916.047 C 904.699 877.284 843.073 846.777 835.402 804.242 C 832.997 790.804 836.128 776.965 844.082 765.87 C 853.23 753.334 870.693 741.602 886.034 740.153 C 932.411 735.775 956.513 805.141 977.048 836.678 C 983.57 846.695 992.52 858.111 1002.06 864.922 C 1038.89 891.219 1068.84 869.823 1103.08 857.747 C 1120.53 851.58 1138.59 847.268 1156.94 844.881 C 1211.22 837.906 1251.59 855.349 1293.69 887.805 C 1289.66 892.178 1285.19 896.336 1280.9 900.472 C 1198.69 836.794 1144.72 861.019 1057.28 892.202 C 1055.46 895 1054.66 895.661 1054.91 898.98 C 1061.88 907.251 1092.14 890.13 1101.69 886.99 C 1162.65 866.963 1220.5 863.966 1273.1 908.079 C 1259.12 922.754 1236.75 940.873 1221.23 954.914 C 1182.05 990.37 1142.53 1023.67 1099.3 1054.13 C 1083.4 1065.33 1069.62 1076.39 1052.74 1087.09 C 1047.92 1079.24 1032.79 1051.3 1027.18 1048.09 C 1023.41 1048.15 1024.86 1047.45 1022.45 1049.69 C 1021.35 1058.36 1038.22 1084.52 1043.41 1093.6 C 1022.83 1108.94 998.987 1124.55 977.401 1138.74 C 954.877 1153.56 927.133 1172.43 903.549 1185.07 C 869.25 1123.54 884.036 1064.38 926.483 1010.71 C 930.716 1005.36 929.543 1001.7 923.346 998.815 C 902.348 1020.46 882.455 1059.3 876.848 1088.74 C 869.355 1128.07 874.09 1156.51 895.51 1189.55 L 878.951 1199.16 z" fill="rgb(247,206,204)" transform="translate(0,0)"></path>
<path d="M 878.951 1199.16 C 841.007 1139.93 855.61 1072.73 889.911 1015.34 C 908.004 985.063 941.282 955.66 922.792 916.047 C 904.699 877.284 843.073 846.777 835.402 804.242 C 832.997 790.804 836.128 776.965 844.082 765.87 C 853.23 753.334 870.693 741.602 886.034 740.153 C 932.411 735.775 956.513 805.141 977.048 836.678 C 983.57 846.695 992.52 858.111 1002.06 864.922 C 1038.89 891.219 1068.84 869.823 1103.08 857.747 C 1120.53 851.58 1138.59 847.268 1156.94 844.881 C 1211.22 837.906 1251.59 855.349 1293.69 887.805 C 1289.66 892.178 1285.19 896.336 1280.9 900.472 C 1198.69 836.794 1144.72 861.019 1057.28 892.202 C 1041.38 891.358 1027.99 893.508 1012.51 887.927 C 957.05 867.926 941.5 768.238 899.321 755.62 C 889.166 752.582 877.937 755.52 869.001 760.746 C 865.436 762.831 862.755 764.914 861.674 769.039 C 854.152 778.348 847.374 790.297 849.594 803.004 C 855.903 839.134 903.257 857.362 921.816 888.129 C 930.693 902.846 939.572 915.834 942.83 933.01 C 943.963 938.977 944.227 950.83 945.894 955.662 C 943.064 972.887 927.349 986.448 923.346 998.815 C 902.348 1020.46 882.455 1059.3 876.848 1088.74 C 869.355 1128.07 874.09 1156.51 895.51 1189.55 L 878.951 1199.16 z" fill="rgb(255,255,255)" transform="translate(0,0)"></path>
<path d="M 861.674 769.039 C 865.75 771.273 865.316 770.236 867.096 773.691 C 865.162 794.057 852.776 802.237 871.107 822.907 C 882.489 835.741 895.344 845.22 908.101 856.746 C 935.266 881.29 952.329 912.33 954.946 949.122 C 955.132 951.731 953.958 952.961 952.431 954.758 C 949.241 956.087 949.395 955.909 945.894 955.662 C 944.227 950.83 943.963 938.977 942.83 933.01 C 939.572 915.834 930.693 902.846 921.816 888.129 C 903.257 857.362 855.903 839.134 849.594 803.004 C 847.374 790.297 854.152 778.348 861.674 769.039 z" fill="rgb(103,73,78)" transform="translate(0,0)"></path>
<path d="M 840.361 1262.4 C 837.537 1245.22 864.376 1232.74 877.34 1225.79 C 909.83 1208.39 940.265 1189.24 971.444 1169.67 C 1064.43 1110.34 1152.99 1044.35 1236.44 972.219 C 1252.97 957.669 1269.5 943.363 1285.4 927.959 C 1302.62 911.327 1319.42 893.346 1337.71 877.96 C 1350.61 867.103 1361.53 865.701 1374.94 877.957 C 1394.79 896.098 1417.76 923.85 1424.13 950.67 C 1425.94 958.323 1417.34 970.792 1412.25 976.017 C 1394.82 994.815 1375.69 1012.21 1357.54 1030.34 C 1318.34 1069.52 1274.25 1103.21 1230.23 1136.72 C 1214.88 1148.4 1199.68 1160.71 1184.06 1172.06 C 1122.13 1216.44 1058.56 1258.48 993.489 1298.1 C 978.501 1307.36 920.344 1343.35 905.949 1344.05 C 898.025 1344.44 890.879 1338.54 885.513 1333.34 C 870.714 1319.02 846.88 1288.91 842.395 1268.44 L 840.361 1262.4 z" fill="rgb(247,206,204)" transform="translate(0,0)"></path>
<path d="M 840.361 1262.4 L 841.751 1262.28 C 877.766 1258.7 1000.99 1175.07 1035.49 1151.05 C 1048.83 1141.76 1067.85 1129.69 1081.39 1120.07 C 1116.03 1095.63 1149.36 1069.53 1182.67 1043.32 C 1204.46 1026.19 1227.71 1010.28 1248.79 992.278 C 1281.82 964.069 1312.45 932.594 1343.02 901.748 C 1345.97 898.779 1353.83 890.001 1357.44 891.767 C 1356.81 903.378 1279.22 976.142 1266.25 988.623 C 1220.05 1033.08 878.292 1285.6 842.395 1268.44 L 840.361 1262.4 z" fill="rgb(255,255,255)" transform="translate(0,0)"></path>
<path d="M 1414.13 1004.57 C 1435.92 1013.88 1481.17 1049.41 1500.45 1065.08 C 1535.39 1093.31 1568.85 1123.32 1600.71 1154.99 C 1697.93 1252.2 1817.9 1403.69 1867.83 1532.57 C 1878.08 1559.04 1878.6 1584.54 1866.88 1610.62 C 1814.24 1727.81 1632.11 1867.61 1514.54 1912.13 C 1479.91 1925.25 1438.54 1935.89 1403.14 1919.65 C 1367.2 1903.16 1322.97 1858.08 1294.69 1830.18 C 1200.16 1736.94 1114.31 1634.76 1045.19 1521.13 C 1031.39 1498.45 1017.27 1475.18 1005.38 1451.42 C 989.837 1420.35 977.099 1388.06 965.067 1355.5 L 961.139 1343.16 C 966.451 1340.22 971.905 1337.61 977.351 1334.93 C 989.026 1388.24 1017.69 1442.69 1045.1 1489.04 C 1129.64 1631.97 1239.35 1758.03 1361.43 1870.11 C 1423.52 1927.11 1456.88 1920.51 1531.37 1886.53 C 1635.24 1839.13 1724.76 1765.51 1800.97 1681.39 C 1827.56 1651.79 1860.66 1604.84 1857.19 1563.23 C 1854.08 1534.64 1834.39 1497.57 1820.37 1472.16 C 1751.69 1347.69 1648.21 1216.96 1542.43 1121.72 C 1514.06 1096.57 1484.56 1072.73 1454 1050.29 C 1440.24 1040.3 1417.77 1026.74 1405.72 1016.43 L 1404.65 1015.51 C 1407.77 1011.6 1410.79 1008.26 1414.13 1004.57 z" fill="rgb(255,255,255)" transform="translate(0,0)"></path>
<path d="M 539.526 568.387 C 531.418 557.388 524.284 544.384 517.726 532.172 C 482.159 465.942 466.218 390.29 476.975 315.205 C 486.771 246.832 525.812 168.494 580.742 125.09 C 585.94 120.983 593.181 117.029 600.04 117.907 C 610.466 119.242 621.281 130.685 626.847 139.528 C 650.677 177.385 666.334 235.448 668.964 279.914 C 670.175 300.397 668.127 331.883 667.983 353.35 C 681.813 340.907 696.411 327.454 711.569 316.303 C 775.782 269.063 850.636 239.682 931.29 243.191 C 944.759 243.778 959.494 247.039 968.83 257.224 C 982.582 272.226 980.74 304.617 978.74 324.125 C 968.729 421.749 918.911 508.529 844.816 571.199 C 761.405 641.75 683.383 667.409 577.085 681.649 C 581.906 695.474 587.955 708.785 592.944 722.526 C 669.797 934.195 631.159 1161.83 603.915 1378.76 C 598.226 1424.06 598.364 1473.07 598.097 1518.85 C 597.889 1554.74 599.447 1593.69 604.265 1629.17 C 695.803 1633.26 775.174 1658.82 850.028 1713.86 C 861.721 1722.46 876.957 1737.27 888.031 1747.42 C 902.302 1749.23 923.805 1773.93 929.94 1786.29 C 936.458 1799.44 937.411 1814.66 932.585 1828.52 C 924.186 1853.09 900.656 1871.28 877.566 1882.23 C 812.78 1912.97 730.774 1914.59 661.244 1901.45 C 648.199 1898.99 633.838 1893.8 621.426 1889.54 C 585.13 1914.05 557.774 1925.01 513.499 1929.83 C 456.027 1936.09 398.849 1929.8 348.397 1899.38 C 341.8 1895.41 325.245 1880.9 318.399 1875.34 C 308.049 1876.08 297.525 1876.59 287.041 1875.58 C 248.238 1871.86 195.714 1843.77 200.243 1798.16 C 202.283 1781.97 212.694 1766.57 225.874 1757.17 C 250.09 1739.9 272.236 1735.31 300.894 1739.56 C 379.431 1674.05 451.059 1644.93 551.314 1630.66 C 548.024 1616.76 546.592 1593.62 545.145 1579.08 C 537.728 1504.52 544.062 1431.02 550.972 1356.79 C 552.628 1339.01 556.042 1319.46 557.422 1302.19 C 454.163 1314.51 380.29 1268.32 348.954 1167.91 C 340.129 1139.64 328.699 1100.5 373.004 1098.05 C 385.67 1097.34 395.219 1096.84 407.946 1099.03 C 483.861 1112.13 541.426 1158.95 567.385 1231.2 C 571.183 1202.57 577.704 1174.2 581.449 1144.56 C 601.858 983.039 597.838 844.837 545.77 689.637 C 447.337 718.886 341.317 707.832 251.035 658.907 C 178.073 619.312 121.522 551.421 97.8326 471.733 C 94.4837 460.468 88.0593 433.141 95.4255 424.895 C 157.987 354.861 305.045 388.557 371.168 430.328 C 445.653 477.381 493.43 535.89 537.349 602.313 L 539.526 568.387 z" fill="rgb(103,73,78)" transform="translate(0,0)"></path>
<path d="M 300.894 1739.56 C 293.697 1746.49 276.902 1760.34 276.667 1769.94 C 278.506 1772.75 277.307 1771.54 281.025 1772.53 C 281.624 1772.57 285.117 1772.16 285.31 1772.01 C 297.569 1762.57 307.542 1749.92 319.742 1740.28 C 373.236 1698.03 437.458 1665.48 504.403 1651.03 C 631.13 1623.68 771.86 1658.29 868.254 1746 C 876.262 1753.26 886.327 1767.36 896.401 1766.97 C 902.774 1761.6 891.957 1751.48 888.031 1747.42 C 902.302 1749.23 923.805 1773.93 929.94 1786.29 C 936.458 1799.44 937.411 1814.66 932.585 1828.52 C 924.186 1853.09 900.656 1871.28 877.566 1882.23 C 812.78 1912.97 730.774 1914.59 661.244 1901.45 C 648.199 1898.99 633.838 1893.8 621.426 1889.54 C 585.13 1914.05 557.774 1925.01 513.499 1929.83 C 456.027 1936.09 398.849 1929.8 348.397 1899.38 C 341.8 1895.41 325.245 1880.9 318.399 1875.34 C 308.049 1876.08 297.525 1876.59 287.041 1875.58 C 248.238 1871.86 195.714 1843.77 200.243 1798.16 C 202.283 1781.97 212.694 1766.57 225.874 1757.17 C 250.09 1739.9 272.236 1735.31 300.894 1739.56 z" fill="rgb(247,206,204)" transform="translate(0,0)"></path>
<path d="M 896.427 257.409 C 909.292 255.498 941.521 256.621 952.135 264.072 C 967.269 274.696 962.393 309.343 960.202 325.587 C 952.723 382.421 931.306 436.524 897.858 483.078 C 830.291 578.763 728.218 633.979 614.987 656.046 C 603.052 658.372 591.126 660.465 579.145 662.519 C 620.21 592.589 685.805 518.005 749.561 468.703 C 775.908 448.329 805.158 431.511 831.426 410.501 C 837.143 406.021 846.909 398.229 849.207 391.798 C 859.904 361.86 827.561 362.033 809.537 370.007 C 785.742 380.534 767.101 393.304 746.739 407.7 C 660.032 469.004 602.338 550.28 561.379 646.753 C 559.723 624.621 558.583 603.512 561.93 581.451 C 586.58 418.987 733.19 273.439 896.427 257.409 z" fill="rgb(221,240,223)" transform="translate(0,0)"></path>
<path d="M 186.291 398.393 C 201.007 395.992 229.263 398.59 244.515 400.067 C 363.418 411.581 490.002 526.832 537.328 633.287 C 492.228 575.814 444.175 533.917 376.612 501.64 C 355.739 491.668 264.933 456.477 244.723 484.294 C 233.627 499.566 275.594 510.127 287.934 514.15 C 301.661 518.626 315.266 523.464 328.736 528.661 C 388.671 553.174 448.756 585.198 498.221 627.31 C 511.729 638.81 529.865 655.443 539.706 670.124 C 522.844 675.29 506.078 680.408 488.675 682.736 C 339.306 702.723 173.75 628.702 118.964 481.855 C 114.561 470.053 99.8575 438.277 110.697 427.975 C 128.953 410.624 161.759 400.991 186.291 398.393 z" fill="rgb(221,240,223)" transform="translate(0,0)"></path>
<path d="M 594.573 130.968 C 628.149 130.224 654.418 252.637 655.014 281.748 C 655.573 309.107 653.487 339.811 652.84 367.426 C 601.486 424.393 573.566 470.184 550.568 542.83 C 546.81 528.585 546.268 509.232 545.704 494.48 C 543.633 440.25 550.314 388.673 563.923 336.229 C 568.199 319.751 574.791 303.449 578.812 286.948 C 582.465 258.535 556.701 256.484 546.718 276.006 C 514.319 339.364 504.892 443.275 520.855 512.405 C 462.939 398.539 473.24 257.083 560.601 160.731 C 570.927 149.343 581.001 138.502 594.573 130.968 z" fill="rgb(170,212,187)" transform="translate(0,0)"></path>
<path d="M 367.006 1111.29 C 396.293 1109.57 415.899 1113.95 443.194 1124.76 C 502.789 1148.34 542.333 1192.59 556.317 1255.95 C 529.275 1218.05 496.807 1195.6 453.981 1177.87 C 422.574 1164.86 416.562 1189.32 440.314 1205.33 C 489.53 1233.71 509.437 1248.7 549.946 1289.69 C 471.38 1300.39 402.965 1264.46 372.008 1191.69 C 364.337 1173.65 350.116 1140.64 353.94 1120.13 C 354.747 1115.8 363.383 1112.63 367.006 1111.29 z" fill="rgb(221,240,223)" transform="translate(0,0)"></path>
<path d="M 564.887 682.638 C 571.672 686.815 583.526 728.727 586.768 737.91 C 622.525 839.188 627.523 947.716 624.153 1054.14 C 622.779 1100.42 619.569 1146.63 614.531 1192.66 C 607.191 1256.39 597.214 1320.47 591.098 1384.19 C 583.055 1468.01 585.628 1545.42 591.844 1628.96 L 576.75 1628.93 L 570.997 1628.83 C 570.387 1628.36 569.777 1627.89 569.167 1627.42 C 567.584 1619.26 565.253 1604 564.399 1596.22 C 546.534 1433.51 586.393 1270.83 605.021 1110.03 C 610.997 1058.44 613.371 997.628 612.299 946.003 C 610.862 876.855 600.502 808.972 582.99 742.206 C 577.663 721.899 570.868 703.703 565.103 683.715 C 565.031 683.356 564.959 682.997 564.887 682.638 z" fill="rgb(247,206,204)" transform="translate(0,0)"></path>
<path d="M 823.541 375.196 C 830.669 374.243 839.331 373.391 842.876 380.718 C 842.745 385.523 840.587 390.056 837.214 393.39 C 812.317 418.498 777.826 434.206 750.543 455.707 C 685.693 506.815 621.962 572.616 579.191 643.389 C 576.029 648.577 573.413 653.92 570.663 659.333 C 573.832 643.525 578.907 631.475 585.634 616.849 C 623.53 535.015 682.314 464.607 756.07 412.712 C 777.41 397.741 798.957 384.287 823.541 375.196 z" fill="rgb(170,212,187)" transform="translate(0,0)"></path>
<path d="M 268.795 482.437 C 362.326 481.226 499.755 576.115 541.257 658.251 C 537.676 654.392 533.848 649.41 530.485 645.259 C 471.003 581.897 381.149 538.059 300 510.006 C 290.714 506.796 249.846 499.674 252.058 487.037 C 256.579 482.45 262.429 482.893 268.795 482.437 z" fill="rgb(170,212,187)" transform="translate(0,0)"></path>
<path d="M 534.193 525.83 C 514.166 465.677 521.441 359.995 544.786 300.598 C 548.26 291.759 554.359 275.502 563.422 271.386 C 572.016 272.217 570.328 283.834 568.364 289.53 C 542.198 365.456 533.07 434.723 536.735 515.659 C 536.204 519.021 535.908 523.04 534.193 525.83 z" fill="rgb(170,212,187)" transform="translate(0,0)"></path>
<path d="M 437.261 1181.99 C 459.684 1183.59 501.57 1209.68 518.137 1225.14 C 533.498 1239.47 542.947 1250.37 551.016 1269.86 C 552.71 1273.94 555.5 1277.61 555.751 1281.98 L 553.987 1283.43 C 532.245 1257.54 507.127 1237.35 479.63 1217.95 C 469.154 1210.56 439.83 1197.45 434.569 1188 C 434.776 1184.32 434.707 1185.47 437.261 1181.99 z" fill="rgb(170,212,187)" transform="translate(0,0)"></path>
<path d="M 534.193 525.83 C 535.908 523.04 536.204 519.021 536.735 515.659 C 537.126 524.727 537.789 531.06 539.003 540.084 C 537.013 535.081 535.213 531.145 534.193 525.83 z" fill="rgb(221,240,223)" transform="translate(0,0)"></path>
<path d="M 1538.15 539.223 C 1587.34 534.032 1609.24 571.721 1612.48 615.402 C 1634.9 599.737 1657.93 596.767 1682.35 610.411 C 1736.19 640.502 1712.31 722.565 1656.2 732.623 C 1626.06 738.025 1606.2 732.096 1580.75 716.15 C 1573.07 733.67 1568.49 741.335 1551.62 752.14 C 1512.55 773.079 1472.79 758.157 1466.58 710.784 C 1447.78 721.569 1427.89 725.153 1407.84 714.285 C 1394.52 707.055 1384.67 694.756 1380.54 680.172 C 1376.01 663.694 1378.28 646.09 1386.85 631.303 C 1395.66 615.755 1409.69 604.168 1427.02 599.46 C 1447.81 593.812 1461.91 600.25 1479.15 610.184 C 1486.03 570.822 1498.21 549.299 1538.15 539.223 z" fill="rgb(103,73,78)" transform="translate(0,0)"></path>
<path d="M 1540.35 550.163 C 1578.37 545.704 1597.01 578.251 1600.43 611.031 C 1601.04 616.864 1599.59 635.615 1603.44 638.841 C 1607.73 638.383 1618.91 625.752 1625.8 621.954 C 1652.84 607.054 1680.76 612.541 1696.18 641.548 C 1709.62 666.839 1694.33 704.652 1668.43 716.58 C 1646.51 726.675 1620.05 724.117 1598.49 713.831 C 1592.19 710.697 1585.56 701.176 1577.66 698.334 C 1572.21 700.839 1567.88 719.25 1563.03 725.782 C 1557.74 732.901 1558.15 732.763 1551.19 738.485 C 1519.31 760.288 1480.18 750.23 1477.85 707.947 C 1477.57 702.798 1476.28 695.515 1473.97 690.959 C 1470.12 688.59 1469.04 691.153 1465.6 694.315 C 1457.31 701.952 1454.25 705.282 1442.87 707.256 C 1430.6 709.386 1420.09 708.663 1409.53 701.084 C 1370.4 671.367 1395.2 613.891 1439.57 608.656 C 1446.63 607.465 1451.93 610.536 1457.82 612.227 C 1466.9 614.834 1479.51 632.347 1487.79 631.392 C 1497.18 621.933 1479.11 563.994 1540.35 550.163 z" fill="rgb(255,255,255)" transform="translate(0,0)"></path>
<path d="M 285.84 859.447 L 290.232 860.728 C 296.029 865.948 294.162 893.967 300.764 906.919 C 314.094 933.077 327.627 935.098 355.107 939.712 C 357.436 940.103 358.672 942.755 359.417 944.485 C 357.805 949.91 326.246 952.833 312.875 965.407 C 288.813 988.034 299.567 1016.11 292.438 1025.92 C 289.344 1026.04 288.755 1025.91 285.787 1025.48 C 280.23 1020.86 281.524 1002.63 279.194 993.954 C 273.381 972.296 260.702 957.425 237.887 952.594 C 232.141 951.378 218.821 949.522 218.225 942.904 C 225.769 935.854 247.755 939.039 264.059 923.842 C 288.339 901.211 274.959 872.069 285.84 859.447 z" fill="rgb(103,73,78)" transform="translate(0,0)"></path>
<path d="M 287.264 906.694 C 288.351 908.022 292.453 915.187 293.69 917.232 C 302.81 932.31 306.954 936.523 322.365 944.559 C 302.045 959.693 299.394 961.838 289.009 984.56 C 279.385 963.036 273.806 956.958 253.057 945.5 C 270.494 935.127 279.415 925.055 287.264 906.694 z" fill="rgb(247,206,204)" transform="translate(0,0)"></path>
<path d="M 1729.92 912.136 C 1752.75 911.328 1771.96 929.095 1772.94 951.923 C 1773.91 974.751 1756.28 994.088 1733.46 995.226 C 1710.41 996.376 1690.83 978.528 1689.84 955.465 C 1688.86 932.403 1706.85 912.953 1729.92 912.136 z" fill="rgb(103,73,78)" transform="translate(0,0)"></path>
<path d="M 1726.76 924.014 C 1737.46 922.37 1748.21 926.65 1754.86 935.198 C 1761.5 943.745 1763 955.221 1758.77 965.187 C 1754.53 975.152 1745.24 982.045 1734.47 983.199 C 1718.34 984.928 1703.79 973.462 1701.69 957.377 C 1699.59 941.292 1710.73 926.477 1726.76 924.014 z" fill="rgb(255,255,255)" transform="translate(0,0)"></path>
<path d="M 318.121 161.197 C 340.864 160.453 359.952 178.188 360.877 200.925 C 361.803 223.661 344.22 242.89 321.492 243.997 C 298.506 245.117 279.011 227.29 278.075 204.296 C 277.139 181.302 295.12 161.95 318.121 161.197 z" fill="rgb(103,73,78)" transform="translate(0,0)"></path>
<path d="M 316.021 173.496 C 332.178 171.504 346.87 183.041 348.767 199.21 C 350.665 215.378 339.042 230.003 322.863 231.806 C 306.816 233.594 292.338 222.087 290.456 206.052 C 288.575 190.016 299.997 175.471 316.021 173.496 z" fill="rgb(255,255,255)" transform="translate(0,0)"></path>
<path d="M 1193.95 401.312 C 1203.04 403.878 1201.21 421.644 1204.29 430.513 C 1210.9 449.519 1217.51 454.019 1237.46 456.761 C 1242.9 457.509 1249.46 458.277 1250.97 464.279 C 1247.16 470.227 1227.08 471.735 1220.33 476.448 C 1204.52 487.49 1203.84 508.395 1200.19 525.51 C 1196.53 527.464 1196.15 527.168 1193.25 526.353 C 1188.34 520.37 1189.78 499.335 1182.72 488.468 C 1173.08 473.64 1162.4 473.666 1147.22 469.228 C 1144.63 466.387 1145.28 467.996 1145.02 464.306 C 1149.29 454.989 1169.65 458.115 1181.18 442.944 C 1193.3 426.998 1184.74 410.333 1193.95 401.312 z" fill="rgb(103,73,78)" transform="translate(0,0)"></path>
<path d="M 1195.45 434.731 C 1196.53 435.822 1196 435.14 1196.84 436.747 C 1204.99 452.465 1210.87 455.726 1226.14 462.756 C 1207.16 474.199 1202.47 479.941 1196.47 501.194 C 1190.19 479.627 1184.9 473.468 1164.69 464.353 C 1182.29 455.35 1186.92 452.826 1195.45 434.731 z" fill="rgb(247,206,204)" transform="translate(0,0)"></path>
<path d="M 231.791 1470.37 C 242.757 1472.96 239.53 1485.63 242.086 1495.85 C 247.556 1517.73 265.37 1515.71 282.286 1524.45 C 284.806 1525.76 285.353 1526.85 285.999 1529.34 C 281.377 1537.07 259.37 1538.77 250.261 1550 C 238.715 1564.25 245.478 1582.61 237.678 1590.38 C 226.845 1587.57 228.313 1580.11 227.331 1569.74 C 224.805 1543.06 204.239 1543.87 186.023 1532.63 C 183.848 1531.28 183.348 1529.5 183.118 1527.19 C 190.515 1522.49 206.469 1520.76 215.277 1513.77 C 231.802 1500.66 221.685 1481.4 231.791 1470.37 z" fill="rgb(103,73,78)" transform="translate(0,0)"></path>
<path d="M 234.355 1504.69 C 241.378 1518.39 246.997 1522.62 260.08 1529.26 C 246.446 1537.98 242.316 1540.99 234.915 1555.6 C 233.653 1554.22 230.339 1549 228.801 1547.06 C 222.251 1538.78 217.555 1535.57 208.861 1530.12 C 223.253 1522.97 227.421 1518.77 234.355 1504.69 z" fill="rgb(247,206,204)" transform="translate(0,0)"></path>
<path d="M 1099.65 621.188 C 1116.42 617.731 1132.82 628.491 1136.32 645.245 C 1139.82 662 1129.11 678.43 1112.37 681.981 C 1095.55 685.545 1079.04 674.779 1075.53 657.959 C 1072.01 641.138 1082.82 624.659 1099.65 621.188 z" fill="rgb(103,73,78)" transform="translate(0,0)"></path>
<path d="M 1102.39 632.045 C 1113.36 630.085 1123.83 637.402 1125.76 648.372 C 1127.7 659.342 1120.35 669.797 1109.38 671.703 C 1098.44 673.602 1088.03 666.29 1086.11 655.358 C 1084.18 644.426 1091.47 633.997 1102.39 632.045 z" fill="rgb(255,255,255)" transform="translate(0,0)"></path>
<metadata><recraft-signature>{"signed_by": "recraft", "signature_b64": "U349hLJB8zHMCjxuCjwI7Y4SuCAEmWYnSvHlHpP0TP8b8EOOP4uYaLqmNF1auonLVrbE26KNnGNKibjldY1RDA==", "signing_algo": "Ed25519", "generation_timestamp": 1773763949, "identifier": "8787173b-c98a-47b1-b1e7-71a16220827e"}</recraft-signature></metadata></svg>