<svg xmlns="http://www.w3.org/2000/svg" height="1024" preserveAspectRatio="none" style="display: block;" version="1.1" viewBox="0 0 2048 2048" width="1024">
<defs>
	<linearGradient gradientUnits="userSpaceOnUse" id="Gradient1" x1="1908.07" x2="1930.65" y1="647.146" y2="628.561">
		<stop class="stop0" offset="0" stop-color="rgb(180,56,79)" stop-opacity="1"></stop>
		<stop class="stop1" offset="1" stop-color="rgb(202,83,100)" stop-opacity="1"></stop>
	</linearGradient>
</defs>
<path d="M 0 0 L 2048 0 L 2048 2048 L 0 2048 L 0 0 z" fill="rgb(255,255,255)" transform="translate(0,0)"></path>
<path d="M 610.566 387.415 C 618.292 386.707 629.395 386.886 637.163 386.78 C 760.903 385.637 883.837 423.375 971.432 513.688 C 1059.52 604.506 1078.55 701.517 1078.46 823.046 C 1087.6 807.744 1095.37 790.128 1104.57 774.388 C 1130.94 729.281 1166.29 685.018 1206.02 651.118 C 1300.05 569.331 1423.01 528.781 1547.24 538.591 C 1645.46 546.471 1737.8 584.516 1802.28 659.536 C 1932.03 810.492 1895.25 1005.06 1801.24 1162.76 C 1790.24 1181.22 1780.18 1202.03 1767.81 1220.24 C 1727.89 1278.98 1683.46 1332.92 1635.84 1385.55 C 1608.23 1416.61 1579.78 1446.92 1550.54 1476.45 C 1489.19 1537.82 1416.09 1602.2 1349.54 1657.74 C 1274.28 1722.18 1194.38 1781.01 1110.5 1833.74 C 1092.18 1845.49 1061.91 1868.89 1039.23 1871.2 C 1027.96 1872.34 1001.16 1849.8 990.853 1842.19 C 891.778 1767.64 799.79 1684.11 716.055 1592.67 C 702.809 1611.91 691.359 1625.07 667.061 1629.54 C 647.447 1633.25 627.162 1628.94 610.762 1617.55 C 573.666 1591.26 570.341 1549.04 596.223 1513.37 C 559.563 1499.96 524.047 1483.61 490.021 1464.48 C 472.737 1527.44 392.611 1539.7 355.155 1487.49 C 343.907 1471.74 339.475 1452.12 342.86 1433.06 C 346.433 1412.63 359.472 1398.84 375.852 1387.5 C 291.803 1325.03 231.793 1225.83 189.482 1132.04 C 181.772 1114.95 175.734 1097.21 168.289 1080.05 C 157.706 1072.54 139.511 1065.62 144.148 1049.23 C 145.947 1042.86 148.597 1032.07 154.587 1028.5 C 155.051 1028.83 158.26 1026 158.265 1025.74 C 159.762 939.233 185.607 849.231 233.559 777.002 C 243.097 764.694 245.334 756.792 246.925 741.669 C 267.946 541.947 411.172 402.661 610.566 387.415 z" fill="rgb(126,27,42)" transform="translate(0,0)"></path>
<path d="M 626.415 426.444 C 697.622 423.101 774.568 437.731 839.446 467.247 C 971.78 527.45 1047.42 642.568 1054.51 787.097 C 1055.28 802.704 1055.69 818.722 1054.95 834.319 C 1054.61 841.557 1053.11 848.786 1053.25 856.045 C 1053.31 858.677 1053.49 861.906 1054.67 864.326 C 1055.7 866.464 1056.9 868.031 1059.2 868.866 C 1064.16 870.666 1069.98 868.925 1073.48 865.078 C 1079.73 858.199 1086.56 835.635 1091.98 825.764 C 1100.42 810.398 1110.87 795.585 1121.12 781.37 C 1133.01 764.888 1145.18 748.362 1158.69 733.154 C 1205.39 680.57 1270.62 630.033 1334.51 600.646 C 1428.52 557.404 1534.18 550.593 1631.78 586.793 C 1710.04 615.82 1777.94 673.166 1812.85 749.93 C 1851.88 835.75 1844.77 929.779 1812.55 1016.32 C 1803.96 1039.38 1794.59 1063.09 1783.84 1085.2 C 1762.35 1129.38 1734.08 1172.75 1705.88 1212.85 C 1690.05 1235.35 1672.68 1256.83 1655.71 1278.47 C 1600.59 1349.33 1541.42 1416.94 1478.49 1480.97 C 1379.25 1583.45 1277.22 1678.98 1162.02 1763.68 C 1127.3 1789.21 1081.09 1822.88 1042.3 1840.68 C 1020.68 1829.28 999.929 1813.51 980.23 1799.26 C 948.541 1776.33 919.371 1752.57 889.958 1726.83 C 878.068 1716.43 851.725 1695.82 844.039 1682.63 C 899.96 1710.26 962.483 1715.09 1022.39 1698.82 C 1093.24 1679.59 1179.09 1627.81 1216.74 1563.54 C 1243.66 1571.22 1264.74 1571.63 1291.36 1560.76 C 1316.55 1550.73 1336.55 1530.84 1346.74 1505.71 C 1368.39 1452.65 1342.11 1400.39 1290.27 1379.18 C 1304.26 1340.48 1316.86 1302.5 1333.21 1264.52 C 1342.76 1242.34 1352.66 1222.08 1363.24 1200.37 C 1405.3 1210.54 1440.77 1204.85 1478.86 1184.06 C 1486.22 1180.05 1496.42 1172.12 1503.61 1170.45 C 1505.88 1169.93 1505.46 1170.73 1508.36 1168.96 C 1510.88 1164.95 1510.78 1163.7 1511.62 1158.89 C 1565.93 1120.9 1662.8 1043.65 1690.4 984.616 C 1700.96 962.03 1704.01 935.912 1695.3 912.181 C 1690.44 898.92 1680.98 885.19 1667.87 879.17 L 1668.35 877.41 C 1677.63 842.659 1655.05 834.075 1626.34 826.048 C 1597.92 818.104 1586.45 832.039 1581.4 857.379 C 1586.35 873.265 1593.83 877.997 1606.62 887.611 C 1611.16 890.676 1623.65 898.593 1628.12 898.797 C 1649.64 899.779 1660.06 903.244 1666.07 928.329 C 1671.5 954.625 1654.56 986.973 1636.79 1005.77 C 1593.33 1051.74 1542.73 1095.27 1491.68 1132.6 C 1486.49 1136.79 1482.38 1131.01 1477.32 1133.79 C 1450.37 1148.6 1420.31 1163.64 1388.59 1158.34 C 1384.74 1158.64 1382.8 1149.41 1379.1 1148.8 C 1328 1140.46 1296.34 1099.24 1285.09 1050.73 C 1282.64 1040.17 1294.08 1034.5 1278.29 1025.61 L 1277.17 1024.99 C 1276.81 1010.17 1274.85 994.255 1274.31 979.207 C 1272.25 918.798 1267.82 857.792 1283 798.6 C 1293.29 758.422 1302.02 752.824 1342.54 749.077 C 1343.14 750.447 1343.79 751.797 1344.48 753.126 C 1354.87 773.349 1394.97 775.479 1413.56 766.018 C 1422.53 761.452 1425.85 755.185 1428.53 745.903 C 1423.38 717.627 1399.17 708.483 1372.78 705.607 C 1362.22 704.455 1353.21 711.213 1346.03 718.343 C 1338.69 718.489 1331.34 718.598 1324.04 719.326 C 1302.45 721.481 1282.48 730.415 1268.63 747.479 C 1225.91 800.115 1239.06 965.004 1245.68 1029.84 C 1242.12 1033.05 1238.97 1035.27 1239.35 1040.48 C 1243.95 1048.04 1244.09 1047.99 1245.75 1056.94 C 1255.19 1107.94 1279.15 1156.06 1327.19 1180.27 C 1298.19 1242.32 1273.5 1306.3 1253.31 1371.75 C 1224.13 1372.33 1205.31 1378.18 1183.36 1398.12 C 1152.61 1426.07 1143.97 1468.12 1159 1506.47 C 1165.13 1522.12 1172.97 1531.01 1184.3 1543.11 C 1158.35 1581.28 1121.66 1606.25 1082.41 1628.56 C 1005.4 1672.35 908.954 1681.31 832.205 1632.02 C 797.975 1610.04 772.568 1585.2 753.308 1549.16 C 781.553 1552.42 802.895 1553.97 830.759 1555.15 C 897.388 1557.98 958.508 1528.27 1005.74 1482.1 C 1061.41 1427.69 1107.41 1331.37 1108.04 1252.51 C 1113.49 1246.59 1116.89 1242.44 1120.48 1235.34 C 1124.35 1227.71 1124.47 1215.39 1120.82 1208.01 C 1094.63 1155.1 973.32 1086.54 922.655 1064.98 C 928.731 1050.23 933.012 1038.67 934.458 1022.67 C 939.161 970.627 922.398 946.141 892.054 908.207 C 919.921 806.158 936.975 693.72 865.656 605.26 C 782.871 502.577 673.552 541.05 569.937 575.881 C 467.411 610.347 357.164 641.349 278.304 719.748 C 285.967 698.455 291.228 676.381 298.568 655.051 C 338.746 538.289 444.477 465.465 559.908 434.663 C 580.216 429.243 605.379 427.199 626.415 426.444 z" fill="rgb(255,255,255)" transform="translate(0,0)"></path>
<path d="M 714.576 841.42 C 716.514 841.306 718.452 841.212 720.392 841.138 C 784.429 838.779 824.774 864.276 871.047 905.686 C 927.682 956.369 945.604 1029.18 889.479 1089.18 C 841.653 1140.31 767.29 1159.92 697.861 1161.37 C 626.449 1161.46 560.326 1143.81 495.944 1113.4 C 490.088 1110.64 488.407 1091.44 488.1 1085.45 C 481.259 951.939 584.793 851.712 714.576 841.42 z" fill="rgb(255,255,255)" transform="translate(0,0)"></path>
<path d="M 637.37 1043.52 C 651.351 1041.16 665.517 1046.55 674.384 1057.61 C 683.251 1068.68 685.427 1083.68 680.07 1096.81 C 674.713 1109.94 662.663 1119.14 648.586 1120.84 C 627.519 1123.39 608.267 1108.66 605.22 1087.66 C 602.174 1066.66 616.446 1047.06 637.37 1043.52 z" fill="rgb(244,175,171)" transform="translate(0,0)"></path>
<path d="M 876.191 967.643 C 892.208 965.209 907.233 976.027 910.005 991.989 C 912.777 1007.95 902.279 1023.2 886.378 1026.31 C 875.79 1028.38 864.909 1024.56 857.937 1016.33 C 850.965 1008.09 848.992 996.732 852.78 986.63 C 856.568 976.527 865.524 969.263 876.191 967.643 z" fill="rgb(244,175,171)" transform="translate(0,0)"></path>
<path d="M 588.374 1006.88 C 590.772 1009.37 591.068 1010.37 594.071 1011.38 C 591.472 1003.42 583.641 989.004 593.043 981.634 C 598.637 984.316 598.407 1014.3 625.089 1013.88 C 651.092 1013.48 637.992 981.318 647.036 977.554 C 656.884 981.216 657.167 1001.11 653.891 1009.61 C 646.2 1029.59 619.856 1037.82 601.017 1029.46 C 591.664 1025.3 587.39 1018.41 582.259 1010.08 C 584.66 1007.86 585.178 1008.07 588.374 1006.88 z" fill="rgb(126,27,42)" transform="translate(0,0)"></path>
<path d="M 824.298 898.503 C 834.959 899.04 843.862 922.225 846.207 931.433 C 847.367 927.533 847.499 926.1 849.919 922.971 L 851.112 923.475 C 852.322 930.019 846.567 944.375 842.809 949.747 C 838.778 955.53 832.499 959.348 825.51 960.266 C 814.928 961.717 805.048 956.922 796.936 950.586 C 795.867 949.552 794.826 948.49 793.815 947.399 C 788.306 941.404 781.524 930.226 781.827 921.851 C 787.92 913.243 795.523 929.736 797.336 933.639 C 800.551 940.563 807.447 948.99 816.226 946.954 C 830.75 943.585 836.642 929.512 831.691 915.945 C 829.404 909.746 825.952 905.038 824.298 898.503 z" fill="rgb(126,27,42)" transform="translate(0,0)"></path>
<path d="M 806.71 1007.46 C 809.714 1007.67 810.97 1007.45 813.319 1009.31 C 824.306 1027.41 791.501 1093.56 743.411 1049.17 C 740.151 1045.6 735.343 1037.25 741.092 1034.01 C 751.727 1035.34 753.681 1045.47 763.523 1049.17 C 770.171 1051.67 778.956 1053.83 785.545 1050.26 C 801.894 1041.43 801.802 1022.57 806.361 1008.51 L 806.71 1007.46 z" fill="rgb(126,27,42)" transform="translate(0,0)"></path>
<path d="M 582.259 1010.08 C 579.282 1005.8 571.475 997.061 574.455 992.356 C 580.453 992.984 585.182 1002.13 588.374 1006.88 C 585.178 1008.07 584.66 1007.86 582.259 1010.08 z" fill="rgb(126,27,42)" transform="translate(0,0)"></path>
<path d="M 594.583 952.416 C 603.247 954.021 601.945 960.358 598.688 966.315 C 591.085 963.976 592 958.18 594.583 952.416 z" fill="rgb(126,27,42)" transform="translate(0,0)"></path>
<path d="M 713.718 587.396 C 724.436 585.456 747.649 586.925 758.668 588.738 C 789.797 593.858 817.365 615.029 834.703 641.179 C 885.043 717.103 870.425 793.858 855.226 875.284 C 835.472 859.376 821.337 851.394 798.512 840.962 C 814.962 825.702 834.825 796.824 824.161 772.921 C 819.806 763.159 807.969 761.019 799.144 766.653 C 783.642 776.55 779.236 796.95 774.554 813.584 L 774.517 812.663 C 773.784 797.517 770.035 776.384 758.023 766.597 C 738.346 750.565 716.465 772.644 720.71 794.412 C 724.212 812.377 736.954 819.377 750.234 828.996 C 701.703 822.258 646.785 838.256 603.913 860.209 C 529.314 902.596 478.274 975.174 474.822 1062.33 C 459.651 1055.31 449.932 1057.01 439.791 1070.11 C 439.864 949.009 485.433 777.163 559.896 679.844 C 598.519 629.367 649.629 595.362 713.718 587.396 z" fill="rgb(219,98,97)" transform="translate(0,0)"></path>
<path d="M 807.39 1270.38 C 824.278 1272.55 852.129 1278.9 869.993 1281.89 C 919.544 1290.17 955.981 1291.33 1005.66 1288.94 C 983.958 1297.02 958.449 1303.8 935.845 1310.58 C 902.06 1320.98 868.201 1331.14 834.27 1341.05 C 801.741 1315.75 752.365 1327.12 724.573 1353.99 C 714.765 1363.47 708.572 1373.85 701.492 1385.32 C 678.401 1394.32 640.234 1404.5 615.13 1412.09 C 587.036 1420.66 556.337 1430.55 528.073 1437.97 C 500.847 1424.82 452.515 1393.87 427.732 1376.87 C 438.986 1374.88 458.582 1369.19 470.078 1366.22 C 499.528 1358.68 528.898 1350.83 558.182 1342.66 C 641.695 1320.13 724.779 1296.02 807.39 1270.38 z" fill="rgb(242,143,139)" transform="translate(0,0)"></path>
<path d="M 594.624 581.003 C 595.18 580.983 595.692 581.314 596.214 581.505 C 592.206 585.91 569.08 603.715 561.729 610.224 C 437.794 719.974 393.236 914.18 384.623 1073.35 L 379.688 1055.75 C 375.012 1038.34 370.206 1020.36 367.056 1002.62 C 350.326 903.71 356.933 802.261 386.349 706.358 C 391.405 690.048 401.745 660.164 411.193 646.605 C 465.431 621.893 537.264 598.387 594.624 581.003 z" fill="rgb(242,143,139)" transform="translate(0,0)"></path>
<path d="M 161.222 1035.36 C 173.162 1040.01 185.679 1048.5 197.641 1053.9 C 278.54 1090.38 365.294 1112.55 449.896 1138.71 C 476.971 1147.08 503.632 1155.86 530.805 1163.68 C 601.737 1183.9 673.194 1202.24 745.101 1218.67 C 797.392 1230.87 849.785 1243.73 903.186 1250.07 C 940.182 1254.46 976.539 1255 1013.51 1250.13 C 1033.72 1247.47 1078.25 1240.04 1090.55 1222.74 C 1092.43 1220.1 1093.01 1217.65 1092.27 1214.43 C 1085.47 1184.76 934.597 1109.85 903.677 1093.02 C 908.081 1087.34 912.449 1081.65 916.782 1075.92 C 925.26 1079.32 931.279 1082.07 939.434 1086.19 C 966.694 1099.61 1009.94 1125.08 1035.45 1142.64 C 1054.72 1157.35 1108.26 1193.52 1111.05 1218.04 C 1115.59 1257.93 1030.37 1275.12 1003.82 1276.47 C 958.95 1278.76 915.27 1275.97 871.861 1268.52 C 772.101 1251.41 674.65 1227.42 577.284 1200.32 C 472.503 1171.41 367.472 1141.93 265.489 1104.19 C 234.631 1092.78 178.619 1074.89 153.723 1053.86 C 155.7 1045.96 157.594 1042.47 161.222 1035.36 z" fill="rgb(244,175,171)" transform="translate(0,0)"></path>
<path d="M 626.692 1229.11 C 633.884 1227.87 690.866 1244.26 702.891 1246.98 C 732.369 1253.67 762.895 1260.19 792.495 1266.68 C 780.375 1271.4 764.392 1275.53 751.654 1279.14 L 687.641 1297.25 C 625.201 1314.9 560.417 1333.91 497.537 1349.63 C 474.55 1356.62 442.807 1363.83 419.252 1368.99 C 393.319 1349.83 372.879 1331.26 349.821 1308.72 C 374.031 1301.44 402.64 1294.6 427.355 1288.13 C 452.899 1281.32 478.364 1274.21 503.745 1266.81 C 527.329 1260.24 550.807 1253.29 574.172 1245.98 C 591.551 1240.45 609.206 1233.9 626.692 1229.11 z" fill="rgb(242,143,139)" transform="translate(0,0)"></path>
<path d="M 721.325 551.412 C 787.292 550.367 836.828 578.071 870.754 634.579 C 918.535 714.164 903.733 813.206 881.599 898.382 L 866.468 884.652 C 868.411 872.245 871.521 859.261 873.824 846.696 C 882.799 797.737 887.178 747.273 875.148 698.35 C 864.822 656.356 837.063 613.046 799.56 590.487 C 764.473 569.375 721.5 570.047 683.014 580.051 C 606.032 600.062 557.91 653.363 519.388 719.084 C 454.86 833.849 417.253 987.969 429.845 1119.57 L 397.838 1109.31 C 397.266 963.344 436.224 771.197 533.694 657.655 C 584.521 598.447 640.855 557.329 721.325 551.412 z" fill="rgb(244,175,171)" transform="translate(0,0)"></path>
<path d="M 1239.21 1382.65 C 1287.28 1375.05 1332.45 1407.71 1340.3 1455.74 C 1348.15 1503.77 1315.72 1549.11 1267.73 1557.2 C 1219.4 1565.35 1173.66 1532.63 1165.75 1484.26 C 1157.85 1435.89 1190.8 1390.31 1239.21 1382.65 z" fill="rgb(255,255,255)" transform="translate(0,0)"></path>
<path d="M 1248.62 1411.46 C 1281.08 1408.65 1309.66 1432.72 1312.41 1465.19 C 1315.15 1497.66 1291.03 1526.19 1258.56 1528.88 C 1226.17 1531.55 1197.73 1507.51 1194.99 1475.13 C 1192.25 1442.75 1216.24 1414.26 1248.62 1411.46 z" fill="rgb(126,27,42)" transform="translate(0,0)"></path>
<path d="M 1250.67 1423 C 1276.87 1421.2 1299.54 1441.08 1301.17 1467.3 C 1302.8 1493.52 1282.77 1516.06 1256.55 1517.52 C 1230.55 1518.97 1208.27 1499.17 1206.65 1473.18 C 1205.03 1447.2 1224.69 1424.79 1250.67 1423 z" fill="rgb(244,175,171)" transform="translate(0,0)"></path>
<path d="M 876.116 1118.05 C 941.319 1138.72 990.307 1185.71 1036.13 1234.15 C 943.877 1247.84 872.567 1235.15 782.221 1214.32 C 689.518 1192.95 598.002 1169.58 506.8 1142.3 C 500.07 1140.34 492.05 1137.72 485.271 1136.3 C 488.293 1130 488.041 1130.09 494.392 1128.38 C 500.891 1129.19 514.695 1135.54 521.219 1138.27 C 627.358 1182.57 768.542 1193.9 867.437 1124.31 C 870.357 1122.26 873.251 1120.18 876.116 1118.05 z" fill="rgb(244,175,171)" transform="translate(0,0)"></path>
<path d="M 449.376 1178.93 C 455.183 1178.6 505.169 1194.56 514.086 1197.04 L 613.262 1223.84 C 590.833 1232.39 561.357 1240.52 538.143 1247.39 C 501.247 1258.49 464.139 1268.88 426.842 1278.55 L 341.912 1300.45 C 319.052 1277.86 300.005 1253.35 282.325 1226.62 C 321.42 1217.62 360.194 1207.27 398.577 1195.6 C 414.133 1190.86 434.819 1185.02 449.376 1178.93 z" fill="rgb(242,143,139)" transform="translate(0,0)"></path>
<path d="M 390.639 657.077 L 391.032 657.304 C 391.026 661.158 382.49 678.319 380.612 683.522 C 344.32 784.079 335.858 896.885 353.993 1002.09 C 358.058 1025.67 365.73 1050.07 371.813 1073.45 C 363.486 1062.16 352.76 1042.86 345.689 1030.64 C 302.167 953.823 268.306 830.543 275.276 742.286 C 292.238 713.86 359.306 672.707 390.639 657.077 z" fill="rgb(242,143,139)" transform="translate(0,0)"></path>
<path d="M 781.519 1339.33 C 799.102 1337.77 813.703 1340.3 827.168 1352.81 C 835.129 1360.21 840.409 1369.66 840.378 1380.71 C 840.401 1388.4 837.186 1395.74 831.521 1400.93 C 824.55 1407.27 817.502 1408.95 809.385 1412.06 C 780.236 1423.25 765.169 1422.73 734.842 1420.68 C 741.207 1402.5 751.095 1385.97 767.812 1375.51 C 777.571 1369.46 796.912 1365.61 803.442 1378.09 C 810.022 1390.66 795.186 1395.54 786.814 1399.94 C 784.422 1401.2 783.528 1402.87 782.89 1405.44 C 787.829 1416.3 828.29 1397.42 816.623 1375.29 C 804.967 1353.19 783.176 1356.2 764.211 1365.1 C 741.959 1376.01 728.534 1399.5 720.973 1422.23 C 708.439 1459.9 717.253 1507.76 734.915 1542.36 C 801.125 1672.07 946.898 1710.66 1074.2 1645.92 C 1117.7 1622.87 1166.24 1592.31 1192.28 1549.57 C 1196.68 1552.69 1201.58 1555.86 1206.08 1558.9 C 1166.12 1625.67 1069.25 1679.47 993.547 1693.23 C 969.715 1697.65 945.316 1698.1 921.336 1694.57 C 883.957 1689.37 828.772 1668.05 797.253 1646.35 C 748.934 1612.14 708.439 1548.1 698.354 1489.59 C 688.072 1429.94 713.979 1349.73 781.519 1339.33 z" fill="rgb(242,143,139)" transform="translate(0,0)"></path>
<path d="M 1067.65 1276.15 L 1068.39 1276.89 C 1067.34 1299.42 1045.27 1352.82 1036.02 1373.57 C 1024.55 1376.03 1007.98 1381.59 996.332 1385.08 C 975.325 1391.36 954.266 1397.48 933.158 1403.42 C 865.153 1422.93 796.947 1441.73 728.55 1459.81 C 728.741 1455.58 729.084 1451.97 729.543 1447.76 L 731.684 1432.88 C 732.036 1432.94 732.387 1433.01 732.739 1433.08 C 764.837 1437.48 783.568 1436.92 813.086 1424.03 C 821.524 1420.64 830.424 1418.09 837.869 1412.62 C 862.969 1394.2 857.451 1368.66 840.869 1347.04 C 849.035 1345.13 856.95 1342.71 865.006 1340.43 C 933.596 1321.04 1000.73 1300.72 1067.65 1276.15 z" fill="rgb(242,143,139)" transform="translate(0,0)"></path>
<path d="M 1028.7 1383.15 L 1029.58 1383.9 C 1028.98 1387.75 1023.99 1395.54 1021.77 1399.06 C 1003.44 1428.02 985.582 1449.32 958.423 1470.44 C 882.808 1529.26 825.376 1519.2 738.773 1507.67 C 737.355 1507.75 737.04 1507.49 735.597 1507.12 C 731.486 1500.28 729.33 1476.99 728.56 1468.55 C 768.082 1456.75 808.846 1446.73 848.724 1436.07 C 875.737 1428.66 902.669 1420.96 929.516 1412.97 C 963.474 1403.2 995.071 1394.33 1028.7 1383.15 z" fill="rgb(242,143,139)" transform="translate(0,0)"></path>
<path d="M 259.633 761.715 C 261.902 763.904 260.92 774.885 260.968 778.766 C 261.278 804.079 264.877 831.073 270.066 855.799 C 286.745 935.274 324.828 1041.67 380.391 1102.39 C 366.442 1093.28 350.908 1080.3 337.647 1069.7 C 294.917 1037.47 247.063 999.72 212.492 958.529 C 202.733 946.9 194.751 933.737 186.4 921.075 C 194.237 871.062 227.702 800.73 259.633 761.715 z" fill="rgb(242,143,139)" transform="translate(0,0)"></path>
<path d="M 182.748 1086.66 L 201.56 1095.19 C 213.819 1133.71 242.017 1180.55 262.376 1215.93 C 328.213 1329.79 441.857 1407.52 557.388 1464.83 C 601.951 1486.94 641.963 1496.82 689.684 1508.58 C 691.237 1514.43 693.368 1520.63 695.239 1526.44 C 683.85 1523.89 672.224 1520.37 661.001 1518.04 C 564.347 1497.99 481.225 1447.87 401.381 1391.51 C 327.014 1339.02 269.9 1265.44 229.061 1184.47 C 213.099 1152.82 195.873 1119.73 182.748 1086.66 z" fill="rgb(242,143,139)" transform="translate(0,0)"></path>
<path d="M 315.749 1137.09 C 324.372 1137.42 356.866 1149.52 367.138 1152.8 C 390.499 1160.24 413.42 1168.26 437.275 1174.67 C 416.128 1182.53 368.335 1195.24 346.487 1200.66 C 323.678 1207.43 300.644 1213.41 277.427 1218.6 C 266.302 1199.76 253.147 1178 243.533 1158.53 C 267.427 1150.99 291.871 1145.75 315.749 1137.09 z" fill="rgb(242,143,139)" transform="translate(0,0)"></path>
<path d="M 1095.01 1262.21 C 1095.83 1267.31 1093.33 1284.68 1092.4 1290.24 C 1079.19 1369.14 1029.8 1454.83 964.233 1501.38 C 911.149 1539.07 861.075 1548.73 797.681 1541.87 C 782.264 1540.21 765.95 1539.39 750.518 1536.79 C 745.962 1536.02 745.913 1535.48 743.661 1532.28 L 737.955 1518.27 C 740.362 1518.73 742.777 1519.15 745.199 1519.53 C 826.777 1532.13 890.028 1534.96 959.308 1483.69 C 982.866 1466.24 1003.66 1445.35 1020.98 1421.7 C 1049.75 1382.23 1075.53 1318.14 1082.71 1269.85 C 1086.89 1267.48 1090.95 1264.8 1095.01 1262.21 z" fill="rgb(242,143,139)" transform="translate(0,0)"></path>
<path d="M 181.307 935.495 C 182.55 936.563 182.157 936.06 183.037 937.483 C 214.678 988.665 264.074 1026.82 310.081 1064.36 C 321.784 1073.91 338.128 1084.56 348.857 1094.2 C 347.325 1094.85 345.508 1093.78 343.418 1093.12 C 292.109 1077.3 214.05 1052.28 171.355 1024.14 C 173.421 989.552 175.597 969.669 181.307 935.495 z" fill="rgb(242,143,139)" transform="translate(0,0)"></path>
<path d="M 692.613 1396.95 C 693.731 1396.91 694.26 1397.15 695.387 1397.41 C 696.087 1402.08 688.243 1418.7 686.947 1425.77 C 683.901 1442.41 683.106 1456.59 683.272 1473.44 C 670.714 1475.66 648.337 1479.69 636.784 1483.16 C 612.164 1475.8 596.567 1469.43 572.747 1459.37 C 561.656 1454.24 552.025 1449.64 541.244 1443.89 C 587.359 1430.67 648.2 1412.82 692.613 1396.95 z" fill="rgb(242,143,139)" transform="translate(0,0)"></path>
<path d="M 1660.94 886.956 C 1677.08 896.066 1686.42 912.981 1688.77 931 C 1692.73 961.347 1679.93 986.859 1661.82 1010.39 C 1650.46 1024.84 1638.15 1038.53 1624.97 1051.34 C 1610.45 1065.57 1514.85 1150.39 1500.41 1152.32 C 1497.39 1150.19 1494.43 1147.63 1491.57 1145.27 C 1539.15 1116.03 1586.21 1069.38 1627.27 1031.94 C 1659.54 1002.52 1693.24 953.227 1671.01 909.181 C 1667.99 903.188 1657.08 895.877 1657.13 890.421 L 1660.94 886.956 z" fill="rgb(255,255,255)" transform="translate(0,0)"></path>
<path d="M 1353.02 1152.08 C 1359.08 1154.25 1365.95 1156.11 1372.19 1157.93 C 1337.01 1221.45 1302.04 1305.32 1280.14 1374.32 C 1276.73 1375.77 1268.37 1373.35 1264.2 1372.5 C 1277.39 1334.59 1291.54 1291.57 1306.75 1254.65 C 1320.49 1221.29 1338.11 1185.51 1353.02 1152.08 z" fill="rgb(242,143,139)" transform="translate(0,0)"></path>
<path d="M 384.925 1395.68 C 388.771 1396.22 395.091 1401.99 398.467 1404.66 C 354.166 1428.11 363.52 1487.72 414.317 1493.04 C 443.93 1496.15 459.907 1474.71 461.629 1446.19 C 466.646 1449.27 474.984 1452.85 478.502 1457.49 C 479.396 1458.67 478.581 1460.7 478.242 1462.52 C 468.191 1496.77 437.312 1514.2 402.58 1506.73 C 370.007 1499.72 346.517 1464.15 354.922 1431.48 C 359.32 1414.38 370.443 1404.35 384.925 1395.68 z" fill="rgb(242,143,139)" transform="translate(0,0)"></path>
<path d="M 1333.35 729.366 C 1336.68 729.004 1339.35 728.297 1342.34 729.578 C 1344.14 733.22 1343.27 734.112 1342.93 738.909 C 1340.85 738.887 1338.78 738.912 1336.71 738.983 C 1320.45 739.575 1301.05 742.577 1289.67 755.331 C 1249.8 800.007 1262.19 964.794 1265.28 1026.56 C 1262.35 1027.38 1259.91 1028.5 1257.13 1027.65 C 1256.52 1026.8 1256.32 1026.63 1255.98 1025.49 C 1254.25 1019.67 1254.01 998.209 1253.4 990.39 C 1248.98 934.044 1242.77 798.73 1277.5 754.594 C 1291.42 736.894 1312.14 732.176 1333.35 729.366 z" fill="rgb(255,255,255)" transform="translate(0,0)"></path>
<path d="M 406.914 1413.91 C 412.781 1413.68 443.51 1433.59 450.197 1437.64 C 454.017 1460.06 447.907 1472.06 426.571 1480.73 C 418.063 1481.58 411.942 1481.97 403.684 1478.68 C 394.569 1475.14 387.265 1468.07 383.421 1459.08 C 380.016 1450.97 379.992 1441.83 383.354 1433.7 C 388.258 1422.13 396.23 1418.14 406.914 1413.91 z" fill="rgb(255,255,255)" transform="translate(0,0)"></path>
<path d="M 606.619 1516.44 C 612.774 1518.44 619.065 1519.99 625.329 1521.62 C 619.42 1527.76 614.852 1532.73 610.995 1540.43 C 600.307 1561.78 609.714 1588.96 631.618 1598.9 C 643.176 1604.04 656.333 1604.22 668.026 1599.4 C 695.862 1587.88 701.785 1562.84 689.282 1537.15 C 699.022 1540.16 698.73 1535.33 703.723 1545.37 C 711.734 1561.26 712.917 1571.79 704.701 1587.79 C 678.98 1637.89 605.862 1622.46 592.649 1571.79 C 587.375 1551.56 596.251 1533.08 606.619 1516.44 z" fill="rgb(242,143,139)" transform="translate(0,0)"></path>
<path d="M 642.987 1528.12 C 687.066 1522.76 701.404 1575.95 658.887 1590.95 C 649.242 1592.52 641.04 1592.03 632.378 1586.93 C 625.021 1582.58 619.755 1575.42 617.796 1567.1 C 615.806 1558.67 617.264 1549.79 621.848 1542.44 C 627.089 1534.14 633.785 1530.35 642.987 1528.12 z" fill="rgb(255,255,255)" transform="translate(0,0)"></path>
<path d="M 1268.82 1037.43 C 1271.6 1037.05 1274.72 1037.02 1276.77 1039.05 L 1274.53 1040.94 C 1273.4 1044.72 1273.69 1049.5 1274.63 1053.27 C 1286.24 1099.85 1303.63 1122.95 1341.87 1149.41 C 1339.85 1154.15 1335.6 1165.48 1332.32 1168.65 L 1329.71 1168.52 C 1258.7 1134.8 1266.44 1054.77 1249.28 1039.97 C 1256 1038.75 1262.05 1038.14 1268.82 1037.43 z" fill="rgb(255,255,255)" transform="translate(0,0)"></path>
<path d="M 892.813 1103.26 C 917.075 1111.45 1077.79 1198.27 1076.4 1217.33 C 1074.04 1220.92 1072.4 1221.43 1068.54 1223.68 C 1062.58 1226.26 1055.74 1228.42 1049.52 1230.53 C 1013.82 1184.01 959.977 1140.9 907.248 1116.66 C 902.381 1114.43 891.258 1111.72 889.992 1106.7 L 892.813 1103.26 z" fill="rgb(244,175,171)" transform="translate(0,0)"></path>
<path d="M 1476.97 1147.99 C 1483.09 1152.93 1487.66 1156.6 1494.21 1160.88 C 1462.47 1182.45 1424.72 1197.39 1385.76 1193.58 C 1378.72 1192.94 1374.69 1192.21 1367.74 1190.76 C 1372.16 1182.44 1375.45 1176.07 1379.16 1167.35 C 1414.02 1177.09 1446.38 1162.13 1476.97 1147.99 z" fill="rgb(255,255,255)" transform="translate(0,0)"></path>
<path d="M 1611.4 834.223 C 1641.84 836.564 1686.62 862.128 1641.99 886.876 C 1626.59 891.716 1600.7 874.36 1595.19 860.045 C 1590.49 847.827 1599.67 837.551 1611.4 834.223 z" fill="rgb(242,143,139)" transform="translate(0,0)"></path>
<path d="M 1367.99 717.023 C 1390.41 716.56 1442.69 743.69 1402.51 758.091 C 1392.17 759.882 1375.57 759.692 1365.7 756.335 C 1346.71 749.875 1351.85 724.848 1367.99 717.023 z" fill="rgb(242,143,139)" transform="translate(0,0)"></path>
<path d="M 215.892 1099.73 C 244.711 1111.82 275.281 1120.28 304.407 1131.94 C 299.957 1133.39 295.421 1134.77 290.95 1136.17 L 239.141 1150.05 C 230.72 1134.13 223.142 1116.3 215.892 1099.73 z" fill="rgb(242,143,139)" transform="translate(0,0)"></path>
<path d="M 441.886 1095.71 C 455.603 1104.77 462.997 1105.15 478.527 1105.11 C 479.214 1110.03 482.72 1122.48 486.146 1126.56 C 488.218 1129.03 490.793 1128.29 494.392 1128.38 C 488.041 1130.09 488.293 1130 485.271 1136.3 C 470.822 1132.18 456.416 1127.91 442.056 1123.49 L 441.886 1095.71 z" fill="rgb(219,98,97)" transform="translate(0,0)"></path>
<path d="M 742.033 775.771 C 756.106 776.127 758.196 792.15 761.52 803.238 C 762.68 807.109 767.1 825.011 765.914 826.988 L 762.413 824.599 C 747.947 812.428 719.355 794.218 742.033 775.771 z" fill="rgb(219,98,97)" transform="translate(0,0)"></path>
<path d="M 807.733 776.348 C 827.135 786.5 795.661 825.301 787.368 834.4 C 785.919 835.474 786.735 835.255 784.91 835.017 C 783.693 829.869 790.542 813.243 792.083 806.932 C 795.054 794.767 797.794 784.645 807.733 776.348 z" fill="rgb(219,98,97)" transform="translate(0,0)"></path>
<path d="M 454.236 1072.16 C 465.666 1070.81 480.014 1077.65 475.238 1090.2 L 472.909 1091.22 C 464.713 1089.86 450.498 1089.27 449.236 1079.65 C 450.467 1075.57 451.096 1075.3 454.236 1072.16 z" fill="rgb(219,98,97)" transform="translate(0,0)"></path>
<path d="M 683.095 1480.25 C 684.692 1482.04 685.806 1491.86 686.279 1495.04 C 680.058 1493.16 673.684 1491.7 667.365 1490.16 L 658.731 1488.31 C 666.934 1485.12 674.71 1482.81 683.095 1480.25 z" fill="rgb(242,143,139)" transform="translate(0,0)"></path>
<path d="M 980.093 110.353 C 984.061 110.047 988.051 110.172 991.992 110.726 C 1046.06 118.669 1062.86 192.437 1055.54 237.867 C 1065.86 221.631 1075.94 206.86 1091.16 194.066 C 1115.79 173.359 1158.94 158.407 1183.54 187.657 C 1190.64 196.089 1193.12 209.685 1191.53 220.583 C 1186.2 256.858 1155.21 283.446 1128.01 304.745 C 1082.75 341.875 1037.16 357.928 985.381 380.418 C 955.256 335.9 930.673 281.584 923.653 228.059 C 917.884 184.081 924.907 116.989 980.093 110.353 z" fill="rgb(242,143,139)" transform="translate(0,0)"></path>
<path d="M 1564.29 1694.29 C 1614.17 1690.86 1622.66 1750.97 1615.44 1787.57 C 1613.51 1797.35 1609.65 1806.74 1607.53 1816.42 L 1607.36 1817.22 C 1613.17 1809.36 1621.86 1800.97 1630.08 1795.31 C 1650.27 1781.76 1676.55 1766.15 1701.87 1769.9 C 1722.49 1772.95 1735.61 1792.13 1730.28 1812.41 C 1723.79 1837.08 1701.35 1856.01 1680.56 1869.02 C 1631.31 1898.46 1588.19 1907.7 1532.47 1914.49 C 1517.99 1891.66 1507.42 1854.91 1502.63 1828.95 C 1494.18 1783.17 1507.7 1702.86 1564.29 1694.29 z" fill="rgb(242,143,139)" transform="translate(0,0)"></path>
<path d="M 339.611 1633.39 C 395.502 1635.92 379.317 1734.85 371.926 1769.98 C 366.231 1797.03 359.749 1818.1 350.326 1844.02 C 310.813 1835.69 265.944 1820.6 232.557 1797.86 C 226.57 1793.64 221.454 1789.87 216.001 1784.92 C 198.518 1769.1 183.145 1750.66 181.941 1726.12 C 180.695 1700.73 195.342 1683.54 220.986 1682.6 C 249.828 1681.53 275.104 1702.03 295.108 1720.3 C 293.864 1685.57 294.892 1637.95 339.611 1633.39 z" fill="rgb(242,143,139)" transform="translate(0,0)"></path>
<path d="M 515.291 1749.12 C 522.857 1751.22 527.769 1767.9 531.931 1775.37 C 539.456 1774.09 561.258 1768.13 562.679 1778.34 C 559.943 1786.07 548.925 1793.12 542.222 1798.28 C 545.619 1805.15 556.608 1822.49 550.964 1828.54 C 543.516 1830.09 537.698 1825.91 530.634 1822.41 C 515.188 1813.09 512.701 1832.08 501.304 1833.39 L 499.719 1832.02 C 496.999 1825.85 501.682 1813 503.625 1805.91 C 497.502 1802.64 477.793 1794.05 478.956 1786.83 C 483.602 1782.3 499.35 1780.26 506.708 1778.66 C 509.05 1768.91 511.145 1758.14 515.291 1749.12 z" fill="rgb(126,27,42)" transform="translate(0,0)"></path>
<path d="M 515.961 1763.81 C 520.28 1768.83 524.577 1779.09 531.133 1780.58 C 536.022 1781.7 549.006 1779.25 554.387 1778.46 C 548.319 1784.09 540.523 1790.37 534.117 1795.81 C 537.013 1803.75 541.406 1813.22 544.75 1821.24 L 525.247 1812.73 L 520.412 1811.36 C 516.823 1811.86 511.021 1818.42 507.34 1821.54 L 505.875 1821.35 C 505.383 1816.78 507.376 1804.5 507.997 1799.16 C 499.654 1796.34 494.287 1793.55 487.128 1788.67 C 516.638 1782.97 508.483 1792.31 515.961 1763.81 z" fill="rgb(255,255,255)" transform="translate(0,0)"></path>
<path d="M 113.354 1344.33 C 116.482 1338.02 122.563 1323.53 128.292 1320.61 C 134.6 1322.37 137.783 1342.89 139.36 1349.57 C 147.571 1350.86 160.078 1351.73 165.987 1356.95 C 168.686 1365.8 150.441 1372.38 143.972 1375.44 C 145.116 1382.76 148.416 1395.98 144.619 1401.76 C 137.356 1404.73 126.91 1393.3 121.594 1388.49 C 115.267 1392.27 105.271 1399.43 98.3742 1399.03 C 92.862 1395.19 96.7749 1388.26 98.7371 1382.93 C 100.823 1378.25 101.993 1374.99 105.141 1370.89 C 99.9083 1364.78 83.0839 1357.57 82.2206 1349.38 C 84.9537 1346.17 105.837 1346.19 113.354 1344.33 z" fill="rgb(126,27,42)" transform="translate(0,0)"></path>
<path d="M 127.22 1330 C 136.564 1357.55 127.052 1354.05 158.244 1358.99 C 151.172 1364 144.657 1367.63 137.673 1372.26 C 138.424 1380.5 139.15 1387.41 140.448 1395.57 C 135.779 1391.13 128.213 1383.07 123.306 1380.07 C 118.205 1380.52 109.838 1389.42 104.164 1390.35 C 102.781 1386.49 103.921 1384.35 101.801 1381.8 L 98.7371 1382.93 C 100.823 1378.25 101.993 1374.99 105.141 1370.89 L 111.561 1370.95 C 108.924 1363.46 99.5111 1360.75 92.0941 1352.98 C 100.79 1352.57 109.752 1352.02 118.436 1351.95 C 121.169 1344.89 124.151 1336.88 127.22 1330 z" fill="rgb(255,255,255)" transform="translate(0,0)"></path>
<path d="M 105.141 1370.89 L 111.561 1370.95 C 105.517 1378.28 106.003 1381.26 104.164 1390.35 C 102.781 1386.49 103.921 1384.35 101.801 1381.8 L 98.7371 1382.93 C 100.823 1378.25 101.993 1374.99 105.141 1370.89 z" fill="rgb(162,48,64)" transform="translate(0,0)"></path>
<path d="M 1359.04 261.377 C 1372.84 263.392 1369.04 273.755 1374.6 281.663 C 1379.61 288.791 1396.21 275.707 1402.45 284.371 C 1402.24 289.978 1390.8 301.455 1386.41 308.338 L 1385.61 309.609 C 1387.64 316.723 1396.89 330.622 1392.67 336.59 C 1385.96 337.718 1377.66 331.466 1371.64 327.872 C 1360.82 325.585 1349.82 341.553 1341.69 340.09 L 1340.34 338.053 C 1339.68 330.521 1343.55 319.69 1345.81 312.106 C 1340.65 309.413 1324.3 301.965 1324.18 295.74 C 1326.94 292.234 1343.24 289.079 1349.88 286.683 C 1352.29 277.895 1354.17 269.064 1359.04 261.377 z" fill="rgb(126,27,42)" transform="translate(0,0)"></path>
<path d="M 1361.59 268.531 C 1374.57 276.611 1355.82 298.154 1393.05 288.814 C 1388.53 295.185 1383.24 299.956 1378.34 306.698 C 1380.52 313.534 1384.21 321.97 1386.97 328.774 C 1380.32 325.612 1374.09 322.933 1367.29 320.086 C 1361.91 321.273 1352.49 328.3 1347.36 331.666 C 1351.45 306.47 1355.22 308.774 1331.24 297.105 C 1339.47 295.358 1348.11 293.815 1356.4 292.205 C 1357.15 282.257 1357.11 277.747 1361.59 268.531 z" fill="rgb(255,255,255)" transform="translate(0,0)"></path>
<path d="M 1644.41 328.675 C 1658.19 328.212 1658.95 335.879 1664.41 346.987 C 1672.29 346.994 1682.76 345.422 1687.86 351.995 C 1688.73 360.193 1683.85 364.674 1679.65 372.664 C 1694.91 400.218 1677.38 394.974 1658.27 388.091 C 1651.16 391.982 1642.84 402.391 1634.86 399.414 C 1630.36 393.399 1631.9 384.415 1632.15 376.477 C 1625.48 373.55 1615.66 370.578 1617.79 361.859 C 1623.54 355.182 1630.15 354.099 1638.74 351.111 C 1640.59 342.928 1639.92 335.601 1644.41 328.675 z" fill="rgb(242,143,139)" transform="translate(0,0)"></path>
<path d="M 1920.21 1093.99 C 1936.04 1091.99 1950.49 1103.2 1952.49 1119.03 C 1954.5 1134.86 1943.29 1149.31 1927.47 1151.32 C 1911.63 1153.33 1897.17 1142.12 1895.17 1126.29 C 1893.16 1110.45 1904.37 1095.99 1920.21 1093.99 z" fill="rgb(242,143,139)" transform="translate(0,0)"></path>
<path d="M 1922.1 1104.06 C 1931.57 1103.95 1938.33 1107.05 1941.09 1116.91 C 1942.7 1122.45 1941.87 1128.41 1938.83 1133.31 C 1935.64 1138.39 1932.42 1139.55 1926.95 1141.01 C 1903.65 1140.85 1898.88 1115.38 1922.1 1104.06 z" fill="rgb(255,255,255)" transform="translate(0,0)"></path>
<path d="M 196.412 196.947 C 211.238 197.398 223.03 209.537 223.051 224.37 C 223.073 239.204 211.316 251.376 196.491 251.87 C 186.471 252.204 177.065 247.055 171.948 238.434 C 166.832 229.813 166.816 219.09 171.908 210.454 C 177 201.819 186.391 196.642 196.412 196.947 z" fill="rgb(219,98,97)" transform="translate(0,0)"></path>
<path d="M 188.863 204.199 C 213.605 200.207 228.206 230.249 200.413 242.401 C 172.323 246.689 166.247 217.041 188.863 204.199 z" fill="rgb(255,255,255)" transform="translate(0,0)"></path>
<path d="M 704.4 173.192 C 705.291 166.864 705.598 157.243 710.082 153.1 C 718.636 152.999 718.64 170.678 726.785 171.353 C 734.069 171.956 743.215 166.053 749.742 171.415 L 750.395 173.247 C 746.989 178.669 738.643 187.655 733.904 192.055 C 736.955 197.597 743.804 207.854 741.87 213.937 C 737.513 215.674 726.304 210.758 721.439 208.792 C 719.693 209.449 718.733 209.809 717.039 210.613 C 715.542 213.894 705.527 222.096 700.974 221.48 C 695.985 215.423 701.998 204.805 699.746 200.54 C 697.259 195.831 684.928 195.141 682.12 186.972 C 685.904 177.524 701.301 184.405 704.4 173.192 z" fill="rgb(219,98,97)" transform="translate(0,0)"></path>
<path d="M 708.449 176.101 C 710.159 172.427 711.645 169.098 713.706 165.577 C 716 170.037 718.267 174.751 720.966 178.951 C 726.633 178.802 732.023 178.766 737.657 177.992 C 732.704 182.912 729.466 185.8 725.695 191.692 C 729.519 197.189 731.425 199.597 733.978 205.797 L 723.174 202.09 C 713.227 197.925 712.905 204.421 706.424 212.085 C 707.669 195.603 707.478 195.325 692.97 187.663 C 699.621 185.329 707.872 184.036 708.449 176.101 z" fill="rgb(255,255,255)" transform="translate(0,0)"></path>
<path d="M 1706.96 1489.46 C 1717.7 1488.65 1717.31 1500.28 1722.77 1508.55 C 1730.43 1506.71 1739.69 1504.13 1747.51 1505.29 L 1748.75 1506.72 C 1746.85 1513.23 1738.67 1518.42 1735.1 1526.88 C 1737.17 1535.09 1744.19 1544.14 1743.21 1550.18 C 1737.66 1554.22 1724.13 1542.54 1718.95 1544.29 C 1713.57 1546.12 1707.33 1559.21 1700.04 1559.86 C 1696.99 1556.49 1699.2 1540.74 1699.58 1535.53 C 1694.84 1532.31 1683.09 1526.91 1681.18 1523.43 C 1684.33 1517.94 1694.06 1517.69 1701.16 1514.23 C 1703.71 1508.74 1705.38 1496.43 1706.96 1489.46 z" fill="rgb(255,255,255)" transform="translate(0,0)"></path>
<path d="M 1706.96 1489.46 C 1708.4 1491.67 1709.51 1493.28 1710.68 1495.67 C 1708.69 1501.44 1706.93 1512.78 1706.42 1518.98 C 1700.62 1520.75 1696.14 1522.37 1690.48 1524.55 L 1704.72 1530.99 L 1704.15 1550.46 C 1717.91 1535.48 1717.89 1535.76 1736.07 1544.47 C 1733 1538.09 1729.5 1532.79 1729.97 1525.85 L 1733.05 1528.26 L 1734.64 1528.04 L 1735.1 1526.88 C 1737.17 1535.09 1744.19 1544.14 1743.21 1550.18 C 1737.66 1554.22 1724.13 1542.54 1718.95 1544.29 C 1713.57 1546.12 1707.33 1559.21 1700.04 1559.86 C 1696.99 1556.49 1699.2 1540.74 1699.58 1535.53 C 1694.84 1532.31 1683.09 1526.91 1681.18 1523.43 C 1684.33 1517.94 1694.06 1517.69 1701.16 1514.23 C 1703.71 1508.74 1705.38 1496.43 1706.96 1489.46 z" fill="rgb(208,90,112)" transform="translate(0,0)"></path>
<path d="M 1706.96 1489.46 C 1717.7 1488.65 1717.31 1500.28 1722.77 1508.55 C 1730.43 1506.71 1739.69 1504.13 1747.51 1505.29 L 1748.75 1506.72 C 1746.85 1513.23 1738.67 1518.42 1735.1 1526.88 L 1734.64 1528.04 L 1733.05 1528.26 L 1729.97 1525.85 C 1732.79 1520.26 1735.47 1518.46 1736.86 1512.05 L 1736 1510.8 C 1718.58 1515.78 1716.48 1510.92 1710.68 1495.67 C 1709.51 1493.28 1708.4 1491.67 1706.96 1489.46 z" fill="rgb(191,70,91)" transform="translate(0,0)"></path>
<path d="M 125.501 534.365 C 133.287 536.546 138.992 544.529 143.636 550.663 C 149.489 550.25 157.532 549.657 163.139 551.01 C 166.379 555.256 157.25 562.993 155.936 568.989 C 154.932 573.573 163.29 583.712 161.395 587.075 C 156.965 594.934 146.84 583.48 138.421 587.832 C 132.547 591.955 128.183 596.623 121.263 597.913 C 113.677 595.825 116.123 586.336 116.661 579.916 C 111.285 574.168 105.497 571.498 101.307 566.124 L 101.693 564.152 C 107.229 559.521 111.497 558.347 118.056 555.265 C 119.819 546.309 120.418 542.242 125.501 534.365 z" fill="rgb(242,143,139)" transform="translate(0,0)"></path>
<path d="M 1876.03 149.345 C 1883.37 154.38 1886.11 159.582 1890.77 166.999 C 1897.14 166.758 1911.32 164.339 1913.7 171.558 C 1911.64 178.124 1904.06 183.114 1898.59 187.509 C 1901.43 192.963 1906.64 202.149 1906.53 208.221 L 1904.92 209.577 C 1899.31 209.813 1891.73 206.842 1885.8 205.162 C 1873.45 202.439 1870.48 218.313 1863.16 212.503 C 1861.71 207.682 1863.11 197.262 1863.73 191.98 C 1857.73 189.143 1849.77 186.851 1850.11 179.276 C 1854.24 173.394 1863.16 171.949 1870.37 169.742 C 1871.58 162.542 1873.22 156.088 1876.03 149.345 z" fill="rgb(219,98,97)" transform="translate(0,0)"></path>
<path d="M 1878.98 161.515 C 1880.64 162.871 1886.93 171.432 1888.9 173.965 L 1903.96 174.011 C 1890.71 187.364 1890.16 186.498 1899.96 202.477 C 1893.41 200.818 1888.97 197.428 1883.51 196.545 C 1878.11 199.827 1873.02 204.321 1868.1 208.359 C 1872.97 189.6 1874.1 189.111 1856.82 180.395 C 1863.67 178.951 1869.12 177.319 1875.84 175.294 L 1878.98 161.515 z" fill="rgb(255,255,255)" transform="translate(0,0)"></path>
<path d="M 1912.79 618.663 C 1915.85 610.506 1915.94 596.959 1920.51 593.123 L 1922.78 593.949 C 1927.18 600.838 1930.88 606.761 1936.62 612.649 C 1942.58 611.315 1955.65 607.379 1960.31 609.958 C 1959.82 618.943 1946.73 624.135 1947.8 632.656 C 1950.56 635.297 1951.97 636.664 1954.34 639.617 C 1956.31 642.818 1957.1 643.561 1957.2 647.352 C 1954.08 652.527 1948.91 650.685 1943.82 649.552 C 1940.08 648.865 1936.16 647.877 1932.44 647.019 C 1927.63 651.792 1924.03 658.388 1917.66 659.222 C 1913.3 655.147 1913.93 645.036 1913.56 638.416 C 1907.11 636.742 1893.67 634.251 1897.67 624.899 C 1901.61 621.368 1907.57 620.115 1912.79 618.663 z" fill="rgb(255,255,255)" transform="translate(0,0)"></path>
<path d="M 1913.56 638.416 C 1907.11 636.742 1893.67 634.251 1897.67 624.899 C 1901.61 621.368 1907.57 620.115 1912.79 618.663 L 1918.01 620.073 C 1914.74 624.212 1907.18 624.957 1900.85 628.71 C 1906.29 630.92 1912.77 633.365 1918.02 635.775 C 1918.42 640.528 1918.34 645.379 1920.53 649.454 L 1922.38 649.84 C 1927.48 646.339 1928.65 643.576 1933.16 640.02 C 1937.76 641.944 1941.73 643.857 1946.62 644.852 L 1943.82 649.552 C 1940.08 648.865 1936.16 647.877 1932.44 647.019 C 1927.63 651.792 1924.03 658.388 1917.66 659.222 C 1913.3 655.147 1913.93 645.036 1913.56 638.416 z" fill="url(#Gradient1)" transform="translate(0,0)"></path>
<path d="M 1922.78 593.949 C 1927.18 600.838 1930.88 606.761 1936.62 612.649 C 1942.58 611.315 1955.65 607.379 1960.31 609.958 C 1959.82 618.943 1946.73 624.135 1947.8 632.656 L 1943.77 636.193 C 1941.81 633.571 1941.49 633.664 1941.21 630.503 C 1942.95 625.156 1948.08 620.172 1951.9 615.724 C 1945.85 616.475 1939.54 617.012 1933.46 617.607 C 1930.86 613.956 1924.82 604.634 1921.29 603.278 C 1921.15 598.693 1921.34 598.405 1922.78 593.949 z" fill="rgb(191,70,91)" transform="translate(0,0)"></path>
<path d="M 1912.79 618.663 C 1915.85 610.506 1915.94 596.959 1920.51 593.123 L 1922.78 593.949 C 1921.34 598.405 1921.15 598.693 1921.29 603.278 C 1920.3 608.986 1919.45 614.45 1918.01 620.073 L 1912.79 618.663 z" fill="rgb(162,48,64)" transform="translate(0,0)"></path>
<path d="M 1954.34 639.617 C 1956.31 642.818 1957.1 643.561 1957.2 647.352 C 1954.08 652.527 1948.91 650.685 1943.82 649.552 L 1946.62 644.852 C 1948.99 643.551 1948.35 643.779 1950.25 641.551 L 1954.34 639.617 z" fill="rgb(191,70,91)" transform="translate(0,0)"></path>
<path d="M 1947.8 632.656 C 1950.56 635.297 1951.97 636.664 1954.34 639.617 L 1950.25 641.551 L 1943.77 636.193 L 1947.8 632.656 z" fill="rgb(208,90,112)" transform="translate(0,0)"></path>
<path d="M 778.308 1776.32 C 784.263 1777.6 787.704 1786.58 791.088 1791.92 C 796.309 1790.61 802.273 1789.63 807.531 1790.95 C 813.796 1795.93 808.264 1802.12 805.015 1807.89 C 808.098 1814.18 813.297 1821.6 808.116 1827.7 C 801.525 1829.76 797.399 1826.77 790.998 1823.86 C 776.605 1827.57 769.816 1845.09 767.686 1815.82 C 763.632 1813.23 755.335 1808.79 754.329 1804.23 C 757.157 1800.03 764.693 1799.43 768.736 1794.08 C 773.909 1787.24 772.255 1783.24 778.308 1776.32 z" fill="rgb(242,143,139)" transform="translate(0,0)"></path>
<path d="M 1862.51 1698.51 C 1871.13 1701.45 1872.5 1705.33 1877.8 1712.99 C 1895.68 1713.15 1901.31 1713.97 1888.48 1731.2 C 1890.8 1735.9 1893.33 1740.38 1893.53 1745.55 C 1890.53 1753.12 1879.66 1748.32 1873.24 1746.76 C 1863.4 1749.09 1851.86 1769.69 1851.77 1738.48 L 1838.92 1728.5 C 1853.08 1712.31 1852.78 1721.7 1862.51 1698.51 z" fill="rgb(242,143,139)" transform="translate(0,0)"></path>
<path d="M 429.957 266.54 C 436.239 268.244 440.611 275.233 444.755 280.433 C 450.313 281.504 458.188 281.72 459.796 287.762 C 458.864 291.873 453.753 297.803 450.859 302.321 C 452.851 306.136 454.712 309.274 454.383 313.533 C 450.605 318.517 446.113 315.3 441.687 312.872 C 431.087 305.941 425.924 322.404 417.515 316.417 C 415.086 312.335 415.525 307.874 415.364 302.949 C 411.29 299.096 408.007 297.586 409.131 291.855 C 412.174 288.383 417.674 286.597 422.119 284.656 C 424.3 278.13 425.977 272.167 429.957 266.54 z" fill="rgb(242,143,139)" transform="translate(0,0)"></path>
<path d="M 1346.18 1805.14 C 1355.53 1804.71 1359.28 1807.47 1366.07 1813.7 C 1372.7 1831.25 1369.58 1845.99 1349.35 1849.85 C 1320.21 1848.98 1318.55 1817.3 1346.18 1805.14 z" fill="rgb(126,27,42)" transform="translate(0,0)"></path>
<path d="M 1345.04 1812.08 C 1367.71 1810.69 1369.47 1833.78 1351.11 1843.71 C 1328.13 1844.29 1326.18 1822.59 1345.04 1812.08 z" fill="rgb(255,255,255)" transform="translate(0,0)"></path>
<path d="M 1155.08 451.073 C 1157.37 451.228 1160.71 451.528 1162.85 452.235 C 1167.21 453.723 1170.77 456.95 1172.68 461.152 C 1177.82 472.665 1170.94 482.146 1160.34 486.624 C 1158.03 486.603 1154.9 486.413 1152.73 485.69 C 1148.43 484.284 1144.93 481.119 1143.1 476.982 C 1137.98 465.488 1144.44 455.747 1155.08 451.073 z" fill="rgb(126,27,42)" transform="translate(0,0)"></path>
<path d="M 1155.74 459.867 C 1161 458.795 1166.12 462.208 1167.16 467.47 C 1168.19 472.733 1164.74 477.832 1159.47 478.828 C 1154.25 479.815 1149.22 476.408 1148.19 471.198 C 1147.17 465.989 1150.54 460.928 1155.74 459.867 z" fill="rgb(255,255,255)" transform="translate(0,0)"></path>
<path d="M 1879.83 1383.46 C 1879.97 1379.47 1879.66 1371.75 1884.32 1370.96 C 1893.48 1376.44 1889.89 1381.33 1901.76 1380.74 C 1901.47 1382.11 1900.77 1384.77 1900.86 1386.01 C 1895.67 1393.73 1895.48 1393.94 1899.61 1402.41 C 1900.96 1405.72 1901.22 1407.4 1904.2 1409.32 C 1898.56 1408.91 1895.59 1406.65 1890.59 1403.93 C 1886.63 1408.05 1884.24 1410.94 1879.21 1413.82 C 1877.36 1415.02 1878.41 1414.71 1876.01 1414.55 C 1872.97 1410.42 1874.73 1403.35 1875.43 1398.19 C 1871.74 1395.86 1867.23 1393.67 1865.73 1389.66 L 1866.76 1387.76 C 1872.38 1384.34 1874.47 1385.82 1879.83 1383.46 z" fill="rgb(255,255,255)" transform="translate(0,0)"></path>
<path d="M 1875.43 1398.19 C 1871.74 1395.86 1867.23 1393.67 1865.73 1389.66 L 1866.76 1387.76 C 1872.38 1384.34 1874.47 1385.82 1879.83 1383.46 L 1884.19 1385.19 L 1880.32 1389.62 C 1878.61 1389.34 1876.9 1389.16 1875.18 1389 C 1880.8 1398.51 1882.59 1395 1881.8 1405.86 C 1885.14 1402.91 1884.46 1401.46 1889.04 1399.28 C 1892.76 1398.8 1896.08 1400.82 1899.61 1402.41 C 1900.96 1405.72 1901.22 1407.4 1904.2 1409.32 C 1898.56 1408.91 1895.59 1406.65 1890.59 1403.93 C 1886.63 1408.05 1884.24 1410.94 1879.21 1413.82 C 1877.36 1415.02 1878.41 1414.71 1876.01 1414.55 C 1872.97 1410.42 1874.73 1403.35 1875.43 1398.19 z" fill="rgb(162,48,64)" transform="translate(0,0)"></path>
<path d="M 1879.83 1383.46 C 1879.97 1379.47 1879.66 1371.75 1884.32 1370.96 C 1893.48 1376.44 1889.89 1381.33 1901.76 1380.74 C 1901.47 1382.11 1900.77 1384.77 1900.86 1386.01 C 1893.02 1386.7 1892.23 1386.49 1887.01 1380.29 L 1886.31 1379.45 L 1885.28 1379.6 L 1884.19 1385.19 L 1879.83 1383.46 z" fill="rgb(126,27,42)" transform="translate(0,0)"></path>
<path d="M 1901.76 1380.74 C 1906.12 1381.31 1904.46 1380.37 1907.28 1382.91 C 1907.37 1388.91 1902.54 1393 1902.58 1394.26 C 1902.75 1401.51 1908.92 1400.8 1904.2 1409.32 C 1901.22 1407.4 1900.96 1405.72 1899.61 1402.41 C 1895.48 1393.94 1895.67 1393.73 1900.86 1386.01 C 1900.77 1384.77 1901.47 1382.11 1901.76 1380.74 z" fill="rgb(126,27,42)" transform="translate(0,0)"></path>
<metadata><recraft-signature>{"signed_by": "recraft", "signature_b64": "17Jyz+v94OunantY0hEGjz+YJK7F2tYNnsZYfLg680p7wlgs1Y662QPzUtAEL1uhgOL+72cFEt+GMAWtImsdBA==", "signing_algo": "Ed25519", "generation_timestamp": 1773763964, "identifier": "bc6c62be-d781-4435-a435-551bb59296b2"}</recraft-signature></metadata></svg>