<svg xmlns="http://www.w3.org/2000/svg" height="1024" preserveAspectRatio="none" style="display: block;" version="1.1" viewBox="0 0 2048 2048" width="1024">
<defs>
	<linearGradient gradientUnits="userSpaceOnUse" id="Gradient1" x1="1428.13" x2="1118.02" y1="1904.55" y2="1479.13">
		<stop class="stop0" offset="0" stop-color="rgb(227,222,228)" stop-opacity="1"></stop>
		<stop class="stop1" offset="1" stop-color="rgb(244,245,241)" stop-opacity="1"></stop>
	</linearGradient>
	<linearGradient gradientUnits="userSpaceOnUse" id="Gradient2" x1="1942.03" x2="1396.37" y1="743.246" y2="750.522">
		<stop class="stop0" offset="0" stop-color="rgb(228,223,229)" stop-opacity="1"></stop>
		<stop class="stop1" offset="1" stop-color="rgb(243,245,240)" stop-opacity="1"></stop>
	</linearGradient>
</defs>
<path d="M 0 0 L 2048 0 L 2048 2048 L 0 2048 L 0 0 z" fill="rgb(255,255,255)" transform="translate(0,0)"></path>
<path d="M 1310.42 228.127 C 1328.39 227.716 1383.89 240.498 1401.98 245.531 C 1608.35 302.968 1761.14 436.962 1864.66 622.17 C 1948.88 774.088 1987.41 947.111 1975.59 1120.41 C 1972.71 1165.1 1965.18 1221.14 1952.99 1264.47 C 1961.62 1294.79 1957.31 1322.97 1947.64 1352.43 C 1924.47 1422.98 1897.15 1493.81 1855.28 1555.57 C 1849.39 1564.24 1842.05 1572.86 1834.74 1580.38 C 1830.07 1584.62 1823.75 1586.86 1820.19 1592.26 C 1757.4 1687.31 1671.85 1771.28 1577.22 1832.41 C 1400.77 1946.1 1186.09 1984.28 981.26 1938.4 C 891.749 1920.67 783.863 1871.98 710.122 1818.19 C 689.851 1800.17 655.277 1781.78 644.457 1756.74 C 642.091 1751.26 652.211 1742.4 659.032 1742.89 C 672.814 1743.89 686.85 1747.19 701.025 1748.47 C 732.5 1751.09 764.133 1751.22 795.627 1748.84 C 930.43 1738.88 1059.61 1677.84 1163.39 1592.45 C 1182.36 1576.84 1205.16 1555.85 1221.11 1537.39 C 1208.68 1517.29 1197.01 1496.95 1187.63 1475.19 C 1164.05 1420.44 1155.3 1353.73 1162.42 1294.56 C 1170.92 1223.87 1202.56 1149.92 1251.92 1098.25 C 1268.62 1080.76 1289.36 1064.72 1308.38 1049.73 C 1268.29 1017.74 1258.25 942.931 1308.35 914.622 C 1367.54 881.169 1450.8 891.272 1514.43 905.73 C 1516.13 895.759 1518.32 885.81 1520.13 875.792 C 1558.3 664.839 1527.16 386.322 1327.39 263.148 C 1318.32 257.554 1288.1 255.508 1299.68 234.087 C 1301.54 230.645 1306.83 229.099 1310.42 228.127 z" fill="rgb(158,127,168)" transform="translate(0,0)"></path>
<path d="M 1390.57 1635.73 C 1386.83 1634.9 1377.97 1631.17 1374.44 1629.56 C 1297.82 1594.3 1238.27 1530.16 1208.78 1451.14 C 1152.37 1300.98 1216.33 1114.99 1367.65 1049.9 C 1385.18 1042.36 1402.83 1036.08 1420.72 1029.47 C 1439.28 1036.57 1467.13 1052.64 1484.32 1063.23 C 1583.66 1124.43 1672.02 1227.25 1723.3 1332.02 C 1749.83 1379.03 1771.1 1437.19 1786.31 1488.77 C 1745.7 1566.7 1690.41 1619.14 1605.48 1647.21 C 1547.86 1666.26 1487.5 1665.07 1429.5 1649.17 C 1418.7 1646.2 1400.3 1640.74 1390.57 1635.73 z" fill="rgb(255,255,255)" transform="translate(0,0)"></path>
<path d="M 1723.3 1332.02 C 1749.83 1379.03 1771.1 1437.19 1786.31 1488.77 C 1745.7 1566.7 1690.41 1619.14 1605.48 1647.21 C 1547.86 1666.26 1487.5 1665.07 1429.5 1649.17 C 1418.7 1646.2 1400.3 1640.74 1390.57 1635.73 C 1446.23 1627.52 1523.5 1610.02 1568.28 1574.43 C 1575.19 1576.89 1600.79 1569.63 1605.12 1562.02 C 1610.62 1552.35 1609.63 1547.33 1607.8 1537.35 C 1667.9 1481.95 1705.98 1411.78 1723.3 1332.02 z" fill="rgb(232,229,231)" transform="translate(0,0)"></path>
<path d="M 1568.28 1574.43 C 1544.4 1572.72 1520.77 1559.98 1508.19 1539.28 C 1498.96 1525.25 1500.6 1501.76 1517.51 1494.19 C 1542.66 1482.93 1580.6 1497.21 1596.82 1518.53 C 1601.45 1524.63 1604.57 1530.58 1607.8 1537.35 C 1609.63 1547.33 1610.62 1552.35 1605.12 1562.02 C 1600.79 1569.63 1575.19 1576.89 1568.28 1574.43 z" fill="rgb(215,191,218)" transform="translate(0,0)"></path>
<path d="M 1305.43 1163.23 C 1312.65 1162.61 1319.65 1162.98 1326.9 1163.18 C 1311.67 1172.44 1299.84 1181.7 1294.53 1199.9 C 1290.63 1212.97 1292.31 1227.07 1299.19 1238.85 C 1305.56 1249.91 1316.22 1257.87 1328.64 1260.84 C 1361.06 1268.65 1382.21 1247.15 1388.62 1217.33 C 1390.76 1221.65 1392.38 1226.21 1393.45 1230.91 C 1397.94 1249.9 1392.45 1264.51 1382.86 1280.24 C 1359.25 1312.79 1317.45 1320.81 1283.48 1299.28 C 1266.03 1288.3 1253.73 1270.78 1249.33 1250.65 C 1240.34 1209.33 1263.62 1171.63 1305.43 1163.23 z" fill="rgb(116,78,124)" transform="translate(0,0)"></path>
<path d="M 1562.25 1324.29 C 1567.34 1323.97 1574.9 1324.99 1580.17 1325.51 C 1563.5 1334.57 1549.79 1343.55 1545.6 1363.7 C 1543.14 1375.72 1545.78 1388.22 1552.89 1398.22 C 1560.21 1408.71 1571.56 1415.68 1584.23 1417.45 C 1597.12 1419.16 1610.15 1415.66 1620.45 1407.73 C 1635.43 1396.08 1639.72 1382.7 1642.17 1364.92 C 1653.98 1387.52 1651.86 1404.87 1641.82 1427.1 C 1639.99 1430.4 1637.97 1433.59 1635.77 1436.66 C 1624.65 1452.03 1605.7 1461.43 1587.21 1464.66 C 1546.61 1472.07 1511.45 1442.55 1505.75 1402.74 C 1500.31 1364.77 1523.83 1329.93 1562.25 1324.29 z" fill="rgb(116,78,124)" transform="translate(0,0)"></path>
<path d="M 1216.78 1295.22 C 1271.93 1291.63 1319.71 1368.69 1264.12 1381.84 C 1208.22 1386.73 1159.04 1308.43 1216.78 1295.22 z" fill="rgb(215,191,218)" transform="translate(0,0)"></path>
<path d="M 1366.21 1414.98 C 1396.65 1413.15 1361.86 1444.89 1380.81 1456.8 C 1395.33 1465.93 1409.03 1436.22 1420.79 1443.15 C 1426.88 1446.74 1423.85 1455.03 1419.24 1461.4 C 1410.59 1471.66 1401.58 1478.8 1387.28 1478.16 C 1377.65 1477.64 1368.66 1473.14 1362.48 1465.74 C 1355.87 1457.88 1352.79 1447.65 1353.94 1437.45 C 1354.94 1427.91 1358.92 1420.95 1366.21 1414.98 z" fill="rgb(158,127,168)" transform="translate(0,0)"></path>
<path d="M 1375.81 1059.29 C 1388.89 1058.23 1398.14 1059.97 1411.57 1065.31 C 1424.79 1070.56 1435.26 1090.24 1417.58 1098.05 C 1414.07 1099.61 1408.98 1097.32 1405.62 1095.15 C 1383.56 1078.84 1380.74 1094.47 1360.42 1088.68 C 1357.73 1087.91 1354.56 1083.33 1353.71 1080.11 C 1352.82 1076.82 1353.28 1073.3 1355 1070.35 C 1359.23 1063.17 1368.39 1061.03 1375.81 1059.29 z" fill="rgb(158,127,168)" transform="translate(0,0)"></path>
<path d="M 1386.82 270.747 C 1397.3 272.015 1433.35 284.548 1443.91 288.327 C 1540.88 323.031 1629.36 377.19 1702.02 450.539 C 1862.15 614.283 1950.65 834.941 1948.06 1063.95 C 1947.96 1082.56 1939.87 1215.62 1930.97 1224.42 C 1917.77 1204.43 1908.18 1185.62 1893.52 1165.33 C 1806.01 1044.24 1688.33 955.578 1543.85 914.169 C 1546.63 902.373 1549.37 881.832 1551.31 869.197 C 1562.74 799.268 1565.82 728.228 1560.5 657.57 C 1549.41 512.335 1499.95 367.674 1386.82 270.747 z" fill="url(#Gradient2)" transform="translate(0,0)"></path>
<path d="M 1755.78 584.814 C 1758.37 584.709 1760.85 584.373 1762.86 586.081 C 1769.96 592.422 1775.2 600.844 1780.38 608.878 C 1823.13 675.146 1853.4 750.096 1873.57 826.14 C 1874.37 829.165 1872.29 831.044 1870.62 833.124 C 1866.59 833.97 1865.92 834.36 1862.06 833.42 C 1856.97 829.834 1853.15 807.028 1851.14 800.234 C 1848.53 791.421 1845.74 782.624 1842.76 773.886 C 1826.47 726.582 1805.75 680.924 1780.86 637.524 C 1773.14 623.82 1758.26 606.563 1752.73 592.438 C 1751.92 590.369 1754.34 586.76 1755.78 584.814 z" fill="rgb(158,127,168)" transform="translate(0,0)"></path>
<path d="M 1792.57 1536.75 L 1793.76 1538.5 C 1794.85 1562.17 1800.89 1569.99 1786.59 1589.47 C 1771.33 1610.27 1756.83 1631.28 1740.15 1651.13 C 1622.66 1792.46 1458.47 1887.09 1277.28 1917.92 C 1081.92 1951.45 881.26 1905.47 720.001 1790.2 C 714.676 1786.42 708.103 1780.92 702.862 1776.78 C 716.742 1778.5 733.151 1779.08 747.204 1779.19 C 898.973 1780.37 1042.86 1722 1161.89 1630.03 C 1190.55 1607.88 1214.01 1585.59 1239.57 1560.26 C 1254.89 1575.22 1265.49 1589.35 1282.88 1603.92 C 1353.02 1662.68 1449.98 1695.05 1540.95 1687.8 C 1620.94 1681.69 1695.84 1646.15 1751.17 1588.05 C 1760.06 1578.62 1768.53 1568.7 1776.44 1558.44 C 1781.95 1551.3 1786.58 1543.52 1792.57 1536.75 z" fill="url(#Gradient1)" transform="translate(0,0)"></path>
<path d="M 1531.21 1740.96 C 1556.35 1745.31 1521.68 1766.76 1515.29 1771.16 C 1505.67 1777.8 1495.95 1784.3 1486.13 1790.58 C 1407.03 1841.46 1318.04 1874.97 1225.04 1888.9 C 1202.78 1892.14 1181.43 1893.4 1159.05 1894.89 C 1155.33 1894.61 1155.6 1894.62 1152.55 1892.42 C 1150.4 1888.46 1150.87 1890.51 1151.03 1886.03 C 1151.89 1884.33 1153.93 1881.46 1155.91 1881.39 C 1277.26 1876.83 1393.63 1835.78 1494.31 1768.35 C 1506.46 1760.21 1517.89 1749.96 1530.21 1741.62 L 1531.21 1740.96 z" fill="rgb(158,127,168)" transform="translate(0,0)"></path>
<path d="M 1307.58 955.049 C 1397.76 951.368 1520.25 996.359 1597.99 1039.83 C 1715.45 1105.5 1824.18 1225.08 1862.19 1355.95 C 1869.62 1381.54 1877.96 1433.95 1874.31 1460.09 C 1873.18 1468.23 1847.85 1512.3 1842.83 1520.99 C 1837.1 1530.69 1831.43 1540.03 1824.38 1548.83 C 1822.48 1530.38 1819.45 1512.06 1815.3 1493.98 C 1791.22 1385.83 1730.31 1270.73 1661.55 1183.6 C 1622.56 1134.21 1559.8 1078.7 1506.99 1044.65 C 1470.24 1020.95 1387.35 979.077 1344.16 972.185 C 1330.68 969.919 1316.88 970.34 1303.57 973.424 L 1307.58 955.049 z" fill="rgb(255,255,255)" transform="translate(0,0)"></path>
<path d="M 1696.91 1177.2 C 1736.95 1172.29 1772.95 1218.91 1739.3 1231.41 C 1725.61 1230.23 1728.64 1221.58 1723.07 1212.59 C 1717.92 1204.97 1705.41 1204.53 1697.28 1202.69 C 1677.66 1198.25 1680.89 1184.75 1696.91 1177.2 z" fill="rgb(158,127,168)" transform="translate(0,0)"></path>
<path d="M 1398.71 920.452 C 1464.54 918.51 1538.84 938.088 1598.96 962.901 C 1714.12 1010.25 1813.28 1093.49 1881.05 1197.84 C 1897.03 1222.44 1931.19 1272.38 1929.07 1301.61 C 1926.27 1340.18 1905.23 1393.54 1890.36 1429.5 C 1889.39 1417.6 1888.55 1407.78 1886.67 1395.97 C 1874.47 1303.93 1821.68 1216.97 1760 1149.33 C 1722.85 1108.4 1680.77 1072.23 1634.71 1041.66 C 1549.58 986.123 1423.1 942.427 1321.27 937.8 C 1346.75 926.237 1371.08 921.688 1398.71 920.452 z" fill="rgb(255,255,255)" transform="translate(0,0)"></path>
<path d="M 1306.31 992.726 C 1335.49 996.108 1355.75 1002.97 1382.68 1012.77 L 1365.55 1020 C 1354.72 1024.93 1343.84 1029.73 1332.9 1034.39 C 1316.11 1020.42 1311.21 1013.86 1306.31 992.726 z" fill="rgb(255,255,255)" transform="translate(0,0)"></path>
<path d="M 1018.16 301.381 C 1159.14 292.653 1280.55 399.757 1289.48 540.726 C 1298.41 681.694 1191.48 803.258 1050.52 812.384 C 909.283 821.528 787.424 714.336 778.479 573.085 C 769.534 431.835 876.898 310.127 1018.16 301.381 z" fill="rgb(158,127,168)" transform="translate(0,0)"></path>
<path d="M 992.017 318.186 C 1090.35 301 1189.16 345.831 1240.99 431.144 C 1292.82 516.457 1287.07 624.815 1226.5 704.162 C 1160.64 790.451 1045.44 822.447 944.508 782.487 C 843.575 742.526 781.5 640.349 792.551 532.357 C 803.601 424.365 885.082 336.877 992.017 318.186 z" fill="rgb(255,255,255)" transform="translate(0,0)"></path>
<path d="M 1226.5 704.162 C 1160.64 790.451 1045.44 822.447 944.508 782.487 C 843.575 742.526 781.5 640.349 792.551 532.357 C 803.601 424.365 885.082 336.877 992.017 318.186 L 991.167 318.741 C 985.579 322.312 980.72 324.108 974.966 327.236 C 966.162 332.047 957.603 337.295 949.321 342.958 C 904.68 373.522 874.711 421.405 862.824 473.846 C 848.299 536.199 859.135 601.768 892.948 656.133 C 925.208 707.655 976.946 743.928 1036.38 756.694 C 1097.7 770.323 1159.29 757.132 1209.04 717.26 C 1214.23 713.101 1220.44 706.155 1226.5 704.162 z" fill="rgb(232,229,231)" transform="translate(0,0)"></path>
<path d="M 1015.35 476.163 C 1026.33 475.399 1099.04 470.343 1097.77 487.502 C 1096.85 499.824 1073.9 530.53 1065.9 542.806 C 1049.1 568.599 1032.34 595.822 1014.34 620.894 C 1031 620.4 1047.77 620.527 1064.41 620.589 C 1071.5 620.615 1089.34 620.524 1087.37 631.527 C 1086.85 634.454 1084.44 635.581 1082.27 637.157 C 1065.94 640.024 1014.91 639.513 997.582 634.117 C 992.212 631.971 992.076 622.378 994.612 618.582 C 1021.83 577.833 1048.15 533.398 1075.71 493.169 C 1062.19 493.448 1020.78 495.852 1011.64 488.774 C 1008.12 483.016 1010.23 479.456 1015.35 476.163 z" fill="rgb(158,127,168)" transform="translate(0,0)"></path>
<path d="M 908.039 474.268 C 921.919 473.932 976.988 471.432 987.132 477.368 C 990.261 479.199 993.303 483.048 994.066 486.612 C 995.683 494.167 923.174 603.808 914.54 616.031 C 922.261 615.982 1009.64 609.946 979.427 633.293 C 969.207 635.968 910.197 632.552 897.965 630.607 C 894.193 624.911 890.286 619.886 894.478 613.093 C 919.537 572.487 945.916 530.454 973.203 491.35 C 956.613 491.234 940.029 491.274 923.44 491.255 C 916.371 491.247 909.534 491.3 903.788 486.696 C 901.333 480.987 903.108 477.6 908.039 474.268 z" fill="rgb(158,127,168)" transform="translate(0,0)"></path>
<path d="M 1119.8 484.122 C 1140.25 483.099 1160.64 484.137 1181.06 483.873 C 1190.58 483.75 1207.59 488.647 1199.77 500.878 C 1173.12 542.53 1146.29 584.806 1118.18 625.509 C 1135.04 625.933 1182.14 623.121 1192.76 631.539 C 1195.63 637.386 1192.59 640.083 1187.53 643.382 C 1165.79 644.942 1141.57 641.868 1119.78 641.539 C 1102.31 641.276 1092.68 632.201 1103.12 615.662 C 1127.58 576.92 1153.01 537.602 1179.45 500.18 C 1163.49 500.281 1123.56 504.208 1113.72 495.402 C 1112.08 491.298 1112.31 493.341 1112.9 489.053 C 1114.66 486.029 1116.58 485.604 1119.8 484.122 z" fill="rgb(158,127,168)" transform="translate(0,0)"></path>
<path d="M 359.731 789.411 C 386.456 786.639 419.749 793.312 443.215 806.328 C 485.979 830.047 509.144 859.019 523.098 905.143 C 528.742 902.822 533.655 900.693 539.743 899.696 C 586.972 891.961 627.169 937.421 619.58 982.944 C 628.541 986.657 637.111 991.25 645.164 996.655 C 672.826 1015.37 693.899 1046.58 700.056 1079.51 C 706.978 1115.61 698.935 1152.97 677.772 1183.01 C 635.705 1243.36 559.519 1253.49 500.265 1211.79 C 479.627 1236.48 462.052 1247.35 430.779 1254.7 C 379.675 1264.55 345.11 1245.7 312.294 1208.55 C 290.889 1227.21 264.071 1238.52 235.771 1240.82 C 199.32 1243.58 163.274 1231.7 135.604 1207.81 C 78.3398 1157.96 71.8729 1067.78 122.522 1011.36 C 149.383 981.435 179.958 968.123 219.74 965.864 C 206.58 876.495 269.974 797.529 359.731 789.411 z" fill="rgb(158,127,168)" transform="translate(0,0)"></path>
<path d="M 358.521 820.368 C 364.277 819.354 374.231 819.292 380.13 819.859 C 446.244 826.208 490.617 870.18 497.844 935.012 C 514.104 955.049 522.516 937.527 539.241 930.51 C 547.376 927.021 556.612 927.165 564.635 930.905 C 581.866 938.898 597.596 960.742 589.021 980.469 C 582.212 996.131 585.543 1004 601.826 1008.33 C 662.601 1024.49 687.692 1095.27 662.522 1150.17 C 651.459 1174.12 631.294 1192.66 606.503 1201.69 C 578.017 1211.97 546.959 1207.86 522.048 1190.38 C 514.167 1184.85 507.114 1176.4 498.331 1172.39 C 495.887 1171.27 491.954 1170.25 489.916 1172.27 C 486.385 1175.77 482.302 1182 479.788 1186.2 C 467.932 1206.01 455.92 1214.96 434.711 1223.33 C 398.424 1233.05 359.636 1224.49 338.335 1191.3 C 335.024 1186.14 331.895 1178.9 328.9 1173.34 C 318.094 1153.28 303.923 1173.1 294.464 1182.33 C 274.992 1201.96 251.485 1212.13 223.498 1211.74 C 194.947 1211.41 167.725 1199.63 147.949 1179.03 C 128.329 1159.12 117.419 1132.22 117.616 1104.27 C 118.25 1059.34 140.076 1022.42 181.764 1003.84 C 203.215 994.28 221.178 996.536 243.805 996.941 C 263.625 985.019 250.844 969.877 249.046 950.122 C 242.909 882.696 292.815 828.407 358.521 820.368 z" fill="rgb(215,191,218)" transform="translate(0,0)"></path>
<path d="M 332.351 856.147 C 334.865 855.901 339.014 855.334 340.946 856.651 C 360.459 869.993 329.147 878.862 321.31 885.127 C 303.299 899.528 294.111 930.056 299.947 952.273 C 300.782 955.455 301.196 956.569 301.564 960.006 C 300.813 963.27 298.602 964.752 296.105 967.147 C 268.247 975.25 265.433 885.121 332.351 856.147 z" fill="rgb(158,127,168)" transform="translate(0,0)"></path>
<path d="M 348.551 243.16 C 376.891 241.437 383.967 267.548 394.771 288.283 C 402.911 303.907 410.068 319.955 418.578 335.436 C 439.345 335.096 460.104 334.389 480.87 334.014 C 493.253 333.791 506.755 334.659 517.103 342.249 C 523.494 346.907 527.682 353.993 528.681 361.838 C 529.426 367.577 528.122 375.093 524.966 379.745 C 510.111 401.641 481.886 423.002 466.325 443.786 L 465.419 445.009 C 473.917 469.811 485.651 494.977 492.075 520.31 C 495.273 532.922 488.295 547.633 476.095 552.99 C 457.885 560.986 441.574 548.054 424.967 541.842 C 409.495 535.405 394.776 528.245 379.231 522.082 L 371.527 526.437 C 358.543 536.2 345.417 545.772 332.153 555.151 C 323.655 561.236 314.946 568.1 305.666 572.835 C 294.577 578.491 280.195 577.069 271.854 567.323 C 261.23 554.909 267.914 537.809 270.968 523.774 C 274.995 505.267 280.876 487.073 282.759 468.163 C 263.092 448.478 199.836 420.745 195.095 393.934 C 193.764 386.408 196.044 378.391 200.409 372.205 C 204.349 366.621 210.04 362.519 216.336 359.959 C 227.123 355.573 239.78 354.374 251.211 352.39 L 299.591 343.951 C 305.311 326.983 310.719 309.912 315.812 292.745 C 322.447 271.09 324.601 251.051 348.551 243.16 z" fill="rgb(158,127,168)" transform="translate(0,0)"></path>
<path d="M 310.343 353.209 C 318.556 327.6 325.454 301.331 334.373 275.908 C 336.741 269.158 341.206 260.464 348.002 257.241 C 351.121 255.793 354.695 255.673 357.904 256.908 C 375.591 263.548 395.106 331.879 412.346 346.276 C 431.684 356.831 528.446 327.809 513.822 371.858 C 502.101 392.694 463.116 420.308 454.246 440.04 C 447.579 454.873 488.669 520.394 477.556 536.013 C 461.098 559.142 398.873 504.714 374.671 510.088 C 355.709 519.264 338.563 533.771 321.629 546.22 C 314.297 551.609 306.181 558.707 297.561 561.787 C 293.511 563.234 290.271 563.56 286.333 561.51 C 266.858 551.375 300.967 485.215 294.986 465.24 C 289.128 445.678 216.188 415.116 209.613 393.71 C 208.315 389.483 208.734 384.329 210.929 380.458 C 213.748 375.486 219.781 372.366 224.963 370.536 C 233.765 367.427 243.988 366.433 253.199 364.865 C 272.303 361.614 291.743 358.781 310.343 353.209 z" fill="rgb(255,255,255)" transform="translate(0,0)"></path>
<path d="M 310.343 353.209 C 307.975 367.168 304.992 382.788 303.233 396.704 C 309.141 399.046 312.018 399.954 314.883 405.568 C 314.936 411.219 313.382 411.464 308.753 413.889 L 305.905 414.672 C 304.202 419.833 312.277 435.22 314.967 440.621 C 324.98 460.717 339.206 479.759 355.955 494.743 C 361.736 499.914 369.361 504.978 374.671 510.088 C 355.709 519.264 338.563 533.771 321.629 546.22 C 314.297 551.609 306.181 558.707 297.561 561.787 C 293.511 563.234 290.271 563.56 286.333 561.51 C 266.858 551.375 300.967 485.215 294.986 465.24 C 289.128 445.678 216.188 415.116 209.613 393.71 C 208.315 389.483 208.734 384.329 210.929 380.458 C 213.748 375.486 219.781 372.366 224.963 370.536 C 233.765 367.427 243.988 366.433 253.199 364.865 C 272.303 361.614 291.743 358.781 310.343 353.209 z" fill="rgb(232,229,231)" transform="translate(0,0)"></path>
<path d="M 308.753 413.889 C 305.17 413.114 275.487 399.202 270.826 396.141 C 267.353 393.86 265.833 392.037 265.064 387.976 C 266.304 385.304 267.317 385.136 269.914 383.613 C 275.575 382.586 295.726 393.576 303.233 396.704 C 309.141 399.046 312.018 399.954 314.883 405.568 C 314.936 411.219 313.382 411.464 308.753 413.889 z" fill="rgb(158,127,168)" transform="translate(0,0)"></path>
<path d="M 353.134 306.601 C 357.464 306.591 358.665 306.435 361.698 308.658 C 362.33 314.567 344.21 369.317 340.349 373.62 C 337.081 373.015 330.489 371.026 331.477 366.745 C 334.627 353.085 345.095 316.57 353.134 306.601 z" fill="rgb(158,127,168)" transform="translate(0,0)"></path>
<path d="M 349.471 1393.1 C 370.309 1391.86 375.851 1402.34 382.391 1420.61 C 388.314 1437.15 393.67 1453.96 399.466 1470.56 C 420.849 1474.71 499.614 1473.1 468.895 1514.06 C 462.15 1523.06 428.625 1547.37 418.189 1555.54 C 422.288 1575.9 427.665 1599.58 428.2 1620.4 C 428.345 1626.03 423.279 1633.95 418.676 1637.31 C 403.132 1648.63 387.758 1636.6 374.522 1628.11 L 350.637 1612.8 C 348.001 1611.14 342.506 1606.97 339.621 1607.16 C 326.459 1614.29 313.037 1621.03 299.802 1628.01 C 290.67 1632.83 280.788 1637.56 270.405 1634.55 C 260.763 1631.75 253.024 1618.96 255.64 1609.32 C 260.981 1589.64 272.126 1570.62 278.939 1551.35 C 262.163 1533.78 235.263 1518 222.079 1497.46 C 220.737 1495.36 219.234 1489.25 218.572 1486.58 C 220.041 1479.99 221.243 1475.02 226.274 1470.2 C 233.95 1462.66 244.927 1462.34 255.082 1462.74 C 271.455 1463.39 287.863 1463.99 304.272 1464.08 C 306.003 1460.07 307.762 1456.06 309.547 1452.07 C 314.934 1440.06 320.71 1428.23 326.888 1416.6 C 333.289 1404.56 336.322 1398.1 349.471 1393.1 z" fill="rgb(158,127,168)" transform="translate(0,0)"></path>
<path d="M 237.842 1477.18 C 257.463 1472.03 288.789 1481.62 307.939 1475.04 C 313.383 1473.18 329.585 1440.27 332.407 1433.63 C 334.96 1427.61 349 1394.81 360.571 1406.62 C 376.703 1423.09 378.059 1462.25 392.231 1480.75 C 397.476 1487.11 459.884 1484.28 462.211 1498.91 C 463.869 1509.33 412.35 1539.54 408.247 1548.78 C 400.603 1565.99 421.57 1609.84 414.439 1625.92 C 412.806 1627.37 410.64 1629.38 408.489 1629.98 C 398.937 1632.62 353.974 1599.01 343.312 1591.86 C 333.2 1595.61 274.954 1629.16 270.857 1622.19 C 262.274 1607.58 290.015 1565.36 290.836 1548.94 C 291.616 1533.36 208.945 1491.87 237.842 1477.18 z" fill="rgb(255,255,255)" transform="translate(0,0)"></path>
<path d="M 343.312 1591.86 C 333.2 1595.61 274.954 1629.16 270.857 1622.19 C 262.274 1607.58 290.015 1565.36 290.836 1548.94 C 291.616 1533.36 208.945 1491.87 237.842 1477.18 C 242.307 1481.23 274.692 1488.01 281.603 1491.68 C 292.83 1492.73 318.445 1497.82 307.162 1514.3 L 308.001 1515.52 C 316.421 1527.93 323.163 1542.8 331.842 1556.18 C 352.238 1587.63 385.378 1603.79 414.439 1625.92 C 412.806 1627.37 410.64 1629.38 408.489 1629.98 C 398.937 1632.62 353.974 1599.01 343.312 1591.86 z" fill="rgb(232,229,231)" transform="translate(0,0)"></path>
<path d="M 281.603 1491.68 C 292.83 1492.73 318.445 1497.82 307.162 1514.3 C 302.746 1511.96 298.807 1510.09 294.233 1508.07 C 288.433 1505.52 277.249 1503.55 275.976 1496.78 C 277.443 1493.69 278.636 1493.39 281.603 1491.68 z" fill="rgb(158,127,168)" transform="translate(0,0)"></path>
<path d="M 349.057 1440.74 C 353.907 1441.18 354.765 1441.28 356.527 1445.48 C 355.927 1447.87 334.458 1489.45 333.384 1490.69 C 329.092 1489.82 329.25 1490.2 326.616 1487.53 C 322.453 1475.8 340.234 1448.06 349.057 1440.74 z" fill="rgb(158,127,168)" transform="translate(0,0)"></path>
<path d="M 574.618 97.1626 C 602.01 96.5409 605.446 138.742 610.612 159.997 C 628.519 162.793 672.307 158.395 668.704 186.514 C 666.729 201.929 635.612 216.839 622.407 224.951 C 625.679 237 628.635 260.925 629.637 273.538 C 613.207 308.609 582.774 274.551 561.005 263.643 L 559.356 262.83 C 541.922 267.82 503.011 303.065 491.819 269.886 C 487.704 257.687 503.402 234.518 509.838 223.283 C 499.814 213.472 473.455 184.101 472.018 170.55 C 469.092 142.97 510.691 149.068 531.605 147.184 C 540.114 133.885 548.82 118.884 558.676 106.531 C 562.989 101.125 568.031 98.9049 574.618 97.1626 z" fill="rgb(158,127,168)" transform="translate(0,0)"></path>
<path d="M 574.016 108.828 C 591.149 108.344 589.801 127.263 592.918 139.834 C 594.174 147.662 595.724 155.123 597.577 162.845 C 602.287 182.477 651.45 166.585 656.937 183.266 C 655.013 193.299 619.526 209.809 610.26 219.483 C 610.893 229.658 620.236 269.673 615.291 275.739 C 602.705 282.61 575.133 252.775 560.36 249.958 C 544.292 251.257 517.102 274.411 506.995 269.716 C 499.104 257.705 523.45 231.415 522.903 222.268 C 522.488 215.337 497.5 190.676 491.75 183.426 C 465.135 149.869 520.861 167.005 535.341 159.505 C 551.735 149.1 557.732 120.246 574.016 108.828 z" fill="rgb(255,255,255)" transform="translate(0,0)"></path>
<path d="M 567.231 130.835 C 571.793 130.714 573.031 130.27 576.051 133.835 C 575.478 138.896 565.898 164.246 563.503 169.338 C 560.332 169.198 560.244 169.372 557.368 168.191 C 549.523 159.476 561.534 138.629 567.231 130.835 z" fill="rgb(158,127,168)" transform="translate(0,0)"></path>
<path d="M 515.336 166.477 C 522.249 166.751 545.057 174.441 548.092 180.381 C 548.415 184.077 546.946 186.397 545.448 189.856 C 538.04 188.969 518.01 180.669 514.04 173.974 C 513.318 170.631 514.061 169.652 515.336 166.477 z" fill="rgb(158,127,168)" transform="translate(0,0)"></path>
<path d="M 558.446 642.123 C 578.395 642.191 584.364 664.776 593.052 680.482 C 605.325 679.309 629.64 671.077 639.699 678.259 C 662.639 694.64 626.431 716.127 615.625 730.971 C 620.874 741.799 632.054 760.728 629.112 772.192 C 624.813 788.947 590.977 775.489 580.722 772.862 C 566.613 770.351 549.945 799.672 532.228 796.021 C 514.133 792.293 524.098 754.042 525.514 740.979 C 514.959 733.783 480.598 721.397 492.494 703.032 C 499.367 692.422 519.388 689.897 531.53 687.406 C 539.239 671.233 540.118 647.541 558.446 642.123 z" fill="rgb(158,127,168)" transform="translate(0,0)"></path>
<path d="M 536.042 698.977 C 549.499 693.473 548.927 662.069 559.172 655.453 C 574.354 655.391 576.015 692.421 591.711 693.073 C 602.164 693.506 623.269 683.747 632.913 689.159 C 636.703 696.746 608.637 719.036 601.873 727.16 C 605.714 737.35 610.049 747.346 614.864 757.113 C 616.505 760.712 618.095 763.052 617.668 766.905 C 614.925 769.459 616.583 768.548 612.121 768.866 C 607.439 766.613 580.204 758.859 573.392 756.809 C 562.005 762.302 545.467 780.94 537.709 782.937 L 535.938 781.823 C 533.184 774.773 537.193 747.389 538.111 737.685 C 530.259 728.157 502.951 717.673 506.583 708.024 C 509.151 706.012 532.993 699.266 536.042 698.977 z" fill="rgb(255,255,255)" transform="translate(0,0)"></path>
<path d="M 536.042 698.977 C 537.115 701.552 537.093 701.538 538.807 703.731 C 542.637 738.856 588.869 741.119 611.778 758.762 L 612.121 768.866 C 607.439 766.613 580.204 758.859 573.392 756.809 C 562.005 762.302 545.467 780.94 537.709 782.937 L 535.938 781.823 C 533.184 774.773 537.193 747.389 538.111 737.685 C 530.259 728.157 502.951 717.673 506.583 708.024 C 509.151 706.012 532.993 699.266 536.042 698.977 z" fill="rgb(232,229,231)" transform="translate(0,0)"></path>
<path d="M 551.474 684.272 C 553.117 684.889 555.368 685.69 555.926 687.204 C 558.053 692.978 553.366 704.107 550.611 709.147 C 539.902 705.403 547.307 690.594 551.474 684.272 z" fill="rgb(158,127,168)" transform="translate(0,0)"></path>
<path d="M 796.784 1191.12 C 822.399 1188.45 823.726 1209.47 832.753 1228.97 C 843.748 1228.88 866.252 1225.11 874.098 1233.13 C 892.23 1251.66 865.303 1270.79 854.873 1282.4 C 859.787 1291.66 870.563 1312.38 866.798 1322.45 C 857.222 1348.05 830.714 1325.64 815.684 1320.23 L 814.383 1319.77 C 803.768 1327.09 787.568 1342.09 774.803 1341.45 C 756.668 1340.53 766.848 1298.65 768.403 1288.27 C 755.834 1280.05 732.309 1271.19 729.997 1255.27 C 726.722 1232.72 758.863 1233.38 774.25 1231.69 C 780.355 1216.78 782.695 1198.54 796.784 1191.12 z" fill="rgb(158,127,168)" transform="translate(0,0)"></path>
<path d="M 799.597 1204.45 C 802.452 1204.51 802.598 1204.74 805.344 1205.72 C 810.838 1210.96 815.357 1222.9 817.333 1229.4 C 824.415 1252.68 847.62 1235.84 864.943 1242.79 C 867.338 1243.76 867.249 1245.35 867.567 1247.47 C 865.468 1253.36 851.829 1265.81 846.43 1270.34 C 830.004 1284.12 860.396 1310.98 852.045 1319.31 C 842.724 1320.46 820.427 1303.67 812.94 1305.53 C 801.455 1308.38 790.612 1322.01 777.863 1327.83 C 775.813 1321.51 781.644 1291.63 782.972 1283.43 C 773.311 1273.29 746.785 1260.73 744.068 1253.08 C 747.097 1248.81 761.528 1247 764.858 1248.65 C 790.937 1261.56 798.008 1260.03 803.649 1223.92 C 801.873 1221.03 803.016 1222.28 799.706 1220.43 C 788.985 1221.53 793.61 1241.56 786.482 1246.09 C 783.311 1245.17 780.828 1245.08 778.988 1243.03 C 791.871 1236.11 790.856 1219.56 799.597 1204.45 z" fill="rgb(255,255,255)" transform="translate(0,0)"></path>
<metadata><recraft-signature>{"signed_by": "recraft", "signature_b64": "Yn0XZJJbcF0a/m9wBqLrf1AVj7j092LhWFqBqABgZVebLWM9qgA37amJiAkXSSuTSLAHOrX4IpgwY+rmbrw7Ag==", "signing_algo": "Ed25519", "generation_timestamp": 1773763922, "identifier": "ca18e305-1bb9-4f29-9a95-a8aadf5e75ec"}</recraft-signature></metadata></svg>