<svg xmlns="http://www.w3.org/2000/svg" height="1365" preserveAspectRatio="none" style="display: block;" version="1.1" viewBox="0 0 1536 2048" width="1024">
<path d="M 0 0 L 1536 0 L 1536 2048 L 0 2048 L 0 0 z" fill="rgb(250,248,241)" transform="translate(0,0)"></path>
<path d="M 762.872 284.43 C 772.723 283.982 785.927 282.638 795.151 285.6 L 796.271 288.78 C 792.137 294.166 780.66 297.594 774.194 299.347 C 745.036 307.255 717.95 318.413 690.705 331.501 C 574.239 387.652 478.046 478.529 415.372 591.619 C 333.138 740.354 308.028 910.213 354.412 1074.33 C 396.41 1222.92 491.596 1354.77 624.715 1434.22 C 644.585 1446.08 664.182 1458.14 684.441 1469.35 C 631.266 1418.67 611.594 1353 614.704 1280.56 C 615.368 1265.09 615.726 1250 618.594 1234.7 C 595.876 1240.72 568.18 1242.56 544.915 1239.47 C 490.854 1231.97 442.001 1203.26 409.132 1159.69 C 326.333 1050.54 347.489 876.777 457.509 793.942 C 505.166 757.327 565.67 741.684 625.101 750.612 C 684.974 759.204 743.411 792.932 773.609 847.33 C 784.265 866.525 787.839 889.509 799.117 906.42 C 811.34 923.548 832.623 932.055 844.563 949.78 C 901.522 1034.34 802.455 1130.57 739.884 1175.99 C 752.182 1191.33 766.884 1205.3 778.435 1221.32 C 783.185 1227.91 787.396 1234.37 792.725 1240.53 C 804.964 1236.35 821.747 1231.25 831.367 1223.06 C 836.399 1218.78 840.389 1214.27 846.114 1209.59 L 854.211 1212.93 C 856.039 1203.09 856.631 1184.88 868.907 1183.99 C 874.875 1185.55 874.843 1189.59 879.665 1191.23 L 883.504 1188.85 C 898.096 1187.14 914.782 1216.18 917.18 1228.62 C 919.716 1241.77 906.961 1248.17 901.999 1257.39 C 893.352 1273.44 885.889 1287.18 874.853 1301.59 C 896.644 1302.08 913.419 1303.22 934.202 1311.87 C 970.254 1327.26 998.702 1356.36 1013.27 1392.76 C 1022.3 1416.56 1022.97 1442.27 1036.66 1465 C 1042.22 1474.85 1053.97 1480.94 1060.22 1490.04 C 1063.45 1494.75 1056.47 1500.76 1052.21 1502.02 C 1034.82 1507.17 1009.38 1507.25 992.937 1499.54 C 993.215 1506.05 992.816 1512.83 992.561 1519.37 C 1019.42 1516.18 1053.02 1511.68 1079.27 1505.73 C 1137.99 1492.42 1205.37 1464.65 1256.95 1433.56 C 1292.52 1412.12 1339.56 1377.85 1368.97 1349.28 C 1376.39 1342 1383.65 1334.56 1390.74 1326.97 C 1394.78 1322.62 1401.44 1313.13 1406.88 1312.57 C 1410.16 1314.17 1410.28 1314.22 1412.11 1317.27 C 1412.45 1324.68 1404.34 1342.08 1400.94 1349.99 C 1371.34 1418.69 1331.11 1482.29 1281.72 1538.46 C 1085.18 1763.79 750.068 1835.37 483.007 1699.86 C 473.219 1694.89 463.649 1689.87 454.064 1684.53 C 411.884 1661.12 372.24 1633.41 335.768 1601.83 C 182.875 1468.91 89.6124 1280.26 76.8259 1078.07 C 64.4739 876.455 132.99 678.231 267.208 527.276 C 393.505 383.56 571.907 296.154 762.872 284.43 z" fill="rgb(131,114,128)" transform="translate(0,0)"></path>
<path d="M 720.95 301.342 L 724.502 301.449 C 721.093 304.293 674.379 324.269 665.786 328.778 C 608.001 358.857 555.385 397.965 509.925 444.625 C 387.491 569.177 318.931 736.869 319.036 911.521 C 321.267 1083.37 392.082 1247.2 515.728 1366.56 C 603.355 1452.35 762.063 1535.43 886.252 1534.17 C 903.582 1577.75 907.852 1643.62 959.012 1662.92 C 967.247 1666.03 985.167 1669.35 993.307 1665.42 C 994.454 1664.08 996.031 1662.68 995.562 1660.64 C 992.892 1649.03 981.975 1631.34 981.071 1619.56 C 978.922 1591.54 987.936 1561.63 990.365 1533.12 C 1137.23 1517.06 1283.1 1457.23 1386.75 1349.52 C 1380.51 1366.75 1371.81 1380.77 1363.68 1396.7 C 1338.27 1446.51 1307.12 1488.84 1270.31 1530.94 C 1169.54 1645.66 1032.25 1722.07 881.654 1747.28 C 706.986 1775.54 531.565 1733.22 389.773 1627.85 C 57.061 1380.59 -7.69987 923.338 233.247 589.913 C 318.477 472.365 437.561 383.638 574.577 335.595 C 625.297 318.298 668.573 309.775 720.95 301.342 z" fill="rgb(226,233,210)" transform="translate(0,0)"></path>
<path d="M 501.278 1148.43 C 492.538 1135.05 484.993 1125.12 477.482 1110.79 C 454.403 1065.78 446.404 1014.55 454.666 964.645 C 463.915 910.307 492.763 858.772 538.586 826.995 C 579.998 798.276 621.613 786.637 672.361 794.938 C 717.085 802.253 746.867 831.833 768.479 869.483 C 777.57 885.321 785.11 902.643 795.661 917.914 L 797.889 920.709 C 817.693 937.591 834.853 946.023 845.993 972.224 C 856.35 996.582 852.255 1022.68 842.464 1046.52 C 836.744 1060.27 829.309 1073.25 820.337 1085.13 C 792.971 1121.83 739.181 1170.74 697.201 1190 C 669.327 1202.78 619.523 1203.24 590.013 1195.81 C 584.179 1194.34 568.856 1187.46 563.772 1189.58 L 563.325 1191.65 C 564.847 1195.63 567.654 1197.55 570.885 1200.46 C 549.17 1217.44 506.747 1216.56 495.089 1187.35 C 492.748 1181.49 495.144 1171.28 498.327 1165.89 C 502.51 1158.8 510.254 1151.18 518.391 1148.93 C 522.748 1148.11 527.101 1148.93 532.872 1147.36 C 534.635 1144.83 534.187 1146.27 533.662 1142.74 C 525.316 1133.92 509.436 1143.08 501.278 1148.43 z" fill="rgb(250,248,241)" transform="translate(0,0)"></path>
<path d="M 759.159 895.449 C 770.246 901.477 775.782 908.882 784.484 918.148 L 787.243 924.577 C 792.596 934.963 796.899 929.259 800.622 934.977 C 797.245 939.415 792.771 934.66 788.607 939.389 L 789.065 940.971 C 791.202 941.962 792.918 942.825 795.001 943.93 L 795.083 945.536 L 793.513 947.152 C 788.587 947.807 786.827 947.805 784.63 952.532 C 779.887 962.738 769.874 969.239 758.017 968.263 C 750.298 967.601 743.18 963.824 738.305 957.803 C 736.177 955.174 734.665 953.075 735.017 949.941 C 739.259 947.933 752.367 953.096 760.719 946.768 C 780.2 932.007 767.854 911.305 759.159 895.449 z" fill="rgb(131,114,128)" transform="translate(0,0)"></path>
<path d="M 795.661 917.914 L 797.889 920.709 C 793.597 922.663 791.973 923.438 787.243 924.577 L 784.484 918.148 L 795.661 917.914 z" fill="rgb(131,114,128)" transform="translate(0,0)"></path>
<path d="M 601.257 815.219 C 616.066 814.258 631.866 816.613 643.228 826.256 C 684.898 861.624 668.509 923.422 613.244 930.388 C 608.057 931.042 604.877 930.342 601.004 927.129 C 611.174 911.588 623.588 910.484 624.312 886.4 C 625.095 860.326 607.934 845.942 582.456 846.693 C 575.569 846.896 569.261 850.312 562.549 852.285 C 558.818 851.054 560.245 852.141 558.039 849.015 C 557.747 845.691 559.037 842.776 560.96 840.069 C 571.931 824.63 583.543 819.003 601.257 815.219 z" fill="rgb(131,114,128)" transform="translate(0,0)"></path>
<path d="M 605.134 824.383 C 615.323 824.411 624.52 826.1 633.459 831.227 C 645.095 837.884 653.565 848.94 656.962 861.908 C 663.408 887.034 647.104 914.17 622.257 920.402 L 620.904 919.373 C 648.977 878.618 626.274 830.971 572.758 839.534 C 584.254 829.803 590.402 826.339 605.134 824.383 z" fill="rgb(226,233,210)" transform="translate(0,0)"></path>
<path d="M 623.166 1096.56 C 637.81 1093.3 652.339 1102.46 655.714 1117.08 C 659.09 1131.7 650.05 1146.3 635.462 1149.8 C 620.7 1153.34 605.883 1144.17 602.467 1129.38 C 599.051 1114.59 608.347 1099.85 623.166 1096.56 z" fill="rgb(193,174,186)" transform="translate(0,0)"></path>
<path d="M 619.535 1105.16 C 629.667 1104.53 640.212 1104.5 646.446 1114.04 C 653.543 1124.9 646.024 1134.82 637.435 1141.24 C 635.275 1141.99 632.864 1142.84 630.573 1143.04 C 625.251 1143.52 619.98 1141.68 616.124 1137.98 C 605.76 1127.85 609.7 1113.96 619.535 1105.16 z" fill="rgb(220,206,216)" transform="translate(0,0)"></path>
<path d="M 626.762 1033.14 C 642.18 1037.27 639.296 1104.27 588.355 1095.65 L 584.105 1104.53 C 581.297 1106.16 582.729 1105.96 579.697 1105.32 C 578.625 1101.04 582.601 1098.57 582.692 1092.29 L 580.517 1090.99 C 573.994 1092.68 574.745 1101.24 570.054 1103.67 L 568.72 1102.22 L 567.334 1099.96 C 565.049 1099.38 562.051 1098.92 560.745 1097.1 C 563.245 1093.22 570.664 1086.63 574.308 1083.15 C 572.046 1077.5 564.335 1061.96 566.081 1057.2 C 570.982 1056.74 581.052 1065.54 588.385 1066.84 C 613.667 1071.29 622.328 1054.22 626.762 1033.14 z" fill="rgb(131,114,128)" transform="translate(0,0)"></path>
<path d="M 795.033 963.327 C 808.166 961.247 820.532 970.109 822.784 983.214 C 825.037 996.319 816.339 1008.8 803.265 1011.22 C 791.164 1013.47 779.295 1006.31 775.632 994.563 C 773.532 987.824 774.465 980.504 778.189 974.508 C 781.914 968.511 788.061 964.431 795.033 963.327 z" fill="rgb(193,174,186)" transform="translate(0,0)"></path>
<path d="M 795.352 970.98 C 803.802 969.107 812.224 974.243 814.429 982.613 C 816.633 990.983 811.835 999.6 803.559 1002.13 C 797.906 1003.87 791.759 1002.36 787.542 998.221 C 783.324 994.078 781.713 987.959 783.342 982.277 C 784.971 976.594 789.58 972.258 795.352 970.98 z" fill="rgb(220,206,216)" transform="translate(0,0)"></path>
<path d="M 528.402 1163.21 C 537.268 1162.79 550.097 1164.9 552.109 1175.27 C 548.114 1180.24 535.906 1171.85 530.141 1173.66 C 535.184 1182.32 555.721 1191.35 555.369 1196.84 C 552.583 1198.87 549.73 1198.19 546.066 1198.03 C 532.904 1192.21 525.021 1179.2 519.179 1178.64 C 517.723 1184.28 523.311 1189.83 520.206 1194.82 C 504.49 1196.13 501.181 1170.53 528.402 1163.21 z" fill="rgb(131,114,128)" transform="translate(0,0)"></path>
<path d="M 539.053 969.576 C 541.666 970.817 541.922 970.689 543.522 973.175 C 543.396 977.192 538.393 989.141 536.541 993.554 C 532.519 1003.14 532.388 1022.79 522.648 1027.38 C 510.613 1015.22 514.987 994.341 524.278 981.829 C 528.731 975.832 532.681 973.295 539.053 969.576 z" fill="rgb(131,114,128)" transform="translate(0,0)"></path>
<path d="M 531.276 987.671 C 532.629 991.873 529.455 999.142 527.309 1002.7 C 524.911 996.773 527.423 992.05 531.276 987.671 z" fill="rgb(250,248,241)" transform="translate(0,0)"></path>
<path d="M 717.828 849.376 C 728.856 849.852 742.581 852.6 748.587 864.588 C 749.302 866.015 748.583 866.297 747.731 867.653 C 744.163 868.718 740.94 867.23 737.188 866.129 C 733.03 866.183 728.872 866.167 724.715 866.082 C 717.246 865.862 706.543 865.264 701.253 859.596 C 700.433 856.012 700.415 857.482 701.846 853.84 C 706.4 849.814 711.803 849.954 717.828 849.376 z" fill="rgb(131,114,128)" transform="translate(0,0)"></path>
<path d="M 771.494 1047.57 C 772.368 1048.32 773.242 1049.54 773.988 1050.47 C 779.943 1071.95 751.072 1094.74 727.041 1086.64 C 724.62 1084.69 724.411 1084.64 723.571 1081.79 C 726.492 1077.78 741.274 1081.85 748.461 1078.59 C 762.512 1072.22 765.46 1059.7 771.494 1047.57 z" fill="rgb(131,114,128)" transform="translate(0,0)"></path>
<path d="M 730.495 1017.99 C 735.582 1018.03 734.568 1017.23 737.74 1019.77 C 740.02 1025.12 742.63 1037.94 737.188 1041.44 C 734.068 1040.27 734.996 1040.54 732.66 1037.38 L 730.503 1028.54 L 729.043 1028.05 C 727.099 1029.53 725.514 1030.66 723.477 1032.02 L 721.677 1031.31 L 721.043 1029.03 C 722.688 1022.71 725.314 1021.12 730.495 1017.99 z" fill="rgb(131,114,128)" transform="translate(0,0)"></path>
<path d="M 685.53 1209.14 C 715.71 1211.9 748.098 1228.11 773.049 1244.68 C 757.844 1246.3 744.3 1247.04 729.083 1245.08 C 723.625 1244.37 707.727 1241.27 703.533 1243.96 C 705.11 1246.36 710.311 1248.75 713.104 1249.61 C 754.368 1262.21 792.629 1251.93 829.523 1234.87 C 839.743 1263.01 851.854 1273.73 880.349 1281.39 C 864.172 1301.64 853.119 1312.59 829.87 1325.22 C 797.754 1342.65 761.292 1351.73 724.879 1344.31 C 715.489 1342.4 704.055 1337.78 694.347 1334.99 C 719.983 1361.88 769.521 1357.7 801.455 1346.78 C 811.783 1343.25 821.772 1339.27 831.854 1335.09 C 842.03 1348.95 849.826 1356.34 862.46 1367.9 C 846.713 1367.91 813.533 1370.36 801.402 1379.42 L 801.349 1381.16 C 805 1382.73 809.512 1381.05 814.085 1380.23 C 835.591 1376.38 851.627 1375.22 873.23 1377.18 C 894.012 1379.78 917.155 1387.84 933.289 1401.13 C 968.056 1429.77 979.105 1457.41 983.926 1500.7 C 955.561 1524.51 930.578 1532.06 894.106 1531.9 C 885.715 1514.69 875.399 1499.16 858.859 1488.79 C 853.668 1485.54 843.314 1480.27 837.173 1480.59 L 836.531 1481.94 C 841.039 1487.33 852.193 1492.14 858.762 1498.97 C 785.276 1508.47 712.732 1498.93 665.37 1435.36 C 621.914 1377.04 618.502 1300.59 628.156 1231.36 C 644.826 1226.53 670.386 1217.55 685.53 1209.14 z" fill="rgb(226,233,210)" transform="translate(0,0)"></path>
<path d="M 578.66 758.417 C 627.449 753.003 686.505 774.259 724.938 804.518 C 706.138 796.634 691.729 789.007 671.167 785.61 C 558.175 766.947 462.77 854.138 445.211 963.098 C 436.708 1018.09 446.641 1074.35 473.462 1123.1 C 479.803 1134.5 486.667 1143.78 494.324 1154.38 C 486.111 1167.79 481.405 1184.44 491.112 1198.51 C 505.723 1219.7 547.13 1227.36 568.39 1213.29 C 572.836 1210.34 575.881 1206.14 580.073 1203.5 C 620.055 1212.94 631.921 1211.19 672.348 1206.44 C 593.161 1235.17 523.332 1246.8 452.695 1189.29 C 348.851 1104.74 343.709 941 425.97 839.859 C 466.438 790.103 514.786 765.157 578.66 758.417 z" fill="rgb(226,233,210)" transform="translate(0,0)"></path>
<path d="M 869.189 1309.26 C 935.721 1312.31 974.413 1333.62 1004.78 1395.56 C 995.188 1404.16 985.03 1408.68 973.314 1413.31 L 961.363 1415.72 C 937.333 1388.67 913.254 1372.45 876.05 1368.47 C 863.712 1354.49 853.39 1347.69 839.877 1330.85 C 849.777 1323.79 859.266 1316.23 869.189 1309.26 z" fill="rgb(173,199,171)" transform="translate(0,0)"></path>
<path d="M 978.418 1552.9 C 980.084 1557.26 973.239 1584.69 972.399 1592.72 C 971.344 1602.26 971.547 1611.9 973.003 1621.38 C 975.431 1636.3 980.411 1646.54 987.2 1659.57 C 968.799 1658.28 954.89 1653.02 940.855 1641.41 C 923.008 1624.19 914.241 1594.11 907.387 1570.69 C 934.4 1573.35 955.54 1567.15 978.418 1552.9 z" fill="rgb(226,233,210)" transform="translate(0,0)"></path>
<path d="M 1013.88 1432.27 C 1015.75 1435.42 1019.17 1446.72 1020.37 1450.58 C 1026.85 1471.44 1036.47 1480.28 1053.39 1492.54 C 1039.84 1495.98 1034.07 1496.03 1020.41 1495.92 C 1010.03 1495.06 1001.79 1493.8 991.49 1492.12 C 990.635 1478.87 986.115 1461.56 982.003 1448.96 C 996.641 1444.27 1001.89 1441.14 1013.88 1432.27 z" fill="rgb(173,199,171)" transform="translate(0,0)"></path>
<path d="M 982.851 1513.98 L 983.565 1514.71 C 984.519 1520.38 982.756 1532.52 981.694 1538.22 C 979.457 1540.02 977.178 1541.76 974.858 1543.45 C 955.529 1557.56 931.315 1563.5 907.077 1562.11 C 905.081 1561.99 905.396 1561.45 904.239 1559.79 C 902.472 1553.84 899.846 1546.98 897.751 1541.06 C 933.345 1541.58 953.824 1534.56 982.851 1513.98 z" fill="rgb(226,233,210)" transform="translate(0,0)"></path>
<path d="M 867.457 1193.12 L 870.031 1193.96 C 874.538 1198.42 870.752 1211.27 879.287 1213.98 C 883.142 1208.79 878.071 1198.78 886.238 1196.42 C 897.989 1199.13 905.247 1218.42 907.398 1229.02 C 908.062 1232.29 907.063 1236.48 906.329 1239.74 C 902.86 1244.86 901.624 1245.86 896.986 1250 C 878.505 1244.6 867.545 1236.64 856.625 1221.28 C 865.628 1210.4 861.674 1205.89 867.457 1193.12 z" fill="rgb(250,248,241)" transform="translate(0,0)"></path>
<path d="M 845.652 1221.64 C 846.947 1222.82 851.986 1230.01 853.622 1232.12 C 866.445 1248.66 872.676 1251.58 892.328 1256.58 C 889.247 1263.53 888.143 1266.19 883.862 1272.41 C 880.616 1273.52 872.135 1270.46 869.065 1268.85 C 851.811 1259.81 843.719 1247.17 837.266 1229.85 L 845.652 1221.64 z" fill="rgb(173,199,171)" transform="translate(0,0)"></path>
<path d="M 1006.5 1405.79 C 1008.8 1408.15 1011.2 1418.76 1012.24 1422.59 C 1010.82 1423.74 1009.38 1424.85 1007.91 1425.93 C 1002.48 1429.9 983.736 1440.6 977.274 1439.56 C 974.545 1434.43 971.199 1429.45 968.038 1424.55 C 985.227 1419.96 992.217 1415.98 1006.5 1405.79 z" fill="rgb(226,233,210)" transform="translate(0,0)"></path>
<path d="M 812.116 1510.09 C 831.713 1510.14 845.693 1509.77 865.097 1505.88 C 871.364 1511.48 873.838 1514.81 878.38 1521.92 C 853.354 1519.39 836.93 1518.58 812.002 1512.93 L 812.116 1510.09 z" fill="rgb(250,248,241)" transform="translate(0,0)"></path>
<path d="M 733.42 1179.94 C 736.103 1180.62 748.601 1199.46 751.177 1203.13 C 741.25 1201.52 732.242 1200.43 722.241 1199.33 C 716.017 1198.69 706.109 1199 699.606 1199 C 711.055 1193.07 722.257 1186.42 733.42 1179.94 z" fill="rgb(173,199,171)" transform="translate(0,0)"></path>
<path d="M 711.74 1207.39 C 721.348 1206.37 743.538 1210.71 757.013 1210.82 C 766.031 1219.24 774.013 1226.44 780.132 1237.27 C 777.764 1236.63 756.862 1222.72 750.176 1219.8 C 736.731 1213.93 725.057 1212.3 712.508 1207.68 L 711.74 1207.39 z" fill="rgb(173,199,171)" transform="translate(0,0)"></path>
<path d="M 795.394 1508.52 C 800.916 1508.95 806.587 1509.56 812.116 1510.09 L 812.002 1512.93 C 806.101 1511.71 801.183 1510.24 795.394 1508.52 z" fill="rgb(220,206,216)" transform="translate(0,0)"></path>
<path d="M 1321.74 103.142 C 1327.78 104.061 1335.43 106.409 1336.24 113.69 C 1337.45 124.538 1337.48 135.738 1337.88 146.671 L 1340.21 206.361 C 1367.83 221.935 1397.1 234.362 1425.36 248.657 C 1432.66 250.569 1437.17 265.653 1429.61 269.241 C 1401.92 282.388 1369.36 289.237 1341.51 301.585 L 1340.12 302.208 C 1333.68 325.552 1333.76 390.908 1323.58 407.105 C 1310.91 427.282 1251.78 333.215 1237.78 332.192 C 1223.31 334.352 1152 351.932 1144.31 348.49 C 1140.89 346.961 1138.05 343.951 1136.86 340.393 C 1135.73 336.998 1137.34 333.452 1138.73 330.363 C 1143.19 320.395 1149.91 310.869 1155.62 301.55 C 1166.77 283.358 1178.05 265.26 1188.1 246.433 C 1172.53 224.448 1157.88 192.404 1143.76 168.854 C 1137.89 159.081 1144.03 146.567 1156.81 149.69 C 1187.23 157.126 1219.17 164.156 1249.13 173.461 C 1264.68 160.904 1309.16 108.251 1321.74 103.142 z" fill="rgb(131,114,128)" transform="translate(0,0)"></path>
<path d="M 1319.33 126.721 C 1324.51 130.804 1319.01 208.869 1327.02 217.734 C 1332.17 223.434 1352.49 231.87 1359.54 235.176 C 1376.77 243.167 1393.88 251.411 1410.87 259.903 C 1388.32 268.322 1339.32 279.621 1323.59 296.931 C 1321.1 305.024 1319.66 325.073 1318.83 333.914 C 1317.24 351.861 1315.36 369.781 1313.2 387.668 C 1295.53 369.326 1279.31 349.34 1262.3 330.379 C 1255.36 322.642 1251.68 315.735 1240.76 314.156 C 1213.29 319.315 1184.68 325.627 1157.04 331.089 C 1167.69 313.136 1178.42 295.238 1189.25 277.393 C 1194.72 268.291 1203.17 255.28 1206.91 245.891 C 1203.44 238.016 1195.14 225.089 1190.35 217.169 L 1160.71 168.085 C 1175.01 170.969 1189.2 174.397 1203.24 178.362 C 1214.28 181.403 1225.54 184.518 1236.57 187.528 C 1251.63 191.637 1257.04 189.489 1267.71 178.865 C 1285.03 161.631 1301.68 143.567 1319.33 126.721 z" fill="rgb(220,206,216)" transform="translate(0,0)"></path>
<path d="M 1238.84 1697.58 C 1239.59 1697.59 1240.35 1697.65 1241.1 1697.72 C 1252.28 1698.77 1283.15 1741.29 1291.57 1751.62 C 1392.05 1724.45 1370.44 1745.31 1326.97 1810.88 C 1333.33 1820.88 1357.6 1866.2 1355.4 1876.32 C 1354.99 1878.19 1353.85 1879.91 1352.15 1880.79 C 1345.66 1884.15 1300.22 1867.05 1291.01 1864.18 C 1288.64 1863.75 1287.09 1863.22 1284.85 1864.55 C 1271.87 1872.26 1245.48 1912.66 1231 1914.02 C 1229.03 1914.21 1227.39 1913.88 1225.97 1912.46 C 1221.39 1907.89 1220.15 1847.59 1219.9 1836.57 C 1179.08 1815.03 1113.24 1805.97 1199.47 1781.81 C 1206.2 1779.92 1214.85 1776.3 1221.52 1773.85 C 1226.57 1751.79 1227.55 1725.28 1234.14 1703.66 C 1234.67 1701.89 1237.47 1698.97 1238.84 1697.58 z" fill="rgb(131,114,128)" transform="translate(0,0)"></path>
<path d="M 1241.33 1704.29 C 1246.24 1706.28 1282.34 1751.14 1288.88 1758.65 C 1309.69 1756.47 1335.93 1748.42 1359.38 1745.54 C 1350.16 1767.77 1326.27 1794.37 1320.04 1810.57 C 1329.4 1830.71 1341.84 1854.69 1349.88 1874.72 C 1332.18 1870.59 1308.13 1862.3 1289.53 1857.08 C 1288.7 1856.99 1287.86 1856.93 1287.02 1856.92 C 1279.68 1856.82 1268.33 1871.58 1262.99 1876.96 C 1252.38 1887.64 1242.26 1898.65 1231.28 1909.01 C 1228.75 1885.43 1230.03 1860.79 1225.97 1837.51 C 1223.23 1821.8 1169.12 1813.5 1166.98 1802.45 C 1171.16 1796.32 1213.84 1786.12 1227.01 1778.45 L 1227.93 1777.91 C 1230.61 1763.8 1237.4 1713.65 1241.33 1704.29 z" fill="rgb(220,206,216)" transform="translate(0,0)"></path>
<path d="M 180.96 118.379 C 189.612 119.537 223.681 157.82 232.443 166.39 C 244.416 162.117 285.798 145.688 295.461 148.276 C 296.817 149.336 297.708 149.668 298.331 151.338 C 301.252 159.176 277.483 202.108 272.611 212.045 C 280.825 221.01 288.454 234.088 295.641 244.085 C 300.265 250.517 311.479 264.311 306.065 271.815 C 300.187 273.795 258.85 267.109 249.722 265.841 C 238.227 265.445 240.071 271.219 233.121 277.567 C 224.791 285.175 206.076 322.629 193.734 318.026 C 188.672 312.366 188.638 298.215 187.224 290.511 C 184.859 277.62 182.385 264.598 180.383 251.653 C 164.844 244.386 141.059 239.887 125.028 232.702 C 123.141 231.856 123.173 230.361 122.754 228.628 C 126.191 216.414 162.731 199.686 176.585 188.228 L 177.567 187.406 C 179.091 167.289 175.203 143.072 177.783 123.02 C 177.93 121.876 180.075 119.359 180.96 118.379 z" fill="rgb(131,114,128)" transform="translate(0,0)"></path>
<path d="M 183.76 126.512 C 187.015 128.532 191.871 134.238 194.869 137.088 C 205.088 146.798 219.843 164.745 230.616 172.415 C 248.752 168.623 275.193 157.952 293.786 151.911 C 286.252 172.264 273.281 193.385 266.699 213.551 C 278.163 230.912 290.949 248.128 302.781 265.392 C 285.962 264.802 264.86 261.397 247.473 259.68 C 244.936 259.468 240.625 259.312 238.717 261.377 C 223.918 277.387 211.637 295.597 197.286 312.165 C 194.232 294.476 190.944 276.855 188.339 259.085 C 187.748 255.055 186.178 249.597 182.701 247.112 C 176.863 242.938 168.931 241.494 162.294 238.922 C 151.895 235.091 140.706 232.342 130.788 227.364 L 129.593 226.754 C 148.559 215.074 166.256 204.171 184.338 191.067 C 184.084 169.904 183.42 147.579 183.76 126.512 z" fill="rgb(220,206,216)" transform="translate(0,0)"></path>
<path d="M 822.524 415.782 C 824.429 415.957 826.665 416.051 828.233 417.27 C 834.904 422.456 836.202 471.091 837.089 481.941 C 850.442 489.236 890.539 502.663 896.887 511.622 C 898.84 523.272 850.615 538.839 839.465 543.307 C 838.26 562.024 837.424 582.577 834.673 601.196 C 834.013 605.656 832.398 608.787 828.164 610.527 C 818.781 608.967 792.95 571.08 784.139 560.791 C 765.488 561.239 739.962 575.716 721.138 573.6 C 719.199 573.383 718.735 571.802 717.987 570.386 C 717.543 558.476 741.667 523.576 749.229 512.05 C 741.833 499.203 715.997 469.331 713.878 458.544 C 715.923 450.23 727.977 453.802 734.464 454.97 C 750.33 457.829 766.564 461.241 782.296 464.634 C 788.439 456.469 816.419 420.485 822.524 415.782 z" fill="rgb(131,114,128)" transform="translate(0,0)"></path>
<path d="M 824.591 421.803 C 829.048 427.208 828.157 474.976 831.106 481.71 C 835.582 491.93 881.014 507.87 893.638 513.858 C 876.226 523.3 854.719 528.239 837.596 538.068 C 831.588 541.516 831.821 560.162 831.335 566.733 C 830.491 579.699 829.338 592.643 827.878 605.554 C 814.612 593.272 795.902 561.831 784.963 554.335 C 763.729 557.599 747.054 565.205 723.711 568.072 C 731.664 551.528 746.459 529.01 756.359 513.078 C 750.293 500.433 727.113 470.24 717.783 458.168 C 740.054 461.347 761.439 467.059 784.371 470.403 C 797.49 458.935 811.601 434.558 824.591 421.803 z" fill="rgb(220,206,216)" transform="translate(0,0)"></path>
<path d="M 217.112 1702.46 C 226.624 1703.96 247.818 1728.03 255.152 1736.06 C 318.715 1705.95 308.558 1720.69 286.451 1770.54 C 327.116 1823.53 315.576 1813.73 263.042 1811.65 C 256.24 1819.38 239.253 1850.86 230.04 1847.57 C 224.779 1841.46 217.4 1807.36 214.904 1797.57 C 208.451 1796.37 179.53 1787.41 174.442 1782.2 C 172.736 1780.46 173.464 1778.61 173.859 1776.73 C 178.877 1769.91 204.234 1758.41 214.073 1752.78 C 213.871 1741.69 212.724 1730.35 212.553 1719.29 C 212.439 1711.94 212.124 1707.56 217.112 1702.46 z" fill="rgb(131,114,128)" transform="translate(0,0)"></path>
<path d="M 218.594 1708.76 C 223.834 1712.14 247.306 1735.79 253.888 1741.94 C 267.233 1738.03 285.271 1730.57 299.495 1725.9 C 293.406 1737.22 283.678 1758.85 279.983 1770.84 C 283.946 1779.65 298.942 1798.22 305.437 1808.24 C 292.007 1806.94 275.901 1805.8 262.827 1803.45 C 258.17 1804.28 239.864 1834.77 233.55 1841.94 C 216.878 1785.02 234.237 1800.83 179.071 1778.67 C 190.876 1770.68 206.196 1765.11 219.246 1756.25 C 219.59 1743.68 217.034 1718.31 218.594 1708.76 z" fill="rgb(220,206,216)" transform="translate(0,0)"></path>
<path d="M 1310.23 840.557 C 1322.37 846.35 1331.53 866.629 1340.79 877.761 C 1350.57 875.821 1376.41 868.154 1382.73 876.509 C 1383.53 884.858 1365.14 904.556 1358.97 912.073 C 1363.23 921.297 1378.42 949.069 1373.14 958.178 C 1362.7 963.595 1338.4 946.193 1331.59 946.635 C 1319.73 959.606 1287.1 1003.63 1290.29 956.067 C 1290.9 946.958 1291.6 937.819 1292.33 928.718 C 1284.3 925.298 1260.92 915.505 1255.91 907.999 C 1254.73 906.239 1255.49 905.099 1256.02 903.381 C 1263.57 894.862 1286.19 891.841 1297.41 887.583 L 1298.16 887.288 C 1300.61 875.441 1304.8 849.966 1310.23 840.557 z" fill="rgb(131,114,128)" transform="translate(0,0)"></path>
<path d="M 1312.47 848.696 C 1321.67 856.099 1328.56 871.979 1333.85 879.924 C 1341.46 884.988 1367.4 878.85 1378.19 877.463 C 1371.66 887.537 1360.46 900.867 1352.78 910.897 C 1358.41 925.183 1364.24 938.864 1369.46 953.386 C 1356.91 950.654 1348.21 946.63 1336.46 941.678 C 1332.31 939.927 1332.43 940.098 1329.21 941.477 C 1318.27 953.358 1309 964.251 1295.89 973.943 C 1295.79 956.685 1297.48 942.92 1298.13 926.084 C 1289.72 920.23 1264.58 910.763 1261.76 905.999 C 1266.58 896.962 1298.95 898.925 1302.43 889.588 C 1307.32 876.468 1307.03 862.752 1312.47 848.696 z" fill="rgb(220,206,216)" transform="translate(0,0)"></path>
<path d="M 1086.17 641.855 C 1088.21 642.638 1088.24 642.77 1090.11 643.896 C 1094.04 650.319 1092.52 663.555 1092.25 671.405 C 1099.72 675.753 1123.67 682.364 1119.83 691.987 C 1114.18 697.58 1099.89 701.466 1091.98 704.125 C 1090.23 712.139 1089.8 734.854 1083.18 737.932 C 1076.65 736.456 1065.35 719.321 1060.93 713.211 C 1053.8 714.064 1031.91 723.175 1028.23 716.565 C 1029.36 708.955 1038.49 696.799 1043.02 689.988 C 1039.15 683.358 1026.25 665.406 1030.79 658.788 C 1037.74 656.026 1055.02 662.32 1062.77 664.631 C 1069.63 657.618 1078.77 647.765 1086.17 641.855 z" fill="rgb(131,114,128)" transform="translate(0,0)"></path>
<path d="M 1086.39 648.698 C 1088.15 654.3 1085.75 665.257 1087.02 669.837 C 1089.75 679.661 1106.22 682.939 1116.59 689.491 C 1107.08 693.925 1097.55 696.191 1087.3 701.26 C 1085.76 706.933 1083.69 723.56 1082.38 730.804 C 1077.06 725.616 1065.21 709.469 1060.79 708.003 L 1032.97 714.872 C 1038.07 705.967 1043.75 698.155 1049.65 689.78 C 1043.62 680.737 1038.62 672.871 1034.31 662.873 C 1043.2 664.809 1054.4 668.197 1063.35 670.652 C 1070.61 664.948 1078.86 655.453 1086.39 648.698 z" fill="rgb(220,206,216)" transform="translate(0,0)"></path>
<metadata><recraft-signature>{"signed_by": "recraft", "signature_b64": "KJA+LPhsNouWuK5TIv3S3Nrm5UJkVnzx23uq6zwX4x7nGXznWlpMooFmiXvVsI4Bc2KD0wrSEjsmvRKpq4tuAw==", "signing_algo": "Ed25519", "generation_timestamp": 1773763979, "identifier": "7d4a7fcd-b30b-4540-9189-1647fec2f2d8"}</recraft-signature></metadata></svg>