<svg xmlns="http://www.w3.org/2000/svg" height="1024" preserveAspectRatio="none" style="display: block;" version="1.1" viewBox="0 0 2048 2048" width="1024">
<path d="M 0 0 L 2048 0 L 2048 2048 L 0 2048 L 0 0 z" fill="rgb(255,255,255)" transform="translate(0,0)"></path>
<path d="M 713.665 84.4301 C 719.092 84.0757 720.183 83.836 724.827 85.8987 C 728.489 87.5252 730.365 93.9647 729.65 95.3883 C 724.037 106.559 713.666 123.45 708.078 134.001 C 699.628 150.314 692.347 167.207 686.292 184.552 C 657.467 265.347 655.062 363.901 676.59 446.583 C 703.263 435.498 730.973 427.952 758.407 420.323 C 1016.01 348.686 1284.42 437.853 1453.12 644.15 C 1507.2 710.291 1550.31 779.656 1594.23 853.465 C 1695.96 885.323 1791.81 981.887 1824.95 1082.64 C 1877.04 1241.03 1784.1 1392.89 1675.16 1501.15 C 1563.75 1612.06 1427.91 1695.33 1278.54 1744.3 C 1150.17 1786.45 1006.61 1803.43 875.665 1762.27 C 846.965 1753.25 821.698 1740.66 794.976 1727.15 C 784.965 1778.44 752.904 1822 705.08 1844.21 C 661.976 1864.08 612.787 1866.19 568.138 1850.09 C 511.7 1828.64 465.869 1786 440.41 1731.25 C 436.08 1721.05 432.772 1710.43 430.536 1699.57 C 415.474 1627.55 460.975 1581.17 528.861 1565.6 C 533.866 1564.46 538.939 1563.45 543.967 1562.4 C 531.252 1552.54 515.086 1536.74 503.232 1525.62 C 443.528 1470.17 391.106 1407.36 347.223 1338.71 C 264.029 1209.32 244.555 1050.63 276.939 902.083 C 300.994 796.56 352.28 699.182 425.689 619.651 C 462.416 580.036 518.679 534.603 564.488 505.143 C 506.558 515.511 447.618 520.994 390.972 538.781 C 299.587 567.475 202.992 603.818 143.651 683.462 C 137.789 690.484 131.58 710.674 120.054 708.886 C 109.159 707.196 104.219 679.949 102.151 671.016 C 56.4376 473.567 286.314 415.939 435.048 423.288 C 477.825 425.402 512.346 431.244 554.367 438.521 C 542.045 431.686 527.98 427.387 514.695 421.969 C 446.085 393.989 371.111 381.62 297.546 376.29 C 289.188 375.685 277.903 376.805 270.112 375.336 C 260.338 366.247 266.022 316.262 271.942 304.162 C 272.913 302.176 276.459 300.338 278.689 300.35 C 361.553 300.82 439.706 325.802 511.688 366.131 C 536.573 380.111 561.156 398.129 584.138 414.863 C 557.449 374.165 537.466 330.657 532.497 281.511 C 524.224 199.687 570.409 128.612 646.045 98.6167 C 667.947 89.9312 690.011 86.4015 713.665 84.4301 z" fill="rgb(118,99,137)" transform="translate(0,0)"></path>
<path d="M 940.343 417.988 C 1036.73 419.44 1107.2 433.073 1194.52 471.482 C 1241.21 491.916 1285.2 518.051 1325.47 549.291 C 1354.5 572.1 1383.75 600.359 1409.64 627.054 C 1460.96 679.964 1500.62 743.004 1540.21 804.798 C 1554.18 826.616 1567.09 849.686 1581.35 871.213 C 1603.09 879.143 1625.03 886.997 1645.29 898.71 C 1693.76 926.739 1736.8 967.453 1768.54 1013.56 C 1778.14 1027.5 1785.78 1044 1793.07 1059.19 C 1857.22 1192.91 1791.11 1339.69 1700.47 1442.29 C 1691.99 1451.9 1681.91 1464.17 1671.94 1472.21 C 1645.61 1507.67 1547.34 1584.95 1509.12 1609.34 C 1311.81 1735.26 1031.55 1827.67 809.609 1711.08 C 799.927 1705.99 794.105 1701.51 782.781 1702.42 C 774.619 1697.45 763.091 1692.63 754.433 1686.32 C 735.292 1672.37 674.324 1622.25 662.557 1604.1 C 667.256 1603.21 669.646 1602.81 672.322 1598.58 C 672.503 1597.54 673.054 1594.91 672.483 1594.04 C 667.246 1585.96 661.297 1578.06 655.867 1570.09 C 648.662 1559.71 641.904 1549.03 635.611 1538.07 C 601.533 1479.23 558.676 1378.32 544.021 1313.31 C 499.585 1173.01 492.774 1028.18 519.21 884.029 C 527.456 839.061 535.96 793.202 551.76 750.086 C 568.335 742.469 584.409 734.43 601.245 728.089 C 722.88 682.272 867.818 671.867 985.536 734.665 C 992.98 738.636 1000.86 742.308 1007.94 746.925 C 1015.52 750.774 1041.56 774.761 1047.93 769.447 C 1056.43 762.354 1059.59 728.158 1060.43 717.467 C 1068 620.166 1036.27 523.888 972.317 450.163 C 961.336 437.406 952.333 429.497 940.343 417.988 z" fill="rgb(255,255,255)" transform="translate(0,0)"></path>
<path d="M 544.021 1313.31 C 544.212 1313.51 544.403 1313.72 544.595 1313.93 C 570.606 1355.23 592.457 1395.82 623.569 1434.08 C 734.663 1570.69 883.817 1661.85 1062.2 1674.21 C 1257.51 1687.74 1453.76 1619.19 1614.94 1511.32 C 1624.25 1505.09 1664.95 1474.34 1671.94 1472.21 C 1645.61 1507.67 1547.34 1584.95 1509.12 1609.34 C 1311.81 1735.26 1031.55 1827.67 809.609 1711.08 C 799.927 1705.99 794.105 1701.51 782.781 1702.42 C 774.619 1697.45 763.091 1692.63 754.433 1686.32 C 735.292 1672.37 674.324 1622.25 662.557 1604.1 C 667.256 1603.21 669.646 1602.81 672.322 1598.58 C 672.503 1597.54 673.054 1594.91 672.483 1594.04 C 667.246 1585.96 661.297 1578.06 655.867 1570.09 C 648.662 1559.71 641.904 1549.03 635.611 1538.07 C 601.533 1479.23 558.676 1378.32 544.021 1313.31 z" fill="rgb(222,208,221)" transform="translate(0,0)"></path>
<path d="M 926.164 1127.33 C 947.775 1125.26 967.168 1127.58 988.206 1134.14 C 1064.15 1157.83 1158.91 1254.7 1129.4 1340.5 C 1103.34 1416.24 995.862 1459.97 926.002 1417.38 C 920.601 1414.08 902.765 1400.44 899.496 1399.34 L 896.649 1400.8 C 872.517 1418.46 845.212 1425.17 815.562 1416.7 C 813.84 1416.2 814.119 1415.92 813.621 1414.39 C 819.029 1412.21 828.017 1412.39 834.177 1411.18 C 851.023 1407.85 863.81 1402.31 878.586 1394.09 C 847.082 1397.76 808.981 1386.76 795.161 1355.65 C 823.3 1377.84 848.908 1381.26 883.696 1378.94 C 878.965 1371.38 872.811 1362.42 868.875 1354.55 C 832.95 1282.77 818.667 1142.53 926.164 1127.33 z" fill="rgb(118,99,137)" transform="translate(0,0)"></path>
<path d="M 918.462 1132.26 C 980.091 1125.83 1055.87 1170.27 1080.33 1227.27 C 1092.09 1254.68 1093.58 1290.42 1081.75 1318.21 C 1069.49 1347 1055.1 1360.4 1026.66 1372.08 C 989.509 1385.03 953.024 1380.69 918.946 1358.69 C 855.997 1318.04 840.221 1219.85 878.295 1157.61 C 887.468 1142.62 901.252 1135.37 918.462 1132.26 z" fill="rgb(255,255,255)" transform="translate(0,0)"></path>
<path d="M 1409.4 856.435 C 1419.94 856.419 1430.45 857.597 1440.73 859.946 C 1495.84 872.175 1536.15 908.891 1565.53 955.283 C 1574.43 930.986 1571.81 914.278 1570.32 888.908 C 1585.94 907.158 1585.21 932.556 1577.71 954.137 C 1598.21 938.121 1598.71 928.469 1607.11 905.153 C 1611.23 935.211 1602.01 957.412 1571.67 968.158 C 1578.13 991.777 1580.1 1005.53 1575.71 1029.5 C 1572.31 1044.27 1564.63 1059.25 1554.92 1070.82 C 1537.35 1091.63 1512.12 1104.48 1484.96 1106.46 C 1456.29 1108.79 1426.52 1100.01 1405 1080.5 C 1368.36 1046.36 1338.3 996.281 1335.09 945.527 C 1331.73 892.182 1355.52 859.408 1409.4 856.435 z" fill="rgb(118,99,137)" transform="translate(0,0)"></path>
<path d="M 1393.62 864.291 C 1470.87 857.25 1564.92 937.686 1531.5 1019.12 C 1523.07 1039.67 1506.66 1054.11 1486.36 1062.27 C 1457.58 1071.32 1433.94 1065.57 1407.8 1048.46 C 1361.11 1017.9 1322.53 938.586 1354.84 886.096 C 1362.83 873.119 1378.83 866.616 1393.62 864.291 z" fill="rgb(255,255,255)" transform="translate(0,0)"></path>
<path d="M 1450.25 1262.03 C 1505.27 1337.41 1502.53 1481.63 1392.49 1505.65 C 1355.96 1513.62 1320.36 1498.95 1290.58 1478.11 C 1256.71 1452.83 1240.22 1423.4 1227.46 1384.29 C 1327.15 1366.3 1380.94 1338.64 1450.25 1262.03 z" fill="rgb(118,99,137)" transform="translate(0,0)"></path>
<path d="M 1400.84 1420.41 C 1423.26 1418.96 1436.22 1421.06 1455.78 1432.26 C 1436.5 1472.37 1404.35 1491.98 1359.85 1487.76 C 1339.12 1484.38 1319.57 1475.83 1303.02 1462.9 C 1330.34 1438.8 1364.57 1423.93 1400.84 1420.41 z" fill="rgb(222,208,221)" transform="translate(0,0)"></path>
<path d="M 994.858 1442.42 C 1069.32 1436.95 1067.7 1513.66 1031.04 1555.5 C 1000.25 1590.65 953.904 1611.37 908.274 1615.87 C 829.825 1617.71 832.558 1555.92 872.136 1507.92 C 898.065 1476.46 953.956 1445.65 994.858 1442.42 z" fill="rgb(222,208,221)" transform="translate(0,0)"></path>
<path d="M 905.789 1526.08 C 919.432 1530.42 934.972 1559.56 932.711 1573.7 C 918.84 1571.58 903.605 1538.12 905.789 1526.08 z" fill="rgb(118,99,137)" transform="translate(0,0)"></path>
<path d="M 938.157 1510.09 C 950.866 1513.45 963.747 1547.73 959.033 1560.19 C 951.995 1556.86 945.74 1544.44 942.766 1537.27 C 938.776 1527.64 934.413 1519.93 938.157 1510.09 z" fill="rgb(118,99,137)" transform="translate(0,0)"></path>
<path d="M 964.844 1495.86 C 979.234 1501.52 990.984 1529.41 985.765 1543.75 L 982.499 1543 C 977.235 1539.01 968.33 1519.16 966.184 1512.36 C 964.117 1505.82 961.899 1502.02 964.844 1495.86 z" fill="rgb(118,99,137)" transform="translate(0,0)"></path>
<path d="M 1700.28 1001.33 C 1726.5 998.151 1756.54 1011.17 1759.97 1040.41 C 1762.67 1063.41 1753.79 1083.09 1739.88 1100.95 C 1716.89 1130.48 1688.8 1149.74 1651.24 1154.85 C 1599.94 1160.09 1577.33 1128.5 1595.49 1081.69 C 1611.38 1040.73 1657.72 1007.72 1700.28 1001.33 z" fill="rgb(222,208,221)" transform="translate(0,0)"></path>
<path d="M 1655.48 1058.44 C 1674.67 1060.44 1694.32 1085.15 1690.17 1104.65 L 1688.62 1104.78 C 1681.32 1101.69 1659.45 1066.59 1655.48 1058.44 z" fill="rgb(118,99,137)" transform="translate(0,0)"></path>
<path d="M 1630.36 1074.45 C 1638.33 1075.77 1650.1 1087.07 1654.44 1093.59 C 1661.42 1104.09 1663.89 1108.74 1662.07 1120.79 C 1660.56 1120.88 1658.78 1121.33 1657.93 1120.45 C 1648.16 1110.28 1633.14 1087.63 1630.36 1074.45 z" fill="rgb(118,99,137)" transform="translate(0,0)"></path>
<path d="M 1683.59 1041.43 C 1701.38 1044.75 1715.45 1066.07 1714.13 1083.92 C 1702.95 1081.82 1685.38 1052.29 1683.59 1041.43 z" fill="rgb(118,99,137)" transform="translate(0,0)"></path>
<path d="M 806.902 958.34 C 814.343 957.642 821.021 957.887 827.776 961.461 C 833.965 964.696 838.533 970.357 840.388 977.09 C 848.024 1004.51 811.786 1024.39 795.181 1040 C 769.411 1064.24 746.161 1090.78 728.533 1121.57 C 725.61 1126.19 719.081 1135.13 712.295 1131.34 C 707.262 1128.53 705.068 1118.12 704.409 1112.73 C 699.649 1073.82 713.652 1036.64 737.056 1005.98 C 753.721 983.966 778.843 962.057 806.902 958.34 z" fill="rgb(118,99,137)" transform="translate(0,0)"></path>
<path d="M 1326.82 705.374 C 1347.69 702.96 1375.6 705.556 1393.76 712.131 C 1442.2 729.674 1445.8 748.507 1389.96 747.896 C 1372.2 747.702 1343.72 756.099 1327.5 762.351 C 1308.59 770.691 1268.47 790.116 1249.07 776.397 C 1245.27 773.762 1242.73 769.675 1242.04 765.101 C 1235.84 726.149 1298.68 708.995 1326.82 705.374 z" fill="rgb(118,99,137)" transform="translate(0,0)"></path>
<path d="M 1331.39 1167.32 C 1369.76 1164.7 1392.6 1205.19 1380.01 1238.26 C 1375.47 1250.34 1366.31 1260.12 1354.55 1265.43 C 1344.59 1269.89 1320.1 1274.06 1315.36 1260.55 C 1321.78 1250.53 1356.53 1258.54 1363.87 1224.92 C 1364.6 1208.42 1360.03 1192.49 1341.58 1188.07 C 1324.06 1183.86 1304.71 1199.42 1294.86 1212.7 C 1289.46 1220 1287.81 1232.74 1279.72 1237.8 C 1277.33 1239.17 1275.6 1238.04 1273.56 1237.23 C 1262.72 1225.4 1277.96 1203.46 1285.55 1192.8 C 1296.82 1176.98 1312.35 1169.71 1331.39 1167.32 z" fill="rgb(118,99,137)" transform="translate(0,0)"></path>
<path d="M 683.657 467.148 C 743.361 441.11 846.119 421.449 910.506 418.474 C 924.561 427.861 951.615 458.038 962.785 472.069 C 1019.04 542.742 1051 633.194 1040.51 723.946 C 1022.62 666.137 978.94 615.446 928.813 582.482 C 898.536 562.572 857.586 549.47 821.497 546.906 C 811.58 546.81 801.269 546.49 791.465 547.815 C 826.507 550.436 860.659 560.109 891.87 576.255 C 950.757 607.37 1008.24 672.57 1028.05 736.301 C 1006.44 722.406 978.843 705.907 954.544 697.114 C 853.206 660.443 736.265 662.984 634.06 695.144 C 606.277 703.887 585.22 712.885 558.954 724.617 C 586.159 644.276 634.755 535.954 683.657 467.148 z" fill="rgb(222,208,221)" transform="translate(0,0)"></path>
<path d="M 791.465 547.815 C 788.081 548.47 781.793 547.973 778.379 547.636 C 784.699 545.593 814.229 545.358 821.497 546.906 C 811.58 546.81 801.269 546.49 791.465 547.815 z" fill="rgb(179,152,190)" transform="translate(0,0)"></path>
<path d="M 428.201 648.773 C 450.551 646.258 461.147 649.568 470.862 671.072 C 463.402 690.757 453.911 721.642 446.155 739.448 C 436.523 771.735 428.3 805.19 420.749 838.057 C 414.006 867.405 411.218 898.542 407.225 928.337 C 405.207 949.317 403.221 978.324 402.831 999.46 C 402.402 1094.24 408.682 1180.24 435.88 1271.52 C 444.936 1301.92 452.001 1333.28 465.255 1362.42 C 472.43 1384.17 485.458 1412.46 495.402 1433.22 C 481.758 1445.96 468.43 1445.93 451.231 1441.21 C 446.11 1435.96 440.394 1429.41 436.724 1423.07 C 420.319 1411.59 360.175 1320.49 349.265 1298.97 C 341.963 1287.48 332.199 1267.25 328.189 1254.42 C 314.041 1225.11 302.906 1188.39 296.311 1156.53 C 289.98 1126.09 286.808 1095.82 284.558 1064.81 C 283.442 1058.5 283.567 1038.06 283.563 1031.06 C 283.531 972.98 293.377 923.039 308.178 867.153 C 317.557 834.961 327.751 806.946 342.86 776.858 C 356.152 750.746 371.646 723.977 389.298 700.548 C 401.444 681.622 413.199 665.493 428.201 648.773 z" fill="rgb(179,152,190)" transform="translate(0,0)"></path>
<path d="M 328.189 1254.42 C 332.697 1238.6 336.84 1223.43 352.736 1214.96 C 393.831 1193.08 435.447 1229.46 420.012 1273.46 C 410.366 1300.95 382.031 1312.18 355.257 1301.59 C 353.228 1300.79 351.229 1299.92 349.265 1298.97 C 341.963 1287.48 332.199 1267.25 328.189 1254.42 z" fill="rgb(222,208,221)" transform="translate(0,0)"></path>
<path d="M 402.831 999.46 L 401.881 1006.61 C 393.158 1019.61 360.743 1012.42 349.879 1004.2 C 339.885 996.682 333.489 985.328 332.237 972.884 C 327.768 930.66 377.667 903.949 407.225 928.337 C 405.207 949.317 403.221 978.324 402.831 999.46 z" fill="rgb(222,208,221)" transform="translate(0,0)"></path>
<path d="M 284.558 1064.81 C 284.843 1063.33 284.897 1060.43 286.273 1059.89 C 294.647 1056.58 308.35 1058.58 316.815 1061.1 C 362.697 1074.76 363.504 1133.96 323.412 1154.9 C 314.59 1159.51 305.697 1158.25 296.311 1156.53 C 289.98 1126.09 286.808 1095.82 284.558 1064.81 z" fill="rgb(222,208,221)" transform="translate(0,0)"></path>
<path d="M 428.201 648.773 C 450.551 646.258 461.147 649.568 470.862 671.072 C 463.402 690.757 453.911 721.642 446.155 739.448 C 431.888 743.571 415.626 740.003 404.197 730.594 C 393.285 721.612 390.758 713.821 389.298 700.548 C 401.444 681.622 413.199 665.493 428.201 648.773 z" fill="rgb(222,208,221)" transform="translate(0,0)"></path>
<path d="M 342.86 776.858 C 368.699 783.804 378.175 808.041 371.437 832.666 C 367.814 845.894 359.031 857.114 347.06 863.807 C 337.578 869.008 318.337 871.461 308.178 867.153 C 317.557 834.961 327.751 806.946 342.86 776.858 z" fill="rgb(222,208,221)" transform="translate(0,0)"></path>
<path d="M 436.724 1423.07 C 426.922 1396.42 434.154 1367.55 465.255 1362.42 C 472.43 1384.17 485.458 1412.46 495.402 1433.22 C 481.758 1445.96 468.43 1445.93 451.231 1441.21 C 446.11 1435.96 440.394 1429.41 436.724 1423.07 z" fill="rgb(222,208,221)" transform="translate(0,0)"></path>
<path d="M 782.781 1702.42 C 776.101 1709.51 772.951 1733.34 768.429 1745.82 C 763.63 1759.21 756.76 1771.77 748.067 1783.03 C 656.306 1902.05 467.089 1817.45 448.74 1682.73 C 440.441 1621.8 498.54 1587.68 551.443 1582.41 C 581.857 1579.38 638.363 1584.51 662.557 1604.1 C 674.324 1622.25 735.292 1672.37 754.433 1686.32 C 763.091 1692.63 774.619 1697.45 782.781 1702.42 z" fill="rgb(255,255,255)" transform="translate(0,0)"></path>
<path d="M 571.654 1633.42 C 610.858 1629.01 656.829 1644.58 689.11 1666.54 C 696.928 1671.86 713.77 1683.37 705.466 1694.56 C 695.262 1699.81 688.051 1692.09 678.54 1688.73 C 649.571 1678.52 610.042 1677.4 589.974 1705.06 C 583.661 1713.73 581.262 1724.65 583.359 1735.17 C 585.734 1747.18 595.42 1758.13 605.4 1764.7 C 639.868 1787.39 698.723 1778.43 719.052 1740.39 C 723.128 1732.77 725.983 1724.05 730.749 1716.92 C 734.057 1715.43 732.365 1715.59 736.015 1716.62 C 737.18 1717.91 739.278 1719.76 738.774 1721.74 C 731.959 1748.55 719.052 1768.91 693.305 1780.5 C 670.618 1790.71 651.979 1794.38 627.761 1791.72 C 610.607 1789.68 594.596 1782.06 582.19 1770.04 C 540.067 1729.44 573.527 1672.41 624.302 1665.93 C 631.022 1665.07 636.641 1664.94 643.444 1664.89 C 600.617 1649.32 562.16 1648.99 519.546 1665.99 C 517.664 1686.48 519.004 1705.3 529.462 1723.74 C 532.947 1730.23 538.88 1737.27 540.43 1744.57 C 542.66 1755.06 531.707 1759.6 524.771 1751.4 C 507.584 1731.08 500.291 1706.74 499.865 1680.53 C 492.759 1684.84 473.649 1698.41 467.819 1687.05 C 467.682 1672.29 488.136 1661.26 499.381 1654.8 C 521.86 1641.9 545.963 1635.47 571.654 1633.42 z" fill="rgb(118,99,137)" transform="translate(0,0)"></path>
<path d="M 644.902 485.965 L 645.428 486.408 C 645.67 488.917 629.409 514.896 626.462 520.133 C 619.587 532.539 612.974 545.087 606.626 557.77 C 564.456 641.239 532.094 729.311 510.189 820.226 C 504.095 845.516 501.24 866.123 496.873 891.451 C 483.172 970.916 479.315 1051.78 485.789 1132.17 C 487.47 1153.05 491.514 1175.76 495.023 1196.65 C 509.989 1290.16 537.48 1381.23 576.755 1467.4 C 586.638 1489.48 596.033 1511.71 608.437 1532.5 C 615.53 1544.39 622.691 1556.22 629.91 1568.03 C 618.092 1564.51 606.535 1562.4 594.463 1559.98 L 588.608 1551.69 C 541.903 1484.3 502.329 1405.45 475.189 1328.15 C 407.633 1132.61 407.314 920.113 474.282 724.374 C 491.687 672.278 512.473 621.374 536.509 571.985 C 539.714 565.252 550.866 541.05 555.703 537.519 C 579.363 520.245 619.135 498.851 644.902 485.965 z" fill="rgb(222,208,221)" transform="translate(0,0)"></path>
<path d="M 403.822 443.43 C 472.224 440.059 551.364 452.06 615.861 474.748 C 587.502 485.216 540.522 486.186 507.773 491.682 C 412.375 507.692 317.414 533.398 232.506 580.488 C 187.542 606.27 153.672 632.533 124.701 675.976 C 121.648 665.833 117.936 644.095 117.301 633.601 C 115.267 594.58 128.777 556.343 154.872 527.261 C 167.431 513.326 181.705 503.068 197.803 493.573 C 260.822 456.405 332.327 447.248 403.822 443.43 z" fill="rgb(222,208,221)" transform="translate(0,0)"></path>
<path d="M 698.357 106.245 L 699.151 106.311 C 699.832 108.708 688.416 126.089 686.44 130.03 C 634.547 233.509 632.841 343.229 658.077 454.076 C 654.384 456.17 650.325 458.174 646.534 460.137 C 632.713 445.228 624.277 434.917 612.19 418.538 C 572.894 363.234 542.118 299.57 556.844 230.146 C 572.936 154.283 627.988 121.799 698.357 106.245 z" fill="rgb(222,208,221)" transform="translate(0,0)"></path>
<path d="M 288.554 323.008 C 359.43 321.382 465.868 358.963 525.137 396.082 C 531.495 400.064 559.89 416.224 561.182 421.339 C 555.141 419.498 541.761 412.876 535.334 409.977 C 524.067 404.949 512.622 400.332 501.02 396.136 C 434.487 371.911 357.822 355.338 286.821 354.531 C 287.028 342.914 287.422 334.603 288.554 323.008 z" fill="rgb(222,208,221)" transform="translate(0,0)"></path>
<path d="M 495.402 1433.22 C 518.518 1476.72 539.901 1514.76 567.924 1555.71 C 536.761 1529.14 509.69 1504.99 481.801 1474.68 C 472.339 1464.4 459.278 1452.35 451.231 1441.21 C 468.43 1445.93 481.758 1445.96 495.402 1433.22 z" fill="rgb(179,152,190)" transform="translate(0,0)"></path>
<path d="M 428.201 648.773 C 451.912 620.931 488.388 584.246 518.857 563.635 C 509.858 582.302 500.677 599.116 492.159 618.264 C 486.862 630.172 476.008 662.405 470.862 671.072 C 461.147 649.568 450.551 646.258 428.201 648.773 z" fill="rgb(179,152,190)" transform="translate(0,0)"></path>
<path d="M 1838.79 624.004 C 1857.36 624.476 1859.6 655.165 1870.41 667.819 C 1883.3 682.91 1924.13 666.048 1933.56 678.315 C 1938.75 696.209 1898.15 710.011 1893.65 724.422 C 1890.42 738.978 1905.1 760.214 1908.37 772.185 C 1920.19 815.396 1861.88 767.027 1851.42 761.025 C 1838.39 768.407 1825.48 782.678 1816.42 794.366 C 1806.92 806.628 1791.76 802.488 1792.95 790.911 C 1794.81 772.919 1802.07 755.288 1803.81 736.233 C 1793.24 725.855 1756.9 708.759 1759.18 694.394 C 1765.36 686.244 1799.86 684.7 1811.78 680.421 C 1820.66 663.511 1825.79 630.924 1838.79 624.004 z" fill="rgb(222,208,221)" transform="translate(0,0)"></path>
<path d="M 186.808 1594.16 C 199.931 1592.76 201.414 1599.95 207.051 1610.37 C 213.485 1622.25 218.541 1632.68 227.559 1642.87 C 241.197 1644.24 271.181 1640.95 280.977 1644.27 C 291.926 1655.38 251.264 1683.46 242.613 1693.04 L 241.634 1694.14 C 246.266 1710.97 263.169 1738.62 260.166 1754.68 C 257.672 1768.03 213.395 1736.08 206.562 1732.57 L 205.07 1731.81 C 192.462 1732.7 164.605 1776.87 151.364 1767.19 C 145.769 1757.17 155.075 1721.72 156.408 1706.61 C 142.479 1695.9 126.414 1687.97 112.751 1676.94 C 109.389 1674.23 109.19 1673.11 108.864 1669.38 C 115.028 1655.52 151.255 1656.31 165.892 1647.94 C 174.315 1632.22 175.013 1603.88 186.808 1594.16 z" fill="rgb(222,208,221)" transform="translate(0,0)"></path>
<path d="M 1653.97 352.894 C 1673.18 354.746 1673.83 390.716 1687.67 401.599 C 1699.54 410.937 1743.69 398.775 1748.05 413.301 C 1744.66 431.033 1717.07 438.212 1707.86 453.136 C 1698.62 468.11 1726.25 503.325 1717.59 515.604 C 1705.97 521.058 1680.88 499.259 1666.77 494.589 C 1648.79 496.107 1623.11 531.894 1611.44 524.048 C 1610.77 521.623 1610.06 518.432 1610.64 515.947 C 1614.66 498.705 1618.87 482.186 1621.05 464.55 C 1607.58 449.298 1593.59 445.85 1579.77 432.142 C 1577.45 429.849 1576.82 427.728 1577.01 424.719 C 1583.83 414.902 1615.4 415.71 1629.9 406.798 C 1639.88 388.93 1638.38 362.424 1653.97 352.894 z" fill="rgb(222,208,221)" transform="translate(0,0)"></path>
<path d="M 1606.99 1760.56 C 1623.98 1763.11 1621.46 1781.82 1629.97 1793.17 C 1638.18 1804.12 1664.34 1792.06 1671.86 1802.11 C 1671.84 1810.8 1653.69 1825.29 1646.66 1833.17 C 1649.1 1842.12 1664.88 1873.63 1656.05 1878.25 C 1644.77 1878.14 1632.02 1866.19 1622.35 1859.63 C 1611.88 1866.47 1597.35 1881.25 1587.6 1884.14 C 1577.57 1882.42 1586.24 1848.92 1587.47 1840.52 C 1556.51 1823.2 1530.63 1808.37 1587.6 1802.74 C 1599.07 1801.61 1600.43 1771.87 1606.99 1760.56 z" fill="rgb(222,208,221)" transform="translate(0,0)"></path>
<path d="M 183.369 1326.43 C 201.202 1327.44 195.474 1349.83 207.641 1358.25 C 214.484 1362.98 249.69 1351.57 248.969 1364.47 C 248.465 1373.49 227.804 1384.01 220.148 1389.99 C 223.428 1400.32 232.415 1417.14 231.816 1426.17 C 226.753 1435.22 209.506 1422.02 203.057 1418.04 C 182.164 1407.29 183.784 1434.11 167.952 1437.44 C 164.083 1436.69 164.205 1436.48 161.394 1433.91 C 159.459 1427.22 163.947 1404.82 165.185 1396.21 C 157.302 1392.61 136.506 1384.77 136.801 1374.56 C 141.196 1369.41 153.805 1369.39 161.455 1367.41 C 177.02 1363.39 174.964 1342.16 183.369 1326.43 z" fill="rgb(222,208,221)" transform="translate(0,0)"></path>
<path d="M 919.004 1838.68 C 920.25 1838.7 923.345 1838.68 924.351 1839.39 C 932.624 1845.2 938.541 1863.81 942.325 1872.94 C 950.68 1873.16 973.896 1869.29 977.35 1878.37 C 975.315 1886.49 959.479 1895.61 953.873 1907.33 C 956.26 1914.74 963.07 1932.87 961.836 1939.66 L 960.224 1940.72 C 951.827 1939.29 942.856 1932.01 931.493 1929.41 L 930.263 1929.14 C 917.868 1930.31 911.7 1947.2 900.816 1950.56 C 891.243 1948.18 897.342 1918.78 897.918 1910.37 C 892.295 1904.38 872.764 1891.45 876.128 1883.99 C 882.214 1879.32 897.254 1877.87 905.715 1876.15 C 910.574 1864.01 911.84 1849.59 919.004 1838.68 z" fill="rgb(222,208,221)" transform="translate(0,0)"></path>
<path d="M 1891.19 1423.47 C 1902.82 1426.25 1907.95 1447.91 1912.88 1458.46 C 1921.45 1458.69 1937.38 1456.61 1941.14 1465.23 C 1940.54 1471.89 1930.18 1485.06 1925.86 1492.05 C 1927.94 1503.71 1934.82 1511.93 1934.08 1522.51 C 1928.7 1529.63 1909.48 1511.44 1903.45 1507.36 C 1900 1507.2 1901.1 1507.24 1897.58 1509.71 C 1890.52 1516.08 1879.81 1527.06 1870.47 1528.67 C 1860.29 1525.74 1870.22 1499.53 1872.14 1491.66 C 1862.97 1485.68 1851.15 1482.45 1845.35 1472.76 C 1844.7 1461.91 1870.11 1461.68 1878.4 1460.74 C 1881.07 1448.49 1883.25 1432.88 1891.19 1423.47 z" fill="rgb(222,208,221)" transform="translate(0,0)"></path>
<path d="M 1317.48 246.795 C 1329.24 249.116 1334.7 267.004 1340.99 277.367 C 1348.11 277.133 1365.32 274.78 1366.76 283.318 C 1363.96 290.626 1354.1 297.966 1347.87 303.338 C 1349.58 310.225 1359.86 331.056 1355.01 335.183 C 1348.39 335.483 1334.75 328.086 1327.23 325.221 C 1315.73 326.897 1303.57 346.785 1296.21 339.824 C 1294.59 333.15 1299.48 315.766 1301.22 308.255 C 1294.53 303.322 1278.44 296.117 1280.56 287.185 C 1286.05 281.321 1298.31 279.294 1306.47 277.219 C 1308.99 267.253 1310.37 253.918 1317.48 246.795 z" fill="rgb(222,208,221)" transform="translate(0,0)"></path>
<metadata><recraft-signature>{"signed_by": "recraft", "signature_b64": "8+KDF/lB+rE5e1gsO88NRf/4WxormiH1YsdSKVq5f9buhLU++e1txV1p1z4oxIQGCaQtmqYiOGFISvAzl9UjCg==", "signing_algo": "Ed25519", "generation_timestamp": 1773763923, "identifier": "f8a4101b-9e71-4732-8939-47ad4979ab98"}</recraft-signature></metadata></svg>