<svg xmlns="http://www.w3.org/2000/svg" height="1024" preserveAspectRatio="none" style="display: block;" version="1.1" viewBox="0 0 2048 2048" width="1024">
<path d="M 0 0 L 2048 0 L 2048 2048 L 0 2048 L 0 0 z" fill="rgb(255,255,255)" transform="translate(0,0)"></path>
<path d="M 618.608 793.891 C 622.142 782.927 642.008 745.778 648.491 733.685 C 714.157 610.348 816.014 510.076 940.366 446.353 C 1020.87 405.123 1117.97 386.297 1207.71 381.425 C 1225.34 380.467 1242.99 381.764 1260.49 381.377 C 1279.5 380.958 1297.09 377.528 1316.36 380.052 C 1327.28 381.484 1335.57 382.643 1346.25 386.194 C 1358.19 390.165 1368.58 395.755 1380.24 400.211 C 1390.88 403.739 1407.11 406.856 1418.61 410.193 C 1441.34 416.625 1463.08 424.871 1484.91 433.886 C 1604.7 483.35 1703.56 560.415 1782.97 662.44 C 1901.82 815.119 1947.71 1020.75 1888.59 1206.85 C 1867.78 1272.35 1835.11 1335.12 1790.76 1387.91 C 1781.63 1398.78 1771.58 1412.31 1760.46 1421.08 C 1766.24 1448.62 1766.22 1470.1 1756.43 1496.26 C 1724.97 1580.39 1608.77 1624.19 1529.19 1583.03 C 1517.51 1577 1506.57 1570.41 1495.11 1564.27 C 1431.49 1585.52 1356.88 1596.19 1290.07 1600.23 C 1308.15 1633.21 1314.67 1677.67 1321.73 1714.6 C 1342.44 1818.82 1355.25 1924.46 1360.06 2030.61 C 1354.55 2030.45 1346.02 2029.95 1340.76 2030.23 C 1333.91 2031.53 1296.16 2031.04 1286.08 2031.06 L 1162.66 2031.26 L 677.075 2030.35 C 691.961 1938.78 723.789 1842.55 760.637 1757.25 C 764.779 1747.66 771.406 1731.93 775.999 1722.93 C 776.452 1702.35 787.868 1683.78 801.905 1669.54 C 807.664 1656.84 820.312 1636.98 827.585 1625.06 C 836.903 1609.79 847.578 1592.24 857.752 1577.66 C 855.428 1575.49 856.012 1575.15 852.26 1575.56 C 846.111 1576.23 839.71 1577.48 833.52 1578.37 C 757.444 1697.11 700.207 1826.92 663.843 1963.18 C 660.451 1975.31 657.306 1987.52 654.412 1999.79 C 652.203 2009.48 650.524 2019.55 647.661 2029.01 C 646.93 2031.42 639.96 2030.93 637.882 2030.89 C 603.883 2031.3 569.407 2030.99 535.373 2030.97 C 543.096 2010.08 548.937 1985.31 555.842 1963.71 C 573.549 1908.31 592.348 1854.05 616.848 1801.23 C 641.296 1748.52 667.543 1697.13 693.641 1645.25 C 697.637 1637.27 701.947 1628.37 705.306 1620.11 C 696.692 1620.86 692.686 1620.66 685.31 1615.52 C 661.848 1660.92 634.618 1705 611.76 1751.09 C 580.592 1813.95 554.433 1877.26 533.059 1944.09 C 524.949 1969.45 511.38 2004.75 507.437 2030.87 C 500.22 2030.81 491.454 2030.96 484.368 2030.52 C 493.795 1991.72 506.542 1954.37 519.134 1916.51 C 521.211 1910.26 523.199 1903.52 524.864 1897.16 C 493.667 1881.13 480.067 1859.84 469.293 1826.3 C 443.097 1744.73 478.37 1642.07 515.895 1568.72 C 550.599 1500.89 590.941 1444.22 657.435 1404.86 C 633.029 1384.4 608.631 1365.27 584.983 1343.7 C 461.08 1230.72 371.144 1024.95 494.39 878.268 C 531.307 834.332 566.064 814.954 618.608 793.891 z" fill="rgb(143,90,99)" transform="translate(0,0)"></path>
<path d="M 857.752 1577.66 C 864.897 1595.65 882.141 1612.37 897.709 1623.24 C 968.228 1672.5 1049.05 1634.38 1110.49 1591.28 C 1120.57 1592.26 1129.42 1593.35 1139.39 1595.31 C 1108.5 1620.4 1097.28 1635.38 1070.93 1664.98 C 1050.8 1687.59 1027.62 1712.89 1006.87 1734.87 C 980.918 1762.35 942.434 1789.55 911.581 1812.28 C 869.394 1812.06 804.088 1843.52 804.258 1891.77 L 804.269 1892.64 C 783.877 1900.92 751.415 1941.56 787.489 1946.52 C 783.936 1954.64 778.608 1960.36 782.579 1969.68 C 789.207 1985.23 812.837 1985.99 826.586 1985.35 C 854.6 2047.5 1064.01 1969.27 1111.72 1945.83 C 1178.18 1913.18 1257.93 1866.51 1289.16 1795.69 C 1290.37 1792.86 1291.92 1787.31 1290.55 1784.38 C 1285.86 1785.4 1282 1792.48 1279.06 1796.27 C 1222.13 1869.71 1134.72 1915.68 1049.18 1947.66 C 1043.07 1894.16 1027.23 1850.64 986.752 1813.07 C 1028.86 1784.24 1072.23 1736.56 1103.89 1696.65 C 1125.03 1670.01 1141.94 1643.63 1169.37 1621.96 C 1184.78 1609.78 1197.17 1608.29 1210.94 1600.87 L 1212.38 1600.08 C 1225.28 1600.07 1245.11 1599.55 1257.77 1600.54 C 1261.87 1604.19 1270.5 1610.55 1272.87 1614.62 C 1289.65 1643.44 1293.13 1677.92 1300.72 1709.75 C 1311.01 1752.98 1316.05 1794.45 1321.65 1838.34 C 1330.2 1902.07 1336.57 1966.07 1340.76 2030.23 C 1333.91 2031.53 1296.16 2031.04 1286.08 2031.06 L 1162.66 2031.26 L 677.075 2030.35 C 691.961 1938.78 723.789 1842.55 760.637 1757.25 C 764.779 1747.66 771.406 1731.93 775.999 1722.93 C 776.452 1702.35 787.868 1683.78 801.905 1669.54 C 807.664 1656.84 820.312 1636.98 827.585 1625.06 C 836.903 1609.79 847.578 1592.24 857.752 1577.66 z" fill="rgb(252,220,131)" transform="translate(0,0)"></path>
<path d="M 801.905 1669.54 C 806.673 1667.66 817.781 1664.8 822.44 1667.67 C 853.739 1686.97 791.169 1777.47 775.999 1722.93 C 776.452 1702.35 787.868 1683.78 801.905 1669.54 z" fill="rgb(143,90,99)" transform="translate(0,0)"></path>
<path d="M 811.537 1676.56 C 830.164 1679.63 807.035 1718.38 796.662 1725.34 C 783.387 1725.36 791.737 1705.16 794.777 1698.64 C 799.125 1689.32 803.678 1683.12 811.537 1676.56 z" fill="rgb(255,255,255)" transform="translate(0,0)"></path>
<path d="M 758.199 1815.05 C 798.945 1811.63 780.195 1874.68 752.865 1884.99 C 713.96 1886.34 730.511 1842.94 744.734 1824.93 C 748.879 1819.68 752.231 1817.83 758.199 1815.05 z" fill="rgb(143,90,99)" transform="translate(0,0)"></path>
<path d="M 760.262 1825.56 C 781.815 1827.11 762.173 1862.37 749.957 1870.58 C 745.571 1870.71 745.762 1870.54 743.162 1868.41 C 737.989 1856.26 751.007 1833.53 760.262 1825.56 z" fill="rgb(255,255,255)" transform="translate(0,0)"></path>
<path d="M 748.483 1554.62 C 775.292 1574.28 790.164 1579.37 823.727 1578.96 C 747.884 1683.49 690.178 1824.62 655.66 1948.52 C 651.313 1964.12 637.799 2014.93 637.882 2030.89 C 603.883 2031.3 569.407 2030.99 535.373 2030.97 C 543.096 2010.08 548.937 1985.31 555.842 1963.71 C 573.549 1908.31 592.348 1854.05 616.848 1801.23 C 641.296 1748.52 667.543 1697.13 693.641 1645.25 C 697.637 1637.27 701.947 1628.37 705.306 1620.11 C 721.936 1614.46 733.301 1606.39 741.552 1590.15 C 747.341 1578.76 746.956 1566.81 748.483 1554.62 z" fill="rgb(252,220,131)" transform="translate(0,0)"></path>
<path d="M 962.277 1796.5 C 969.204 1791.71 977.174 1784.45 984.01 1779.22 C 1019.83 1752.13 1046.61 1721.58 1076.39 1687.75 C 1104.63 1655.68 1135.05 1611.06 1178.71 1599.59 C 1184.86 1597.97 1205.37 1599.71 1212.38 1600.08 L 1210.94 1600.87 C 1197.17 1608.29 1184.78 1609.78 1169.37 1621.96 C 1141.94 1643.63 1125.03 1670.01 1103.89 1696.65 C 1072.23 1736.56 1028.86 1784.24 986.752 1813.07 C 980.522 1807.37 970.006 1799.76 962.277 1796.5 z" fill="rgb(255,255,255)" transform="translate(0,0)"></path>
<path d="M 930.894 1818.02 C 941.111 1810.75 951.89 1803.58 962.277 1796.5 C 966.267 1803.89 975.513 1811.09 981.344 1817.52 C 1015.5 1855.17 1038.52 1900.09 1038.05 1951.08 C 1028.03 1955.43 1018.08 1958.21 1007.65 1961.38 C 1008.39 1925.46 1000.64 1899.47 981.097 1869.25 C 966.274 1846.33 955.774 1830.42 930.894 1818.02 z" fill="rgb(255,255,255)" transform="translate(0,0)"></path>
<path d="M 1335.75 474.404 C 1303.15 478.72 1210.05 486.591 1187.75 464.057 C 1187.68 461.059 1189.87 456.087 1191.73 453.826 C 1259.67 371.599 1335.88 383.926 1414.65 437.618 L 1411.71 432.532 L 1412.03 431.413 C 1412.66 431.5 1413.29 431.587 1413.92 431.674 C 1464.84 445.86 1522.89 472.111 1566.99 499.309 C 1638.22 543.229 1704.22 598.857 1754.19 665.224 C 1772.12 682.421 1794.8 719.407 1807.54 740.788 C 1916.51 923.747 1921.13 1163.39 1795.5 1339.55 C 1781.6 1359.05 1768.17 1378.84 1751.05 1396.39 C 1750.54 1396.91 1750.02 1397.43 1749.49 1397.93 C 1739.74 1380.56 1732.41 1371.65 1716.87 1358.82 C 1688.36 1338.84 1655.72 1328.4 1620.57 1331.51 C 1609.8 1332.47 1591.47 1335.57 1584.26 1344.5 C 1584.09 1345.56 1583.62 1346.51 1584.27 1347.47 C 1588.94 1354.22 1611.42 1349.36 1618.61 1349.24 C 1625.51 1349.12 1632.58 1349.81 1639.44 1350.49 C 1671.42 1353.64 1700.22 1367.51 1720.68 1392.62 C 1737.32 1413.03 1744.31 1437.12 1741.37 1463.27 C 1737.93 1493.93 1719.73 1523.42 1695.58 1542.29 C 1634.64 1589.92 1559.8 1585.04 1498.89 1540.71 C 1490.94 1534.92 1463.93 1510.03 1457.02 1509.2 C 1453.5 1510.3 1452.98 1510.12 1450.54 1512.91 C 1446.47 1523.62 1468.49 1540.86 1475.77 1546.84 C 1469.12 1549.3 1462.39 1551.52 1455.58 1553.5 C 1239.83 1615.71 934.662 1557.33 741.398 1450.88 C 751.674 1444.08 762.625 1437.77 768.655 1426.63 C 777.314 1410.64 771.318 1395.15 755.023 1387.74 C 734.043 1378.19 707.399 1384.92 686.78 1391.89 C 663.023 1379.19 625.01 1350.54 604.546 1332.15 C 546.083 1279.62 496.278 1210.76 472.075 1135.49 C 451.227 1070.65 448.268 994.77 481.97 933.598 C 515.561 871.993 567.235 832.508 633.657 812.063 C 640.77 798.424 647.119 782.362 654.149 768.03 C 691.659 691.567 736.05 633.356 797.08 573.272 C 912.413 460.669 1067.94 398.783 1229.1 401.36 C 1209.39 415.429 1179.1 435.255 1172.41 459.6 C 1166.29 481.877 1205.54 489.768 1219.91 492.458 C 1252.23 498.508 1281.48 497.521 1312.12 485.139 C 1319.75 482.058 1329.04 479.103 1335.75 474.404 z" fill="rgb(255,255,255)" transform="translate(0,0)"></path>
<path d="M 1754.19 665.224 C 1772.12 682.421 1794.8 719.407 1807.54 740.788 C 1916.51 923.747 1921.13 1163.39 1795.5 1339.55 C 1781.6 1359.05 1768.17 1378.84 1751.05 1396.39 C 1750.54 1396.91 1750.02 1397.43 1749.49 1397.93 C 1739.74 1380.56 1732.41 1371.65 1716.87 1358.82 C 1751.65 1310.76 1764.06 1294.62 1790.09 1239.64 C 1860.68 1090.55 1861.71 926.059 1804.72 772.514 C 1795.51 747.826 1783.01 724.65 1771.22 701.165 C 1765.69 690.141 1758.21 676.807 1754.19 665.224 z" fill="rgb(252,220,131)" transform="translate(0,0)"></path>
<path d="M 1319.74 869.373 C 1324.87 868.888 1330.01 868.668 1335.16 868.714 C 1364.58 868.76 1394.48 879.92 1415.13 901.434 C 1489.34 978.723 1459.31 1118.24 1388.23 1187.56 C 1353.02 1221.91 1319.08 1233.83 1270.88 1233.4 C 1239.6 1232.57 1209.38 1221.93 1184.49 1202.97 C 1049.64 1101.61 1181.69 886.813 1319.74 869.373 z" fill="rgb(143,90,99)" transform="translate(0,0)"></path>
<path d="M 1352.35 923.197 C 1442.28 914.822 1459.5 1058.19 1367.44 1076.53 C 1274.62 1085.84 1259.97 944.003 1352.35 923.197 z" fill="rgb(255,255,255)" transform="translate(0,0)"></path>
<path d="M 1240.44 962.745 C 1254.94 960.439 1268.54 970.356 1270.78 984.86 C 1273.03 999.364 1263.05 1012.93 1248.53 1015.1 C 1234.11 1017.26 1220.65 1007.36 1218.43 992.95 C 1216.2 978.538 1226.04 965.036 1240.44 962.745 z" fill="rgb(255,255,255)" transform="translate(0,0)"></path>
<path d="M 1194.72 1007.65 C 1198.5 1008.23 1200.18 1008.83 1202.9 1011.55 C 1203.58 1014.01 1204.21 1015.11 1202.96 1017.65 C 1193.09 1037.79 1184.28 1055.99 1176.83 1077.26 C 1168.96 1099.74 1170.66 1117.8 1167.45 1139.9 L 1167.3 1140.84 C 1157.86 1141.87 1156 1136.01 1156.38 1127.59 C 1157.88 1094.51 1171.55 1031.62 1194.72 1007.65 z" fill="rgb(255,255,255)" transform="translate(0,0)"></path>
<path d="M 902.89 701.42 C 983.147 697.363 973.238 789.819 950.746 839.216 C 920.682 905.24 873.701 980.804 791.761 977.815 C 759.291 974.047 725.051 949.968 724.921 914.693 C 724.724 861.148 760.302 802.724 794.462 763.417 C 823.251 730.29 858.305 704.458 902.89 701.42 z" fill="rgb(143,90,99)" transform="translate(0,0)"></path>
<path d="M 905.278 738.183 C 973.66 731.355 962.884 847.264 900.559 861.725 C 890.273 863.048 880.973 863.252 872.033 857.332 C 842.751 837.941 848.788 790.888 865.836 765.419 C 876.071 750.129 887.759 741.845 905.278 738.183 z" fill="rgb(255,255,255)" transform="translate(0,0)"></path>
<path d="M 786.311 816.756 C 789.659 816.868 790.243 816.552 792.98 818.459 C 795.112 824.831 789.77 834.565 786.455 840.138 C 777.377 855.401 771.072 869.564 764.87 886.27 C 759.22 901.488 757.127 917.361 751.856 932.384 L 747.958 931.785 C 733.031 919.185 773.113 833.127 786.311 816.756 z" fill="rgb(255,255,255)" transform="translate(0,0)"></path>
<path d="M 824.084 781.642 C 830.386 780.019 836.824 783.75 838.551 790.024 C 840.277 796.298 836.654 802.797 830.41 804.627 C 826.278 805.839 821.813 804.727 818.731 801.72 C 815.648 798.713 814.428 794.277 815.537 790.116 C 816.646 785.955 819.914 782.715 824.084 781.642 z" fill="rgb(255,255,255)" transform="translate(0,0)"></path>
<path d="M 1338.73 813.411 C 1381.1 806.817 1428.36 827.843 1458.3 857.075 C 1562.47 958.757 1555.32 1146.66 1465.55 1255.08 C 1445.03 1279.87 1405.79 1297.91 1373.89 1299.08 C 1418.01 1275.62 1453.38 1238.52 1474.71 1193.33 C 1488.36 1164.65 1498.08 1134.26 1503.63 1102.98 C 1521.55 1002.63 1485.68 864.837 1368.89 840.461 C 1299.47 825.971 1234.23 879.107 1180.38 916.882 C 1216.31 854.305 1266.5 820.447 1338.73 813.411 z" fill="rgb(143,90,99)" transform="translate(0,0)"></path>
<path d="M 882.866 1075.19 C 885.094 1075.02 887.33 1074.96 889.565 1075.02 C 941.48 1076.58 958.787 1205.22 921.006 1234.39 C 907.958 1244.46 898.021 1245.42 882.97 1244.19 C 813.8 1228.75 810.156 1164.82 841.609 1111.74 C 851.871 1094.43 862.508 1080.5 882.866 1075.19 z" fill="rgb(143,90,99)" transform="translate(0,0)"></path>
<path d="M 883.364 1088.18 C 920.381 1082.41 932.53 1165.7 928.771 1190.94 C 923.869 1223.86 915.368 1237.52 880.748 1233.36 C 878.944 1232.89 877.146 1232.41 875.353 1231.9 C 805.504 1212.09 835.607 1113.59 883.364 1088.18 z" fill="rgb(251,181,178)" transform="translate(0,0)"></path>
<path d="M 1231.46 1278.14 C 1308.29 1271.27 1438.66 1378.38 1351.48 1402.79 C 1320.54 1405.9 1297.35 1399.18 1269.78 1384.14 C 1243.73 1368.75 1211.74 1345.7 1202.49 1315.35 C 1195.7 1293.04 1212.53 1282.54 1231.46 1278.14 z" fill="rgb(252,220,131)" transform="translate(0,0)"></path>
<path d="M 892.493 639.393 C 902.286 637.991 914.264 638.94 924.066 640.362 C 983.122 648.933 1001.66 709.534 987.938 760.977 C 983.514 777.567 976.674 798.46 965.191 811.615 C 969.266 791.464 969.587 770.756 971.127 750.434 C 974.379 707.507 956.666 660.989 906.356 662.003 C 845.546 663.23 786.487 707.536 744.552 748.805 C 694.134 799.346 672.741 838.681 653.663 906.947 C 635.371 854.353 666.25 805.167 698.778 765.587 C 744.485 709.972 818.364 646.368 892.493 639.393 z" fill="rgb(143,90,99)" transform="translate(0,0)"></path>
<path d="M 1460.06 676.115 C 1464.24 675.857 1468.71 675.995 1472.82 677.009 C 1500.1 683.748 1525.43 712.976 1539.94 735.55 C 1547.93 747.988 1561.88 772.309 1558.12 787.723 C 1556.85 792.956 1553.73 794.9 1549.49 797.593 C 1499.88 805.352 1446.47 733.023 1451.45 686.443 C 1451.98 681.435 1456.04 678.546 1460.06 676.115 z" fill="rgb(143,90,99)" transform="translate(0,0)"></path>
<path d="M 592.883 923.113 C 613.246 921.604 633.639 925.614 651.914 934.723 C 679.553 948.494 718.976 993.583 668.779 1006.12 C 610.809 1015.58 524.424 942.225 592.883 923.113 z" fill="rgb(252,220,131)" transform="translate(0,0)"></path>
<path d="M 1001.54 514.414 C 1013.61 513.776 1075.65 514.494 1052.28 543.876 C 1039.15 560.375 1000.93 566.246 980.248 567.564 C 967.9 568.448 917.819 567.427 925.129 546.979 C 933.384 523.891 981.926 515.784 1001.54 514.414 z" fill="rgb(143,90,99)" transform="translate(0,0)"></path>
<path d="M 1607.55 1410.3 C 1612.68 1409.7 1617.84 1409.47 1623 1409.59 C 1660.12 1410.46 1693.65 1434.36 1692.71 1474.3 C 1670.36 1434.61 1641.41 1421.75 1596.6 1433.49 C 1620.89 1443.93 1628.36 1452.3 1633 1478.55 C 1625.55 1469.94 1621.4 1465.43 1612.12 1458.93 C 1590.54 1445.49 1552.87 1439.13 1559.94 1477.29 C 1563.97 1499.07 1578.22 1510.8 1595.29 1522.51 C 1507.53 1519.38 1529.52 1421.53 1607.55 1410.3 z" fill="rgb(143,90,99)" transform="translate(0,0)"></path>
<path d="M 1235.83 503.208 C 1255.49 502.102 1276.69 506.897 1296.61 508.705 C 1317.4 510.593 1331.71 509.521 1352.53 508.421 C 1344.59 513.4 1319.43 528.869 1323.61 539.308 C 1338.78 551.536 1421.45 547.34 1442.66 546.965 L 1443.13 547.226 L 1443.12 548.089 C 1417.54 559.971 1265.45 577.108 1320.95 520.033 C 1296.92 523.042 1265.88 520.044 1243.19 511.316 C 1239.85 510.033 1235.02 508.274 1233.64 505.163 L 1235.83 503.208 z" fill="rgb(143,90,99)" transform="translate(0,0)"></path>
<path d="M 923.242 984.34 C 930.015 985.146 939.869 991.831 935.985 999.309 C 928.561 1001.22 911.51 986.71 914.379 1009.23 C 915.163 1013.99 916.296 1015.53 912.061 1018.11 L 909.192 1017.37 C 894.213 1004.33 903.749 987.045 923.242 984.34 z" fill="rgb(143,90,99)" transform="translate(0,0)"></path>
<path d="M 726.75 1398.4 C 750.609 1395.17 768.911 1410.87 743.867 1428.9 C 735.373 1435.02 727.523 1437.15 718.61 1442.03 L 717.554 1442.62 C 699.177 1434.46 673.727 1432.86 658.462 1448.22 L 658.618 1449.77 C 662.505 1450.94 668.349 1450.6 672.54 1450.42 C 710.202 1448.79 732.577 1468.2 742.764 1503 C 734.334 1494.37 726.74 1486.71 715.736 1481.31 C 705.538 1476.3 666.006 1471.1 660.255 1483.99 C 662.102 1489.73 675.042 1488.98 680.284 1489.05 C 706.261 1489.43 733.632 1502.4 736.236 1531.36 C 736.517 1534.5 736.618 1537.02 734.442 1539.56 C 732.688 1538.91 726.873 1533.56 724.8 1531.84 C 714.858 1523.73 701.346 1517.84 688.574 1516.62 C 683.301 1516.12 675.282 1519.06 675.895 1525.5 C 681.744 1528.81 695.253 1525.95 706.853 1533.29 C 722.302 1543.05 727.532 1555.57 731.81 1572.22 C 730.936 1575.23 729.44 1579.15 728.384 1582.19 C 727.021 1584.8 725.482 1587.31 723.777 1589.71 C 717.004 1599.3 695.469 1615.77 688.462 1597.33 C 686.02 1590.9 687.678 1582.7 681.926 1577.91 L 679.197 1578.63 C 675.943 1582.84 672.621 1599.41 668.598 1607.67 C 655.489 1634.58 637.453 1658.46 623.023 1684.08 C 611.454 1680.5 600.664 1674.77 591.216 1667.19 C 568.93 1649.64 555.59 1621.39 552.407 1593.43 C 547.171 1547.43 560.114 1524.14 587.93 1488.82 C 617.668 1451.06 678.272 1404 726.75 1398.4 z" fill="rgb(255,255,255)" transform="translate(0,0)"></path>
<path d="M 901.687 1831.35 C 903.444 1831.24 905.204 1831.16 906.964 1831.13 C 920.228 1830.97 934.157 1840.12 942.876 1849.57 C 971.462 1880.56 990.167 1920.79 989.846 1962.9 C 956.047 1980.04 922.815 1989.2 884.742 1989.61 C 875.655 1989.7 849.422 1989.98 844.091 1981.45 C 849.603 1975.16 869.995 1972.28 871.547 1962.32 L 869.093 1959.7 C 843.155 1966.18 820.734 1976.97 795.362 1962.46 C 806.02 1945.19 813.442 1941.76 829.732 1930.8 C 831.995 1929.28 832.307 1927.75 832.458 1925.26 C 824.108 1916.21 794.739 1944.2 788.965 1930.19 C 790.324 1905.75 828.864 1898.23 832.296 1892.34 L 831.284 1890.4 C 827.808 1887.99 824.451 1888.33 820.093 1888.06 C 831.081 1854.21 868.626 1836.05 901.687 1831.35 z" fill="rgb(255,255,255)" transform="translate(0,0)"></path>
<path d="M 511.17 1626.28 C 515.347 1643.65 518.975 1652.81 525.555 1669.23 C 537.268 1700.17 568.721 1719.27 595.847 1734.16 C 581.432 1763.05 567.877 1792.35 555.198 1822.03 C 548.965 1836.66 542.375 1855.9 535.964 1869.49 L 531.574 1880.47 C 455.146 1817.54 479.15 1706.35 511.17 1626.28 z" fill="rgb(252,220,131)" transform="translate(0,0)"></path>
<path d="M 511.17 1626.28 C 515.347 1643.65 518.975 1652.81 525.555 1669.23 C 507.642 1719.76 502.695 1803.57 525.63 1852.14 C 528.519 1858.24 531.98 1864.05 535.964 1869.49 L 531.574 1880.47 C 455.146 1817.54 479.15 1706.35 511.17 1626.28 z" fill="rgb(255,255,255)" transform="translate(0,0)"></path>
<path d="M 947.177 1557.06 C 951.634 1556.05 977.334 1564.63 984.02 1566.4 C 1002.42 1571.46 1021.01 1575.84 1039.74 1579.53 C 1057.12 1582.83 1074.61 1585.17 1092 1588.53 C 1070.68 1603.63 1030.97 1617.6 1005.94 1624.49 C 972.026 1632.13 936.946 1629.57 907.826 1608.91 C 892.622 1598.12 876.122 1580.22 867.659 1563.53 C 894.736 1569.46 921.037 1565.75 947.177 1557.06 z" fill="rgb(255,255,255)" transform="translate(0,0)"></path>
<path d="M 758.676 1482.16 C 776.265 1489.82 797.83 1500.34 815.16 1508.78 C 822.732 1533.68 837.556 1542.09 846.951 1560.43 C 845.476 1562.52 844.641 1562.01 841.268 1562.74 C 808.602 1564.36 784.437 1562.39 757.57 1540.61 C 766.011 1517.05 761.808 1505.6 758.676 1482.16 z" fill="rgb(255,255,255)" transform="translate(0,0)"></path>
<path d="M 534.619 1576.69 C 535.712 1581.51 535.476 1590.21 535.999 1595.47 C 541.301 1648.71 567.694 1679.21 613.063 1702.47 C 609.601 1708.38 606.476 1716.43 602.308 1721.87 C 601.151 1723.38 600.926 1722.87 598.485 1722.99 C 590.105 1719.72 582.092 1715.58 574.579 1710.63 C 537.519 1686.64 525.673 1655.83 516.899 1614.78 C 520.421 1601.52 527.556 1588.39 534.619 1576.69 z" fill="rgb(255,255,255)" transform="translate(0,0)"></path>
<path d="M 837.403 1518.79 C 842.853 1519.12 861.613 1525.99 866.426 1528.44 C 874.406 1532.5 912.688 1543.68 915.492 1547.49 C 876.175 1553.84 864.754 1544.85 837.403 1518.79 z" fill="rgb(255,255,255)" transform="translate(0,0)"></path>
<path d="M 389.722 104.432 C 419.576 102.019 455.231 107.348 481.244 122.21 C 557.741 166.154 550.131 254.521 505.941 319.817 C 476.353 363.537 432.279 407.732 447.129 465.497 C 451.509 482.531 460.636 490.228 475.056 498.487 C 446.248 513.978 404.498 499.649 388.165 472.157 C 368.27 438.667 376.925 397.527 396.753 366.43 C 417.765 333.475 441.599 314.244 450.661 274.772 C 454.747 250.151 448.875 230.232 421.525 225.582 C 391.003 220.393 359.387 232.375 334.773 249.884 C 314.876 264.037 297.19 287.201 293.756 311.818 C 285.804 375.97 340.289 360.66 348.112 371.007 L 347.504 372.283 C 342.624 375.276 336.217 376.176 330.526 376.231 C 287.642 376.641 239.707 375.045 205.835 345.145 C 187.111 328.533 175.644 305.243 173.898 280.273 C 171.837 246.235 190.878 212.142 213.239 187.986 C 258.613 138.971 323.438 108.35 389.722 104.432 z" fill="rgb(143,90,99)" transform="translate(0,0)"></path>
<path d="M 384.43 120.404 C 430.056 116.783 477.455 125.277 506.474 164.073 C 541.296 210.007 518.203 272.045 491.823 315.469 C 465.818 358.277 426.246 393.871 430.509 447.918 C 432.073 467.745 435.93 476.727 447.861 492.63 C 430.544 489.465 414.387 485.054 403.415 470.129 C 382.854 442.16 390.095 404.924 407.188 377.3 C 419.444 357.492 435.08 341.506 446.894 321.078 C 458.18 301.561 462.438 292.871 465.852 271.079 C 470.351 216.829 428.113 205.376 383.621 212.015 C 328.063 220.306 270.481 273.901 279.039 333.61 C 281.257 349.084 290.664 357.726 302.646 366.036 C 171.223 357.184 155.173 246.929 252.16 172.639 C 289.582 143.975 337.472 124.538 384.43 120.404 z" fill="rgb(252,220,131)" transform="translate(0,0)"></path>
<path d="M 476.524 514.309 C 537.866 514.14 531.684 597.296 475.729 607.48 C 405.479 614.717 432.603 521.841 476.524 514.309 z" fill="rgb(143,90,99)" transform="translate(0,0)"></path>
<path d="M 478.984 527.33 C 521.742 527.514 515.703 582.451 475.855 594.977 C 462.165 596.445 446.826 594.277 445.395 578.14 C 443.502 556.797 456.57 530.314 478.984 527.33 z" fill="rgb(252,220,131)" transform="translate(0,0)"></path>
<path d="M 845.995 179.795 C 848.862 180.098 852.467 180.287 854.509 182.606 C 861.655 190.72 902.52 277.378 900.927 285.569 C 900.185 289.382 895.913 291.938 893.028 294.001 C 881.137 291.714 881.338 285.254 877.013 274.537 C 866.243 247.844 851.595 223.133 839.647 197.02 C 835.583 188.137 838.365 184.61 845.995 179.795 z" fill="rgb(252,220,131)" transform="translate(0,0)"></path>
<path d="M 290.703 1028.47 C 295.322 1028.41 300.584 1028.33 304.362 1031.36 C 306.335 1032.94 307.713 1036.06 307.847 1038.53 C 307.986 1041.09 306.823 1043.3 304.904 1044.93 C 298.18 1050.65 220.028 1050.1 205.268 1050.22 C 200.365 1050.26 193.538 1050.82 189.31 1047.69 C 182.289 1042.49 186.409 1032.96 194.375 1031.76 C 204.072 1030.31 214.264 1030.3 224.152 1029.96 C 246.329 1029.21 268.514 1028.71 290.703 1028.47 z" fill="rgb(252,220,131)" transform="translate(0,0)"></path>
<path d="M 1033.09 148.958 C 1048.44 149.539 1045.17 158.039 1043.49 169.969 C 1039.4 198.93 1035.33 227.945 1030.7 256.817 C 1029.78 262.523 1027.47 263.572 1022.98 266.452 C 1010.14 264.579 1010.3 256.714 1011.75 246.044 C 1012.81 238.193 1013.72 230.167 1015.08 222.35 C 1018.98 199.98 1020.91 176.839 1026.65 154.901 C 1026.94 153.778 1031.98 149.844 1033.09 148.958 z" fill="rgb(252,220,131)" transform="translate(0,0)"></path>
<path d="M 697.672 289.855 C 709.928 289.483 724.364 304.707 734.641 312.108 C 750.746 323.707 767.022 336.116 782.628 348.417 C 792.99 356.585 794.522 360.252 785.018 370.155 C 773.535 370.193 756.263 352.724 746.492 345.528 C 730.047 333.416 713.253 321.061 697.762 307.772 C 689.769 300.915 690.018 296.999 697.672 289.855 z" fill="rgb(252,220,131)" transform="translate(0,0)"></path>
<path d="M 236.965 856.796 C 248.84 856.655 318.921 895.926 333.205 903.63 C 339.845 907.211 334.148 915.407 330.183 919.236 C 313.954 918.903 251.332 882.478 233.857 873.127 C 227.655 869.809 231.545 861.301 236.965 856.796 z" fill="rgb(252,220,131)" transform="translate(0,0)"></path>
<path d="M 322.465 1161.12 C 331.611 1160.33 337.647 1165.44 334.5 1171.82 C 330.623 1179.68 301.91 1194.46 293.925 1198.8 C 278.076 1207.41 259.983 1220.42 244.577 1226.56 C 243.611 1226.46 242.649 1226.34 241.691 1226.17 C 238.321 1225.57 234.218 1223.43 232.606 1220.23 C 232.006 1219.04 231.821 1217.63 232.214 1216.36 C 235.242 1206.61 308.738 1167.86 322.465 1161.12 z" fill="rgb(252,220,131)" transform="translate(0,0)"></path>
<metadata><recraft-signature>{"signed_by": "recraft", "signature_b64": "JLIwQDT+qipRRMyTaLu3Fjmemm8Qg4VwOtAzGOE1oGbyhB+/5f/Y81OjK6dydncQOOD0YvvOfzjEAbhSBCEsAA==", "signing_algo": "Ed25519", "generation_timestamp": 1773763936, "identifier": "02644581-dfc7-4319-80f2-1410bb369d66"}</recraft-signature></metadata></svg>