<svg xmlns="http://www.w3.org/2000/svg" height="1024" preserveAspectRatio="none" style="display: block;" version="1.1" viewBox="0 0 2048 2048" width="1024">
<path d="M 0 0 L 2048 0 L 2048 2048 L 0 2048 L 0 0 z" fill="rgb(254,254,254)" transform="translate(0,0)"></path>
<path d="M 1193.15 275.14 C 1188.16 267.317 1183.29 259.421 1178.53 251.455 C 1159.88 219.645 1150.64 184.825 1159.76 148.02 C 1164.14 130.309 1176.77 113.416 1192.68 104.657 C 1200.87 100.152 1216.78 92.1471 1226.18 94.7505 L 1226.16 96.153 C 1216.35 103.798 1203.76 105.007 1192.05 115.876 C 1144.78 159.779 1174.92 236.464 1210.74 277.626 L 1230.26 279.233 C 1229.3 276.768 1228.4 274.283 1227.54 271.781 C 1213.56 231.352 1240.84 186.143 1280.33 173.649 C 1283.72 172.577 1285.47 171.902 1288.62 173.491 C 1287.09 175.616 1279.37 180.46 1276.48 182.135 C 1242.55 201.85 1225.39 242.192 1241.4 280.086 L 1241.86 281.139 C 1246.72 282.4 1251.86 283.564 1256.77 284.745 C 1258.79 263.532 1267.59 243.534 1281.86 227.707 C 1297.75 210.309 1315.88 202.077 1339.46 201.066 C 1342.57 200.933 1346.11 200.693 1348.44 202.841 C 1347.11 205.878 1276.07 209.633 1268.78 287.507 C 1284.4 289.736 1306.79 295.766 1322.03 299.536 C 1371.37 311.742 1417.07 327.918 1462.82 350.149 C 1489.23 362.979 1516.08 375.537 1541.32 390.881 C 1649.91 456.644 1740.66 548.099 1805.59 657.192 C 1920.34 849.489 1931.7 1082.23 1836.45 1284.65 C 1852.09 1303.65 1861.99 1322.67 1868.38 1346.6 C 1903.05 1476.4 1808.74 1594.91 1686.43 1627.66 C 1618.71 1645.8 1550.31 1631.93 1490.49 1597.84 C 1410.56 1642.24 1330.2 1671.75 1240.78 1690.1 C 1214.61 1695.46 1182.18 1703.21 1155.76 1705.48 C 1202.29 1725.33 1252.83 1757.96 1292.02 1790.04 C 1334.1 1825.06 1372.09 1864.72 1405.25 1908.28 C 1411.51 1916.36 1430.47 1936.58 1420.62 1945.34 C 1413.68 1951.5 1405.75 1947.38 1400.99 1941.11 L 1400.16 1940 C 1314.06 1939.36 1227.96 1940.1 1141.89 1942.24 L 1070.39 1943.8 C 1061.39 1944.08 1030.36 1945.27 1021.78 1944.2 C 1015.43 1947.29 1007.06 1952.61 1000.61 1950.95 C 998.292 1949.11 998.49 1949.11 997.203 1946.39 C 991.092 1945.6 975.379 1946.06 968.539 1946.15 L 926.463 1946.56 C 919.832 1946.68 907.707 1947.42 901.644 1945.98 C 890.417 1948.61 889.069 1954.94 881.059 1946 C 867.719 1944.36 855.593 1945.02 842.307 1946.4 C 841.625 1951.1 841.078 1952.61 836.53 1952.75 C 832.155 1950.53 831.762 1949.3 828.813 1945.11 C 783.126 1943.67 736.837 1943.4 691.102 1942.89 C 682.275 1942.8 673.264 1942.99 664.451 1943.5 C 659.395 1950.14 651.897 1957.21 645.067 1948.63 C 638.904 1940.88 658.779 1913.71 663.824 1906.72 C 703.58 1851.61 771.025 1774.6 830.985 1742.5 C 826.783 1723.18 814.741 1694.81 802.366 1679.38 C 785.044 1674.66 767.301 1670.73 750.231 1664.79 C 679.706 1640.25 613.42 1612.74 549.488 1573.95 C 407.362 1487.72 290.537 1358.18 249.707 1194.11 C 225.707 1097.67 235.33 993.252 287.381 907.458 C 278.23 890.1 273.34 870.814 273.117 851.193 C 272.193 783.026 326.613 679.819 409.17 691.969 C 424.924 694.288 436.177 704.506 446.997 715.477 C 487.215 620.153 547.764 534.761 624.413 465.267 C 756.473 344.283 922.429 281.635 1100.4 273.968 C 1131.85 272.613 1161.79 273.773 1193.15 275.14 z" fill="rgb(170,68,75)" transform="translate(0,0)"></path>
<path d="M 1203.33 1753.51 C 1267.89 1790.77 1329.46 1846.88 1375.57 1905.16 C 1383.89 1915.67 1393.63 1928.41 1400.16 1940 C 1314.06 1939.36 1227.96 1940.1 1141.89 1942.24 L 1070.39 1943.8 C 1061.39 1944.08 1030.36 1945.27 1021.78 1944.2 C 1040.1 1931.85 1057.65 1920.83 1075.31 1907.31 C 1129.25 1866.58 1173.06 1813.95 1203.33 1753.51 z" fill="rgb(247,198,194)" transform="translate(0,0)"></path>
<path d="M 664.451 1943.5 C 691.401 1899.05 730.007 1855.43 767.039 1819.33 C 778.624 1808.04 791.562 1794.98 804.197 1785.08 C 803.52 1802.2 801.96 1823.69 802.418 1840.32 C 803.185 1868.15 814.371 1921.47 828.813 1945.11 C 783.126 1943.67 736.837 1943.4 691.102 1942.89 C 682.275 1942.8 673.264 1942.99 664.451 1943.5 z" fill="rgb(247,198,194)" transform="translate(0,0)"></path>
<path d="M 1161.85 1730.74 C 1173.45 1736.1 1184.78 1742.03 1195.78 1748.52 C 1149.31 1837.09 1078.17 1890.67 998.832 1944.92 C 998.289 1945.41 997.746 1945.9 997.203 1946.39 C 991.092 1945.6 975.379 1946.06 968.539 1946.15 L 926.463 1946.56 C 919.832 1946.68 907.707 1947.42 901.644 1945.98 C 1015.28 1908.56 1103.94 1835.79 1161.85 1730.74 z" fill="rgb(247,198,194)" transform="translate(0,0)"></path>
<path d="M 816.623 1777.13 C 821.71 1773.09 828.22 1767.56 833.774 1764.46 C 838.13 1781.46 840.174 1800.25 842.438 1817.75 C 848.701 1866.17 855.6 1903.26 881.059 1946 C 867.719 1944.36 855.593 1945.02 842.307 1946.4 C 817.792 1882.9 811.518 1845.1 816.623 1777.13 z" fill="rgb(247,198,194)" transform="translate(0,0)"></path>
<path d="M 443.323 788.085 C 450.421 757.672 463.449 727.92 476.976 699.84 C 527.859 593.142 604.369 500.703 699.676 430.774 C 850.208 320.019 1055.67 276.524 1239.23 304.816 C 1379.41 325.979 1511.21 384.819 1620.56 475.052 C 1642.34 492.745 1679.03 525.078 1695.31 547.257 C 1700.5 548.881 1710.74 562.24 1714.79 567.112 C 1750.27 609.787 1781.17 656.066 1806.99 705.191 C 1885.83 859.578 1899.93 1039.01 1846.17 1203.81 C 1841.06 1219.92 1829.2 1252.4 1821.18 1266.55 C 1793.27 1241.42 1764.38 1224.13 1727.26 1215.66 C 1677.63 1206.13 1629.66 1216.6 1587.86 1245.13 C 1581.15 1249.71 1560.8 1263.22 1559.05 1271.1 C 1558.32 1274.37 1559.14 1276.68 1561.18 1279.23 C 1563.1 1281.64 1565.64 1283.68 1568.83 1283.93 C 1575.04 1284.42 1610.29 1256.38 1619.52 1251.6 C 1677.8 1221.34 1748.77 1230.62 1797.32 1274.85 C 1832.72 1307.75 1851.61 1345.93 1852.84 1394.53 C 1855.86 1514.38 1746.12 1612.44 1629.5 1613.59 C 1559.88 1614.28 1509.36 1588.83 1455.08 1548.26 C 1448.06 1543.02 1439.86 1533.23 1430.86 1541.97 C 1427.11 1545.73 1426.72 1551.43 1428.16 1556.22 C 1440.48 1567.04 1454.51 1575.2 1465.78 1584.83 C 1430.01 1607.32 1385.34 1624.23 1345.2 1638.06 C 1202.2 1687.33 1033.67 1708.93 884.635 1677.82 C 817.393 1663.78 735.79 1639.42 673.811 1611.86 C 589.726 1575.37 518.509 1534.82 449.592 1473.2 C 341.803 1376.82 259.791 1242.52 258.811 1094.68 C 258.119 990.217 301.815 898.542 380.648 831.485 C 389.162 824.192 398.268 817.621 407.873 811.84 C 418.181 805.533 435.405 796.658 443.323 788.085 z" fill="rgb(254,254,254)" transform="translate(0,0)"></path>
<path d="M 1695.31 547.257 C 1700.5 548.881 1710.74 562.24 1714.79 567.112 C 1750.27 609.787 1781.17 656.066 1806.99 705.191 C 1885.83 859.578 1899.93 1039.01 1846.17 1203.81 C 1841.06 1219.92 1829.2 1252.4 1821.18 1266.55 C 1793.27 1241.42 1764.38 1224.13 1727.26 1215.66 L 1728.22 1215.58 C 1731.34 1213.32 1737.69 1199.06 1740.02 1194.68 C 1761.28 1155.84 1778.08 1115.39 1791.45 1073.58 C 1843.76 909.926 1809.77 738.46 1723.36 593.248 C 1714.68 578.661 1703.85 563.182 1695.77 548.123 L 1695.31 547.257 z" fill="rgb(247,198,194)" transform="translate(0,0)"></path>
<path d="M 1428.16 1556.22 C 1440.48 1567.04 1454.51 1575.2 1465.78 1584.83 C 1430.01 1607.32 1385.34 1624.23 1345.2 1638.06 C 1202.2 1687.33 1033.67 1708.93 884.635 1677.82 C 817.393 1663.78 735.79 1639.42 673.811 1611.86 C 686.149 1612.23 734.115 1626.73 748.592 1630.51 C 777.476 1638.01 806.701 1644.14 836.166 1648.87 C 990.155 1672.68 1148.91 1659.66 1296.05 1609.6 C 1339.99 1594.65 1387 1577.63 1428.16 1556.22 z" fill="rgb(247,198,194)" transform="translate(0,0)"></path>
<path d="M 659.74 914.395 C 712.395 905.383 804.873 945.267 850.717 972.355 C 927.613 1017.79 1004.49 1085.32 1027.27 1174.98 C 1040.45 1227.95 1031.88 1283.99 1003.48 1330.61 C 974.296 1379.12 930.538 1405.1 876.93 1418.71 C 872.689 1419.46 868.433 1420.11 864.165 1420.68 C 774.709 1432.39 672.629 1402.11 601.768 1346.97 C 550.992 1308.24 517.833 1250.79 509.692 1187.45 C 497.07 1084.43 537.854 928.578 659.74 914.395 z" fill="rgb(170,68,75)" transform="translate(0,0)"></path>
<path d="M 661.692 933.358 C 668.299 932.648 676.317 932.98 683.085 933.069 C 670.392 944.204 656.723 957.195 652.307 973.866 C 646.812 993.174 657.243 1006.53 675.362 1012.18 C 784.21 1046.16 887.719 1105.21 961.423 1193.55 C 978.882 1214.48 994.682 1239.33 1008.57 1263.13 C 1006.42 1271.94 1004.68 1277 1001.22 1285.31 C 990.99 1278.12 982.934 1272.14 971.383 1266.96 C 931.349 1248.99 886.13 1251.69 845.758 1266.51 C 831.91 1271.51 822.18 1277.6 810.203 1285.91 C 798.855 1265.12 790.749 1251.76 770.951 1237.25 C 747.937 1220.37 717.042 1215.54 689.249 1220.57 C 642.327 1229.07 605.151 1256.73 578.279 1295.19 C 554.444 1263.92 536.186 1227.79 531.396 1188.43 C 520.059 1095.27 551.646 948.491 661.692 933.358 z" fill="rgb(232,115,120)" transform="translate(0,0)"></path>
<path d="M 696.447 1237.3 C 755.801 1230.73 780.423 1265.06 804.067 1313.11 C 838.039 1287.42 868.245 1272.07 912.084 1273.36 C 946.797 1274.39 967.697 1282.79 994.054 1304.51 C 978.695 1339.18 945.252 1369.42 911.258 1385.45 C 876.963 1399.29 850.632 1402.71 813.511 1401.84 C 736.753 1400.04 642.372 1364.78 589.553 1307.94 C 610.12 1272.28 656.242 1244.12 696.447 1237.3 z" fill="rgb(247,198,194)" transform="translate(0,0)"></path>
<path d="M 705.873 938.879 C 721.835 937.396 751.176 949.315 766.778 955.262 C 879.018 998.042 1017.49 1099.04 1012.6 1232.3 C 1008.85 1223.81 1005.9 1219.21 1000.79 1211.49 C 989.207 1194.86 967.588 1166.75 953.665 1152.65 C 893.379 1091.59 817.425 1044.18 738.012 1012.93 C 727.698 1008.76 717.216 1005.02 706.592 1001.72 C 697.527 998.978 678.566 994.841 672.461 988.676 C 666.15 973.34 694.402 946.935 705.873 938.879 z" fill="rgb(254,254,254)" transform="translate(0,0)"></path>
<path d="M 1217.22 672.375 C 1330.12 667.298 1271.17 984.308 1097.86 958.671 C 1085.09 955.483 1072.66 950.659 1062.56 942.151 C 1001.18 890.473 1057.91 802.578 1096.58 756.095 C 1125.12 721.795 1172.41 676.918 1217.22 672.375 z" fill="rgb(170,68,75)" transform="translate(0,0)"></path>
<path d="M 1070.5 846.738 C 1093.93 817.686 1125.33 839.417 1108.13 869.757 C 1138.38 873.451 1170.19 883.579 1175.63 918.577 C 1175.39 927.63 1159.57 932.38 1153.37 934.734 C 1111.39 950.685 1049.79 936.578 1054.85 880.451 C 1056.04 867.26 1059.34 855.592 1070.5 846.738 z" fill="rgb(232,115,120)" transform="translate(0,0)"></path>
<path d="M 1070.5 846.738 C 1093.93 817.686 1125.33 839.417 1108.13 869.757 L 1107.24 870.587 C 1098.93 878.167 1095.51 877.355 1084.66 876.871 C 1071.2 869.542 1067.49 861.802 1070.5 846.738 z" fill="rgb(254,254,254)" transform="translate(0,0)"></path>
<path d="M 1214.51 719.289 C 1276.03 714.502 1258.92 811.512 1187.52 825.947 C 1116.53 831.626 1148.24 729.043 1214.51 719.289 z" fill="rgb(254,254,254)" transform="translate(0,0)"></path>
<path d="M 765.603 528.429 C 820.188 524.79 833.924 568.031 824.962 613.444 C 816.188 658.846 789.572 699.685 758.388 733.05 C 749.131 742.955 734.821 752.92 722.533 758.103 C 701.457 766.993 673.137 765.572 659.605 744.644 C 639.446 712.686 659.715 672.454 678.449 644.967 C 704.87 606.202 755.224 546.869 808.174 558.391 C 811.059 560.282 810.996 560.669 814.267 561.346 L 814.438 560.997 C 805.232 547.941 778.801 543.55 763.804 546.025 C 697.879 556.906 638.584 602.542 597.206 653.352 C 582.33 671.619 570.898 692.263 556.749 709.967 L 556.031 710.849 C 580.582 626.387 675.905 535.08 765.603 528.429 z" fill="rgb(170,68,75)" transform="translate(0,0)"></path>
<path d="M 783.985 588.295 C 831.225 591.857 785.997 655.73 746.018 662.743 C 701.414 661.167 741.904 594.499 783.985 588.295 z" fill="rgb(254,254,254)" transform="translate(0,0)"></path>
<path d="M 670.023 694.621 C 675.059 677.016 691.192 673.643 699.655 691.606 L 700.422 695.455 C 703.494 697.114 708.249 696.989 711.906 697.335 C 729.699 699.017 738.446 707.505 744.667 723.438 C 733.242 735.987 717.358 743.567 700.415 744.554 C 681.9 745.506 666.14 733.812 666.548 714.47 C 666.667 708.813 667.641 699.678 670.023 694.621 z" fill="rgb(232,115,120)" transform="translate(0,0)"></path>
<path d="M 670.023 694.621 C 675.059 677.016 691.192 673.643 699.655 691.606 C 699.069 700.74 694.216 709.482 683.855 708.771 C 679.654 708.454 675.805 706.308 673.326 702.901 C 671.404 700.289 670.8 697.695 670.023 694.621 z" fill="rgb(254,254,254)" transform="translate(0,0)"></path>
<path d="M 1611.59 1558.82 C 1554.76 1545.97 1523.85 1505.27 1532.57 1445.86 C 1545.79 1355.91 1672.8 1272.14 1753.55 1334.09 C 1772.7 1349.01 1785.2 1370.88 1788.31 1394.96 C 1791.69 1422.32 1786.19 1453.12 1769.07 1475.29 C 1770.01 1468.79 1770.66 1463.79 1771.09 1457.25 C 1771.46 1436.13 1760.42 1401.37 1744.9 1385.71 C 1731.31 1370.53 1711.39 1366.8 1692 1366.88 C 1687.09 1366.9 1675 1366.57 1672.02 1370.21 C 1668.91 1374.02 1671.97 1398.26 1671.74 1402.93 C 1670.21 1434.57 1651.83 1464.38 1622.97 1478.06 C 1612.64 1482.96 1598.71 1487.14 1590.12 1494.48 C 1582.46 1513.43 1582.75 1520.86 1586.33 1540.27 C 1595.19 1549.25 1600.55 1552.19 1611.59 1558.82 z" fill="rgb(247,198,194)" transform="translate(0,0)"></path>
<path d="M 1611.59 1558.82 C 1554.76 1545.97 1523.85 1505.27 1532.57 1445.86 C 1545.79 1355.91 1672.8 1272.14 1753.55 1334.09 C 1772.7 1349.01 1785.2 1370.88 1788.31 1394.96 C 1791.69 1422.32 1786.19 1453.12 1769.07 1475.29 C 1770.01 1468.79 1770.66 1463.79 1771.09 1457.25 C 1775.96 1425.94 1773.66 1393 1754.27 1366.69 C 1741.85 1349.7 1723.08 1338.47 1702.24 1335.54 C 1677.34 1331.88 1644.33 1338.59 1623.99 1353.61 C 1627.61 1355.22 1633.37 1357.57 1636.2 1360.19 C 1657.89 1380.28 1655.46 1414.53 1643.72 1439.1 C 1637.91 1451.3 1629.55 1462.11 1619.21 1470.79 C 1627.21 1450.52 1634.83 1432.62 1635.39 1410.36 C 1635.98 1386.66 1629.85 1376.86 1613.66 1360.49 C 1565.02 1397.37 1526.89 1466.23 1568.85 1522.2 C 1573.95 1528.89 1579.82 1534.96 1586.33 1540.27 C 1595.19 1549.25 1600.55 1552.19 1611.59 1558.82 z" fill="rgb(170,68,75)" transform="translate(0,0)"></path>
<path d="M 1214.58 1010.58 C 1253.98 1036.35 1302.02 1152.62 1248.08 1179.38 C 1200.84 1189.96 1190.14 1140.31 1193.35 1104.74 C 1195.56 1080.27 1201.55 1030.72 1214.58 1010.58 z" fill="rgb(170,68,75)" transform="translate(0,0)"></path>
<path d="M 1218.8 1028.47 C 1246.01 1052.82 1282.68 1140.81 1245.97 1169.79 C 1210.32 1180.15 1204.02 1139.45 1204.46 1113.96 C 1204.99 1082.85 1210.14 1058 1218.8 1028.47 z" fill="rgb(254,254,254)" transform="translate(0,0)"></path>
<path d="M 1236.78 662.238 C 1278.34 658.898 1305.42 688.939 1325.47 721.964 C 1381.04 813.531 1360.38 970.502 1264.51 1027.19 L 1252.09 1032.82 C 1319.71 977.704 1345.01 878.237 1325.09 794.739 C 1315.57 754.838 1287.63 702.097 1254.77 675.744 C 1247.44 669.859 1235.01 669.992 1227.81 665.645 C 1229.76 663.451 1233.74 662.975 1236.78 662.238 z" fill="rgb(170,68,75)" transform="translate(0,0)"></path>
<path d="M 561.231 755.368 C 568.719 754.669 588.401 750.877 586.669 764.91 C 585.68 772.922 577.631 782.979 572.353 789.224 C 557.669 806.599 539.473 822.698 519.492 833.758 C 508.913 839.537 495.198 843.996 483.264 842.232 C 468.318 837.627 456.888 828.28 455.092 812.046 C 450.597 771.426 532.534 759.175 561.231 755.368 z" fill="rgb(170,68,75)" transform="translate(0,0)"></path>
<path d="M 567.933 765.387 C 571.411 764.92 571.488 764.471 574.571 765.564 C 573.481 774.124 543.818 802.447 536.588 808.563 C 521.131 821.637 499.021 837.553 478.12 828.326 C 428.616 786.317 545.4 768.327 567.933 765.387 z" fill="rgb(254,254,254)" transform="translate(0,0)"></path>
<path d="M 1215.21 496.643 C 1217.26 500.421 1219.17 507.082 1220.89 511.332 C 1248.87 580.446 1306.19 633.176 1363.75 678.148 C 1371.97 684.566 1417.73 714.234 1421.24 718.738 L 1418.69 718.678 C 1391.13 710.265 1352.21 688.393 1327.39 671.839 C 1281.55 641.271 1222.63 592.86 1210.13 536.977 C 1207.38 524.666 1208.04 507.221 1215.21 496.643 z" fill="rgb(170,68,75)" transform="translate(0,0)"></path>
<path d="M 940.842 440.91 C 942.133 442.104 942.436 443.792 941.716 445.354 C 920.724 490.889 868.538 496.82 824.834 495.939 C 778.57 495.006 737.972 490.272 693.955 480.127 C 687.338 478.363 683.83 477.304 677.463 474.77 C 696.257 474.774 717.647 477.872 738.015 477.982 C 797.003 478.301 889.3 470.567 940.842 440.91 z" fill="rgb(170,68,75)" transform="translate(0,0)"></path>
<path d="M 615.096 1422.06 C 614.283 1417.05 612.811 1411.63 614.967 1407.07 C 619.403 1406.96 630.179 1422.17 635.072 1426.22 C 670.194 1455.23 711.033 1457.11 754.469 1457.28 C 748.832 1462.25 746.35 1464.21 740.062 1468.29 C 727.605 1482.95 698.219 1490.67 679.601 1490.47 C 645.616 1490.12 613.942 1455.59 615.096 1422.06 z" fill="rgb(170,68,75)" transform="translate(0,0)"></path>
<path d="M 615.096 1422.06 C 634.724 1471.76 693.398 1484.13 740.062 1468.29 C 727.605 1482.95 698.219 1490.67 679.601 1490.47 C 645.616 1490.12 613.942 1455.59 615.096 1422.06 z" fill="rgb(247,198,194)" transform="translate(0,0)"></path>
<path d="M 804.864 789.192 C 807.199 788.993 809.677 788.788 812.014 788.766 C 823.592 788.672 834.691 793.38 842.67 801.769 C 854.356 813.986 855.264 826.283 854.786 841.825 C 836.453 819.988 811.792 787.34 783.679 826.163 C 775.29 837.748 774.631 852.082 777.745 865.815 C 783.898 882.434 794.922 885.025 807.654 893.331 L 806.741 895.067 C 784.494 907.419 761.486 890.313 756.121 867.328 C 752.219 850.208 755.417 832.236 764.986 817.512 C 774.295 802.931 787.915 793.024 804.864 789.192 z" fill="rgb(170,68,75)" transform="translate(0,0)"></path>
<path d="M 1282.32 1245.72 C 1299.4 1252.22 1320.33 1341.72 1269.23 1336.96 C 1228.89 1322.4 1259.07 1262.08 1282.32 1245.72 z" fill="rgb(170,68,75)" transform="translate(0,0)"></path>
<path d="M 1281.66 1260.61 C 1290.11 1267.32 1299.75 1333.68 1270.38 1327.47 C 1247.07 1310.78 1266.73 1276.31 1281.66 1260.61 z" fill="rgb(254,254,254)" transform="translate(0,0)"></path>
<path d="M 422.715 918.34 C 431.656 918.191 440.145 921.319 438.992 931.526 C 436.25 955.78 422.915 983.194 395.874 983.45 C 353.915 967.81 394.2 922.715 422.715 918.34 z" fill="rgb(170,68,75)" transform="translate(0,0)"></path>
<path d="M 421.845 928.059 C 423.144 927.931 426.238 927.477 426.837 928.207 C 432.879 935.579 420.622 956.995 416.015 962.592 C 409.61 970.374 406.244 971.598 398.656 972.286 C 381.878 966.21 390.89 951.807 399.681 943.155 C 406.579 936.366 413.337 932.432 421.845 928.059 z" fill="rgb(254,254,254)" transform="translate(0,0)"></path>
<path d="M 832.373 1687.11 C 881.011 1699.42 929.034 1709.43 979.227 1712.24 C 1008.18 1713.86 1036.53 1713.28 1065.41 1712.83 C 1075.23 1712.68 1101.66 1709.56 1109.42 1711.75 C 1117.47 1714.02 1137.14 1722.63 1146.61 1726.21 C 1144.15 1731.44 1143.05 1733.37 1139.79 1738.14 C 1084.13 1828.33 997.03 1899.51 894.514 1928.92 C 859.317 1867.7 866.047 1821.35 853.77 1755.82 C 850.003 1734.3 841.708 1706.67 832.373 1687.11 z" fill="rgb(254,254,254)" transform="translate(0,0)"></path>
<path d="M 832.373 1687.11 C 881.011 1699.42 929.034 1709.43 979.227 1712.24 C 1008.18 1713.86 1036.53 1713.28 1065.41 1712.83 C 1075.23 1712.68 1101.66 1709.56 1109.42 1711.75 C 1117.47 1714.02 1137.14 1722.63 1146.61 1726.21 C 1144.15 1731.44 1143.05 1733.37 1139.79 1738.14 C 1123.2 1740.45 1101.16 1750.51 1083.09 1754.11 C 1019.83 1766.73 956.196 1767.9 892.192 1760.53 C 884.109 1759.62 860.358 1757.69 853.77 1755.82 C 850.003 1734.3 841.708 1706.67 832.373 1687.11 z" fill="rgb(247,198,194)" transform="translate(0,0)"></path>
<path d="M 325.754 756.848 C 331.358 749.309 336.253 743.157 342.863 736.376 C 362.582 716.145 393.683 699.436 420.121 718.625 C 427.372 723.887 431.911 730.446 437.254 737.577 C 430.53 752.102 427.106 763.517 422.386 778.701 C 416.969 781.709 398.919 792.506 394.361 794.535 C 388.509 799.868 372.212 811.21 364.439 817.608 C 336.042 840.984 321.042 860.792 299.611 889.617 C 298.064 883.647 296.822 877.602 295.89 871.506 C 289.68 831.614 301.983 789.081 325.754 756.848 z" fill="rgb(254,254,254)" transform="translate(0,0)"></path>
<path d="M 325.754 756.848 C 330.402 771.254 336.721 779.107 350.348 786.642 C 366.199 795.407 378.958 792.662 394.361 794.535 C 388.509 799.868 372.212 811.21 364.439 817.608 C 336.042 840.984 321.042 860.792 299.611 889.617 C 298.064 883.647 296.822 877.602 295.89 871.506 C 289.68 831.614 301.983 789.081 325.754 756.848 z" fill="rgb(247,198,194)" transform="translate(0,0)"></path>
<path d="M 256.957 409.274 C 277.924 408.612 295.679 419.439 310.821 432.993 C 318.894 440.325 326.266 448.394 332.84 457.095 C 342.997 470.281 370.585 512 373.793 530.193 C 374.122 532.053 372.065 534.185 370.406 534.987 C 364.96 537.618 354.3 532.884 348.765 530.976 C 322.132 522.757 286.037 503.886 261.958 489.39 C 247.751 480.207 228.097 465.584 225.166 447.692 C 221.459 425.056 236.64 412.755 256.957 409.274 z" fill="rgb(170,68,75)" transform="translate(0,0)"></path>
<path d="M 255.932 420.099 C 301.296 417.615 344.281 487.938 360.489 523.174 C 354.795 521.459 349.146 519.347 343.538 517.345 C 333.944 513.925 324.51 510.07 315.266 505.791 C 289.633 494.014 247.974 473.976 235.878 447.056 C 229.511 432.887 243.639 423.53 255.932 420.099 z" fill="rgb(254,254,254)" transform="translate(0,0)"></path>
<path d="M 107.343 577.134 C 152.957 574.394 183.52 592.678 218.787 620.155 C 225.6 625.463 238.443 633.48 236.131 642.991 C 230.399 649.915 207.613 651.35 197.991 652.644 C 163.025 657.311 83.2076 668.624 71.7226 622.545 C 69.4051 613.505 70.9969 603.907 76.1087 596.099 C 83.7764 584.182 94.4047 580.145 107.343 577.134 z" fill="rgb(170,68,75)" transform="translate(0,0)"></path>
<path d="M 115.102 587.339 C 156.373 583.694 194.467 616.564 224.077 638.02 C 212.383 640.224 200.602 641.937 188.764 643.155 C 163.761 646.846 87.7947 652.994 82.049 619.749 C 80.8712 612.964 82.5895 605.996 86.7867 600.536 C 94.2127 590.84 103.983 588.96 115.102 587.339 z" fill="rgb(254,254,254)" transform="translate(0,0)"></path>
<path d="M 457.941 258.298 C 498.862 260.132 518.844 321.312 523.905 354.912 C 525.638 373.569 532.004 400.629 524.158 418.212 C 520.937 425.431 510.531 414.811 507.58 412.125 C 477.92 383.049 435.476 341.711 426.529 299.943 C 421.976 278.689 436.513 261.242 457.941 258.298 z" fill="rgb(170,68,75)" transform="translate(0,0)"></path>
<path d="M 458.853 268.251 C 504.851 272.885 516.962 368.923 516.768 405.992 C 513.285 402.898 509.047 398.624 505.614 395.337 C 481.998 372.391 447.35 334.293 437.843 302.278 C 432.836 285.416 441.09 271.54 458.853 268.251 z" fill="rgb(254,254,254)" transform="translate(0,0)"></path>
<path d="M 182.105 847.399 C 189.435 846.771 195.302 845.261 200.117 851.488 C 201.72 858.431 193.213 870.496 188.719 875.622 C 161.426 906.749 127.379 970.065 78.4468 958.525 C 52.3604 946.522 52.5375 914.304 69.7737 894.774 C 96.8706 864.071 142.783 851.434 182.105 847.399 z" fill="rgb(170,68,75)" transform="translate(0,0)"></path>
<path d="M 178.571 859.38 C 180.215 859.069 186.544 858.933 188.485 858.85 C 167.874 883.756 148.148 913.061 124.138 934.432 C 110.886 946.227 98.8732 950.316 81.3042 948.827 C 76.1295 945.529 69.5046 937.496 69.2009 931.388 C 66.6594 880.278 143.381 863.868 178.571 859.38 z" fill="rgb(254,254,254)" transform="translate(0,0)"></path>
<metadata><recraft-signature>{"signed_by": "recraft", "signature_b64": "EHH4F/91jhpLf7i292XJMH9Wyq+btreDR7TNi62ESAYIzLHktsSPYMsWeLGSUBJJDRNch04w98NVFCIWghFZBw==", "signing_algo": "Ed25519", "generation_timestamp": 1773763950, "identifier": "299cfe91-f6c9-42b7-bc33-b983bd4f0685"}</recraft-signature></metadata></svg>